<svg width="45" height="45" viewBox="0 0 45 45" fill="none" xmlns="http://www.w3.org/2000/svg">
<path d="M30.5008 24.9223C28.7458 24.9223 27.1733 25.6985 26.0965 26.9191L23.3363 24.969C23.6398 24.1449 23.7959 23.2738 23.7976 22.3956C23.7976 21.5058 23.6359 20.6554 23.3511 19.8633L26.1063 17.9339C27.1828 19.1493 28.7511 19.9209 30.5008 19.9209C33.7377 19.9209 36.373 17.2913 36.373 14.0597C36.373 10.8271 33.7377 8.19845 30.5008 8.19845C27.2626 8.19845 24.6273 10.8271 24.6273 14.0597C24.6273 14.638 24.7152 15.1952 24.873 15.7243L22.1168 17.6537C20.9407 16.1977 19.2678 15.2278 17.4199 14.9305V11.6153C20.0802 11.0577 22.0851 8.69978 22.0851 5.8806C22.0851 2.64728 19.4498 0.0193481 16.213 0.0193481C12.9751 0.0193481 10.3394 2.64763 10.3394 5.8806C10.3394 8.66146 12.2923 10.992 14.8988 11.5893V14.9456C11.3421 15.569 8.62695 18.6687 8.62695 22.3956C8.62695 26.1404 11.3681 29.2511 14.9523 29.8526V33.3984C12.3184 33.975 10.3398 36.3196 10.3398 39.1194C10.3398 42.3524 12.9747 44.9807 16.213 44.9807C19.4498 44.9807 22.0851 42.3524 22.0851 39.1194C22.0851 36.3196 20.1062 33.9754 17.4737 33.3984V29.8526C19.2864 29.5473 20.9269 28.5949 22.0907 27.1719L24.8688 29.1358C24.7094 29.6706 24.6281 30.2257 24.6273 30.7839C24.6273 34.0165 27.2626 36.6448 30.5008 36.6448C33.7377 36.6448 36.373 34.0165 36.373 30.7839C36.373 27.5513 33.7377 24.9223 30.5008 24.9223ZM30.5008 11.217C32.0706 11.217 33.3474 12.4931 33.3474 14.0597C33.3474 15.6252 32.0706 16.901 30.5008 16.901C28.9297 16.901 27.6525 15.6252 27.6525 14.0597C27.6525 12.4928 28.9297 11.217 30.5008 11.217ZM13.365 5.88025C13.365 4.31368 14.6418 3.03927 16.213 3.03927C17.7827 3.03927 19.0599 4.31368 19.0599 5.8806C19.0599 7.44751 17.7827 8.72193 16.213 8.72193C14.6418 8.72193 13.365 7.44716 13.365 5.88025ZM19.0599 39.1194C19.0599 40.6863 17.7827 41.9608 16.213 41.9608C14.6418 41.9608 13.365 40.6863 13.365 39.1194C13.365 37.5525 14.6418 36.2781 16.213 36.2781C17.7827 36.2781 19.0599 37.5525 19.0599 39.1194ZM16.2116 26.3591C14.0227 26.3591 12.2414 24.5806 12.2414 22.3956C12.2414 20.2092 14.0227 18.431 16.2116 18.431C18.4018 18.431 20.1832 20.2092 20.1832 22.3956C20.1832 24.5806 18.4022 26.3591 16.2116 26.3591ZM30.5008 33.6252C28.9297 33.6252 27.6525 32.3508 27.6525 30.7839C27.6525 29.217 28.9297 27.9422 30.5008 27.9422C32.0706 27.9422 33.3474 29.2166 33.3474 30.7835C33.3474 32.3504 32.0706 33.6252 30.5008 33.6252Z" fill="white"/>
</svg>
