<svg width="31" height="32" viewBox="0 0 31 32" fill="none" xmlns="http://www.w3.org/2000/svg">
<path d="M14.5438 0.100403C18.9316 0.100403 22.5302 0.809652 25.035 1.76642C26.2868 2.2446 27.2696 2.78629 27.9412 3.33478C28.6082 3.87964 28.9871 4.44772 28.9871 4.98126V4.99396L28.9295 5.44025V5.44122L27.6014 14.8035C28.5158 15.3285 29.2061 15.7999 29.6883 16.2391C30.1795 16.6865 30.465 17.109 30.5438 17.5291L30.5623 17.6678C30.5877 17.9894 30.4897 18.2914 30.2771 18.5447C29.9772 18.9021 29.4915 19.0681 28.8123 19.0682C28.3296 19.0682 27.7391 18.982 27.033 18.8182L25.701 28.2156C25.6771 28.8248 25.2817 29.3496 24.6492 29.7899C24.0122 30.2333 23.1191 30.6026 22.0691 30.8992C19.9675 31.4928 17.21 31.7996 14.5398 31.7996C12.3876 31.7996 9.6059 31.5615 7.35039 31.0027C6.22347 30.7236 5.2208 30.3627 4.49297 29.907C3.77071 29.4548 3.2989 28.8957 3.27422 28.2137L0.154102 5.41876L0.153126 5.41779L0.100391 4.99396L0.0994148 4.98126H0.100391C0.100391 4.44771 0.479265 3.87965 1.14629 3.33478C1.81786 2.78627 2.80071 2.24462 4.05254 1.76642C6.55723 0.809652 10.1557 0.100403 14.5438 0.100403ZM4.5916 28.0672L4.59258 28.0682C4.5964 28.0975 4.59744 28.1272 4.59746 28.157C4.59746 28.2266 4.63793 28.3209 4.74688 28.4373C4.85426 28.552 5.01843 28.6779 5.24102 28.8084C5.68606 29.0693 6.34942 29.342 7.21074 29.5897C8.93221 30.0845 11.4331 30.4754 14.5398 30.4754C17.6142 30.4754 20.0894 30.0845 21.7928 29.5897C22.6449 29.3421 23.3008 29.0692 23.741 28.8084C23.9612 28.6779 24.1241 28.553 24.2303 28.4383C24.3111 28.3511 24.3537 28.2761 24.3699 28.2147L24.3777 28.157C24.3776 28.1258 24.38 28.0943 24.3846 28.0633L25.743 18.4705C22.3021 17.4428 17.6437 15.3242 15.3592 14.244C15.1169 14.4282 14.8177 14.5447 14.4881 14.5447C13.688 14.5447 13.0369 13.8931 13.0369 13.0926C13.037 12.2921 13.6881 11.6404 14.4881 11.6404C15.2753 11.6405 15.9154 12.27 15.9373 13.0516C17.8912 13.9737 22.5388 16.1 25.9314 17.1424L27.3172 7.36407C26.0541 8.16625 24.1665 8.78051 21.993 9.19806C19.7073 9.63715 17.0961 9.86212 14.5438 9.86212C11.9875 9.86212 9.37209 9.63662 7.08379 9.19611C4.90671 8.77698 3.0167 8.16059 1.75566 7.35529L4.5916 28.0672ZM27.2195 17.5008C28.1061 17.7133 28.6286 17.7542 28.9275 17.742C29.0741 17.736 29.1647 17.7159 29.2176 17.7C29.1908 17.6458 29.1332 17.5526 29.0066 17.4168C28.7711 17.1641 28.3066 16.7743 27.4002 16.2215L27.2195 17.5008ZM14.5438 1.42462C10.092 1.42462 6.80916 2.14887 4.6375 2.96271C3.55159 3.36967 2.74543 3.79917 2.20977 4.16974C1.94168 4.35522 1.74309 4.52479 1.61211 4.66779C1.54674 4.73918 1.49936 4.80261 1.46856 4.85626C1.43732 4.91075 1.42596 4.94978 1.42461 4.97443V5.19611C1.53598 5.56881 1.93743 5.97007 2.62383 6.3631C3.31073 6.75637 4.26158 7.13017 5.42754 7.45294C7.75917 8.09837 10.9365 8.5379 14.5438 8.5379C18.1447 8.5379 21.3179 8.09961 23.6492 7.45587C24.8151 7.13392 25.7672 6.76147 26.4559 6.36896C27.144 5.97671 27.548 5.57561 27.6629 5.20294V4.97443L27.6521 4.92657C27.6453 4.90691 27.6346 4.88353 27.6189 4.85626C27.5881 4.8025 27.5409 4.73834 27.4754 4.66681C27.3444 4.52381 27.1458 4.35516 26.8777 4.16974C26.3419 3.79909 25.5352 3.3697 24.449 2.96271C22.2773 2.14895 18.9948 1.42462 14.5438 1.42462Z" fill="white" stroke="white" stroke-width="0.2"/>
</svg>
