<svg width="45" height="45" viewBox="0 0 45 45" fill="none" xmlns="http://www.w3.org/2000/svg">
<g clip-path="url(#clip0_502_7427)">
<path d="M4.31813 3.67361e-06C3.75086 -0.000736731 3.18901 0.11045 2.66478 0.327193C2.14054 0.543937 1.66422 0.86198 1.2631 1.2631C0.86198 1.66422 0.543937 2.14054 0.327193 2.66478C0.11045 3.18901 -0.000736731 3.75086 3.67361e-06 4.31813V40.6819C-0.000736731 41.2492 0.11045 41.811 0.327193 42.3352C0.543937 42.8595 0.86198 43.3358 1.2631 43.7369C1.66422 44.138 2.14054 44.4561 2.66478 44.6728C3.18901 44.8896 3.75086 45.0007 4.31813 45H40.6819C41.2492 45.0007 41.811 44.8896 42.3352 44.6728C42.8595 44.4561 43.3358 44.138 43.7369 43.7369C44.138 43.3358 44.4561 42.8595 44.6728 42.3352C44.8896 41.811 45.0007 41.2492 45 40.6819V4.31813C45.0007 3.75086 44.8896 3.18901 44.6728 2.66478C44.4561 2.14054 44.138 1.66422 43.7369 1.2631C43.3358 0.86198 42.8595 0.543937 42.3352 0.327193C41.811 0.11045 41.2492 -0.000736731 40.6819 3.67361e-06H4.31813ZM19.65 5.76C27.3338 5.76 32.8275 8.45625 34.05 9.0675L31.8113 13.8488C27.2325 11.8669 22.4494 11.205 21.1763 11.205C18.225 11.205 17.1075 12.9338 17.1075 14.5106V30.4369C17.1075 32.0663 18.225 33.795 21.1763 33.795C22.4494 33.795 27.2325 33.0825 31.8113 31.1513L34.05 35.8313C33.2344 36.3394 27.2306 39.24 19.65 39.24C17.565 39.24 10.95 38.7825 10.95 30.54V14.4619C10.95 6.2175 17.565 5.76 19.65 5.76Z" fill="white"/>
</g>
<defs>
<clipPath id="clip0_502_7427">
<rect width="45" height="45" fill="white"/>
</clipPath>
</defs>
</svg>
