<svg width="45" height="45" viewBox="0 0 45 45" fill="none" xmlns="http://www.w3.org/2000/svg">
<path d="M29.4121 24.7625C28.7184 24.764 28.0267 24.6886 27.3496 24.5375C27.744 25.3902 28.0458 26.2829 28.2496 27.2H29.4121C30.6869 27.1984 31.9531 26.9916 33.1621 26.5875L31.9996 24.325C31.1611 24.5883 30.2905 24.7355 29.4121 24.7625ZM22.9496 22.3375L22.4996 21.8625C21.5237 20.9083 20.771 19.75 20.2955 18.4706C19.8201 17.1912 19.6336 15.8225 19.7496 14.4625C19.8765 12.6408 20.5471 10.899 21.6746 9.46251L21.5746 11.25C21.5733 11.5629 21.6895 11.8649 21.9001 12.0964C22.1107 12.3278 22.4005 12.4718 22.7121 12.5H22.8246C23.1375 12.5013 23.4395 12.3851 23.671 12.1745C23.9024 11.9639 24.0464 11.6742 24.0746 11.3625L24.4996 6.25001C24.5146 6.06895 24.4899 5.88681 24.4273 5.71627C24.3647 5.54572 24.2657 5.39088 24.1371 5.26251C24.0003 5.15167 23.8416 5.07098 23.6714 5.02575C23.5012 4.98051 23.3234 4.97174 23.1496 5.00001L18.0371 5.43751C17.7056 5.46569 17.3988 5.62441 17.1843 5.87875C16.9699 6.1331 16.8652 6.46224 16.8934 6.79376C16.9215 7.12528 17.0803 7.43203 17.3346 7.64652C17.589 7.86101 17.9181 7.96569 18.2496 7.93751L19.8621 7.80001C18.3437 9.7 17.4488 12.0224 17.2996 14.45C17.1704 16.1137 17.4017 17.7857 17.9777 19.3518C18.5537 20.918 19.4608 22.3414 20.6371 23.525L21.0246 23.9875C22.6219 25.6382 23.541 27.8287 23.5996 30.125C23.666 31.1651 23.5561 32.209 23.2746 33.2125L25.5246 34.35C26.0073 32.9407 26.1986 31.448 26.0871 29.9625C26.0104 27.1224 24.8939 24.4092 22.9496 22.3375ZM40.4996 22.3875L38.9871 22.5C40.3673 20.7137 41.2185 18.576 41.444 16.3299C41.6695 14.0838 41.2602 11.8196 40.2627 9.79457C39.2651 7.76957 37.7194 6.06511 35.8012 4.87502C33.8831 3.68492 31.6695 3.05695 29.4121 3.06251C28.137 3.05962 26.8701 3.26655 25.6621 3.67501L26.7996 5.92501C28.2267 5.52086 29.728 5.4533 31.1856 5.72765C32.6431 6.002 34.0172 6.61077 35.1996 7.50609C36.3821 8.40141 37.3407 9.55886 38.0001 10.8874C38.6594 12.2159 39.0016 13.6793 38.9996 15.1625C38.9992 17.3058 38.2721 19.3857 36.9371 21.0625L37.0621 19.1375C37.0728 18.9734 37.051 18.8087 36.9981 18.653C36.9451 18.4972 36.862 18.3534 36.7534 18.2298C36.6449 18.1062 36.5131 18.0052 36.3655 17.9325C36.218 17.8598 36.0575 17.8169 35.8934 17.8063C35.7292 17.7956 35.5646 17.8174 35.4088 17.8703C35.2531 17.9233 35.1093 18.0064 34.9857 18.1149C34.8621 18.2234 34.761 18.3553 34.6884 18.5028C34.6157 18.6504 34.5728 18.8109 34.5621 18.975L34.2121 24.075C34.2022 24.2559 34.2317 24.4368 34.2986 24.6051C34.3655 24.7735 34.4682 24.9253 34.5996 25.05C34.712 25.164 34.8464 25.2539 34.9947 25.3141C35.143 25.3742 35.3021 25.4035 35.4621 25.4H35.5871L40.6871 24.875C40.8516 24.8594 41.0113 24.8113 41.1571 24.7336C41.3029 24.6559 41.4318 24.55 41.5364 24.4222C41.641 24.2943 41.7192 24.147 41.7666 23.9887C41.8139 23.8304 41.8294 23.6643 41.8121 23.5C41.7774 23.1818 41.6219 22.889 41.3777 22.682C41.1335 22.475 40.8192 22.3696 40.4996 22.3875ZM5.08711 25.55H5.18711L10.2996 25.1125C10.4638 25.0986 10.6236 25.0524 10.7699 24.9767C10.9162 24.901 11.0462 24.7972 11.1524 24.6713C11.2586 24.5453 11.3389 24.3997 11.3889 24.2427C11.4388 24.0857 11.4573 23.9204 11.4434 23.7563C11.4294 23.5921 11.3833 23.4323 11.3075 23.286C11.2318 23.1397 11.1281 23.0097 11.0021 22.9035C10.8762 22.7973 10.7305 22.7169 10.5736 22.667C10.4166 22.6171 10.2513 22.5986 10.0871 22.6125L8.34961 22.7625C9.9862 21.5552 11.9659 20.9026 13.9996 20.9C14.6847 20.905 15.3674 20.9804 16.0371 21.125C15.6442 20.2729 15.3466 19.38 15.1496 18.4625H13.9996C11.3326 18.4585 8.7394 19.3376 6.62461 20.9625L6.77461 19.325C6.78828 19.1607 6.76933 18.9954 6.71885 18.8385C6.66837 18.6816 6.58735 18.5362 6.48047 18.4108C6.37359 18.2853 6.24294 18.1822 6.09606 18.1074C5.94918 18.0326 5.78895 17.9876 5.62461 17.975C5.29485 17.9473 4.96755 18.0515 4.71448 18.2647C4.46142 18.4779 4.30323 18.7828 4.27461 19.1125L3.83711 24.2125C3.82327 24.3849 3.84535 24.5582 3.90195 24.7216C3.95854 24.885 4.04842 25.0349 4.1659 25.1618C4.28338 25.2887 4.42591 25.3898 4.58448 25.4588C4.74304 25.5277 4.91419 25.5631 5.08711 25.5625V25.55ZM23.0246 35.2875L17.9121 35.625C17.5806 35.6466 17.2712 35.7989 17.052 36.0486C16.8328 36.2982 16.7218 36.6247 16.7434 36.9563C16.7649 37.2878 16.9173 37.5972 17.1669 37.8163C17.4166 38.0355 17.7431 38.1466 18.0746 38.125L19.9996 37.9875C18.584 39.1253 16.8756 39.8399 15.0715 40.049C13.2673 40.258 11.4408 39.953 9.80248 39.1691C8.16414 38.3852 6.78065 37.1544 5.81147 35.6183C4.84229 34.0823 4.32687 32.3037 4.32461 30.4875C4.33361 29.6418 4.45552 28.801 4.68711 27.9875L2.49961 26.825C2.11257 28.016 1.91433 29.2602 1.91211 30.5125C1.92678 32.7763 2.57491 34.9907 3.78313 36.9052C4.99136 38.8196 6.71142 40.3576 8.74858 41.345C10.7857 42.3323 13.0586 42.7296 15.3099 42.4919C17.5613 42.2542 19.7011 41.391 21.4871 40L21.3371 41.475C21.3198 41.6384 21.3348 41.8035 21.3814 41.961C21.4279 42.1186 21.5051 42.2654 21.6084 42.3931C21.7117 42.5208 21.8392 42.6269 21.9835 42.7053C22.1279 42.7837 22.2862 42.8329 22.4496 42.85H22.5871C22.8981 42.8516 23.1984 42.7372 23.4296 42.5291C23.6607 42.3211 23.806 42.0344 23.8371 41.725L24.3621 36.65C24.3807 36.4692 24.3596 36.2864 24.3003 36.1146C24.241 35.9427 24.1449 35.7859 24.0187 35.655C23.8926 35.5241 23.7394 35.4223 23.5699 35.3566C23.4003 35.291 23.2185 35.2631 23.0371 35.275L23.0246 35.2875Z" fill="white"/>
</svg>
