<svg width="45" height="45" viewBox="0 0 45 45" fill="none" xmlns="http://www.w3.org/2000/svg">
<path d="M1.40625 22.5C1.40625 24.4459 1.67941 26.3246 2.14383 28.125H29.5312C32.6377 28.125 35.1562 25.6064 35.1562 22.5C35.1562 19.3936 32.6377 16.875 29.5312 16.875H2.14383C1.66051 18.7112 1.41266 20.6013 1.40625 22.5Z" fill="white"/>
<path d="M39.2681 10.7747C40.0546 10.0508 40.7864 9.26961 41.4573 8.4375C37.3321 3.2973 31.0078 0 23.9066 0C15.0173 0 7.36805 5.17148 3.71777 12.6562H34.4675C36.2471 12.6551 37.9609 11.9833 39.2671 10.7747" fill="white"/>
<path d="M34.4675 32.3438H3.71875C7.36938 39.8285 15.0173 45 23.9065 45C31.0081 45 37.332 41.7013 41.4572 36.5625C40.7868 35.73 40.055 34.9487 39.2681 34.2253C37.9614 33.0168 36.2473 32.3449 34.4675 32.3438Z" fill="white"/>
</svg>
