<svg width="45" height="45" viewBox="0 0 45 45" fill="none" xmlns="http://www.w3.org/2000/svg">
<path d="M16.875 6.125H22V16.375H16.875C15.5158 16.375 14.2121 15.8351 13.251 14.874C12.2899 13.9129 11.75 12.6092 11.75 11.25C11.75 9.89077 12.2899 8.5871 13.251 7.62598C14.2121 6.66485 15.5158 6.125 16.875 6.125Z" fill="white" stroke="#0957DE"/>
<path d="M28.125 6.125C29.4842 6.125 30.7879 6.66485 31.749 7.62598C32.7101 8.5871 33.25 9.89077 33.25 11.25C33.25 12.6092 32.7101 13.9129 31.749 14.874C30.7879 15.8351 29.4842 16.375 28.125 16.375H23V6.125H28.125Z" fill="white" stroke="#0957DE"/>
<path d="M28.125 27.625C25.2945 27.625 23 25.3305 23 22.5C23 19.6695 25.2945 17.375 28.125 17.375C30.9555 17.375 33.25 19.6695 33.25 22.5C33.25 25.3305 30.9555 27.625 28.125 27.625Z" fill="white" stroke="#0957DE"/>
<path d="M16.875 17.375H22V27.625H16.875C15.5158 27.625 14.2121 27.0851 13.251 26.124C12.2899 25.1629 11.75 23.8592 11.75 22.5C11.75 21.1408 12.2899 19.8371 13.251 18.876C14.2121 17.9149 15.5158 17.375 16.875 17.375Z" fill="white" stroke="#0957DE"/>
<path d="M16.875 28.625H22V33.75C22 35.1092 21.4601 36.4129 20.499 37.374C19.5379 38.3351 18.2342 38.875 16.875 38.875C15.5158 38.875 14.2121 38.3351 13.251 37.374C12.2899 36.4129 11.75 35.1092 11.75 33.75C11.75 32.3908 12.2899 31.0871 13.251 30.126C14.1521 29.2249 15.3543 28.6936 16.6211 28.6309L16.875 28.625Z" fill="white" stroke="#0957DE"/>
</svg>
