<svg width="45" height="45" viewBox="0 0 45 45" fill="none" xmlns="http://www.w3.org/2000/svg">
<g clip-path="url(#clip0_502_7388)">
<path d="M18.4314 14.2313C19.9633 14.2406 21.1258 14.6775 21.8852 15.5288C22.6033 16.3369 22.9483 17.505 22.9108 18.9975L22.8845 19.1119C22.8607 19.1654 22.8218 19.2108 22.7724 19.2425C22.7231 19.2742 22.6656 19.2907 22.607 19.29H19.4964C19.3989 19.2896 19.3054 19.2511 19.2357 19.1829C19.166 19.1146 19.1257 19.0219 19.1233 18.9244C19.1258 18.1319 18.882 17.6881 18.392 17.5931L18.167 17.5725C17.5258 17.5725 17.1095 17.9681 17.0983 18.6581C17.0852 19.4269 17.5202 20.1263 18.7577 21.3263C20.3852 22.8563 21.0395 24.2119 21.0077 26.0006C20.957 28.8956 18.9883 30.7688 15.9958 30.7688C14.4677 30.7688 13.2995 30.3581 12.5214 29.5519C11.7339 28.7325 11.3739 27.5306 11.4489 25.9781C11.4524 25.8992 11.4852 25.8243 11.5408 25.7681C11.5971 25.7137 11.6724 25.6834 11.7508 25.6838H14.9683C15.013 25.6866 15.0568 25.6974 15.0977 25.7156C15.1716 25.7542 15.2274 25.8201 15.2533 25.8994C15.2633 25.9369 15.2645 25.9744 15.257 26.0119C15.2214 26.5706 15.3208 26.9888 15.5402 27.2213C15.6153 27.2988 15.7063 27.3593 15.8069 27.3984C15.9076 27.4376 16.0155 27.4545 16.1233 27.4481C16.7177 27.4481 17.0664 27.0263 17.0795 26.295C17.0908 25.6631 16.8883 25.1063 15.8008 23.985C14.3927 22.6088 13.1308 21.1875 13.1702 18.9525C13.175 18.3269 13.306 17.7087 13.5553 17.1349C13.8047 16.5611 14.1673 16.0435 14.6214 15.6131C15.5852 14.7094 16.9014 14.2313 18.4314 14.2313ZM7.58828 14.2838C8.9889 14.2725 10.0895 14.7038 10.8545 15.5681C11.6645 16.4813 12.0752 17.8575 12.077 19.6594C12.076 19.7386 12.0437 19.8143 11.9872 19.8698C11.9306 19.9253 11.8544 19.9561 11.7752 19.9556H8.39828C8.33934 19.9529 8.28338 19.929 8.24078 19.8881C8.20022 19.8448 8.17689 19.7881 8.17515 19.7288C8.1489 18.5606 7.82265 17.955 7.17765 17.8838L7.04453 17.8763C5.75078 17.8781 4.98765 19.635 4.58265 20.61C4.01 21.9742 3.73759 23.4456 3.7839 24.9244C3.81203 25.6106 3.92265 26.5744 4.5714 26.9738C5.1489 27.3281 5.97203 27.0938 6.47078 26.7C6.96765 26.3081 7.3689 25.6294 7.53765 25.0106C7.56265 24.9231 7.56328 24.8619 7.53953 24.8269C7.52703 24.8131 7.50703 24.8038 7.47953 24.7988L6.53453 24.7913C6.48868 24.7899 6.44359 24.7793 6.402 24.7599C6.36042 24.7406 6.32321 24.713 6.29265 24.6788C6.26843 24.6526 6.25217 24.6201 6.24578 24.585C6.23578 24.5507 6.23578 24.5143 6.24578 24.48L6.83828 21.9038C6.85565 21.8367 6.89322 21.7767 6.94588 21.7318C6.99853 21.6868 7.06374 21.6591 7.13265 21.6525V21.6469H12.8233L12.8627 21.6488C13.0108 21.6675 13.1158 21.8063 13.1139 21.9563V21.9638L12.5214 24.5344C12.4895 24.6806 12.3433 24.7875 12.1764 24.7875H11.462C11.4362 24.7877 11.4112 24.7962 11.3906 24.8117C11.37 24.8272 11.3549 24.849 11.3477 24.8738C10.6877 27.1125 9.79328 28.6538 8.6139 29.5781C7.6089 30.3656 6.37328 30.7331 4.71953 30.7331C3.23453 30.7331 2.23328 30.255 1.3839 29.3119C0.262654 28.0631 -0.200471 26.0231 0.0807789 23.5613C0.587029 18.9431 2.97953 14.2838 7.58828 14.2838ZM39.4052 14.5313C43.1739 14.5313 45.0564 16.2413 44.9983 19.6144C44.9289 23.5669 42.5214 26.4731 38.897 27.1444C38.3808 27.2356 37.8602 27.2781 37.3352 27.2719L35.5839 27.2644C35.5557 27.2653 35.5288 27.2768 35.5087 27.2966C35.4885 27.3164 35.4766 27.343 35.4752 27.3713C35.4752 27.39 35.4802 27.4081 35.4902 27.4256C35.5018 27.4408 35.5157 27.4541 35.5314 27.465L37.0201 28.2413C37.1427 28.3075 37.1902 28.41 37.1627 28.5488L36.7745 30.2981C36.7427 30.4444 36.6245 30.5288 36.4539 30.5288H33.2608C33.2151 30.5276 33.1699 30.5181 33.1277 30.5006C33.0867 30.48 33.0498 30.4521 33.0189 30.4181C32.9957 30.3908 32.9793 30.3584 32.9712 30.3235C32.963 30.2886 32.9633 30.2523 32.972 30.2175L36.527 14.7656C36.5627 14.6044 36.7145 14.5331 36.8495 14.5331L39.4052 14.5313ZM32.387 14.5538C32.4219 14.5694 32.4541 14.5903 32.4827 14.6156C32.5089 14.6446 32.5304 14.6775 32.5464 14.7131C32.5588 14.7488 32.5658 14.7861 32.567 14.8238L32.5464 30.2231C32.5522 30.2594 32.5502 30.2964 32.5408 30.3319C32.53 30.3699 32.5107 30.405 32.4844 30.4346C32.4581 30.4641 32.4254 30.4874 32.3889 30.5025C32.3514 30.52 32.3103 30.5283 32.2689 30.5269H28.8695C28.7918 30.5268 28.7172 30.4965 28.6614 30.4425C28.636 30.414 28.6152 30.3817 28.5995 30.3469C28.5863 30.3108 28.5787 30.2728 28.577 30.2344L28.6502 28.74C28.6539 28.5769 28.6502 28.5319 28.5545 28.5206L28.427 28.5169H25.2133C24.9808 28.5169 24.9639 28.5375 24.8814 28.7513L24.2139 30.3581C24.1539 30.4706 24.0339 30.5269 23.8539 30.5269H20.4883C20.2839 30.5269 20.1377 30.3244 20.2145 30.135L27.1858 14.7619C27.2327 14.67 27.3039 14.5313 27.4652 14.5313H32.2764C32.3139 14.5313 32.3508 14.5388 32.387 14.5538ZM29.0627 18.7219C29.0477 18.6619 28.9989 18.6675 28.9595 18.7463C28.9316 18.8031 28.9066 18.8613 28.8845 18.9206L26.477 24.8888L26.447 24.9788C26.4445 24.9913 26.4439 25.0031 26.4452 25.0144L26.4583 25.0463C26.4657 25.0559 26.4753 25.0637 26.4864 25.0688C26.496 25.0749 26.5069 25.0787 26.5183 25.08L28.5283 25.1063C28.7514 25.0875 28.7627 25.0763 28.7852 24.8494C28.7889 24.7688 29.0739 18.7913 29.0627 18.7219ZM37.7102 17.9663C37.682 17.9671 37.6553 17.9785 37.6352 17.9981C37.6148 18.018 37.6028 18.0448 37.6014 18.0731C37.6017 18.0926 37.6071 18.1116 37.6169 18.1284C37.6268 18.1451 37.6408 18.159 37.6576 18.1688L39.2364 19.0031C39.3152 19.0463 39.317 19.1213 39.2908 19.2506C39.2777 19.3088 38.2783 23.7038 38.2802 23.7075C38.2858 23.7131 38.3158 23.7281 38.4658 23.7281H38.5333C40.2114 23.6606 41.1264 21.6769 41.1602 19.7513C41.177 18.7106 40.8227 18.0713 40.1795 17.9775L40.0464 17.9663H37.7102Z" fill="white"/>
</g>
<defs>
<clipPath id="clip0_502_7388">
<rect width="45" height="45" fill="white"/>
</clipPath>
</defs>
</svg>
