<svg width="45" height="45" viewBox="0 0 45 45" fill="none" xmlns="http://www.w3.org/2000/svg">
<path d="M14.0625 28.125C13.2813 28.125 12.6175 27.8519 12.0713 27.3056C11.525 26.7594 11.2513 26.095 11.25 25.3125V23.4375H14.0625V25.3125H16.875V16.875H19.6875V25.3125C19.6875 26.0937 19.4144 26.7581 18.8681 27.3056C18.3219 27.8531 17.6575 28.1262 16.875 28.125H14.0625ZM24.375 28.125C23.8438 28.125 23.3988 27.945 23.04 27.585C22.6813 27.225 22.5013 26.78 22.5 26.25V24.375H25.3125V25.3125H29.0625V23.4375H24.375C23.8438 23.4375 23.3988 23.2575 23.04 22.8975C22.6813 22.5375 22.5013 22.0925 22.5 21.5625V18.75C22.5 18.2187 22.68 17.7738 23.04 17.415C23.4 17.0563 23.845 16.8762 24.375 16.875H30C30.5313 16.875 30.9769 17.055 31.3369 17.415C31.6969 17.775 31.8763 18.22 31.875 18.75V20.625H29.0625V19.6875H25.3125V21.5625H30C30.5313 21.5625 30.9769 21.7425 31.3369 22.1025C31.6969 22.4625 31.8763 22.9075 31.875 23.4375V26.25C31.875 26.7812 31.695 27.2269 31.335 27.5869C30.975 27.9469 30.53 28.1262 30 28.125H24.375Z" fill="white"/>
</svg>
