<svg width="45" height="45" viewBox="0 0 45 45" fill="none" xmlns="http://www.w3.org/2000/svg">
<path d="M22.5 30C21.0082 30 19.5774 29.4074 18.5225 28.3525C17.4676 27.2976 16.875 25.8668 16.875 24.375C16.875 22.8832 17.4676 21.4524 18.5225 20.3975C19.5774 19.3426 21.0082 18.75 22.5 18.75M22.5 30C23.9918 30 25.4226 29.4074 26.4775 28.3525C27.5324 27.2976 28.125 25.8668 28.125 24.375C28.125 22.8832 27.5324 21.4524 26.4775 20.3975C25.4226 19.3426 23.9918 18.75 22.5 18.75M22.5 30V35.625M22.5 18.75V5.625M22.5 35.625C22.9973 35.625 23.4742 35.8225 23.8258 36.1742C24.1775 36.5258 24.375 37.0027 24.375 37.5C24.375 37.9973 24.1775 38.4742 23.8258 38.8258C23.4742 39.1775 22.9973 39.375 22.5 39.375C22.0027 39.375 21.5258 39.1775 21.1742 38.8258C20.8225 38.4742 20.625 37.9973 20.625 37.5C20.625 37.0027 20.8225 36.5258 21.1742 36.1742C21.5258 35.8225 22.0027 35.625 22.5 35.625ZM22.5 5.625L16.875 11.25M22.5 5.625L28.125 11.25" stroke="white" stroke-width="2" stroke-linecap="round" stroke-linejoin="round"/>
<path d="M16.8751 11.25L22.5001 5.625L28.1251 11.25M27.9263 22.9256L39.3826 18.7556M39.3826 18.7556L32.1732 15.3937M39.3826 18.7556L36.0207 25.965M17.0645 22.9012L5.67383 18.7556M5.67383 18.7556L12.8832 15.3937M5.67383 18.7556L9.0357 25.965" stroke="white" stroke-width="2" stroke-linecap="round" stroke-linejoin="round"/>
</svg>
