<svg width="45" height="10" viewBox="0 0 45 10" fill="none" xmlns="http://www.w3.org/2000/svg">
<path d="M0 0V9.05695H1.55461V1.9357L7.28789 9.06047H17.0241V7.61449H10.7413V5.22352H15.7932V3.77754H10.7413V1.44984H17.0237V0.0028123H9.18633V1.44984L9.18703 8.99367L1.94309 0H0ZM29.9145 0.00351638V1.4502H33.0891V9.06152H34.643V1.4502H37.7532V0.00316367L29.9145 0.00351638ZM18.9028 0.00738278L26.1907 9.06504H28.2308L24.5869 4.53938L28.2255 0.0144142L26.19 0.0179292L23.5677 3.27375L20.938 0.00773415L18.9028 0.00738278ZM43.5677 5.13949C43.3002 5.13949 43.0597 5.18449 42.8467 5.27801C42.6348 5.37059 42.4677 5.50043 42.3454 5.66754C42.2223 5.83512 42.1608 6.03012 42.1608 6.25254C42.1603 6.52301 42.2517 6.73946 42.435 6.90188C42.6171 7.065 42.866 7.18641 43.1817 7.26609L43.6177 7.37578C43.7407 7.40558 43.8613 7.44484 43.9784 7.4932C44.0693 7.52901 44.1513 7.58434 44.2185 7.65527C44.2769 7.72334 44.3079 7.81065 44.3057 7.90031C44.3066 8.00316 44.2713 8.10306 44.2062 8.18262C44.1355 8.26799 44.0432 8.33293 43.939 8.3707C43.8117 8.41779 43.6767 8.44068 43.541 8.4382C43.4075 8.44033 43.2746 8.41867 43.1487 8.37422C43.039 8.33473 42.9415 8.26722 42.866 8.1784C42.7916 8.08487 42.7484 7.97043 42.7423 7.85109H42.0599C42.0693 8.10117 42.1356 8.31352 42.2589 8.48812C42.4438 8.75004 42.5528 8.79504 42.7721 8.88539C42.9901 8.9768 43.2492 9.0225 43.5463 9.0225C43.8538 9.02203 44.1155 8.97516 44.3313 8.88188C44.5481 8.78695 44.7138 8.65594 44.8284 8.48883C44.9434 8.32043 45 8.12742 45 7.90594C44.9998 7.74188 44.9686 7.59926 44.9065 7.47809C44.8453 7.35728 44.759 7.25095 44.6534 7.16625C44.5437 7.07827 44.422 7.00641 44.292 6.95285C44.1568 6.89534 44.0168 6.85004 43.8736 6.8175L43.515 6.72961C43.4357 6.71065 43.3575 6.68777 43.2805 6.66105C43.2068 6.63607 43.1364 6.60244 43.0706 6.56086C43.0095 6.52433 42.9577 6.474 42.9195 6.41391C42.8813 6.35289 42.8619 6.28196 42.8639 6.21C42.8639 6.11916 42.8933 6.03075 42.9476 5.95793C43.0024 5.8841 43.0829 5.82574 43.1859 5.78215C43.3044 5.73688 43.4304 5.71491 43.5572 5.71746C43.763 5.71723 43.9305 5.76211 44.0599 5.85211C44.1225 5.89421 44.1747 5.94992 44.2126 6.01507C44.2505 6.08022 44.2732 6.15311 44.2789 6.22828H44.9469C44.9463 6.0259 44.8833 5.82862 44.7666 5.66332C44.6494 5.49926 44.488 5.37082 44.2825 5.27801C44.0774 5.1852 43.8391 5.13903 43.5677 5.13949ZM40.7559 5.19012V7.84442C40.7548 7.97731 40.7341 8.0891 40.6941 8.1798C40.6579 8.26531 40.5957 8.33719 40.5162 8.38512C40.4391 8.43199 40.345 8.45543 40.2339 8.45543C40.1321 8.45543 40.0418 8.43551 39.9628 8.39566C39.8866 8.35821 39.8228 8.29948 39.7793 8.22656C39.7337 8.14619 39.7101 8.05527 39.7107 7.96289H39.0206C39.0202 8.19539 39.0725 8.38945 39.1778 8.54508C39.2827 8.70115 39.4306 8.82349 39.6035 8.89734C39.7944 8.97928 40.0005 9.02002 40.2082 9.01688C40.4536 9.01688 40.6686 8.97 40.8533 8.87625C41.0342 8.78645 41.1851 8.64614 41.2879 8.47231C41.391 8.29723 41.4435 8.08781 41.4454 7.84406V5.19012H40.7559ZM22.0064 5.21086L18.8972 9.07172H20.938L23.0252 6.47719L22.0064 5.21086ZM38.1027 8.19844C37.9888 8.19844 37.8915 8.23781 37.8109 8.31656C37.7718 8.35262 37.7409 8.39655 37.72 8.44546C37.6992 8.49436 37.6889 8.54712 37.69 8.60027C37.6886 8.65404 37.6987 8.70748 37.7195 8.75706C37.7404 8.80664 37.7715 8.85122 37.8109 8.88785C37.8915 8.96684 37.9888 9.00621 38.1027 9.00598C38.1737 9.00657 38.2435 8.9876 38.3045 8.95113C38.3662 8.91583 38.4179 8.86553 38.455 8.80488C38.4932 8.74348 38.5134 8.67259 38.5133 8.60027C38.5133 8.54696 38.5022 8.49423 38.4807 8.44541C38.4593 8.39659 38.428 8.35272 38.3889 8.31656C38.3515 8.27872 38.3069 8.24877 38.2578 8.22848C38.2086 8.20819 38.1559 8.19797 38.1027 8.19844Z" fill="white"/>
</svg>
