<svg width="45" height="45" viewBox="0 0 45 45" fill="none" xmlns="http://www.w3.org/2000/svg">
<g clip-path="url(#clip0_502_7423)">
<path d="M8.36437 7.88765C9.75656 9.0225 10.2839 8.94234 12.9122 8.76656L37.6903 7.28015C38.2177 7.28015 37.7789 6.75281 37.6017 6.66422L33.4856 3.69C32.7023 3.07406 31.6477 2.37937 29.6325 2.54672L5.64609 4.30453C4.76719 4.38469 4.59141 4.82484 4.94297 5.1764L8.36437 7.88765ZM9.85078 13.6673V39.7336C9.85078 41.1328 10.5469 41.6602 12.1219 41.5716L39.3539 39.9966C40.9289 39.908 41.1117 38.9489 41.1117 37.807V11.9166C41.1117 10.7733 40.6716 10.1658 39.7055 10.2544L11.2514 11.9166C10.1967 12.0052 9.85219 12.5241 9.85219 13.6603L9.85078 13.6673ZM36.7313 15.0581C36.907 15.8498 36.7313 16.6331 35.9395 16.7287L34.6289 16.9931V36.2334C33.4856 36.8494 32.4394 37.2009 31.5675 37.2009C30.1613 37.2009 29.8097 36.7608 28.762 35.4502L20.1783 21.9741V35.0114L22.8952 35.6273C22.8952 35.6273 22.8952 37.2023 20.7056 37.2023L14.663 37.5539C14.4872 37.2023 14.663 36.3234 15.2789 36.1547L16.8539 35.7145V18.4809L14.6644 18.3052C14.4886 17.5134 14.9288 16.3786 16.1508 16.2914L22.6322 15.8512L31.5675 29.5031V17.4248L29.2894 17.1605C29.1136 16.2014 29.8097 15.4983 30.6886 15.4167L36.7313 15.0581ZM3.63234 1.94062L28.5862 0.102654C31.6477 -0.161721 32.4394 0.0140601 34.3645 1.41328L42.3338 7.01578C43.6444 7.97484 44.0845 8.23922 44.0845 9.28687V39.998C44.0845 41.9245 43.3814 43.0594 40.9345 43.2352L11.9447 44.9859C10.1138 45.0745 9.23484 44.8102 8.26734 43.5867L2.40047 35.9691C1.35281 34.5698 0.914062 33.5222 0.914062 32.3002V5.00344C0.914062 3.42844 1.61719 2.11781 3.63094 1.94203L3.63234 1.94062Z" fill="white"/>
</g>
<defs>
<clipPath id="clip0_502_7423">
<rect width="45" height="45" fill="white"/>
</clipPath>
</defs>
</svg>
