<svg width="45" height="45" viewBox="0 0 45 45" fill="none" xmlns="http://www.w3.org/2000/svg">
<path d="M38.5537 19.1025C39.0224 17.8125 39.1406 16.5225 39.0224 15.2344C38.9062 13.9463 38.4374 12.6563 37.8506 11.4844C36.7968 9.72751 35.2724 8.32126 33.5156 7.50001C31.6406 6.68064 29.6474 6.44626 27.6562 6.91501C26.7187 5.97751 25.6631 5.15626 24.4912 4.57126C23.3193 3.98626 21.9131 3.75001 20.6249 3.75001C18.6128 3.73827 16.647 4.35293 14.9999 5.50876C13.3593 6.67876 12.1874 8.32126 11.6006 10.1963C10.1943 10.5469 9.02244 11.1338 7.85056 11.8369C6.79681 12.6563 5.97556 13.7119 5.27244 14.7656C4.21869 16.5244 3.86619 18.5156 4.10057 20.5088C4.33627 22.496 5.15135 24.3701 6.44431 25.8975C6.0014 27.1358 5.84124 28.4574 5.97557 29.7656C6.09369 31.0556 6.56244 32.3438 7.14744 33.5156C8.20306 35.2744 9.72556 36.6806 11.4843 37.5C13.3593 38.3213 15.3506 38.5556 17.3437 38.0869C18.2812 39.0244 19.3349 39.8438 20.5068 40.4306C21.6787 41.0175 23.0849 41.25 24.3749 41.25C26.3868 41.2623 28.3527 40.6483 29.9999 39.4931C31.6406 38.3213 32.8124 36.6806 33.3974 34.8056C34.7215 34.5541 35.9669 33.9918 37.0312 33.165C38.0849 32.3438 39.0224 31.4063 39.6093 30.2344C40.6631 28.4775 41.0156 26.4844 40.7812 24.4931C40.5468 22.5 39.8437 20.6269 38.5537 19.1025ZM24.4912 38.7881C22.6162 38.7881 21.2099 38.2013 19.9218 37.1475C19.9218 37.1475 20.0381 37.0294 20.1562 37.0294L27.6562 32.6944C27.8643 32.6004 28.031 32.4338 28.1249 32.2256C28.2188 32.0451 28.2591 31.8415 28.2412 31.6388V21.0938L31.4062 22.9688V31.6406C31.4384 32.5685 31.2834 33.4933 30.9503 34.3598C30.6171 35.2264 30.1128 36.0169 29.4674 36.6842C28.8219 37.3515 28.0486 37.8819 27.1937 38.2437C26.3387 38.6055 25.4196 38.7895 24.4912 38.7881ZM9.37494 32.3438C8.55369 30.9375 8.20306 29.2969 8.55369 27.6563C8.55369 27.6563 8.67181 27.7744 8.78806 27.7744L16.2881 32.1094C16.4681 32.2049 16.672 32.2459 16.8749 32.2275C17.1093 32.2275 17.3437 32.2275 17.4599 32.1094L26.6006 26.8369V30.4688L18.9843 34.9219C18.1947 35.3804 17.3223 35.6786 16.4172 35.7992C15.5121 35.9199 14.5921 35.8607 13.7099 35.625C11.8349 35.1563 10.3124 33.9844 9.37494 32.3438ZM7.38181 16.0556C8.20931 14.6542 9.49166 13.5783 11.0156 13.0069V21.915C11.0156 22.1475 11.0156 22.3838 11.1318 22.5C11.2258 22.7081 11.3924 22.8748 11.6006 22.9688L20.7412 28.2431L17.5781 30.1181L10.0781 25.7813C9.27936 25.3299 8.5781 24.7247 8.01488 24.0005C7.45165 23.2764 7.03764 22.4477 6.79681 21.5625C6.32806 19.8056 6.44431 17.6963 7.38181 16.0556ZM33.2812 22.0313L24.1406 16.7588L27.3037 14.8838L34.8037 19.2188C35.9756 19.9219 36.9131 20.8594 37.4999 22.0313C38.0868 23.2031 38.4374 24.4931 38.3193 25.8994C38.207 27.2194 37.719 28.4797 36.9131 29.5313C36.0937 30.5869 35.0381 31.4063 33.7499 31.875V22.9688C33.7499 22.7344 33.7499 22.5 33.6318 22.3838C33.6318 22.3838 33.5156 22.1475 33.2812 22.0313ZM36.4443 17.3438C36.4443 17.3438 36.3281 17.2275 36.2099 17.2275L28.7099 12.8906C28.4756 12.7744 28.3593 12.7744 28.1249 12.7744C27.8906 12.7744 27.6562 12.7744 27.5381 12.8906L18.3974 18.165V14.5313L26.0156 10.0781C27.1874 9.37501 28.4756 9.14064 29.8818 9.14064C31.1718 9.14064 32.4599 9.60939 33.6318 10.4306C34.6874 11.25 35.6249 12.3056 36.0937 13.4775C36.5624 14.6494 36.6787 16.0556 36.4443 17.3438ZM16.7568 23.9063L13.5937 22.0313V13.2431C13.5937 11.9531 13.9443 10.5469 14.6474 9.49314C15.3506 8.32126 16.4062 7.50001 17.5781 6.91501C18.7723 6.31549 20.1259 6.11002 21.4443 6.32814C22.7343 6.44626 24.0224 7.03126 25.0781 7.85251C25.0781 7.85251 24.9599 7.96876 24.8437 7.96876L17.3437 12.3056C17.1356 12.3996 16.9689 12.5663 16.8749 12.7744C16.7568 13.0088 16.7568 13.125 16.7568 13.3594V23.9063ZM18.3974 20.1563L22.4999 17.8125L26.6006 20.1563V24.8438L22.4999 27.1875L18.3974 24.8438V20.1563Z" fill="white"/>
</svg>
