<svg width="45" height="45" viewBox="0 0 45 45" fill="none" xmlns="http://www.w3.org/2000/svg">
<g clip-path="url(#clip0_437_4014)">
<path fill-rule="evenodd" clip-rule="evenodd" d="M45 41.1329V43.2421C44.0292 43.2421 43.2421 44.0292 43.2421 45H41.1329C41.1329 44.0292 40.3458 43.2421 39.375 43.2421C38.4042 43.2421 37.6171 44.0292 37.6171 45H35.5079C35.5079 44.0292 34.7208 43.2421 33.75 43.2421C32.7792 43.2421 31.9921 44.0292 31.9921 45H29.8829C29.8829 44.0292 29.0958 43.2421 28.125 43.2421C27.1542 43.2421 26.3671 44.0292 26.3671 45H24.2579C24.2579 44.0292 23.4708 43.2421 22.5 43.2421C21.5292 43.2421 20.7421 44.0292 20.7421 45H18.6329C18.6329 44.0292 17.8458 43.2421 16.875 43.2421C15.9042 43.2421 15.1172 44.0292 15.1172 45H13.0078C13.0078 44.0292 12.2208 43.2421 11.25 43.2421C10.2792 43.2421 9.49218 44.0292 9.49218 45H7.38282C7.38282 44.3719 7.04778 43.7917 6.50391 43.4776C5.96004 43.1637 5.28996 43.1637 4.74609 43.4776C4.20222 43.7917 3.86718 44.3719 3.86718 45H1.75782C1.75782 44.0292 0.970814 43.2421 0 43.2421V41.1329C0.970814 41.1329 1.75782 40.3458 1.75782 39.375C1.75782 38.4042 0.970814 37.6171 0 37.6171V35.5079C0.970814 35.5079 1.75782 34.7208 1.75782 33.75C1.75782 32.7792 0.970814 31.9921 0 31.9921V29.8829C0.970814 29.8829 1.75782 29.0958 1.75782 28.125C1.75782 27.1542 0.970814 26.3671 0 26.3671V24.2579C0.970814 24.2579 1.75782 23.4708 1.75782 22.5C1.75782 21.5292 0.970814 20.7421 0 20.7421V18.6329C0.970814 18.6329 1.75782 17.8458 1.75782 16.875C1.75782 15.9042 0.970814 15.1172 0 15.1172V13.0078C0.970814 13.0078 1.75782 12.2208 1.75782 11.25C1.75782 10.2792 0.970814 9.49218 0 9.49218V7.38282C0.970814 7.3828 1.75782 6.59582 1.75782 5.625C1.75782 4.65418 0.970814 3.86719 0 3.86718V1.75782C0.970814 1.75782 1.75782 0.970814 1.75782 0H3.86718C3.86719 0.970814 4.65418 1.75782 5.625 1.75782C6.59582 1.75782 7.3828 0.970814 7.38282 0H9.49218C9.49218 0.970814 10.2792 1.75782 11.25 1.75782C12.2208 1.75782 13.0078 0.970814 13.0078 0H15.1172C15.1172 0.970814 15.9042 1.75782 16.875 1.75782C17.8458 1.75782 18.6329 0.970814 18.6329 0H20.7421C20.7421 0.970814 21.5292 1.75782 22.5 1.75782C23.4708 1.75782 24.2579 0.970814 24.2579 0H26.3671C26.3671 0.970814 27.1542 1.75782 28.125 1.75782C29.0958 1.75782 29.8829 0.970814 29.8829 0H31.9921C31.9921 0.970814 32.7792 1.75782 33.75 1.75782C34.7208 1.75782 35.5079 0.970814 35.5079 0H37.6171C37.6171 0.970814 38.4042 1.75782 39.375 1.75782C40.3458 1.75782 41.1329 0.970814 41.1329 0H43.2421C43.2421 0.970814 44.0292 1.75782 45 1.75782V3.86718C44.0292 3.86718 43.2421 4.65418 43.2421 5.625C43.2421 6.59582 44.0292 7.38282 45 7.38282V9.49218C44.0292 9.49218 43.2421 10.2792 43.2421 11.25C43.2421 12.2208 44.0292 13.0078 45 13.0078V15.1172C44.0292 15.1172 43.2421 15.9042 43.2421 16.875C43.2421 17.8458 44.0292 18.6329 45 18.6329V20.7421C44.3719 20.7421 43.7917 21.0772 43.4776 21.6211C43.1637 22.1649 43.1637 22.8351 43.4776 23.3789C43.7917 23.9228 44.3719 24.2579 45 24.2579V26.3671C44.0292 26.3671 43.2421 27.1542 43.2421 28.125C43.2421 29.0958 44.0292 29.8829 45 29.8829V31.9921C44.0292 31.9921 43.2421 32.7792 43.2421 33.75C43.2421 34.7208 44.0292 35.5079 45 35.5079V37.6171C44.0292 37.6171 43.2421 38.4042 43.2421 39.375C43.2421 40.3458 44.0292 41.1329 45 41.1329Z" fill="white"/>
<path d="M13.0547 32.0706H14.4577C15.1782 32.0706 15.6332 31.6057 15.6332 30.8697V14.4433C15.6332 13.7072 15.1782 13.2423 14.4577 13.2423H13.0547V9.60059H23.217C28.6773 9.60059 33 12.4287 33 17.8139C33 23.2376 28.6773 26.0658 23.217 26.0658H19.7285V30.8697C19.7285 31.6057 20.1834 32.0706 20.9418 32.0706H23.7857V35.7512H13.0547V32.0706ZM22.9136 22.269C26.516 22.269 28.6014 20.7194 28.6014 17.8913C28.6014 14.9857 26.516 13.5135 22.9136 13.5135H19.7285V22.3079H22.9136V22.269Z" fill="#0957DE"/>
</g>
<defs>
<clipPath id="clip0_437_4014">
<rect width="45" height="45" fill="white"/>
</clipPath>
</defs>
</svg>
