<svg width="45" height="45" viewBox="0 0 45 45" fill="none" xmlns="http://www.w3.org/2000/svg">
<path d="M22.3383 2.95242C12.3539 2.95242 12.9853 7.26961 12.9853 7.26961V11.7555H22.4803V13.1618H9.20391C9.20391 13.1618 2.8125 12.3743 2.8125 22.5063C2.8125 32.6384 8.45578 32.2263 8.45578 32.2263H11.7141V27.4999C11.7141 27.4999 11.5312 21.8566 17.1984 21.8566H26.7075C26.7075 21.8566 32.0119 21.941 32.0119 16.721V8.15555C32.0119 8.15555 32.8162 2.93555 22.3903 2.93555L22.3383 2.95242ZM17.0902 5.95758C17.4277 5.94906 17.7602 6.04084 18.0456 6.2213C18.331 6.40176 18.5565 6.6628 18.6935 6.97141C18.8305 7.28002 18.873 7.62233 18.8154 7.95506C18.7579 8.28779 18.603 8.59599 18.3703 8.84067C18.1376 9.08536 17.8376 9.25555 17.5082 9.32972C17.1788 9.40389 16.8348 9.3787 16.5197 9.25735C16.2046 9.13599 15.9325 8.92392 15.7379 8.64795C15.5434 8.37198 15.435 8.04451 15.4266 7.70695V7.67883C15.4266 7.22605 15.6064 6.79182 15.9266 6.47166C16.2467 6.1515 16.681 5.97164 17.1337 5.97164L17.0902 5.95758Z" fill="white"/>
<path d="M22.6197 42.0611C32.6041 42.0611 31.9727 37.7298 31.9727 37.7298V33.258H22.4791V31.8517H35.7963C35.7963 31.8517 42.1877 32.5661 42.1877 22.4931C42.1877 12.4202 36.5444 12.7731 36.5444 12.7731H33.244V17.4377C33.244 17.4377 33.4268 23.0809 27.7596 23.0809H18.2463C18.2463 23.0809 12.9377 23.0008 12.9377 28.2208V36.8439C12.9377 36.8439 12.1333 42.0639 22.5593 42.0639H22.6155L22.6197 42.0611ZM27.8679 39.0419C27.5303 39.0504 27.1978 38.9586 26.9124 38.7781C26.627 38.5977 26.4016 38.3366 26.2645 38.028C26.1275 37.7194 26.0851 37.3771 26.1426 37.0444C26.2001 36.7117 26.355 36.4035 26.5877 36.1588C26.8204 35.9141 27.1204 35.7439 27.4498 35.6697C27.7792 35.5956 28.1233 35.6207 28.4384 35.7421C28.7535 35.8635 29.0255 36.0755 29.2201 36.3515C29.4146 36.6275 29.523 36.9549 29.5315 37.2925V37.3347C29.5315 37.7875 29.3516 38.2217 29.0314 38.5418C28.7113 38.862 28.2771 39.0419 27.8243 39.0419H27.8679Z" fill="white"/>
</svg>
