<svg width="45" height="45" viewBox="0 0 45 45" fill="none" xmlns="http://www.w3.org/2000/svg">
<g clip-path="url(#clip0_502_7435)">
<path d="M31.1801 30.9762C28.016 37.4449 22.4754 41.7973 15.1453 43.2281C14.0214 43.5036 12.8677 43.6382 11.7106 43.6289C7.49181 43.6289 3.62462 41.8711 1.74728 38.9918C-0.773427 35.1563 -1.63124 27.0246 6.6797 21.0094C6.84845 21.927 7.19298 23.1856 7.42149 23.9309C5.79001 25.1429 4.45458 26.7092 3.51564 28.5117C1.96876 31.5492 2.14103 34.5832 3.97267 37.3887C5.23829 39.2801 7.2422 40.4297 9.81915 40.7813C13.0378 41.1887 16.3031 40.5737 19.1531 39.0234C23.6215 36.675 26.5992 33.8695 28.5469 30.034C27.9962 29.4649 27.6702 28.7155 27.6293 27.9246C27.5999 27.0759 27.9083 26.2502 28.487 25.6286C29.0657 25.0071 29.8674 24.6405 30.716 24.6094H30.8356C31.661 24.6052 32.4565 24.9186 33.0573 25.4846C33.6582 26.0506 34.0185 26.8259 34.0637 27.6501C34.1088 28.4744 33.8354 29.2844 33.3 29.9127C32.7645 30.5409 32.0081 30.9393 31.1871 31.0254L31.1801 30.9762ZM41.2594 23.8746C45.552 28.7402 45.668 34.4672 44.0086 37.7895C42.4617 40.8234 38.3836 43.8609 32.8992 43.8609C30.3391 43.8085 27.8205 43.2029 25.5164 42.0856C26.3215 41.5125 27.4641 40.5949 28.0934 40.0219C29.87 40.792 31.7822 41.2007 33.7184 41.2242C37.2692 41.2242 39.9586 39.5649 41.5617 36.5309C42.5918 34.527 42.6516 32.1785 41.6777 29.7738C40.483 26.7481 38.3566 24.1809 35.6063 22.4438C31.9981 20.0115 27.7444 18.7148 23.393 18.7207H22.3629C22.1227 19.2756 21.7319 19.7521 21.2349 20.0963C20.7378 20.4405 20.1543 20.6387 19.5504 20.6684H19.4414C18.6062 20.6581 17.8078 20.3226 17.2159 19.7332C16.624 19.1438 16.2853 18.3468 16.2715 17.5116C16.2578 16.6764 16.5702 15.8687 17.1424 15.2602C17.7146 14.6516 18.5015 14.2901 19.3359 14.2523H19.452C20.0335 14.2528 20.6036 14.4135 21.0998 14.7167C21.5959 15.02 21.9989 15.4542 22.2645 15.9715H23.182C30.4945 15.9715 36.9141 18.777 41.2594 23.8746ZM12.1676 31.9606C12.1071 31.3767 12.2486 30.7898 12.5684 30.2977C9.36212 24.743 7.64649 17.7012 10.2797 10.3711C12.1676 4.86212 16.9207 1.13907 22.0746 1.13907C27.5731 1.13907 33.3 5.95196 33.9856 15.2262C33.1277 14.9414 31.8762 14.5231 31.1238 14.3684C30.9375 11.3344 28.3746 3.77579 22.3031 3.88829C20.127 3.94805 16.9207 4.97813 15.2719 7.09454C13.2326 9.62106 12.0461 12.7287 11.8828 15.9715C11.4961 20.418 12.5394 24.8718 14.8606 28.684C14.9887 28.6372 15.1253 28.618 15.2613 28.6277H15.3738C16.2242 28.6124 17.0458 28.9354 17.658 29.5258C18.2702 30.1162 18.6227 30.9256 18.6381 31.776C18.6535 32.6263 18.3304 33.448 17.74 34.0601C17.1496 34.6723 16.3402 35.0249 15.4899 35.0402H15.3738C14.5443 35.0373 13.7478 34.7143 13.1505 34.1386C12.5532 33.5629 12.2011 32.7789 12.1676 31.95V31.9606Z" fill="white"/>
</g>
<defs>
<clipPath id="clip0_502_7435">
<rect width="45" height="45" fill="white"/>
</clipPath>
</defs>
</svg>
