<svg width="42" height="45" viewBox="0 0 42 45" fill="none" xmlns="http://www.w3.org/2000/svg">
<g clip-path="url(#clip0_471_4088)">
<path d="M38.4153 -0.000384708C38.468 -0.00383721 38.5206 0.00786581 38.5671 0.0333929C38.6136 0.0589199 38.6522 0.097246 38.6784 0.144011C38.7046 0.190775 38.7174 0.244101 38.7154 0.297921C38.7133 0.35174 38.6965 0.403893 38.6668 0.448444L27.7898 15.5137C27.7504 15.5591 27.702 15.5954 27.6478 15.6203C27.5936 15.6451 27.5349 15.658 27.4754 15.658C27.416 15.658 27.3573 15.6451 27.3031 15.6203C27.2489 15.5954 27.2005 15.5591 27.1611 15.5137L23.3258 11.1544C23.2796 11.1055 23.2231 11.0678 23.1607 11.0441C23.0982 11.0203 23.0313 11.0112 22.9649 11.0174C22.8986 11.0236 22.8344 11.0448 22.7772 11.0797C22.7199 11.1145 22.6711 11.162 22.6343 11.2187L20.3079 14.2317C20.2718 14.3149 20.2585 14.4067 20.2696 14.497C20.2807 14.5874 20.3157 14.6729 20.3709 14.7446L27.2868 22.0528C27.3262 22.0982 27.3746 22.1345 27.4288 22.1594C27.483 22.1843 27.5418 22.1971 27.6012 22.1971C27.6606 22.1971 27.7194 22.1843 27.7736 22.1594C27.8278 22.1345 27.8762 22.0982 27.9156 22.0528L41.4959 6.47476C41.5351 6.43175 41.5859 6.40158 41.642 6.3881C41.698 6.37461 41.7567 6.37842 41.8106 6.39904C41.8646 6.41966 41.9112 6.45616 41.9448 6.5039C41.9783 6.55164 41.9971 6.60846 41.9989 6.66714V44.555C42.0015 44.5978 41.9951 44.6406 41.9802 44.6807C41.9652 44.7207 41.9422 44.7571 41.9124 44.7874C41.8827 44.8177 41.847 44.8412 41.8077 44.8564C41.7684 44.8716 41.7264 44.8781 41.6844 44.8755H0.314572C0.272617 44.8781 0.230596 44.8716 0.191289 44.8564C0.151981 44.8412 0.116282 44.8177 0.0865521 44.7874C0.0568225 44.7571 0.0337397 44.7207 0.0188303 44.6807C0.00392091 44.6406 -0.00247542 44.5978 6.43204e-05 44.555V0.320303C-0.00249962 0.277509 0.00387874 0.234647 0.0187773 0.194555C0.0336759 0.154462 0.056755 0.118053 0.0864873 0.0877365C0.11622 0.0574199 0.151927 0.0338873 0.191247 0.018696C0.230567 0.00350467 0.272603 -0.00299903 0.314572 -0.000384708H38.4153ZM27.727 25.5789C26.8007 25.5622 25.8807 25.7371 25.0225 26.0928C24.1642 26.4486 23.3856 26.9779 22.7334 27.6488C22.0813 28.3198 21.5692 29.1184 21.2279 29.9967C20.8867 30.8749 20.7235 31.8145 20.7481 32.7588C20.7481 37.1823 23.8917 40.0031 27.9783 40.0031C29.8702 40.0511 31.7253 39.4656 33.2598 38.3363C33.3287 38.2726 33.3729 38.1858 33.3845 38.0917C33.396 37.9976 33.3741 37.9024 33.3226 37.8234L32.1909 36.0925C32.1294 36.0207 32.0442 35.9744 31.9514 35.9626C31.8586 35.9508 31.7648 35.9742 31.6879 36.0284C30.7043 36.7133 29.5466 37.092 28.3558 37.1183C26.1551 37.1183 24.7719 35.7079 24.5205 34.041C24.5227 34.0078 24.5367 33.9765 24.5598 33.9529C24.5829 33.9294 24.6136 33.9152 24.6462 33.9129H34.14C34.2379 33.9062 34.3301 33.8635 34.3994 33.7927C34.4688 33.722 34.5106 33.628 34.5172 33.5281V33.1434C34.5172 28.6559 31.7508 25.5787 27.727 25.5787M18.359 23.1425C16.4493 21.5509 14.0329 20.7296 11.5686 20.8346C7.2933 20.8346 4.65271 23.399 4.65271 26.4762C4.65271 33.4639 15.0895 31.2201 15.0895 34.4897C15.0895 35.5153 14.0835 36.5411 11.9459 36.5411C9.91573 36.5581 7.95702 35.7775 6.4761 34.3614C6.4324 34.3197 6.38047 34.288 6.32379 34.2685C6.2671 34.2489 6.20697 34.2419 6.14743 34.248C6.08788 34.2541 6.0303 34.273 5.97853 34.3036C5.92676 34.3343 5.882 34.3758 5.84725 34.4255L4.2127 36.7335C4.1613 36.8125 4.13939 36.9078 4.15095 37.0019C4.16251 37.096 4.20677 37.1827 4.2757 37.2464C5.97325 38.849 8.36249 39.939 11.6946 39.939C16.5986 39.939 18.9878 37.3745 19.1135 34.041C19.1135 27.1174 8.67667 29.1047 8.67667 26.1558C8.67667 25.066 9.61987 24.2966 11.2544 24.2966C13.0564 24.2714 14.8115 24.883 16.2214 26.0275C16.2624 26.0618 16.3098 26.0874 16.3606 26.1027C16.4115 26.1181 16.4649 26.1229 16.5176 26.1169C16.5703 26.111 16.6213 26.0943 16.6676 26.068C16.7139 26.0416 16.7546 26.0061 16.7873 25.9634L18.422 23.7196C18.4556 23.6778 18.4807 23.6295 18.4957 23.5777C18.5108 23.5258 18.5155 23.4714 18.5097 23.4177C18.5038 23.3639 18.4875 23.3119 18.4616 23.2647C18.4358 23.2174 18.4009 23.176 18.3592 23.1427M27.79 28.3995C29.5 28.3019 30.9764 29.6084 31.1222 31.3486C31.12 31.3818 31.1061 31.4131 31.0829 31.4366C31.0598 31.4602 31.0292 31.4744 30.9966 31.4767H24.5834C24.5508 31.4744 24.5201 31.4602 24.497 31.4366C24.4739 31.4131 24.4599 31.3818 24.4577 31.3486C24.668 29.6426 26.1041 28.3717 27.79 28.3995Z" fill="white"/>
</g>
<defs>
<clipPath id="clip0_471_4088">
<rect width="42" height="45" fill="white"/>
</clipPath>
</defs>
</svg>
