<svg width="45" height="45" viewBox="0 0 45 45" fill="none" xmlns="http://www.w3.org/2000/svg">
<path d="M22.5 11.25C17.4937 11.25 14.3813 13.7437 13.125 18.75C15 16.2562 17.1938 15.3187 19.6875 15.9375C21.1125 16.2937 22.1437 17.325 23.2687 18.4688C25.1062 20.3438 27.1875 22.5 31.875 22.5C36.8812 22.5 39.9938 20.0063 41.25 15C39.375 17.4938 37.1813 18.4313 34.6875 17.8125C33.2625 17.4563 32.25 16.425 31.1063 15.2812C29.2688 13.4062 27.1875 11.25 22.5 11.25ZM13.125 22.5C8.11875 22.5 5.00625 24.9937 3.75 30C5.625 27.5063 7.81875 26.5688 10.3125 27.1875C11.7375 27.5438 12.75 28.575 13.8937 29.7188C15.7312 31.5938 17.8125 33.75 22.5 33.75C27.5063 33.75 30.6187 31.2563 31.875 26.25C30 28.7437 27.8062 29.6812 25.3125 29.0625C23.8875 28.7062 22.875 27.675 21.7313 26.5312C19.8938 24.6562 17.8125 22.5 13.125 22.5Z" fill="white"/>
</svg>
