<svg width="45" height="11" viewBox="0 0 45 11" fill="none" xmlns="http://www.w3.org/2000/svg">
<path d="M22.5506 2.53512C20.8012 2.53512 19.5402 3.67594 19.5402 5.38699C19.5402 7.09805 20.9584 8.23922 22.7092 8.23922C23.766 8.23922 24.6976 7.82086 25.2745 7.11598L24.0623 6.41567C23.7424 6.76582 23.2559 6.97008 22.7092 6.97008C21.9502 6.97008 21.3054 6.57387 21.066 5.94H25.5059C25.5427 5.75749 25.5613 5.57178 25.5614 5.38559C25.5614 3.67594 24.3018 2.53512 22.5506 2.53512ZM21.0533 4.83258C21.2512 4.20047 21.7934 3.8025 22.551 3.8025C23.3096 3.8025 23.8518 4.20047 24.0483 4.83258H21.0533ZM20.6951 0.792071L16.3044 8.39777L11.9123 0.79172H13.5587L16.303 5.5452L19.0473 0.79172L20.6951 0.792071ZM5.85492 0L11.7095 10.1408H0L5.85492 0ZM31.931 5.38734C31.931 6.33797 32.5522 6.97184 33.5155 6.97184C34.1684 6.97184 34.6581 6.67547 34.9098 6.19207L36.1269 6.89414C35.6228 7.73367 34.6785 8.23922 33.5155 8.23922C31.7647 8.23922 30.5051 7.0984 30.5051 5.38734C30.5051 3.67594 31.7661 2.53512 33.5155 2.53512C34.6785 2.53512 35.6214 3.04067 36.1269 3.8802L34.9098 4.58227C34.6581 4.09887 34.1684 3.8025 33.5155 3.8025C32.5536 3.8025 31.931 4.43637 31.931 5.38734ZM45 0.79172V8.08031H43.5741V0.792071L45 0.79172ZM39.6127 2.53477C37.8633 2.53477 36.6022 3.67559 36.6022 5.38664C36.6022 7.0977 38.0218 8.23887 39.7712 8.23887C40.828 8.23887 41.7597 7.82051 42.3366 7.11563L41.1244 6.41531C40.8045 6.76547 40.3179 6.96973 39.7709 6.96973C39.0122 6.96973 38.3674 6.57352 38.128 5.93965H42.5679C42.6046 5.75713 42.6231 5.57141 42.6231 5.38524C42.6231 3.67559 41.3634 2.53477 39.6127 2.53477ZM38.115 4.83223C38.3133 4.20012 38.8536 3.80215 39.6127 3.80215C40.3717 3.80215 40.9134 4.20012 41.1103 4.83223H38.115ZM30.0294 2.69297V4.22859C29.8649 4.179 29.6943 4.15285 29.5225 4.1509C28.6021 4.1509 27.938 4.78477 27.938 5.73539V8.08031H26.512V2.69367H27.938V4.1516C27.938 3.34652 28.8745 2.69367 30.0298 2.69367L30.0294 2.69297Z" fill="white"/>
</svg>
