<svg xmlns="http://www.w3.org/2000/svg" width="173" height="53" viewBox="0 0 173 53" fill="none">
  <path d="M91.3807 49.0217L91.1801 48.042L91.3807 49.0217ZM171.298 0.000563622C171.85 -0.0179892 172.313 0.414436 172.331 0.966407L172.634 9.96133C172.652 10.5133 172.22 10.9758 171.668 10.9944C171.116 11.0129 170.653 10.5805 170.635 10.0285L170.366 2.03303L162.371 2.30177C161.819 2.32032 161.356 1.8879 161.338 1.33593C161.319 0.783952 161.752 0.32145 162.304 0.302899L171.298 0.000563622ZM4.02443 37.8616C4.51332 38.1186 4.70137 38.7232 4.44446 39.212C4.18755 39.7009 3.58296 39.889 3.09407 39.6321L4.02443 37.8616ZM12.6417 43.7104C12.1208 43.5268 11.8474 42.9557 12.0311 42.4348C12.2147 41.914 12.7858 41.6406 13.3067 41.8242L12.6417 43.7104ZM18.135 43.3936C18.664 43.5522 18.9643 44.1096 18.8057 44.6386C18.6471 45.1677 18.0896 45.4679 17.5606 45.3093L18.135 43.3936ZM27.5598 47.8909C27.0205 47.7717 26.68 47.238 26.7992 46.6987C26.9184 46.1594 27.4522 45.8189 27.9914 45.9381L27.5598 47.8909ZM32.978 46.959C33.5207 47.0615 33.8775 47.5846 33.7749 48.1273C33.6723 48.67 33.1493 49.0267 32.6066 48.9242L32.978 46.959ZM42.7829 50.5505C42.2354 50.4783 41.85 49.976 41.9222 49.4284C41.9943 48.8809 42.4967 48.4955 43.0443 48.5676L42.7829 50.5505ZM48.1051 49.1662C48.6544 49.2238 49.053 49.7158 48.9954 50.2651C48.9378 50.8143 48.4458 51.2129 47.8965 51.1553L48.1051 49.1662ZM58.167 51.9558C57.6155 51.9278 57.191 51.458 57.219 50.9064C57.247 50.3548 57.7168 49.9304 58.2684 49.9583L58.167 51.9558ZM63.3622 50.1449C63.9144 50.1572 64.352 50.6148 64.3397 51.1669C64.3274 51.7191 63.8699 52.1567 63.3177 52.1444L63.3622 50.1449ZM73.6275 52.0558C73.0757 52.0786 72.6098 51.6498 72.587 51.098C72.5642 50.5461 72.993 50.0803 73.5448 50.0575L73.6275 52.0558ZM78.6249 49.7545C79.1755 49.7111 79.657 50.1223 79.7003 50.6729C79.7437 51.2235 79.3325 51.705 78.7819 51.7483L78.6249 49.7545ZM89.0369 50.4825C88.4928 50.5772 87.9749 50.2129 87.8802 49.6688C87.7854 49.1247 88.1497 48.6068 88.6938 48.5121L89.0369 50.4825ZM93.6932 47.4742C94.2295 47.342 94.7713 47.6696 94.9035 48.2058C95.0356 48.7421 94.708 49.2839 94.1718 49.4161L93.6932 47.4742ZM104.263 46.2367C103.746 46.4313 103.169 46.17 102.975 45.6531C102.78 45.1363 103.041 44.5595 103.558 44.3649L104.263 46.2367ZM108.38 42.4256C108.888 42.2088 109.476 42.4448 109.692 42.9528C109.909 43.4607 109.673 44.0483 109.165 44.2651L108.38 42.4256ZM118.705 39.7841C118.213 40.035 117.611 39.8395 117.36 39.3475C117.109 38.8555 117.305 38.2532 117.797 38.0023L118.705 39.7841ZM122.406 35.5689C122.89 35.3044 123.498 35.483 123.762 35.9678C124.027 36.4526 123.848 37.0601 123.363 37.3246L122.406 35.5689ZM132.472 32.058C132 32.3456 131.385 32.1965 131.097 31.7249C130.81 31.2534 130.959 30.6381 131.43 30.3505L132.472 32.058ZM135.855 27.5858C136.32 27.2881 136.938 27.4239 137.236 27.8892C137.534 28.3544 137.398 28.9728 136.933 29.2704L135.855 27.5858ZM145.671 23.4236C145.218 23.7399 144.595 23.6294 144.279 23.1767C143.962 22.7239 144.073 22.1005 144.526 21.7842L145.671 23.4236ZM148.776 18.7505C149.222 18.4251 149.847 18.5231 150.173 18.9693C150.498 19.4156 150.4 20.0411 149.954 20.3665L148.776 18.7505ZM158.312 13.996C157.881 14.3405 157.251 14.2699 156.907 13.8382C156.562 13.4066 156.633 12.7773 157.065 12.4328L158.312 13.996ZM161.095 9.13146C161.518 8.7758 162.149 8.83 162.504 9.25253C162.86 9.67505 162.806 10.3059 162.383 10.6615L161.095 9.13146ZM170.224 3.57205C169.831 3.96091 169.198 3.95822 168.809 3.56603C168.42 3.17385 168.423 2.5407 168.815 2.15183L170.224 3.57205ZM1.84774 36.6411C2.53575 37.054 3.26198 37.461 4.02443 37.8616L3.09407 39.6321C2.301 39.2153 1.54166 38.7899 0.818685 38.3561L1.84774 36.6411ZM13.3067 41.8242C14.8521 42.3691 16.4645 42.8927 18.135 43.3936L17.5606 45.3093C15.8621 44.8001 14.2194 44.2666 12.6417 43.7104L13.3067 41.8242ZM27.9914 45.9381C29.6241 46.299 31.2884 46.6396 32.978 46.959L32.6066 48.9242C30.8974 48.6011 29.2131 48.2564 27.5598 47.8909L27.9914 45.9381ZM43.0443 48.5676C44.721 48.7886 46.4097 48.9885 48.1051 49.1662L47.8965 51.1553C46.1836 50.9757 44.4773 50.7738 42.7829 50.5505L43.0443 48.5676ZM58.2684 49.9583C59.9721 50.0448 61.6718 50.1073 63.3622 50.1449L63.3177 52.1444C61.6079 52.1063 59.8893 52.0432 58.167 51.9558L58.2684 49.9583ZM73.5448 50.0575C75.263 49.9864 76.9584 49.8858 78.6249 49.7545L78.7819 51.7483C77.0894 51.8816 75.3692 51.9837 73.6275 52.0558L73.5448 50.0575ZM88.6938 48.5121C89.5361 48.3655 90.3652 48.2088 91.1801 48.042L91.5812 50.0014C90.7462 50.1723 89.8977 50.3326 89.0369 50.4825L88.6938 48.5121ZM91.1801 48.042C92.0081 47.8725 92.8461 47.6829 93.6932 47.4742L94.1718 49.4161C93.3003 49.6308 92.4364 49.8263 91.5812 50.0014L91.1801 48.042ZM103.558 44.3649C105.151 43.7651 106.76 43.1169 108.38 42.4256L109.165 44.2651C107.521 44.9668 105.885 45.626 104.263 46.2367L103.558 44.3649ZM117.797 38.0023C119.335 37.2181 120.872 36.4054 122.406 35.5689L123.363 37.3246C121.815 38.1695 120.261 38.9909 118.705 39.7841L117.797 38.0023ZM131.43 30.3505C132.92 29.4419 134.397 28.5188 135.855 27.5858L136.933 29.2704C135.463 30.211 133.974 31.1417 132.472 32.058L131.43 30.3505ZM144.526 21.7842C145.974 20.7718 147.393 19.7588 148.776 18.7505L149.954 20.3665C148.56 21.3827 147.131 22.4035 145.671 23.4236L144.526 21.7842ZM157.065 12.4328C158.475 11.307 159.821 10.2036 161.095 9.13146L162.383 10.6615C161.095 11.7455 159.736 12.8598 158.312 13.996L157.065 12.4328ZM168.815 2.15183C169.463 1.51 170.059 0.897296 170.602 0.317046L172.062 1.68295C171.501 2.28397 170.886 2.91485 170.224 3.57205L168.815 2.15183Z" fill="#D0D0D0"/>
</svg>