<svg xmlns="http://www.w3.org/2000/svg" width="24" height="24" viewBox="0 0 24 24" fill="none">
  <path d="M12 11.2361V8.94442L15.0555 12L12 15.0555V12.7639H8.94442V11.2361H12ZM12 4.36108C16.2166 4.36108 19.6389 7.78331 19.6389 12C19.6389 16.2166 16.2166 19.6389 12 19.6389C7.78331 19.6389 4.36108 16.2166 4.36108 12C4.36108 7.78331 7.78331 4.36108 12 4.36108ZM12 18.1111C15.3764 18.1111 18.1111 15.3764 18.1111 12C18.1111 8.62358 15.3764 5.88886 12 5.88886C8.62358 5.88886 5.88886 8.62358 5.88886 12C5.88886 15.3764 8.62358 18.1111 12 18.1111Z" fill="#07090D"/>
</svg>