<svg width="24" height="25" viewBox="0 0 24 25" fill="none" xmlns="http://www.w3.org/2000/svg">
  <path d="M12.0002 11.2757V8.984L15.0558 12.0396L12.0002 15.0951V12.8034H8.94466V11.2757H12.0002ZM12.0002 4.40067C16.2169 4.40067 19.6391 7.82289 19.6391 12.0396C19.6391 16.2562 16.2169 19.6784 12.0002 19.6784C7.78355 19.6784 4.36133 16.2562 4.36133 12.0396C4.36133 7.82289 7.78355 4.40067 12.0002 4.40067ZM12.0002 18.1507C15.3766 18.1507 18.1113 15.4159 18.1113 12.0396C18.1113 8.66317 15.3766 5.92844 12.0002 5.92844C8.62383 5.92844 5.88911 8.66317 5.88911 12.0396C5.88911 15.4159 8.62383 18.1507 12.0002 18.1507Z" fill="#07090D"/>
</svg>