<svg xmlns="http://www.w3.org/2000/svg" width="14" height="14" viewBox="0 0 14 14" fill="none">
  <path fill-rule="evenodd" clip-rule="evenodd" d="M4.06506 1.44103C4.1057 1.40029 4.15397 1.36796 4.20713 1.34591C4.26028 1.32385 4.31726 1.3125 4.37481 1.3125C4.43235 1.3125 4.48933 1.32385 4.54248 1.34591C4.59564 1.36796 4.64392 1.40029 4.68456 1.44103L9.93456 6.69103C9.9753 6.73167 10.0076 6.77995 10.0297 6.8331C10.0517 6.88625 10.0631 6.94324 10.0631 7.00078C10.0631 7.05833 10.0517 7.11531 10.0297 7.16846C10.0076 7.22161 9.9753 7.26989 9.93456 7.31053L4.68456 12.5605C4.6024 12.6427 4.49098 12.6888 4.37481 12.6888C4.25863 12.6888 4.14721 12.6427 4.06506 12.5605C3.9829 12.4784 3.93675 12.367 3.93675 12.2508C3.93675 12.1346 3.9829 12.0232 4.06506 11.941L9.00618 7.00078L4.06506 2.06053C4.02431 2.01989 3.99199 1.97161 3.96993 1.91846C3.94788 1.86531 3.93652 1.80833 3.93652 1.75078C3.93652 1.69324 3.94788 1.63625 3.96993 1.5831C3.99199 1.52995 4.02431 1.48167 4.06506 1.44103V1.44103Z" fill="#9CA3AF"/>
</svg>