<svg xmlns="http://www.w3.org/2000/svg" width="42" height="42" viewBox="0 0 42 42" fill="none">
  <path d="M5.25 21H7M21 5.25V7M35 21H36.75M9.8 9.8L11.025 11.025M32.2 9.8L30.975 11.025M16.975 29.75H25.025M15.75 28C14.2808 26.8981 13.1956 25.3619 12.648 23.609C12.1004 21.856 12.1183 19.9752 12.699 18.233C13.2798 16.4908 14.394 14.9754 15.8838 13.9016C17.3736 12.8278 19.1635 12.25 21 12.25C22.8365 12.25 24.6264 12.8278 26.1162 13.9016C27.606 14.9754 28.7202 16.4908 29.301 18.233C29.8817 19.9752 29.8996 21.856 29.352 23.609C28.8044 25.3619 27.7192 26.8981 26.25 28C25.5667 28.6763 25.0523 29.504 24.7483 30.4161C24.4443 31.3282 24.3592 32.299 24.5 33.25C24.5 34.1783 24.1313 35.0685 23.4749 35.7249C22.8185 36.3813 21.9283 36.75 21 36.75C20.0717 36.75 19.1815 36.3813 18.5251 35.7249C17.8687 35.0685 17.5 34.1783 17.5 33.25C17.6408 32.299 17.5557 31.3282 17.2517 30.4161C16.9477 29.504 16.4333 28.6763 15.75 28Z" stroke="#1355FF" stroke-width="2" stroke-linecap="round" stroke-linejoin="round"/>
</svg>