<svg xmlns="http://www.w3.org/2000/svg" width="42" height="42" viewBox="0 0 42 42" fill="none">
  <path d="M25.2 16.0996H16.8C16.243 16.0996 15.7089 16.3209 15.3151 16.7147C14.9213 17.1085 14.7 17.6427 14.7 18.1996V20.2996H10.5C8.64349 20.2996 6.86301 21.0371 5.55025 22.3499C4.2375 23.6626 3.5 25.4431 3.5 27.2996C3.5 30.8556 6.209 34.2996 10.913 34.2996L10.353 34.8526C10.2543 34.9505 10.187 35.0756 10.1596 35.2119C10.1323 35.3483 10.1461 35.4896 10.1994 35.618C10.2528 35.7465 10.3431 35.8561 10.459 35.9329C10.5748 36.0098 10.711 36.0504 10.85 36.0496C11.242 36.0496 11.228 35.9586 13.097 34.0966C13.1941 33.9982 13.2599 33.8732 13.2861 33.7374C13.3123 33.6016 13.2976 33.4611 13.244 33.3336C13.174 33.1516 13.244 33.2496 11.347 31.3526C11.2817 31.2873 11.2042 31.2356 11.119 31.2002C11.0337 31.1649 10.9423 31.1467 10.85 31.1467C10.7577 31.1467 10.6663 31.1649 10.581 31.2002C10.4958 31.2356 10.4183 31.2873 10.353 31.3526C10.2877 31.4179 10.236 31.4954 10.2006 31.5806C10.1653 31.6659 10.1471 31.7573 10.1471 31.8496C10.1471 31.9419 10.1653 32.0333 10.2006 32.1186C10.236 32.2039 10.2877 32.2813 10.353 32.3466L10.913 32.8996C7.063 32.8996 4.9 30.1696 4.9 27.2996C4.9 25.8144 5.49 24.39 6.5402 23.3398C7.59041 22.2896 9.01479 21.6996 10.5 21.6996H14.7V23.7996C14.7 24.3566 14.9213 24.8907 15.3151 25.2845C15.7089 25.6784 16.243 25.8996 16.8 25.8996H25.2C25.757 25.8996 26.2911 25.6784 26.6849 25.2845C27.0788 24.8907 27.3 24.3566 27.3 23.7996V18.1996C27.3 17.6427 27.0788 17.1085 26.6849 16.7147C26.2911 16.3209 25.757 16.0996 25.2 16.0996ZM25.9 23.7996C25.9 23.9853 25.8263 24.1633 25.695 24.2946C25.5637 24.4259 25.3857 24.4996 25.2 24.4996H16.8C16.6143 24.4996 16.4363 24.4259 16.305 24.2946C16.1737 24.1633 16.1 23.9853 16.1 23.7996V18.1996C16.1 18.014 16.1737 17.8359 16.305 17.7046C16.4363 17.5734 16.6143 17.4996 16.8 17.4996H25.2C25.3857 17.4996 25.5637 17.5734 25.695 17.7046C25.8263 17.8359 25.9 18.014 25.9 18.1996V23.7996Z" fill="#1355FF"/>
  <path d="M25.1992 28.6998H16.7992C16.2423 28.6998 15.7081 28.9211 15.3143 29.3149C14.9205 29.7087 14.6992 30.2428 14.6992 30.7998V36.3998C14.6992 36.9568 14.9205 37.4909 15.3143 37.8847C15.7081 38.2786 16.2423 38.4998 16.7992 38.4998H25.1992C25.7562 38.4998 26.2903 38.2786 26.6841 37.8847C27.078 37.4909 27.2992 36.9568 27.2992 36.3998V30.7998C27.2992 30.2428 27.078 29.7087 26.6841 29.3149C26.2903 28.9211 25.7562 28.6998 25.1992 28.6998ZM25.8992 36.3998C25.8992 36.5855 25.8255 36.7635 25.6942 36.8948C25.5629 37.0261 25.3849 37.0998 25.1992 37.0998H16.7992C16.6136 37.0998 16.4355 37.0261 16.3042 36.8948C16.173 36.7635 16.0992 36.5855 16.0992 36.3998V30.7998C16.0992 30.6142 16.173 30.4361 16.3042 30.3048C16.4355 30.1736 16.6136 30.0998 16.7992 30.0998H25.1992C25.3849 30.0998 25.5629 30.1736 25.6942 30.3048C25.8255 30.4361 25.8992 30.6142 25.8992 30.7998V36.3998ZM23.7992 6.2998H20.9992C20.8136 6.2998 20.6355 6.37355 20.5042 6.50483C20.373 6.63611 20.2992 6.81415 20.2992 6.9998C20.2992 7.18546 20.373 7.3635 20.5042 7.49478C20.6355 7.62605 20.8136 7.6998 20.9992 7.6998H23.7992C23.9849 7.6998 24.1629 7.62605 24.2942 7.49478C24.4255 7.3635 24.4992 7.18546 24.4992 6.9998C24.4992 6.81415 24.4255 6.63611 24.2942 6.50483C24.1629 6.37355 23.9849 6.2998 23.7992 6.2998ZM18.1992 7.6998C18.3849 7.6998 18.5629 7.62605 18.6942 7.49478C18.8255 7.3635 18.8992 7.18546 18.8992 6.9998C18.8992 6.81415 18.8255 6.63611 18.6942 6.50483C18.5629 6.37355 18.3849 6.2998 18.1992 6.2998C18.0136 6.2998 17.8355 6.37355 17.7042 6.50483C17.573 6.63611 17.4992 6.81415 17.4992 6.9998C17.4992 7.18546 17.573 7.3635 17.7042 7.49478C17.8355 7.62605 18.0136 7.6998 18.1992 7.6998ZM23.7992 18.8998H20.9992C20.8136 18.8998 20.6355 18.9736 20.5042 19.1048C20.373 19.2361 20.2992 19.4142 20.2992 19.5998C20.2992 19.7855 20.373 19.9635 20.5042 20.0948C20.6355 20.2261 20.8136 20.2998 20.9992 20.2998H23.7992C23.9849 20.2998 24.1629 20.2261 24.2942 20.0948C24.4255 19.9635 24.4992 19.7855 24.4992 19.5998C24.4992 19.4142 24.4255 19.2361 24.2942 19.1048C24.1629 18.9736 23.9849 18.8998 23.7992 18.8998ZM18.1992 20.2998C18.3849 20.2998 18.5629 20.2261 18.6942 20.0948C18.8255 19.9635 18.8992 19.7855 18.8992 19.5998C18.8992 19.4142 18.8255 19.2361 18.6942 19.1048C18.5629 18.9736 18.3849 18.8998 18.1992 18.8998C18.0136 18.8998 17.8355 18.9736 17.7042 19.1048C17.573 19.2361 17.4992 19.4142 17.4992 19.5998C17.4992 19.7855 17.573 19.9635 17.7042 20.0948C17.8355 20.2261 18.0136 20.2998 18.1992 20.2998Z" fill="#1355FF"/>
  <path d="M22.953 31.5L20.3 34.188L19.047 32.9C18.9817 32.8347 18.9042 32.783 18.819 32.7476C18.7337 32.7123 18.6423 32.6941 18.55 32.6941C18.4577 32.6941 18.3663 32.7123 18.281 32.7476C18.1958 32.783 18.1183 32.8347 18.053 32.9C17.9877 32.9653 17.936 33.0428 17.9006 33.128C17.8653 33.2133 17.8471 33.3047 17.8471 33.397C17.8471 33.4893 17.8653 33.5807 17.9006 33.666C17.936 33.7512 17.9877 33.8287 18.053 33.894C19.943 35.784 19.915 35.847 20.3 35.847C20.685 35.847 20.58 35.847 23.947 32.494C24.0123 32.4287 24.064 32.3512 24.0994 32.266C24.1347 32.1807 24.1529 32.0893 24.1529 31.997C24.1529 31.9047 24.1347 31.8133 24.0994 31.728C24.064 31.6427 24.0123 31.5653 23.947 31.5C23.8817 31.4347 23.8043 31.383 23.719 31.3476C23.6337 31.3123 23.5423 31.2941 23.45 31.2941C23.3577 31.2941 23.2663 31.3123 23.181 31.3476C23.0957 31.383 23.0183 31.4347 22.953 31.5ZM38.5 14.7C38.5 12.8435 37.7625 11.063 36.4497 9.75025C35.137 8.4375 33.3565 7.7 31.5 7.7H27.3V5.6C27.3 5.04305 27.0787 4.5089 26.6849 4.11508C26.2911 3.72125 25.757 3.5 25.2 3.5H16.8C16.243 3.5 15.7089 3.72125 15.3151 4.11508C14.9212 4.5089 14.7 5.04305 14.7 5.6V11.2C14.7 11.757 14.9212 12.2911 15.3151 12.6849C15.7089 13.0788 16.243 13.3 16.8 13.3H25.2C25.757 13.3 26.2911 13.0788 26.6849 12.6849C27.0787 12.2911 27.3 11.757 27.3 11.2V9.1H31.5C32.9852 9.1 34.4096 9.69 35.4598 10.7402C36.51 11.7904 37.1 13.2148 37.1 14.7C37.1 17.5 35 20.3 31.087 20.3L31.647 19.747C31.7123 19.6817 31.764 19.6042 31.7994 19.519C31.8347 19.4337 31.8529 19.3423 31.8529 19.25C31.8529 19.1577 31.8347 19.0663 31.7994 18.981C31.764 18.8958 31.7123 18.8183 31.647 18.753C31.5817 18.6877 31.5042 18.636 31.419 18.6006C31.3337 18.5653 31.2423 18.5471 31.15 18.5471C31.0577 18.5471 30.9663 18.5653 30.881 18.6006C30.7957 18.636 30.7183 18.6877 30.653 18.753C28.756 20.65 28.826 20.552 28.756 20.734C28.7024 20.8615 28.6877 21.002 28.7139 21.1378C28.7401 21.2736 28.8059 21.3986 28.903 21.497C30.8 23.387 30.8 23.45 31.15 23.45C31.289 23.4508 31.4252 23.4102 31.541 23.3333C31.6569 23.2565 31.7472 23.1468 31.8006 23.0184C31.8539 22.89 31.8677 22.7486 31.8404 22.6123C31.813 22.476 31.7457 22.3509 31.647 22.253L31.087 21.7C35.805 21.7 38.5 18.249 38.5 14.7ZM25.9 11.2C25.9 11.3857 25.8263 11.5637 25.695 11.695C25.5637 11.8263 25.3857 11.9 25.2 11.9H16.8C16.6143 11.9 16.4363 11.8263 16.305 11.695C16.1737 11.5637 16.1 11.3857 16.1 11.2V5.6C16.1 5.41435 16.1737 5.2363 16.305 5.10503C16.4363 4.97375 16.6143 4.9 16.8 4.9H25.2C25.3857 4.9 25.5637 4.97375 25.695 5.10503C25.8263 5.2363 25.9 5.41435 25.9 5.6V11.2ZM4.2 9.1H10.913L10.353 9.653C10.2543 9.75091 10.187 9.876 10.1596 10.0123C10.1323 10.1486 10.1461 10.29 10.1994 10.4184C10.2528 10.5468 10.3431 10.6565 10.459 10.7333C10.5748 10.8102 10.711 10.8508 10.85 10.85C11.242 10.85 11.228 10.759 13.097 8.897C13.1941 8.79856 13.2599 8.67356 13.2861 8.53777C13.3123 8.40198 13.2976 8.26148 13.244 8.134C13.174 7.952 13.244 8.05 11.347 6.153C11.2817 6.08773 11.2042 6.03596 11.119 6.00064C11.0337 5.96532 10.9423 5.94714 10.85 5.94714C10.6636 5.94714 10.4848 6.02119 10.353 6.153C10.2877 6.21827 10.236 6.29575 10.2006 6.38103C10.1653 6.4663 10.1471 6.5577 10.1471 6.65C10.1471 6.83641 10.2212 7.01519 10.353 7.147L10.913 7.7H4.2C4.01435 7.7 3.8363 7.77375 3.70503 7.90503C3.57375 8.0363 3.5 8.21435 3.5 8.4C3.5 8.58565 3.57375 8.7637 3.70503 8.89497C3.8363 9.02625 4.01435 9.1 4.2 9.1Z" fill="#1355FF"/>
  <path d="M23.8 9.09961H18.2C18.0143 9.09961 17.8363 9.17336 17.705 9.30463C17.5737 9.43591 17.5 9.61396 17.5 9.79961C17.5 9.98526 17.5737 10.1633 17.705 10.2946C17.8363 10.4259 18.0143 10.4996 18.2 10.4996H23.8C23.9857 10.4996 24.1637 10.4259 24.295 10.2946C24.4263 10.1633 24.5 9.98526 24.5 9.79961C24.5 9.61396 24.4263 9.43591 24.295 9.30463C24.1637 9.17336 23.9857 9.09961 23.8 9.09961ZM23.8 21.6996H18.2C18.0143 21.6996 17.8363 21.7734 17.705 21.9046C17.5737 22.0359 17.5 22.214 17.5 22.3996C17.5 22.5853 17.5737 22.7633 17.705 22.8946C17.8363 23.0259 18.0143 23.0996 18.2 23.0996H23.8C23.9857 23.0996 24.1637 23.0259 24.295 22.8946C24.4263 22.7633 24.5 22.5853 24.5 22.3996C24.5 22.214 24.4263 22.0359 24.295 21.9046C24.1637 21.7734 23.9857 21.6996 23.8 21.6996Z" fill="#1355FF"/>
</svg>