<svg xmlns="http://www.w3.org/2000/svg" width="42" height="42" viewBox="0 0 42 42" fill="none">
  <path d="M12.5328 14.4765L10.5883 16.421L9.98554 15.8182C9.89515 15.7271 9.78763 15.6547 9.66915 15.6054C9.55068 15.556 9.4236 15.5306 9.29526 15.5306C9.16691 15.5306 9.03984 15.556 8.92136 15.6054C8.80289 15.6547 8.69536 15.7271 8.60498 15.8182C8.4239 16.0003 8.32227 16.2468 8.32227 16.5036C8.32227 16.7605 8.4239 17.0069 8.60498 17.189L9.90776 18.4821C10.0899 18.6632 10.3363 18.7648 10.5932 18.7648C10.85 18.7648 11.0964 18.6632 11.2786 18.4821L13.8744 15.896C14.0575 15.7129 14.1603 15.4646 14.1603 15.2057C14.1603 14.9468 14.0575 14.6985 13.8744 14.5154C13.6913 14.3323 13.443 14.2295 13.1841 14.2295C12.9252 14.2295 12.6769 14.3323 12.4939 14.5154L12.5328 14.4765ZM12.5328 21.2821L10.5883 23.2265L9.98554 22.6237C9.89515 22.5326 9.78763 22.4603 9.66915 22.4109C9.55068 22.3616 9.4236 22.3362 9.29526 22.3362C9.16691 22.3362 9.03984 22.3616 8.92136 22.4109C8.80289 22.4603 8.69536 22.5326 8.60498 22.6237C8.4239 22.8059 8.32227 23.0523 8.32227 23.3092C8.32227 23.566 8.4239 23.8124 8.60498 23.9946L9.90776 25.2876C10.0873 25.4708 10.3319 25.5756 10.5883 25.5793C10.7169 25.5788 10.8442 25.5527 10.9627 25.5026C11.0812 25.4526 11.1885 25.3795 11.2786 25.2876L13.8744 22.7015C14.0575 22.5184 14.1603 22.2702 14.1603 22.0112C14.1603 21.7523 14.0575 21.504 13.8744 21.321C13.6913 21.1379 13.443 21.035 13.1841 21.035C12.9252 21.035 12.6769 21.1379 12.4939 21.321L12.5328 21.2821ZM12.5328 28.0876L10.5883 30.0321L9.98554 29.4293C9.89515 29.3382 9.78763 29.2658 9.66915 29.2165C9.55068 29.1671 9.4236 29.1417 9.29526 29.1417C9.16691 29.1417 9.03984 29.1671 8.92136 29.2165C8.80289 29.2658 8.69536 29.3382 8.60498 29.4293C8.4239 29.6115 8.32227 29.8579 8.32227 30.1147C8.32227 30.3716 8.4239 30.618 8.60498 30.8001L9.90776 32.0932C10.0873 32.2764 10.3319 32.3812 10.5883 32.3849C10.7169 32.3843 10.8442 32.3583 10.9627 32.3082C11.0812 32.2581 11.1885 32.185 11.2786 32.0932L13.8744 29.5071C14.0575 29.324 14.1603 29.0757 14.1603 28.8168C14.1603 28.5579 14.0575 28.3096 13.8744 28.1265C13.6913 27.9434 13.443 27.8406 13.1841 27.8406C12.9252 27.8406 12.6769 27.9434 12.4939 28.1265L12.5328 28.0876Z" fill="#1355FF"/>
  <path d="M38.4222 11.5889C38.291 11.0271 37.9961 10.5169 37.5748 10.1227C37.1535 9.72852 36.6248 9.46814 36.0555 9.37447C35.4863 9.28081 34.902 9.35807 34.3767 9.59649C33.8513 9.83491 33.4085 10.2238 33.1042 10.7139L30.7222 14.5542V10.3056C30.723 10.1776 30.6984 10.0508 30.65 9.93233C30.6017 9.81387 30.5304 9.70614 30.4403 9.61529L24.6069 3.78196C24.5161 3.69185 24.4084 3.62057 24.2899 3.57218C24.1714 3.5238 24.0446 3.49928 23.9167 3.50002H6.71805C5.86457 3.50002 5.04605 3.83906 4.44255 4.44256C3.83904 5.04606 3.5 5.86459 3.5 6.71807V35.2819C3.5 36.1354 3.83904 36.954 4.44255 37.5575C5.04605 38.161 5.86457 38.5 6.71805 38.5H27.5042C27.9268 38.5 28.3452 38.4168 28.7357 38.255C29.1261 38.0933 29.4808 37.8563 29.7797 37.5575C30.0785 37.2586 30.3155 36.9039 30.4773 36.5134C30.639 36.123 30.7222 35.7045 30.7222 35.2819V25.6083L38.0625 13.7861C38.4682 13.1301 38.5976 12.3401 38.4222 11.5889ZM32.6667 15.0403L34.3194 16.0708L25.3361 30.5958L24.0042 30.9069L23.6833 29.5653L32.6667 15.0403ZM24.8889 6.81529L27.4069 9.33335H24.8889V6.81529ZM28.7778 35.2819C28.7778 35.4492 28.7448 35.6148 28.6808 35.7693C28.6168 35.9239 28.523 36.0643 28.4047 36.1825C28.2865 36.3008 28.1461 36.3946 27.9915 36.4586C27.837 36.5226 27.6714 36.5556 27.5042 36.5556H6.71805C6.5508 36.5556 6.38519 36.5226 6.23066 36.4586C6.07614 36.3946 5.93574 36.3008 5.81748 36.1825C5.69921 36.0643 5.6054 35.9239 5.54139 35.7693C5.47739 35.6148 5.44444 35.4492 5.44444 35.2819V6.71807C5.44444 6.38029 5.57863 6.05634 5.81748 5.81749C6.05632 5.57864 6.38027 5.44446 6.71805 5.44446H22.9444V10.3056C22.9444 10.5634 23.0469 10.8107 23.2292 10.993C23.4115 11.1754 23.6588 11.2778 23.9167 11.2778H28.7778V17.6847L21.8264 28.8847C21.6898 29.1016 21.6444 29.3637 21.7 29.6139L22.3319 32.2972C22.3833 32.5147 22.508 32.7079 22.685 32.8443C22.8621 32.9806 23.0808 33.0518 23.3042 33.0458C23.3784 33.0553 23.4535 33.0553 23.5278 33.0458L26.2014 32.4236C26.3257 32.3939 26.4429 32.3399 26.5463 32.2649C26.6498 32.1898 26.7374 32.0951 26.8042 31.9861L28.7778 28.7778V35.2819ZM36.4097 12.7653L35.3792 14.4181L33.7361 13.3875L34.7083 11.7347C34.7758 11.626 34.8641 11.5318 34.9682 11.4573C35.0722 11.3828 35.1899 11.3295 35.3146 11.3006C35.4392 11.2717 35.5683 11.2677 35.6945 11.2888C35.8207 11.3099 35.9415 11.3557 36.05 11.4236C36.2664 11.5604 36.4201 11.777 36.4778 12.0264C36.5537 12.272 36.5292 12.5377 36.4097 12.7653Z" fill="#1355FF"/>
  <path d="M17.1109 16.1388H24.8887C25.1465 16.1388 25.3938 16.0363 25.5761 15.854C25.7585 15.6717 25.8609 15.4244 25.8609 15.1666C25.8609 14.9087 25.7585 14.6614 25.5761 14.4791C25.3938 14.2968 25.1465 14.1943 24.8887 14.1943H17.1109C16.853 14.1943 16.6058 14.2968 16.4234 14.4791C16.2411 14.6614 16.1387 14.9087 16.1387 15.1666C16.1387 15.4244 16.2411 15.6717 16.4234 15.854C16.6058 16.0363 16.853 16.1388 17.1109 16.1388ZM17.1109 19.0554H20.9998C21.2576 19.0554 21.5049 18.953 21.6872 18.7707C21.8696 18.5884 21.972 18.3411 21.972 18.0832C21.972 17.8254 21.8696 17.5781 21.6872 17.3958C21.5049 17.2134 21.2576 17.111 20.9998 17.111H17.1109C16.853 17.111 16.6058 17.2134 16.4234 17.3958C16.2411 17.5781 16.1387 17.8254 16.1387 18.0832C16.1387 18.3411 16.2411 18.5884 16.4234 18.7707C16.6058 18.953 16.853 19.0554 17.1109 19.0554ZM17.1109 22.9443H22.9442C23.2021 22.9443 23.4494 22.8419 23.6317 22.6596C23.814 22.4772 23.9164 22.23 23.9164 21.9721C23.9164 21.7143 23.814 21.467 23.6317 21.2846C23.4494 21.1023 23.2021 20.9999 22.9442 20.9999H17.1109C16.853 20.9999 16.6058 21.1023 16.4234 21.2846C16.2411 21.467 16.1387 21.7143 16.1387 21.9721C16.1387 22.23 16.2411 22.4772 16.4234 22.6596C16.6058 22.8419 16.853 22.9443 17.1109 22.9443ZM20.0276 23.9166H17.1109C16.853 23.9166 16.6058 24.019 16.4234 24.2013C16.2411 24.3836 16.1387 24.6309 16.1387 24.8888C16.1387 25.1466 16.2411 25.3939 16.4234 25.5762C16.6058 25.7586 16.853 25.861 17.1109 25.861H20.0276C20.2854 25.861 20.5327 25.7586 20.715 25.5762C20.8974 25.3939 20.9998 25.1466 20.9998 24.8888C20.9998 24.6309 20.8974 24.3836 20.715 24.2013C20.5327 24.019 20.2854 23.9166 20.0276 23.9166ZM19.0553 27.8054H17.1109C16.853 27.8054 16.6058 27.9079 16.4234 28.0902C16.2411 28.2725 16.1387 28.5198 16.1387 28.7777C16.1387 29.0355 16.2411 29.2828 16.4234 29.4651C16.6058 29.6475 16.853 29.7499 17.1109 29.7499H19.0553C19.3132 29.7499 19.5605 29.6475 19.7428 29.4651C19.9251 29.2828 20.0276 29.0355 20.0276 28.7777C20.0276 28.5198 19.9251 28.2725 19.7428 28.0902C19.5605 27.9079 19.3132 27.8054 19.0553 27.8054ZM19.0553 30.7221H17.1109C16.853 30.7221 16.6058 30.8245 16.4234 31.0069C16.2411 31.1892 16.1387 31.4365 16.1387 31.6943C16.1387 31.9522 16.2411 32.1995 16.4234 32.3818C16.6058 32.5641 16.853 32.6665 17.1109 32.6665H19.0553C19.3132 32.6665 19.5605 32.5641 19.7428 32.3818C19.9251 32.1995 20.0276 31.9522 20.0276 31.6943C20.0276 31.4365 19.9251 31.1892 19.7428 31.0069C19.5605 30.8245 19.3132 30.7221 19.0553 30.7221Z" fill="#1355FF"/>
</svg>