<svg xmlns="http://www.w3.org/2000/svg" width="42" height="42" viewBox="0 0 42 42" fill="none">
  <path d="M12.7306 29.5345C11.7985 29.5345 10.8874 29.2581 10.1124 28.7403C9.33741 28.2225 8.73339 27.4865 8.3767 26.6254C8.02002 25.7643 7.92669 24.8167 8.10853 23.9026C8.29037 22.9884 8.7392 22.1487 9.39826 21.4897C10.0573 20.8306 10.897 20.3818 11.8112 20.1999C12.7253 20.0181 13.6729 20.1114 14.534 20.4681C15.3951 20.8248 16.1311 21.4288 16.6489 22.2038C17.1667 22.9788 17.4431 23.8899 17.4431 24.822C17.4403 26.0709 16.9428 27.2679 16.0597 28.1511C15.1765 29.0342 13.9795 29.5316 12.7306 29.5345ZM12.7306 21.8807C12.151 21.8807 11.5844 22.0526 11.1026 22.3745C10.6207 22.6965 10.2451 23.1542 10.0233 23.6896C9.8015 24.2251 9.74347 24.8143 9.85654 25.3827C9.9696 25.9511 10.2487 26.4733 10.6585 26.8831C11.0683 27.2929 11.5905 27.572 12.1589 27.685C12.7273 27.7981 13.3165 27.7401 13.8519 27.5183C14.3874 27.2965 14.845 26.9209 15.167 26.439C15.489 25.9571 15.6609 25.3906 15.6609 24.811C15.658 24.0347 15.3484 23.2911 14.7994 22.7421C14.2505 22.1932 13.5068 21.8836 12.7306 21.8807ZM6.13732 38.4895C6.01525 38.4868 5.89498 38.4595 5.78372 38.4092C5.67246 38.3589 5.57249 38.2867 5.4898 38.1968C5.40711 38.107 5.3434 38.0014 5.30248 37.8864C5.26156 37.7713 5.24428 37.6492 5.25166 37.5273L5.37194 35.9856C5.49983 34.5818 6.14665 33.2761 7.18596 32.3237C8.22527 31.3713 9.58238 30.8408 10.992 30.8357H14.48C15.8949 30.8415 17.2563 31.3766 18.2964 32.3358C19.3365 33.295 19.9799 34.6087 20.1001 36.0184L20.2204 37.5601C20.2263 37.6774 20.2088 37.7946 20.1689 37.905C20.1291 38.0154 20.0677 38.1168 19.9884 38.2032C19.909 38.2897 19.8133 38.3596 19.7067 38.4087C19.6001 38.4579 19.4848 38.4853 19.3675 38.4895H10.8827C10.6464 38.4895 10.4197 38.3956 10.2526 38.2285C10.0855 38.0614 9.99158 37.8347 9.99158 37.5984C9.99158 37.3621 10.0855 37.1354 10.2526 36.9683C10.4197 36.8012 10.6464 36.7073 10.8827 36.7073H18.3616V36.1278C18.2773 35.1656 17.8373 34.2695 17.1276 33.6144C16.4179 32.9593 15.4895 32.5923 14.5237 32.5851H10.992C10.0255 32.5899 9.09574 32.956 8.38554 33.6116C7.67533 34.2672 7.23609 35.1647 7.15419 36.1278L7.03391 37.6695C7.01721 37.8947 6.91508 38.1051 6.74842 38.2575C6.58176 38.4099 6.36315 38.4929 6.13732 38.4895ZM30.3781 29.5345C29.4461 29.5345 28.5349 29.2581 27.76 28.7403C26.985 28.2225 26.381 27.4865 26.0243 26.6254C25.6676 25.7643 25.5743 24.8167 25.7561 23.9026C25.9379 22.9884 26.3868 22.1487 27.0458 21.4897C27.7049 20.8306 28.5446 20.3818 29.4588 20.1999C30.3729 20.0181 31.3204 20.1114 32.1816 20.4681C33.0427 20.8248 33.7787 21.4288 34.2965 22.2038C34.8143 22.9788 35.0907 23.8899 35.0907 24.822C35.0878 26.0709 34.5904 27.2679 33.7072 28.1511C32.8241 29.0342 31.6271 29.5316 30.3781 29.5345ZM30.3781 21.8807C29.7986 21.8807 29.232 22.0526 28.7501 22.3745C28.2682 22.6965 27.8927 23.1542 27.6709 23.6896C27.4491 24.2251 27.391 24.8143 27.5041 25.3827C27.6172 25.9511 27.8963 26.4733 28.3061 26.8831C28.7159 27.2929 29.238 27.572 29.8065 27.685C30.3749 27.7981 30.9641 27.7401 31.4995 27.5183C32.035 27.2965 32.4926 26.9209 32.8146 26.439C33.1366 25.9571 33.3085 25.3906 33.3085 24.811C33.3056 24.0347 32.9959 23.2911 32.447 22.7421C31.8981 22.1932 31.1544 21.8836 30.3781 21.8807ZM36.9714 38.4895C36.7474 38.4901 36.5315 38.4059 36.3672 38.2537C36.2029 38.1016 36.1023 37.8928 36.0857 37.6695L35.9654 36.1278C35.8835 35.1647 35.4443 34.2672 34.7341 33.6116C34.0239 32.956 33.0941 32.5899 32.1276 32.5851H28.6396C27.6778 32.6007 26.756 32.9728 26.053 33.6294C25.3499 34.286 24.9157 35.1802 24.8346 36.1387V36.7182H32.3135C32.5498 36.7182 32.7765 36.8121 32.9436 36.9792C33.1107 37.1463 33.2046 37.373 33.2046 37.6093C33.2046 37.8457 33.1107 38.0723 32.9436 38.2395C32.7765 38.4066 32.5498 38.5005 32.3135 38.5005H23.7412C23.6181 38.5009 23.4963 38.4757 23.3836 38.4265C23.2708 38.3773 23.1695 38.3051 23.0862 38.2146C23.0029 38.1241 22.9393 38.0172 22.8996 37.9007C22.8599 37.7843 22.8449 37.6608 22.8555 37.5383L22.9758 35.9966C23.1018 34.5832 23.7537 33.2687 24.8025 32.313C25.8513 31.3573 27.2207 30.8301 28.6396 30.8357H32.1276C33.5424 30.8415 34.9039 31.3766 35.944 32.3358C36.9841 33.295 37.6275 34.6087 37.7477 36.0184L37.868 37.5601C37.8709 37.6802 37.8499 37.7997 37.8063 37.9116C37.7627 38.0236 37.6972 38.1257 37.6138 38.2122C37.5304 38.2986 37.4307 38.3676 37.3204 38.4153C37.2101 38.4629 37.0915 38.4881 36.9714 38.4895Z" fill="#1355FF"/>
  <path fill-rule="evenodd" clip-rule="evenodd" d="M21.5545 9.42578C21.7296 9.42578 21.9009 9.47772 22.0465 9.57504C22.1922 9.67236 22.3057 9.81068 22.3727 9.97251C22.4397 10.1343 22.4573 10.3124 22.4231 10.4842C22.3889 10.656 22.3046 10.8138 22.1807 10.9377C22.0569 11.0616 21.899 11.1459 21.7272 11.1801C21.5554 11.2143 21.3774 11.1967 21.2155 11.1297C21.0537 11.0626 20.9154 10.9491 20.8181 10.8035C20.7207 10.6578 20.6688 10.4866 20.6688 10.3114C20.6688 10.0765 20.7621 9.85128 20.9282 9.68518C21.0943 9.51909 21.3196 9.42578 21.5545 9.42578ZM18.0009 9.42578C18.1761 9.42578 18.3473 9.47772 18.4929 9.57504C18.6386 9.67236 18.7521 9.81068 18.8191 9.97251C18.8862 10.1343 18.9037 10.3124 18.8695 10.4842C18.8354 10.656 18.751 10.8138 18.6271 10.9377C18.5033 11.0616 18.3455 11.1459 18.1737 11.1801C18.0019 11.2143 17.8238 11.1967 17.662 11.1297C17.5001 11.0626 17.3618 10.9491 17.2645 10.8035C17.1672 10.6578 17.1152 10.4866 17.1152 10.3114C17.1152 10.0765 17.2085 9.85128 17.3746 9.68518C17.5407 9.51909 17.766 9.42578 18.0009 9.42578ZM25.108 9.42578C25.2832 9.42578 25.4544 9.47772 25.6001 9.57504C25.7457 9.67236 25.8592 9.81068 25.9263 9.97251C25.9933 10.1343 26.0108 10.3124 25.9767 10.4842C25.9425 10.656 25.8581 10.8138 25.7343 10.9377C25.6104 11.0616 25.4526 11.1459 25.2808 11.1801C25.109 11.2143 24.9309 11.1967 24.7691 11.1297C24.6073 11.0626 24.469 10.9491 24.3716 10.8035C24.2743 10.6578 24.2224 10.4866 24.2224 10.3114C24.2224 10.0765 24.3157 9.85128 24.4818 9.68518C24.6479 9.51909 24.8731 9.42578 25.108 9.42578Z" fill="#1355FF"/>
  <path d="M21.5545 20.2072C21.2828 20.2083 21.0135 20.1557 20.7621 20.0525C20.5106 19.9493 20.2821 19.7975 20.0894 19.6059L17.7167 17.2332C17.6617 17.1777 17.587 17.1462 17.5089 17.1457H14.4365C13.5665 17.1457 12.7322 16.8001 12.117 16.185C11.5018 15.5698 11.1562 14.7355 11.1562 13.8655V6.78022C11.157 5.9159 11.4989 5.0868 12.1075 4.47313C12.4122 4.16517 12.7749 3.92061 13.1746 3.75359C13.5744 3.58656 14.0032 3.50037 14.4365 3.5H28.6507C29.5207 3.5 30.355 3.84559 30.9702 4.46075C31.5854 5.07591 31.931 5.91025 31.931 6.78022V13.8983C31.9302 14.7626 31.5884 15.5917 30.9797 16.2054C30.366 16.814 29.5369 17.1559 28.6726 17.1566H25.6001C25.522 17.1572 25.4473 17.1886 25.3924 17.2441L23.0197 19.6168C22.6288 19.9999 22.1018 20.2122 21.5545 20.2072ZM14.4365 5.28225C14.2412 5.28368 14.0481 5.32356 13.8682 5.39962C13.6884 5.47567 13.5252 5.58641 13.3882 5.72551C13.2511 5.86461 13.1428 6.02935 13.0694 6.21032C12.996 6.39128 12.9589 6.58494 12.9604 6.78022V13.8983C12.9604 14.2927 13.117 14.6709 13.3959 14.9498C13.6748 15.2287 14.053 15.3853 14.4474 15.3853H17.5089C17.7815 15.3857 18.0512 15.44 18.3027 15.5451C18.5541 15.6502 18.7823 15.804 18.9741 15.9976L21.3468 18.3703C21.4021 18.4251 21.4767 18.4558 21.5545 18.4558C21.6323 18.4558 21.707 18.4251 21.7623 18.3703L24.135 15.9976C24.3268 15.804 24.5549 15.6502 24.8064 15.5451C25.0579 15.44 25.3276 15.3857 25.6001 15.3853H28.6726C29.067 15.3853 29.4452 15.2287 29.7241 14.9498C30.003 14.6709 30.1596 14.2927 30.1596 13.8983V6.78022C30.1596 6.58494 30.1212 6.39157 30.0464 6.21116C29.9717 6.03074 29.8622 5.86681 29.7241 5.72873C29.586 5.59064 29.4221 5.48111 29.2417 5.40638C29.0613 5.33165 28.8679 5.29319 28.6726 5.29319L14.4365 5.28225Z" fill="#1355FF"/>
</svg>