<svg xmlns="http://www.w3.org/2000/svg" width="42" height="42" viewBox="0 0 42 42" fill="none">
  <path d="M7.093 26.6318C5.11176 26.6318 3.5 28.2437 3.5 30.2249C3.5 32.2061 5.11183 33.8179 7.09307 33.818C8.05282 33.818 8.95506 33.4443 9.63368 32.7656C10.3124 32.087 10.6861 31.1846 10.6861 30.2249C10.6861 28.2437 9.07424 26.6318 7.093 26.6318ZM8.83538 31.9672C8.37001 32.4326 7.75123 32.6889 7.09307 32.6889C5.73443 32.6889 4.62903 31.5835 4.62903 30.2249C4.62903 28.8662 5.73443 27.7609 7.093 27.7609C8.45165 27.7609 9.55705 28.8662 9.55705 30.2249C9.55705 30.8831 9.30076 31.5018 8.83538 31.9672ZM20.4482 10.6861C22.4294 10.6861 24.0413 9.07424 24.0413 7.09307C24.0413 5.11191 22.4294 3.5 20.4482 3.5C18.4669 3.5 16.8552 5.11183 16.8552 7.09307C16.8552 9.07431 18.467 10.6861 20.4482 10.6861ZM20.4482 4.62903C21.8068 4.62903 22.9122 5.73443 22.9122 7.09307C22.9122 8.45172 21.8068 9.55705 20.4482 9.55705C19.0895 9.55705 17.9842 8.45165 17.9842 7.09307C17.9842 5.73443 19.0895 4.62903 20.4482 4.62903ZM33.8034 26.6318C31.8223 26.6318 30.2104 28.2437 30.2103 30.2248C30.2103 32.2061 31.8221 33.8179 33.8033 33.8179C35.7845 33.8179 37.3964 32.2061 37.3964 30.2248C37.3964 28.2436 35.7846 26.6318 33.8034 26.6318ZM33.8033 32.6889C32.4446 32.6889 31.3393 31.5835 31.3393 30.2248C31.3393 28.8662 32.4447 27.7609 33.8034 27.7609C35.162 27.7609 36.2673 28.8662 36.2673 30.2248C36.2673 31.5835 35.162 32.6889 33.8033 32.6889ZM25.3991 7.89518C25.4254 7.82588 25.4651 7.76243 25.5159 7.70849C25.5668 7.65454 25.6278 7.61113 25.6954 7.58076C25.763 7.55039 25.836 7.53364 25.9101 7.53147C25.9842 7.5293 26.058 7.54175 26.1273 7.56812C29.1256 8.70801 31.6888 10.7036 33.5395 13.339C35.4331 16.0352 36.4339 19.208 36.4339 22.5142C36.4339 23.3661 36.3653 24.2254 36.2299 25.0683C36.2061 25.2161 36.1246 25.3484 36.0033 25.4361C35.8819 25.5239 35.7308 25.5598 35.5829 25.5361C35.5097 25.5243 35.4396 25.4983 35.3764 25.4594C35.3133 25.4205 35.2585 25.3696 35.215 25.3095C35.1716 25.2495 35.1404 25.1814 35.1232 25.1093C35.1061 25.0372 35.1033 24.9624 35.1151 24.8892C35.2411 24.1038 35.3046 23.3097 35.3048 22.5142C35.3048 16.384 31.4554 10.8017 25.7261 8.62341C25.5861 8.57019 25.4731 8.46357 25.4118 8.32701C25.3504 8.19044 25.3459 8.03511 25.3991 7.89518ZM4.6665 25.0683C4.53102 24.2237 4.4628 23.3696 4.4625 22.5142C4.4625 19.208 5.46339 16.0353 7.35691 13.339C9.20768 10.7036 11.7707 8.70801 14.7692 7.56812C14.8384 7.54177 14.9122 7.52933 14.9863 7.53151C15.0604 7.53369 15.1334 7.55044 15.201 7.58081C15.2686 7.61118 15.3296 7.65458 15.3805 7.70852C15.4313 7.76246 15.471 7.82589 15.4974 7.89518C15.5506 8.03512 15.546 8.19046 15.4847 8.32703C15.4233 8.46359 15.3102 8.5702 15.1703 8.62341C9.4409 10.8017 5.59153 16.384 5.59153 22.5142C5.59153 23.3063 5.65539 24.1053 5.78128 24.8892C5.79303 24.9624 5.79026 25.0372 5.77311 25.1094C5.75595 25.1815 5.72477 25.2495 5.68132 25.3096C5.63787 25.3697 5.58302 25.4206 5.51989 25.4594C5.45677 25.4983 5.3866 25.5244 5.3134 25.5361C5.2402 25.5479 5.16541 25.5451 5.09328 25.528C5.02116 25.5108 4.95312 25.4796 4.89305 25.4362C4.83298 25.3927 4.78206 25.3379 4.74319 25.2747C4.70431 25.2116 4.67826 25.1415 4.6665 25.0683ZM30.6307 34.1086C30.7254 34.2246 30.7701 34.3734 30.7551 34.5224C30.74 34.6714 30.6664 34.8082 30.5504 34.9029C27.7092 37.2225 24.1214 38.5 20.4482 38.5C16.7745 38.5 13.1868 37.2225 10.3459 34.9029C10.2299 34.8082 10.1563 34.6713 10.1413 34.5224C10.1262 34.3734 10.171 34.2246 10.2657 34.1086C10.3603 33.9927 10.4972 33.9191 10.6462 33.904C10.7951 33.889 10.944 33.9337 11.0599 34.0284C13.6999 36.1839 17.0341 37.371 20.4482 37.371C23.862 37.371 27.1961 36.1839 29.8364 34.0283C29.9524 33.9337 30.1013 33.8889 30.2502 33.904C30.3992 33.919 30.536 33.9927 30.6307 34.1086ZM23.4897 28.8865H24.1807L26.2429 31.0285C26.3156 31.1039 26.4078 31.1576 26.5092 31.1837C26.6107 31.2097 26.7173 31.207 26.8173 31.1759C26.9173 31.1448 27.0067 31.0865 27.0754 31.0075C27.1442 30.9285 27.1896 30.8319 27.2066 30.7286L28.2548 24.3524C28.273 24.2418 28.2578 24.1283 28.2112 24.0263C28.1646 23.9243 28.0888 23.8385 27.9932 23.7798L25.8582 22.4684C25.8624 21.6064 25.8031 20.78 25.6791 19.9849C25.1639 16.6812 23.5184 13.9614 20.7882 11.9011C20.6902 11.8272 20.5708 11.7872 20.4481 11.7872C20.3254 11.7872 20.206 11.8272 20.1081 11.9011C17.3779 13.9613 15.7324 16.6811 15.2171 19.9849C15.0931 20.7801 15.0338 21.6065 15.038 22.4685L12.9031 23.7798C12.8076 23.8385 12.7317 23.9243 12.6851 24.0263C12.6386 24.1282 12.6234 24.2418 12.6416 24.3524L13.6897 30.7285C13.7067 30.8319 13.7521 30.9284 13.8208 31.0074C13.8896 31.0865 13.9789 31.1448 14.0789 31.1759C14.1789 31.207 14.2856 31.2097 14.3871 31.1837C14.4885 31.1576 14.5807 31.1039 14.6534 31.0284L16.7156 28.8864H17.4066V30.2475C17.4066 30.319 17.4204 30.387 17.4445 30.4499C17.4286 30.6047 17.4205 30.7602 17.4202 30.9158C17.4202 32.3964 18.3998 33.6888 19.2641 34.8291C19.5258 35.1743 19.7729 35.5003 19.9764 35.8097C20.0278 35.8878 20.0978 35.952 20.1801 35.9964C20.2624 36.0408 20.3545 36.0641 20.448 36.0641C20.5416 36.0641 20.6337 36.0408 20.716 35.9964C20.7983 35.952 20.8683 35.8878 20.9197 35.8097C21.1231 35.5004 21.3703 35.1744 21.6319 34.8292C22.4962 33.6888 23.4759 32.3965 23.4759 30.9158C23.4756 30.7602 23.4674 30.6047 23.4516 30.4499C23.4766 30.3853 23.4894 30.3167 23.4895 30.2475L23.4897 28.8865ZM27.0791 24.5434L26.2752 29.4342L25.046 28.1576C25.4499 26.59 25.7025 25.1304 25.8049 23.7608L27.0791 24.5434ZM20.4481 13.0673C24.1331 16.0344 25.4244 20.2854 24.3687 26.0067H16.5275C15.4719 20.2854 16.7632 16.0344 20.4481 13.0673ZM14.6212 29.4342L13.8172 24.5434L15.0913 23.7608C15.1937 25.1304 15.4464 26.59 15.8502 28.1576L14.6212 29.4342ZM16.7617 27.1357H24.1345C24.0868 27.3435 24.0367 27.5508 23.9844 27.7575H16.9118C16.8596 27.5508 16.8095 27.3435 16.7617 27.1357ZM22.3606 28.8865V29.6831H18.5357V28.8865H22.3606ZM20.7323 34.1472C20.6354 34.275 20.5404 34.4003 20.4482 34.524C20.354 34.398 20.2593 34.2724 20.1641 34.1472C19.3702 33.0999 18.5494 32.017 18.5494 30.9159C18.5494 30.8813 18.5506 30.8467 18.5516 30.8121H22.3449C22.3459 30.8467 22.347 30.8813 22.347 30.9159C22.347 32.017 21.5261 33.0999 20.7323 34.1472ZM20.4481 22.2353C21.9267 22.2353 23.1296 21.0324 23.1296 19.5539C23.1296 18.0753 21.9267 16.8724 20.4481 16.8724C18.9696 16.8724 17.7667 18.0752 17.7667 19.5539C17.7667 21.0324 18.9696 22.2353 20.4481 22.2353ZM20.4481 18.0014C21.3041 18.0014 22.0005 18.6978 22.0005 19.5539C22.0005 20.4099 21.3041 21.1063 20.4481 21.1063C19.5921 21.1063 18.8957 20.4099 18.8957 19.5539C18.8957 18.6978 19.5921 18.0014 20.4481 18.0014Z" fill="#1355FF"/>
</svg>