<svg xmlns="http://www.w3.org/2000/svg" width="42" height="42" viewBox="0 0 42 42" fill="none">
  <path d="M16.5661 9.6833C16.5674 10.8587 17.035 11.9857 17.8662 12.8168C18.6975 13.6479 19.8245 14.1153 20.9999 14.1164C23.4443 14.1164 25.433 12.1277 25.433 9.6833C25.433 7.2389 23.4443 5.2502 20.9992 5.2502C19.8239 5.25149 18.6971 5.71897 17.866 6.55005C17.0349 7.38114 16.5674 8.50796 16.5661 9.6833ZM20.9992 6.6502C22.6715 6.6502 24.0323 8.011 24.0323 9.6833C24.0323 11.3556 22.6722 12.7164 20.9992 12.7164C19.3262 12.7164 17.9654 11.3556 17.9654 9.6833C17.9654 8.011 19.3269 6.6502 20.9992 6.6502ZM23.6109 27.8644H18.3882C17.81 27.865 17.2557 28.0948 16.8467 28.5036C16.4378 28.9124 16.2078 29.4667 16.207 30.0449V35.2676C16.2078 35.8459 16.4378 36.4002 16.8467 36.8091C17.2556 37.218 17.81 37.4481 18.3882 37.4488H23.6109C24.1891 37.4481 24.7434 37.218 25.1522 36.8091C25.561 36.4002 25.7909 35.8458 25.7914 35.2676V30.0449C25.7909 29.4668 25.561 28.9125 25.1522 28.5037C24.7434 28.0949 24.1891 27.865 23.6109 27.8644ZM24.3914 35.2676C24.3914 35.6981 24.0414 36.0488 23.6109 36.0488H18.3882C18.1811 36.0486 17.9825 35.9662 17.836 35.8198C17.6896 35.6733 17.6072 35.4747 17.607 35.2676V30.0449C17.607 29.6144 17.957 29.2644 18.3882 29.2644H23.6109C24.0414 29.2644 24.3914 29.6144 24.3914 30.0449V35.2676ZM36.3187 27.8644H31.096C30.5178 27.865 29.9635 28.0948 29.5545 28.5036C29.1456 28.9124 28.9156 29.4667 28.9148 30.0449V35.2676C28.9156 35.8459 29.1456 36.4002 29.5545 36.8091C29.9634 37.218 30.5178 37.4481 31.096 37.4488H36.3187C36.8969 37.4481 37.4512 37.218 37.86 36.8091C38.2688 36.4002 38.4987 35.8458 38.4992 35.2676V30.0449C38.4987 29.4668 38.2688 28.9125 37.86 28.5037C37.4511 28.0949 36.8969 27.865 36.3187 27.8644ZM37.0992 35.2676C37.0992 35.6981 36.7492 36.0488 36.3187 36.0488H31.096C30.8889 36.0486 30.6903 35.9662 30.5438 35.8198C30.3974 35.6733 30.315 35.4747 30.3148 35.2676V30.0449C30.3148 29.6144 30.6648 29.2644 31.096 29.2644H36.3187C36.7492 29.2644 37.0992 29.6144 37.0992 30.0449V35.2676ZM5.68042 37.4488H10.9031C11.4814 37.4481 12.0357 37.218 12.4446 36.8091C12.8535 36.4002 13.0836 35.8459 13.0843 35.2676V30.0449C13.0834 29.4668 12.8533 28.9126 12.4444 28.5038C12.0355 28.0951 11.4813 27.8651 10.9031 27.8644H5.68042C5.10222 27.865 4.54785 28.0948 4.13894 28.5036C3.73002 28.9124 3.49996 29.4667 3.49922 30.0449V35.2676C3.49996 35.8459 3.73 36.4002 4.1389 36.8091C4.54779 37.218 5.10216 37.4481 5.68042 37.4488ZM4.89922 30.0449C4.89922 29.6144 5.24922 29.2644 5.68042 29.2644H10.9031C11.3343 29.2644 11.6843 29.6144 11.6843 30.0449V35.2676C11.6843 35.6981 11.3343 36.0488 10.9031 36.0488H5.68042C5.47329 36.0486 5.27469 35.9662 5.12823 35.8198C4.98177 35.6733 4.8994 35.4747 4.89922 35.2676V30.0449ZM33.007 25.3696C33.007 25.5552 33.0808 25.7333 33.212 25.8646C33.3433 25.9958 33.5214 26.0696 33.707 26.0696C33.8927 26.0696 34.0707 25.9958 34.202 25.8646C34.3333 25.7333 34.407 25.5552 34.407 25.3696C34.4057 24.118 33.9079 22.918 33.0229 22.0329C32.1379 21.1479 30.9379 20.6501 29.6862 20.6488H21.6992V17.3287C21.6992 17.143 21.6255 16.965 21.4942 16.8337C21.3629 16.7024 21.1849 16.6287 20.9992 16.6287C20.8136 16.6287 20.6355 16.7024 20.5042 16.8337C20.373 16.965 20.2992 17.143 20.2992 17.3287V20.6488H12.3122C11.0606 20.6501 9.86058 21.1479 8.97554 22.0329C8.0905 22.918 7.59272 24.118 7.59142 25.3696C7.59142 25.5552 7.66517 25.7333 7.79644 25.8646C7.92772 25.9958 8.10577 26.0696 8.29142 26.0696C8.47707 26.0696 8.65512 25.9958 8.78639 25.8646C8.91767 25.7333 8.99142 25.5552 8.99142 25.3696C8.99253 24.4892 9.34276 23.6452 9.96529 23.0227C10.5878 22.4001 11.4318 22.0499 12.3122 22.0488H20.2992V25.3696C20.2992 25.5552 20.373 25.7333 20.5042 25.8646C20.6355 25.9958 20.8136 26.0696 20.9992 26.0696C21.1849 26.0696 21.3629 25.9958 21.4942 25.8646C21.6255 25.7333 21.6992 25.5552 21.6992 25.3696V22.0488H29.6862C30.5666 22.0499 31.4106 22.4001 32.0332 23.0227C32.6557 23.6452 33.0059 24.4892 33.007 25.3696Z" fill="#1355FF"/>
  <path fill-rule="evenodd" clip-rule="evenodd" d="M20.9992 5.0752C23.541 5.0752 25.608 7.14223 25.608 9.6833C25.608 12.2243 23.541 14.2914 20.9999 14.2914C19.7781 14.2902 18.6065 13.8044 17.7425 12.9405C16.8785 12.0767 16.3925 10.9053 16.3911 9.68349C16.3925 8.46181 16.8784 7.29017 17.7422 6.42631C18.6061 5.56245 19.7775 5.07654 20.9992 5.0752ZM20.9993 5.4252C19.8704 5.42647 18.788 5.8755 17.9897 6.6738C17.1915 7.47207 16.7424 8.55438 16.7411 9.6833C16.7424 10.8123 17.1915 11.8947 17.99 12.693C18.7884 13.4914 19.871 13.9403 21.0001 13.9414C23.3478 13.9413 25.258 12.031 25.258 9.6833C25.258 7.3356 23.3477 5.42525 20.9993 5.4252ZM20.9992 6.8252C19.4235 6.8252 18.1404 8.1077 18.1404 9.6833C18.1404 11.2589 19.4228 12.5414 20.9992 12.5414C22.5755 12.5414 23.8573 11.259 23.8573 9.6833C23.8573 8.10765 22.5749 6.8252 20.9992 6.8252ZM17.7904 9.6833C17.7904 7.91429 19.2303 6.4752 20.9992 6.4752C22.7682 6.4752 24.2073 7.91435 24.2073 9.6833C24.2073 11.4522 22.7689 12.8914 20.9992 12.8914C19.2296 12.8914 17.7904 11.4523 17.7904 9.6833ZM20.3805 16.71C20.5446 16.5459 20.7672 16.4537 20.9992 16.4537C21.2313 16.4537 21.4538 16.5459 21.6179 16.71C21.782 16.8741 21.8742 17.0966 21.8742 17.3287V20.4738H29.6862C30.9842 20.4751 32.2288 20.9914 33.1466 21.9092C34.0645 22.827 34.5807 24.0714 34.582 25.3694C34.582 25.6015 34.4898 25.8242 34.3257 25.9883C34.1616 26.1524 33.9391 26.2446 33.707 26.2446C33.475 26.2446 33.2524 26.1524 33.0883 25.9883C32.9243 25.8243 32.8321 25.6018 32.832 25.3698C32.831 24.5358 32.4992 23.7362 31.9094 23.1464C31.3196 22.5566 30.5201 22.2248 29.686 22.2238H21.8742V25.3696C21.8742 25.6017 21.782 25.8242 21.6179 25.9883C21.4538 26.1524 21.2313 26.2446 20.9992 26.2446C20.7672 26.2446 20.5446 26.1524 20.3805 25.9883C20.2164 25.8242 20.1242 25.6017 20.1242 25.3696V22.2238H12.3124C11.4784 22.2248 10.6788 22.5566 10.089 23.1464C9.49926 23.7362 9.16747 24.5358 9.16642 25.3698C9.16636 25.6018 9.07418 25.8243 8.91014 25.9883C8.74604 26.1524 8.52348 26.2446 8.29142 26.2446C8.05935 26.2446 7.83679 26.1524 7.6727 25.9883C7.50861 25.8242 7.41642 25.6017 7.41642 25.3696C7.41776 24.0716 7.93398 22.827 8.8518 21.9092C9.76961 20.9914 11.0141 20.4751 12.312 20.4738H20.1242V17.3287C20.1242 17.0966 20.2164 16.8741 20.3805 16.71ZM20.9992 16.8037C20.86 16.8037 20.7264 16.859 20.628 16.9575C20.5295 17.0559 20.4742 17.1895 20.4742 17.3287V20.8238H12.3124C11.1071 20.825 9.95155 21.3044 9.09929 22.1567C8.24702 23.0089 7.76767 24.1645 7.76642 25.3698C7.76647 25.509 7.82177 25.6424 7.92019 25.7408C8.01864 25.8393 8.15218 25.8946 8.29142 25.8946C8.43066 25.8946 8.56419 25.8393 8.66265 25.7408C8.76111 25.6424 8.81642 25.5088 8.81642 25.3696C8.81759 24.4429 9.18625 23.5542 9.84154 22.8989C10.4968 22.2436 11.3853 21.875 12.312 21.8738H20.4742V25.3696C20.4742 25.5088 20.5295 25.6424 20.628 25.7408C20.7264 25.8393 20.86 25.8946 20.9992 25.8946C21.1385 25.8946 21.272 25.8393 21.3705 25.7408C21.4689 25.6424 21.5242 25.5088 21.5242 25.3696V21.8738H29.6862C30.6129 21.875 31.5016 22.2436 32.1569 22.8989C32.8122 23.5542 33.1809 24.4426 33.182 25.3694C33.182 25.5086 33.2373 25.6424 33.3358 25.7408C33.4342 25.8393 33.5678 25.8946 33.707 25.8946C33.8463 25.8946 33.9798 25.8393 34.0783 25.7408C34.1767 25.6424 34.232 25.509 34.232 25.3698C34.2308 24.1645 33.7514 23.0089 32.8992 22.1567C32.0469 21.3044 30.8913 20.825 29.686 20.8238H21.5242V17.3287C21.5242 17.1895 21.4689 17.0559 21.3705 16.9575C21.272 16.859 21.1385 16.8037 20.9992 16.8037ZM4.01521 28.3799C4.4569 27.9383 5.05571 27.69 5.68025 27.6894H10.9031C11.5276 27.6902 12.1265 27.9386 12.5681 28.3801C13.0098 28.8216 13.2583 29.4202 13.2593 30.0446V35.2676C13.2585 35.8922 13.01 36.4912 12.5684 36.9329C12.1267 37.3745 11.5279 37.623 10.9033 37.6238H5.68042C5.05582 37.623 4.45681 37.3745 4.01515 36.9329C3.57349 36.4912 3.32502 35.8924 3.32422 35.2678L3.32422 30.0449C3.32502 29.4204 3.57352 28.8214 4.01521 28.3799ZM5.68059 28.0394C5.14873 28.0399 4.6388 28.2514 4.26266 28.6274C3.88655 29.0034 3.67493 29.5132 3.67422 30.045L3.67422 35.2674C3.6749 35.7993 3.88651 36.3092 4.26264 36.6854C4.63877 37.0615 5.14872 37.2731 5.68064 37.2738H10.9029C11.4348 37.2731 11.9448 37.0615 12.3209 36.6854C12.697 36.3092 12.9086 35.7993 12.9093 35.2674V30.0452C12.9085 29.5134 12.6968 29.0036 12.3207 28.6276C11.9446 28.2516 11.4347 28.0401 10.9029 28.0394H5.68059ZM16.723 28.3799C17.1647 27.9383 17.7635 27.69 18.3881 27.6894H23.6109C24.2354 27.69 24.8343 27.9383 25.2759 28.3799C25.7175 28.8215 25.9658 29.4202 25.9664 30.0447V35.2676C25.9658 35.8921 25.7175 36.4911 25.276 36.9328C24.8344 37.3745 24.2357 37.623 23.6111 37.6238H18.3882C17.7636 37.623 17.1646 37.3745 16.723 36.9329C16.2813 36.4912 16.0328 35.8924 16.032 35.2678V30.0449C16.0328 29.4204 16.2813 28.8214 16.723 28.3799ZM18.3884 28.0394C17.8565 28.0399 17.3466 28.2514 16.9705 28.6274C16.5943 29.0034 16.3827 29.5133 16.382 30.0451V35.2674C16.3827 35.7993 16.5943 36.3092 16.9704 36.6854C17.3466 37.0615 17.8565 37.2731 18.3884 37.2738H23.6107C24.1425 37.2731 24.6524 37.0615 25.0284 36.6854C25.4044 36.3092 25.6159 35.7993 25.6164 35.2674V30.0451C25.6159 29.5133 25.4044 29.0034 25.0284 28.6274C24.6524 28.2514 24.1425 28.0399 23.6108 28.0394H18.3884ZM29.4308 28.3799C29.8725 27.9383 30.4713 27.69 31.0958 27.6894H36.3187C36.9432 27.69 37.5421 27.9383 37.9837 28.3799C38.4253 28.8215 38.6736 29.4202 38.6742 30.0447V35.2676C38.6736 35.8921 38.4253 36.4911 37.9838 36.9328C37.5422 37.3745 36.9435 37.623 36.3189 37.6238H31.096C30.4714 37.623 29.8724 37.3745 29.4308 36.9329C28.9891 36.4912 28.7406 35.8924 28.7398 35.2678V30.0449C28.7406 29.4204 28.9891 28.8214 29.4308 28.3799ZM31.0962 28.0394C30.5643 28.0399 30.0544 28.2514 29.6783 28.6274C29.3021 29.0034 29.0905 29.5133 29.0898 30.0451V35.2674C29.0905 35.7993 29.3021 36.3092 29.6782 36.6854C30.0544 37.0615 30.5643 37.2731 31.0962 37.2738H36.3185C36.8503 37.2731 37.3602 37.0615 37.7362 36.6854C38.1122 36.3092 38.3237 35.7993 38.3242 35.2674V30.0451C38.3237 29.5133 38.1122 29.0034 37.7362 28.6274C37.3602 28.2514 36.8503 28.0399 36.3186 28.0394H31.0962ZM5.68042 29.4394C5.34577 29.4394 5.07422 29.7111 5.07422 30.0449V35.2674C5.07436 35.4282 5.13829 35.5824 5.25198 35.696C5.36566 35.8097 5.5198 35.8737 5.68058 35.8738H10.9031C11.2376 35.8738 11.5093 35.6015 11.5093 35.2676V30.0449C11.5093 29.7111 11.2378 29.4394 10.9031 29.4394H5.68042ZM4.72422 30.0449C4.72422 29.5176 5.15267 29.0894 5.68042 29.0894H10.9031C11.4309 29.0894 11.8593 29.5176 11.8593 30.0449V35.2676C11.8593 35.7946 11.4311 36.2238 10.9031 36.2238H5.68042C5.42693 36.2236 5.18373 36.1228 5.00449 35.9435C4.82524 35.7643 4.72445 35.5212 4.72422 35.2678L4.72422 30.0449ZM18.3882 29.4394C18.0536 29.4394 17.782 29.7111 17.782 30.0449V35.2674C17.7822 35.4282 17.8461 35.5824 17.9598 35.696C18.0735 35.8097 18.2276 35.8737 18.3884 35.8738H23.6109C23.9446 35.8738 24.2164 35.6017 24.2164 35.2676V30.0449C24.2164 29.711 23.9448 29.4394 23.6109 29.4394H18.3882ZM17.432 30.0449C17.432 29.5176 17.8605 29.0894 18.3882 29.0894H23.6109C24.1381 29.0894 24.5664 29.5177 24.5664 30.0449V35.2676C24.5664 35.7945 24.1383 36.2238 23.6109 36.2238H18.3882C18.1347 36.2236 17.8915 36.1228 17.7123 35.9435C17.533 35.7643 17.4322 35.5212 17.432 35.2678V30.0449ZM31.096 29.4394C30.7614 29.4394 30.4898 29.7111 30.4898 30.0449V35.2674C30.49 35.4282 30.5539 35.5824 30.6676 35.696C30.7813 35.8097 30.9354 35.8737 31.0962 35.8738H36.3187C36.6524 35.8738 36.9242 35.6017 36.9242 35.2676V30.0449C36.9242 29.711 36.6526 29.4394 36.3187 29.4394H31.096ZM30.1398 30.0449C30.1398 29.5176 30.5683 29.0894 31.096 29.0894H36.3187C36.8459 29.0894 37.2742 29.5177 37.2742 30.0449V35.2676C37.2742 35.7945 36.8461 36.2238 36.3187 36.2238H31.096C30.8425 36.2236 30.5993 36.1228 30.4201 35.9435C30.2408 35.7643 30.14 35.5212 30.1398 35.2678V30.0449Z" fill="#1355FF"/>
</svg>