<svg width="48" height="48" viewBox="0 0 48 48" fill="none" xmlns="http://www.w3.org/2000/svg">
<rect width="48" height="48" rx="24" fill="#E6EEFC"/>
<path opacity="0.2" d="M15.4062 17.75H20.0938V31.8125H15.4062C15.199 31.8125 15.0003 31.7302 14.8538 31.5837C14.7073 31.4372 14.625 31.2385 14.625 31.0312V18.5312C14.625 18.324 14.7073 18.1253 14.8538 17.9788C15.0003 17.8323 15.199 17.75 15.4062 17.75ZM32.5938 17.75H27.9062V31.8125H32.5938C32.801 31.8125 32.9997 31.7302 33.1462 31.5837C33.2927 31.4372 33.375 31.2385 33.375 31.0312V18.5312C33.375 18.324 33.2927 18.1253 33.1462 17.9788C32.9997 17.8323 32.801 17.75 32.5938 17.75Z" fill="#0957DE"/>
<path d="M32.5938 16.9688H28.6875V16.1875C28.6875 15.5659 28.4406 14.9698 28.001 14.5302C27.5615 14.0907 26.9654 13.8438 26.3438 13.8438H21.6562C21.0346 13.8438 20.4385 14.0907 19.999 14.5302C19.5594 14.9698 19.3125 15.5659 19.3125 16.1875V16.9688H15.4062C14.9918 16.9688 14.5944 17.1334 14.3014 17.4264C14.0084 17.7194 13.8438 18.1168 13.8438 18.5312V31.0312C13.8438 31.4457 14.0084 31.8431 14.3014 32.1361C14.5944 32.4291 14.9918 32.5938 15.4062 32.5938H32.5938C33.0082 32.5938 33.4056 32.4291 33.6986 32.1361C33.9916 31.8431 34.1562 31.4457 34.1562 31.0312V18.5312C34.1562 18.1168 33.9916 17.7194 33.6986 17.4264C33.4056 17.1334 33.0082 16.9688 32.5938 16.9688ZM20.875 16.1875C20.875 15.9803 20.9573 15.7816 21.1038 15.6351C21.2503 15.4886 21.449 15.4062 21.6562 15.4062H26.3438C26.551 15.4062 26.7497 15.4886 26.8962 15.6351C27.0427 15.7816 27.125 15.9803 27.125 16.1875V16.9688H20.875V16.1875ZM27.125 18.5312V31.0312H20.875V18.5312H27.125ZM15.4062 18.5312H19.3125V31.0312H15.4062V18.5312ZM32.5938 31.0312H28.6875V18.5312H32.5938V31.0312Z" fill="#0957DE"/>
</svg>
