<svg xmlns="http://www.w3.org/2000/svg" width="702" height="106" aria-label="ClauseLens AI" viewBox="0 0 702 106" xmlns:c2pa="http://c2pa.org/manifest"><title>ClauseLens AI</title><g fill="#a78582"><path d="M19.5 1q-2.5.6-3.7 3.5l-.6 1.6-.7 1.4-.5.8a15 15 0 0 1-3 4c-1.5 1.4-5 3.4-6.6 3.6-1.2.2-3 2-3.4 3.3q-1.2 4.1 3 6.2a30 30 0 0 1 6.5 3.6c1.9 1.4 4.5 5 4.5 6.1l.5 1.3q.5.9.5 1.3c0 1 3 3 4.6 3 1 0 2.8-.8 3.6-1.6.5-.5 1.8-3 1.8-3.5s1.4-3 2.7-4.6a16 16 0 0 1 6.2-4.5l2.4-1.1q4-2 3-5.9c-.4-1.5-2-3.2-3.4-3.5l-2-.8c-5.2-2.7-7-4.6-9.4-10.5Q23.6.2 19.5 1M94.9 8c-5.2.9-7.9 1.5-11.4 2.6l-5 1.4-.9.4q-.4.3-.9.3c-.6 0-3.2 1.1-5.6 2.2l-3.4 1.6-1 .5-1 .5-1 .5-1.5.8-2.1 1.3a73 73 0 0 0-30.8 38.3l-.4 1.4-.6 1.4-.3.8-.5 2.1-1 3.3c-.3.8-.5 2-.6 2.6l-.5 2.3a46.5 46.5 0 0 1-1 5.4l-.5 3.2-.5 3.7-.5 4.3-.6 4.5c-.2 1.2-.3 3.8-.3 5.6 0 3.4 0 3.4.8 4.5 1.4 1.9 5 3.2 6 2.1q.3-.3.8-.5t1.5-1.4c.9-1.1 1-1.4 1.1-3.5l1-8.6c0-1.4.2-3.4.4-4.4.3-2.2.3-2.1 3.8-2.2 1.2 0 3-.2 3.8-.4l3-.5a71 71 0 0 0 17.6-4.9 20 20 0 0 0 4.4-2c1-.3 1-.3 3.2-1.6l2.6-1.4a45.7 45.7 0 0 0 13.9-12 56 56 0 0 0 9-15.8c-.2-.5-.6-.5-4 0-4.4.5-10.3.6-9.6 0l6.3-3.3 1.4-.8c.9-.4 5.5-3.5 7.1-4.9a16 16 0 0 0 5-6c.7-1 .7-1.2 1.3-2.7.6-1.3 1.4-5.1 1.5-7a21 21 0 0 0-3.5-12Q99.2 7.3 95 8m4.1.8c1.2.4 2.7 1.7 2.7 2.3l.5.9q.5.6.7 1.4l.5 1.4a25 25 0 0 1-1.6 16.2l-.7 1.2-.4.6c0 1.3-7 7.2-11 9.2l-1.6.9c-1.2.7-5.2 2.7-6.1 3q-1.4.5-.2 1.1c.6.3 9.6.2 12.3-.2 1.2-.1 1.2-.1 1 .5q-.2 1.3-.9 2.2l-.5 1q-.1.6-.5 1l-.5 1-.8 1.6-1 1.6q-.3.7-1 1.7c-.5.5-1.1 1.5-1.5 2.1a55 55 0 0 1-27 19.7 36 36 0 0 1-6.8 2.3 39 39 0 0 1-8.1 1.9c-1.5.3-5.4.8-9.9 1.2-2.4.3-2.5.5-2.7 3.8l-.5 5.2-.6 5.4c-.2 3.8-.9 5.2-3.3 6.1-1 .4-1.1.4-2.5 0-3.2-1-4-2.8-3.5-7.1l.5-5.4a80 80 0 0 1 1.1-9.6l.5-3.5.5-3.3c.1-1 .3-2.2.5-2.6l.5-2.3c.1-.8.3-1.8.5-2.2l.5-1.9q.2-1 .5-1.7.4-.7.6-1.9c.3-1.4.9-3.3 1.6-4.8l.4-1.3.5-1.2q.5-.8.5-1.3l1.3-2.8.5-1a46 46 0 0 1 5.4-9.5 50 50 0 0 1 5-6.7 91 91 0 0 1 15.8-13.8c.2-.1 1-.5 1.5-1l5.8-3 5.3-2.6 1.1-.3 1.4-.5 2.3-1a177 177 0 0 1 17.7-4.3q1.5-.6 3.8.3M229.9 14.1q-1.1.4-2.5.7t-2.1.5l-2 .5-2 .5c-.4.3-1.2.4-1.6.4l-1.8.4q-1 .4-2.4.6c-1.6.3-1.7.5-1.7 2.3s.2 2 2.5 2.2l4 1c.8 0 .8 0 .7 30.1 0 16.5-.2 30.3-.3 30.5q-.3.8-3.5 1c-2.7.3-3.4.8-3.4 2.9 0 1.6-.5 1.5 13 1.5 13.8 0 13 .1 13-1.9-.1-1.9-.7-2.3-3.4-2.5-3.7-.2-3.3 4.4-3.3-35.4 0-34.5 0-34.5-.7-35-.8-.8-1.1-.8-2.5-.3m2.4.6c.4.4.5 1 .4 5.7v34.4c0 28.3 0 29.2.4 29.7q.5.5 1.4.5c1.6 0 3.8.5 4.3.9.7.7.6 2.7-.1 3-1 .2-23.4.1-24-.2q-.4-.2-.4-1.3c0-1 0-1.2 1-1.7a9 9 0 0 1 3-.6c3-.2 2.9.3 3-8.4.4-13.8.2-53.3-.1-53.6-.6-.5-2.9-1-4.5-1.2-2.3-.2-2.5-.4-2.4-2.1 0-1.4 0-1.4 1.3-1.6l2.7-.7 2-.5 1.6-.4 2-.5q1.2-.1 2-.5l2.2-.5c.7-.1 1.6-.3 1.9-.5q1.5-.7 2.4.1M671 16q-.6.5-1 1.5l-.6 2a50 50 0 0 0-2 6.2l-2.1 6.4-1.4 4.4-1.5 4.5-1.6 5.3c0 .7.7.9 3 .8 2.6 0 2.7 0 3.5-2.6q.4-1.5.7-2c.1-.2 1.5-.3 6.1-.2 6.7 0 6.1-.1 6.9 2.8.5 1.8.7 2 3.2 2 2.9.1 3.3-.1 2.9-1.6l-1.5-4.5-3.5-10.8-.5-1.5-4.2-12.4c-.4-.5-5.4-.7-6.4-.2m6.9 3.4 1.4 4.2 6.8 20.8c.8 2.2.8 2.2-1.4 2.3-2.4 0-2.5 0-3.2-2.3-1-2.9-.4-2.7-7.5-2.7-4.9 0-6.2.1-6.5.4l-1 2.4c-.6 2.1-.6 2.1-2.8 2.2-2.5 0-2.7 0-2-1.6l.6-1.3 1.4-4.8 2.2-6.5 1-3 2.9-8.9.6-2c.5-2.4.6-2.4 3.7-2.3 2.8 0 2.8 0 3.8 3"></path><path d="M673 22.9q-.2.6-.2 1c0 .4-2.6 9-3.5 11.7-1 2.6-.8 2.6 4.8 2.6 3.7 0 4.4 0 4.8-.4q.6-.8-.2-2.3l-.8-2.6-2-6.3-.5-2.2q-.5-2.4-1.5-2.2-.7 0-.9.7m1.6 1.4.5 1.8.8 2.5 1.4 4.5c.6 1.7 1 3.6.9 4-.3.6-8.2.6-8.4 0q-.2-.8 1.8-7l1-3.2c1-3 1.1-3.5 1.5-3.3q.2 0 .4.7M696.8 16c-.7.1-.7.1-.7 15.4-.1 14.4 0 15.4.3 15.5.8.4 4.5.2 5-.1.5-.5.6-30 0-30.5a11 11 0 0 0-4.7-.3m4 15.5v15.1l-1.8.1c-1 0-2 0-2-.2-.3-.2-.3-29.7-.1-30 0-.2 1-.3 2-.2h2zM185.2 19.5l-2.2.2c-.9 0-2.2.3-3 .5s-1.6.5-1.9.5l-1.4.5q-.9.5-1.3.5l-2.7 1.3a32 32 0 0 0-15.3 16.6c-.9 1.4-2.3 6.7-2.6 10a60 60 0 0 0 1 17.4 34 34 0 0 0 13.9 19l1 .6q.8.6 1.3.6t.7.4l1.1.5q.8.2 1.4.6l1.5.6q1 .1 2 .5 1 .3 2 .4l2.4.4q1.4.4 5.3.4a21 21 0 0 0 5.2-.4l2.6-.4q1.1 0 2.5-.5l2-.5q.5 0 1.4-.5t1.3-.5 1.5-.6l1.5-.6 1-.7c.8-.7.8-.7 1.1-8.3.2-5.4.2-7.7 0-7.9s-4.9-.3-5.2 0q-.3.5-.7 1.7l-1.5 5.8-1.3 5.3c0 .7-1.6 1.8-2.6 1.8l-2 .5c-1.8.8-9.5.8-11 0l-1.5-.5-1.5-.5a21 21 0 0 1-9.4-10.1l-1-2.2q-.8-1.5-1.7-6.5c-1-4.7-1-15-.2-19.6 1-5.6 2.5-9.2 5.3-13.4a20 20 0 0 1 8.3-6.8q.4-.3.9-.4.7 0 1.9-.5c1.6-.6 7.5-.7 8.7 0l1.8.4c.9.2 2.2.7 3 1.3l.2 1 .7 2.8 1 3.4c.1.8.5 2 .7 2.6l.5 2.2c.2 1.6.8 1.8 3.4 1.8 2.7 0 3-.2 2.8-1.9l-.7-13.5c-.2-.6-2.2-2-3-2l-.6-.4q-.4-.4-1.1-.6-.9 0-1.7-.6-.9-.5-1.6-.5-.6 0-1.6-.4a51 51 0 0 0-12.6-.8m12 1c.6.3 1.6.6 2.2.7q2 .5 4.2 1.5l1.4.6c1.6.7 1.9 1 2 2.6l.4 7.5c.4 7 .5 6.6-2 6.6-2.4 0-2.6-.1-3-1.6l-.6-2.4-.8-2.9-.8-2.9c-.9-3.9-1.6-4.9-3.8-5.3l-1.7-.6c-1-.5-8.8-.5-9.7 0l-1.5.6a21 21 0 0 0-10.1 8 34 34 0 0 0-3.8 8c-1.3 3.5-1.7 7-1.7 14.2 0 9.5.8 13.7 3.6 19.5 1.1 2.3 4.2 6.6 4.7 6.6l1.2 1 2.4 1.7 1.7.8c2.2 1.2 3.3 1.4 8.3 1.4 4 0 5 0 5.6-.4q.7-.4 1.9-.6 2.4-.3 3.1-3l.9-3.4.9-3.2c.8-3.4 1.2-4.8 1.5-5q.3-.3 2.3-.2h2.1v4.2l-.3 11c0 .3-2.2 1.5-2.6 1.5l-.7.4q-.4.3-1.2.5-.9.1-1.5.5-.6.3-1.6.5t-1.7.5c-.4.2-1.7.4-3 .6l-4.8.5c-2 .2-3 .2-4.9 0l-4.3-.5-2.7-.6-1.6-.5c-1.5-.2-5.7-2.2-8.3-4A33 33 0 0 1 155.6 64a68 68 0 0 1-.4-14.3q1.4-10.5 7.7-18.4c2.2-2.7 6.6-6.4 8.7-7.3l.9-.5c1-.6 3-1.5 3.4-1.5l1-.4 1.8-.6 2.4-.6c1.9-.6 14.2-.5 16 .1M443 21c-.7.5-.6 3.7 0 4s4.2 1 6.2 1.1l1.6.2-.1 28.8c0 28.7 0 28.7-1.3 29-.7.2-2.3.5-3.6.5-3.3.3-3.3.3-3.3 2.3q0 1.7.3 2c.4.4 48.6.5 49.2.1s1.8-19 1.2-19.7q-.2-.3-2.6-.3c-3.1 0-3-.3-4.7 7l-1.9 7c-.4 1.6 0 1.5-10.1 1.5-7.7 0-9.4-.1-9.7-.4-.3-.2-.4-1.6-.6-5.6-.1-5 0-49.4.2-51.2 0-1 0-1 2-1.2 5.1-.8 6.2-1 6.5-1.3.3-.5.3-3 0-3.5-.4-.6-28.7-.7-29.4-.2m29 2c0 2 .2 1.9-2.6 2.1-2.1.1-5.7.8-6 1.2q-.3 0-.3 29c0 28.7 0 28.7.6 29.2.9.7 19.5.8 20.1 0 .5-.5.7-1.2 2-6 2.4-9.8 2-9 4.8-9 2 0 2.2 0 2.3.6.3 1.1-.8 18-1.2 18.6-.3.4-47.8.5-48.4 0-.4-.2-.5-3.1-.1-3.4l3.1-.3q4.4-.3 4.8-1c.3-.6.2-57.7-.1-57.9s-3.7-.8-5.9-1q-1.6-.2-2-.5c-.2-.3-.2-2.2 0-3 .1-.3 3.1-.3 14.5-.3h14.3zM264.2 39.5l-2.5.2a11 11 0 0 0-3.4.5l-1.8.5c-.6 0-4.8 2.2-5.9 3.2-4.8 4-6.5 9-3.7 11.5 3.8 3.8 9.5 1.4 10.3-4.3l1.3-6.4c.2-.3.9-.4 3.8-.4 3.5 0 3.7 0 4.8.6 1.9 1 2.6 2.2 3.4 5.3.4 1.5.4 8.7 0 9.2q-.4.3-1.2.3-1 .1-1.9.5t-1.6.5-1.8.5q-1 .5-1.6.5l-1.6.5q-1 .5-1.7.5-.6.1-1.4.5-.9.5-1.3.5l-1.2.5-1.2.5c-.5 0-4.3 2.3-5.5 3.3a15 15 0 0 0-4 5.5 9 9 0 0 0-.6 4.6c0 5.6 2.2 9 7.4 11.4a20 20 0 0 0 9.5.7c1.8 0 5.3-2 8.1-4.5 2.4-2.2 2.8-2.4 2.8-1.4 0 .6 1.5 2.8 2.6 3.8 1.8 1.7 3.3 2.1 7 2.1 3 0 3.3 0 4.8-.7q2.5-1.2 4.3-3.8c1-1.6 1-2 0-2.8s-1-.8-2.4.2c-1.9 1.5-4.3 1.3-4.9-.5 0-.4-.3-7.4-.4-15.6 0-9.4-.2-15.4-.4-16.1-.4-1.8-1.3-4.1-2-5.3-.7-1-3.5-3.9-3.9-3.9l-.8-.5q-.7-.4-1.2-.5t-1.1-.4a28 28 0 0 0-9-.8m8 .9 1.7.6c2.1.5 5 2.9 6.2 5l1.1 3 .8 2.2.3 15.4c.1 16.7.1 16.5 1.7 17.5s2.1.8 4.6-1c.7-.4.8-.4 1.4 0 1 .5.9 1-.1 2.5q-1.6 2.4-4.3 3.7c-2 1-6.9.9-8.9-.1-2.2-1-4.1-3.3-4.6-5.2-.2-1.3-.7-1.2-2.8.8a23 23 0 0 1-6.8 4.7c-1 .7-8.9.7-10.3 0l-1.3-.5c-.4 0-2.8-1.7-3.7-2.7-4-4.3-3.8-12.7.5-16.9a22 22 0 0 1 5.3-3.8l1-.5 1.7-.6q.8-.5 1.3-.5l.9-.4 1.6-.6 2.1-.6 1.7-.4q.5 0 1.1-.4.6-.3 1.6-.5 1-.1 1.7-.5.5-.3 1.8-.5c1.8-.2 1.8-.4 1.7-5.7-.1-6.1-1-8-3.9-9.8a17 17 0 0 0-7.8-.7c-1.5.2-1.4-.1-2.4 5.1-.8 4.4-1.6 6-3.7 7.2a5 5 0 0 1-6.6-1.5c-1.5-2-.4-6.1 2.4-9 1.3-1.4 3.3-2.8 4.8-3.5l1.7-.7q.9-.5 1.5-.5t1.1-.3c1-.5 2.3-.7 7.6-.7 4.1 0 5.5.1 6.2.4"></path><path d="m269.4 63.4-1.5.5q-.9.1-1.5.5l-1.5.5q-1.7.4-3.4 1.4l-1 .5c-1.1.5-2.7 2-3.6 3.2-3.1 4.3-2 11.2 2 13 2 .7 7 .6 8.1-.4l1-.5c.7-.2 2.8-1.7 3.1-2.3q.3-.6.1-8.6c0-8 0-8-.7-8.1q-.6 0-1 .3m1.4 8.2c0 9 .1 8.7-3.5 10.5-1.6.7-1.8.8-4.8.8s-3.2 0-4.1-.7c-1.4-1-2-2-2.5-4.3q-1-4.7 1.9-8.3a16 16 0 0 1 7.3-4.4q.6 0 1.5-.5l1.5-.5 1.4-.4q.9-.5 1-.3c.2.1.3 3.8.3 8.1M369.6 39.4l-2.7.3a9 9 0 0 0-3.2.6q-.6.4-1.5.5-.8.2-1.2.6l-.6.3c-.9 0-4.5 3.2-5.8 5.2-2.9 4.3-2.9 11 0 15.2.8 1.2 3.4 3.6 4.3 4l2.6 1.4 1 .5 1.7.8 1.3.4 1.4.5q1 .5 1.4.5.5.1 1.3.5t1.2.5c1.3 0 5 2.5 6.2 4.1.8 1.2.9 1.4.9 3.4q0 2.3-.5 3c-.5 1-2.4 3-2.8 3l-1.2.6c-1.4.7-9.8.8-11 .1l-1.4-.6q-.7-.2-1-1.5l-.7-3.2-1-3.9c-.5-2.2-.9-2.5-3.3-2.5-3.2 0-3-.4-3 6.4 0 6 0 6 .6 6.5q.6.6 1 .6l1.2.5q.8.5 1.3.5l1 .4q.7.4 1.6.7 1 .1 2 .5a45 45 0 0 0 16.6-.6q.5 0 4.5-2c2.3-1.1 4.8-4.5 6-7.7.5-1.7.7-5.5.3-7.7-.5-3-4-7.5-7.1-9a22 22 0 0 0-5.4-2.6q-.9-.4-1.4-.5l-1.4-.5-1.3-.5-1.4-.5-1.2-.5a16 16 0 0 1-5-3c-1.9-2.1-1.8-6.3.2-8.4 1.6-1.7 2.8-2 7-2 3.8 0 5.1.2 6.1 1.1l.6 1.9 2 6.9c.5.8.5.8 2.7.8 3 0 2.9.3 3-6.4 0-5.3 0-5.3-1.7-6.1l-4-1.8q-.6 0-1.4-.4c-.8-.4-8.4-1.2-8.8-.9m6.9.8 2.5.7 2 .7q.4.3 1.2.5l1 .4 1 .6c.8.4.8.4.8 5.2 0 6.4 0 6-2.4 6.1q-2 .1-2.3-.2a16 16 0 0 1-1.3-3.9l-.5-2-.6-2.4q-.2-.6-1.2-1.3c-1-.7-1-.7-5.4-.7-4.8 0-5 0-7.2 1.8-2.6 2-2.8 6.8-.5 9.2.6.7 3 2.3 3.3 2.3q.3 0 .6.4l.7.4q.5 0 1.3.5l1.8.6 1.3.5q.5.4 1 .4t1.5.5l1.7.6q.8.2 1.2.5.2.3.9.5c1.8.4 6.1 4.1 7.3 6.3 3 5 1.9 12.5-2.3 16.5a18 18 0 0 1-3.8 2.8l-1.5.7-1.7.6-1.2.4c-.7.4-1.6.5-7.6.5s-6.8 0-7.5-.5q-.8-.3-1.4-.4-.6 0-1.5-.5l-1.6-.6q-.8-.2-1.1-.6l-.8-.3q-.5 0-1.1-.6c-.6-.6-.6-.6-.6-6.3l.1-5.7 2.2-.1c2.6 0 2.6 0 3.2 2.8l1.7 6.8c.5 1.8 5.7 3 10.9 2.3 5.6-.6 8.6-4.2 7.7-8.8-.5-2.2-3.1-5-5.1-5.5l-1-.6-.7-.3-1.4-.5q-.9-.5-1.4-.5t-1.3-.5L366 69q-.3.1-3.9-1.6l-1.4-.7a21 21 0 0 1-4.5-3.3q-1.2-1.3-2.1-3.1c-1-2-1-2-1-5.4 0-3.8.4-5.4 1.8-7.7a17 17 0 0 1 9.2-6.5l1.3-.5a75 75 0 0 1 11.1 0M416 39.5l-2.1.2c-.8 0-2 .2-2.5.4l-1.5.6c-2.3.6-7.2 3.8-9.3 6.1a27 27 0 0 0-6.5 18c-.4 10.7 4.2 19.5 12.1 23.2l1.4.7 1.5.6c.4 0 1.3.3 1.8.6 2.4.8 13 .7 14.4-.2l1-.4c.5 0 2.6-1.1 4.2-2.1a23 23 0 0 0 6.9-8c.1-.6 0-.8-.7-1.4q-1.4-1.4-2.3-.3a21 21 0 0 1-6.2 4.3l-2 .5c-2 .7-6.1.7-8.4 0Q414 81 412 79a18 18 0 0 1-4.1-6.3 29 29 0 0 1-1.4-6.8q0-1.2.4-1.3c.2-.1 6.9-.2 14.9-.2 12.3 0 14.6 0 14.9-.4 1-.9.9-8.2-.2-11.5-.5-1.6-2.4-5.6-2.7-5.6l-1.2-1.2c-1-1.4-3.5-3.4-4.8-4q-.7-.2-.9-.5l-1-.4-1.5-.6c-.4-.2-1.8-.4-3.2-.6-1.4 0-3-.2-3.6-.3zm7.9 1.2c3.9 1.2 5.5 2.2 8 4.9q3.1 3.4 4.3 7.9c.7 2.5.9 9 .3 10-.3.5-.3.5-14.9.5q-14.5 0-15.1.3c-.4.2-.5.5-.5 1.7 0 1.4 1 6.3 1.5 7.2l.9 1.8a17 17 0 0 0 5.7 6.1q.6.2.8.5l2 .8c1.6.5 2 .6 5.5.5 5.2-.1 8-1.2 11.4-4.3 1.4-1.3 1.4-1.3 2.4-.7 1.3.8 1 1.7-1.8 5a17 17 0 0 1-5.2 4.5l-1.8 1.1-1.3.5-2.1.6a46 46 0 0 1-13-.2q-.9-.4-1.8-.5-.8-.2-1.2-.5l-.7-.4-1.3-.6c-6.5-3.8-10-9.1-11.1-16.8a28 28 0 0 1 7-24.5 23 23 0 0 1 9.4-5.4c1-.6 2-.7 6.4-.7 3.9 0 4.4 0 6.2.6"></path><path d="M415 44q-.6.1-1.2.5l-1 .5c-.5 0-3.2 2.8-3.9 4.1a25 25 0 0 0-2.2 6.6c-.8 4.2-.8 4.2-.2 4.8.5.5.8.5 7 .5 11.4 0 13-.8 13-6.8q0-7-4.4-9.6c-1.1-.6-1.5-.7-3.9-.8zm6.6.8a8 8 0 0 1 3.5 4c.7 1.5.7 1.7.7 5.1 0 3.5 0 3.5-.7 4.5-.7 1.1-.9 1.2-3 1.7-1.9.3-14.2.4-15 .1q-.8-.2-.5-.9l.4-2.7q1.3-8.4 6.6-11.6c1.7-1 6.2-1 8-.2M582.8 39.5l-2.4.2q-1.2 0-2.2.5l-1.4.5-1 .4q-.6.5-2 1.2c-1.7.9-3.1 2-5.1 4q-1.3 1.1-1.6 1.1c-.1-.1-.4-1.7-.5-3.6l-.6-3.7c-.5-.5-2.7-.5-3.8.1l-1.4.5-1.4.5-1.4.5-1.4.5q-.9.5-1.5.5-.6.1-1.3.5t-1.4.5q-.6 0-1.4.5-.9.5-1.8.6-1.6.1-1.5 2.4c0 1.6.3 1.8 2.7 2 2 .2 3.7.7 4.2 1.1q.3.3.4 5a315.8 315.8 0 0 1-.4 28.9q-.5.5-4.8.8l-.7.5c-.7.6-.8 2.9-.3 3.5.2.2 3.3.3 12.1.3 13.3 0 12.6 0 12.6-2q.2-2.6-4-2.5-1.2 0-1.7-.5c-.5-.4-.5-.5-.5-16.1s0-15.7.6-16.3a24 24 0 0 1 5-3l3-1c2.4-.4 2.5-.4 4.4 0 3 .7 4.2 2.1 4.7 6.2.4 2.6.4 28 0 29.2-.3 1.2-.8 1.5-2.4 1.5s-3 .3-3.5.9c-.4.4-.5 2.8 0 3.3.2.2 3.2.3 12 .3s11.9-.1 12.1-.3c.4-.4.4-2.8 0-3.3q-.8-.9-3.5-1-1 0-1.7-.4c-.6-.5-.6-.5-.8-16.6-.1-16-.1-16.1-.7-18.3-1.5-5.5-5.2-9.1-9.7-9.6l-2.3-.4zm-17.2.9q.3.3.5 3.5c.3 4.6.7 5 2.5 2.9a23 23 0 0 1 9.9-6.2c1-.8 8.6-.7 10.6.1 4 1.6 6 4.7 7.1 10.3.5 2.4.5 3.6.5 14.5a98 98 0 0 0 .7 19.1q.5.3 2 .5c2.8.2 3.5.6 3.6 2 .2 2 .9 1.9-11.9 1.9-10.1 0-11.4 0-11.7-.4q-.4-.4-.3-.8l.2-1q-.1-1.4 3.4-1.7c2.1-.2 2.5-.4 2.8-1.5.2-.6.3-6 .3-14.5 0-16.8-.2-18.4-2.7-20.4-.8-.7-3.7-1.7-4.8-1.7a24 24 0 0 0-7.5 2.5l-.8.5q-.5 0-1.8 1.2l-1.5 1.2V68c0 12 .1 15.8.4 16.3.2.5.5.6 2.3.8 2.6.3 3.4.7 3.5 2.1.2 1.9.9 1.8-12 1.8s-12.1.1-12-1.8c.2-1.5.8-1.9 3.8-2.1s2.7.7 2.9-11.7c.1-8.8-.1-23-.4-23.3q-1.2-.9-4-1.1c-2.7-.3-3-.4-3-2 0-1.3.3-1.6 1.4-1.9q.8 0 2-.6l1.6-.5q.5 0 .8-.3.3-.4 1.2-.6 1 0 2-.6t1.3-.5l1.4-.5q1-.5 1.4-.5l1.4-.5c1-.6 2.4-.6 2.9-.1M626.6 39.4l-2.7.3a9 9 0 0 0-3.2.6q-.6.4-1.5.5-.8.2-1.2.6l-.6.3c-.9 0-4.5 3.2-5.8 5.2-2.9 4.3-2.9 11 0 15.2.8 1.2 3.4 3.6 4.2 4l2.7 1.4 1 .5 1.6.8 1.4.4 1.4.5q.9.5 1.4.5l1.2.5q.8.5 1.3.5c1.2 0 5 2.5 6.2 4.1.8 1.2.8 1.4.8 3.4q.1 2.3-.4 3c-.5 1-2.4 3-2.8 3l-1.2.6c-1.4.7-9.8.8-11 .1l-1.4-.6q-.7-.2-1-1.5l-.7-3.2-1-3.9c-.5-2.2-.9-2.5-3.4-2.5-3.1 0-2.9-.4-2.9 6.4 0 6 0 6 .6 6.5q.6.6 1 .6l1.2.5q.8.5 1.3.5l1 .4q.7.4 1.6.7 1 .1 2 .5a45 45 0 0 0 16.6-.6q.5 0 4.5-2c2.3-1.1 4.8-4.5 6-7.7.5-1.7.7-5.5.3-7.7-.5-3-4-7.5-7.1-9a22 22 0 0 0-5.4-2.6q-.9-.4-1.4-.5l-1.4-.5-1.3-.5-1.4-.5-1.2-.5a16 16 0 0 1-5-3c-1.9-2.1-1.8-6.3.2-8.4 1.6-1.7 2.8-2 7-2 3.8 0 5.1.2 6.1 1.1l.6 1.9 2 6.9c.5.8.5.8 2.7.8 3 0 2.9.3 3-6.4 0-5.3 0-5.3-1.7-6.1l-4-1.8q-.6 0-1.4-.4c-.8-.4-8.4-1.2-8.8-.9m6.9.8 2.5.7 2 .7q.4.3 1.2.5l1 .4 1 .6c.8.4.8.4.8 5.2 0 6.4 0 6-2.4 6.1q-2 .1-2.3-.2a16 16 0 0 1-1.3-3.9l-.5-2-.6-2.4q-.1-.6-1.2-1.3c-1-.7-1-.7-5.4-.7-4.8 0-5 0-7.2 1.8-2.6 2-2.8 6.8-.5 9.2.6.7 3 2.3 3.3 2.3q.3 0 .6.4l.7.4q.5 0 1.3.5l1.8.6 1.3.5 1 .4q.6 0 1.5.5l1.8.6q.8.2 1 .5l1 .5c1.8.4 6.1 4.1 7.4 6.3 2.8 5 1.8 12.5-2.3 16.5a18 18 0 0 1-4 2.8l-1.4.7-1.7.6-1.2.4c-.7.4-1.6.5-7.6.5s-6.8 0-7.5-.5q-.8-.3-1.4-.4-.6 0-1.4-.5L613 88q-.8-.2-1.1-.6l-.8-.3-1.1-.6c-.6-.6-.6-.6-.5-6.3v-5.7l2.2-.1c2.6 0 2.6 0 3.2 2.8l1.7 6.8c.5 1.8 5.7 3 10.9 2.3 5.6-.6 8.6-4.2 7.7-8.8-.4-2.2-3.1-5-5.1-5.5l-1-.6-.7-.3-1.4-.5q-.9-.5-1.3-.5t-1.4-.5L623 69c-.3 0-1.3-.4-3.9-1.6l-1.4-.7a21 21 0 0 1-4.5-3.3c-.6-.7-1.6-2-2.1-3.1-1-2-1-2-1-5.4 0-3.8.4-5.4 1.9-7.7a17 17 0 0 1 9.1-6.5l1.3-.5a75 75 0 0 1 11.1 0M519 39.7c-1 .1-2.2.4-2.6.6l-1.7.6q-.8.1-1.2.5-.4.3-.7.3-.5 0-1 .5l-1 .7a28 28 0 0 0-8 8.5l-.4.6c-.7 1-2.2 5.5-2.6 8.1-.4 2.3-.4 8.2 0 10.9.4 3.2 2 7.6 3.7 10a26 26 0 0 0 9.8 7.8l1.3.4q.5 0 1.1.4a34 34 0 0 0 14.9 0l1-.3 1.2-.4 1.3-.8c3-1.4 7-5.4 8.4-8.3.7-1.3.7-1.3-.5-2.1-1.4-1-1.7-.9-3 .4a15 15 0 0 1-7.4 4.1A16 16 0 0 1 520 81a16 16 0 0 1-8-12.9l-.2-2.3c-.3-1.3-.6-1.3 15.2-1.3 12 0 14.6 0 14.9-.4 1-1 .9-8.6-.3-12a19 19 0 0 0-12.2-11.8 36 36 0 0 0-10.5-.6m10.1.8 1.7.6q.8.2 1.2.5.3.4.6.4a17.4 17.4 0 0 1 9.5 14.4c.2 2.6 0 6.8-.4 7.3-.2.2-3.5.3-14.8.3-16.8 0-15.8-.2-15.5 2.2.5 4.5 1.2 6.9 2.8 9.7 1.2 1.9 4.2 5.1 5 5.1l.8.5 1.5.6 1.5.6c1.1.6 7.5.4 9.5-.2l2-.8 1.3-.6c1-.5 2.8-1.8 3.9-3 .7-.9.7-.9 1.6-.3q.9.5 1 .9c.4.9-4 6.3-6.5 8a16 16 0 0 1-4.7 2.3q-.5 0-1.1.4c-.6.4-1.3.5-6.8.5-5.3 0-6.2 0-6.9-.5l-1.2-.4q-1 0-3.7-1.5a22 22 0 0 1-9.9-11.4c-1.4-4-1.4-4.1-1.4-10.3 0-6 .3-8.3 1.4-10.7a23 23 0 0 1 15-14.4c1.2-.6 2.2-.7 7-.6 4 0 5 .1 5.6.4"></path><path d="M520.2 44c-2.2.7-5 3.2-6.2 5.8-1.8 3.4-3 9.8-2.1 10.7.7.8 12.4.7 15.6 0 3.6-.9 4.7-2.5 4.4-6.8q-.3-6.2-4.2-8.9c-1.2-.8-1.4-.9-4-1-1.6 0-3.1 0-3.5.2m7 .9a10 10 0 0 1 3.4 4.3l.5 2c.8 3 .3 6.6-1 7.8-1.1 1-3.3 1.3-10.9 1.4q-6.7 0-6.9-.2c-.8-.7.5-6.9 2-10.2q1.7-3.4 4.9-5.1c1.8-1 6.2-1 8 0M305.9 40.3c-1 .2-2.3.5-3 .5s-2 .1-2.8.3-2.6.5-4 .6l-3.3.7c-.9.4-1 .5-1 1.8q-.2 2.1 1.2 2 .8 0 1.5.4c.4.2 1.4.5 2.2.6l1.4.2v14.5c-.2 18.4 0 20.2 3.1 24.2 1.6 2 5 4.1 6.9 4.2q.7 0 1.8.2c1.3.2 7-.3 8-.8l2.2-1.1c1.6-.8 5.2-3.4 6.8-5q.8-1 1.3-1.1c.3 0 .5 2.4.5 5.2 0 2.3.3 2.5 2.6 2.5q2.6 0 8-.6l3.9-.3c3.2-.2 3.3-.3 3.3-2q.2-2.6-4.2-2.6c-2.3 0-2.1 2.1-2-22.3 0-20 0-21.4-.4-21.9q-.8-1.2-3.3-.4c-1 .3-2.7.5-3.8.6l-3.2.6c-.7.2-2.1.5-3.2.5-3.5.3-4.6 1-4.6 2.8q0 1.6 1.4 1.6l1.8.4 2.3.6c1.3.2 1.3.2 1.2 9.3 0 11.6-.2 19.5-.5 20.3q-.4.7-1.2 1.3l-4.9 3.2-1 .5-1.8.5c-1.8.6-2.6.6-4.5-.1a6 6 0 0 1-3.9-3.8c-.5-1.5-.5-1.8-.6-13.4l.1-18c.1-6 .1-6-.5-6.7-.8-.7-1.5-.7-3.8 0m3.5.5c.5.6.5.7.3 9-.3 10.6-.1 26.4.3 28a7 7 0 0 0 6.6 5.2c3.3 0 7.8-2.1 11-5 1.1-1.2 1.1-1.2 1.2-8 .1-3.8.2-10.5.1-14.8v-8l-1.8-.5-3-.6c-1.7-.3-1.9-.5-1.9-1.6q0-.8.4-1.2c.6-.5 2.8-1 4.7-1.2 1.2-.1 2.5-.3 3-.5s2-.4 3.1-.5 2.6-.3 3.2-.5q2-.6 2.9 0c.4.4.4 2 .3 21.8-.2 24.7-.4 22.4 2.4 22.7 2.7.2 3.6.8 3.7 2.1.2 1.7 0 1.8-3.9 1.8-1.8 0-3.7.1-4.2.3-1.3.3-7.6.7-8 .4s-.5-.9-.7-3.9c-.2-3.8-.2-4.3-.7-4.3l-2.4 2.1a22 22 0 0 1-6.3 4.7c-3.5 1.6-3 1.6-7.6 1.7-4.2 0-4.4 0-5.7-.6l-1.6-.6a18 18 0 0 1-4-3.8q-1.3-2.2-2-6.5c-.3-2.3-.3-4.5-.2-16.7.2-10.8.1-14.1-.1-14.4q-.4-.3-1.5-.5l-1.8-.5q-.7-.4-1.5-.4-1.8.2-1.5-1.5 0-1 .3-1.4c.3-.4 2.3-.8 5-1l3-.5 3-.5c1.4-.2 2.9-.4 3.2-.6q1.8-.6 2.7.3"></path></g><g fill="#6c3c35"><path d="M95.4 8.8c-.4.2-1.9.5-3.2.6s-2.6.3-3 .5l-1.9.4q-1.2.2-1.8.5-.7.4-1.7.6l-1.7.5q-.5.3-1.7.5-1.2.1-1.7.5l-1.4.4q-1 .2-1.5.5-.4.4-1.3.6t-1.4.5l-1.3.5q-.7.1-1 .5 0 .3-.7.3-.5.1-1.1.5l-1.3.7q-.7.1-1 .5-.3.3-1 .5l-1 .5-.7.3q-.5.1-1 .5t-.6.5-1.7 1l-1.9 1.1q-.5.2-.5.4a106.7 106.7 0 0 0-11.5 10 73 73 0 0 0-15 24q-.3.4-.4 1.3l-.5 1.4c-.2.2-.4.9-.5 1.3l-.5 1.4-.5 1.8q-.2 1.2-.5 1.7t-.5 2l-.5 1.8c-.2.2-.4 1.2-.5 2.2q-.2 1.6-.5 2.4c-.2.3-.4 1.6-.5 2.8-.1 1.3-.3 2.7-.5 3.2s-.4 2.2-.5 3.9-.3 3.2-.5 3.6l-.5 5-.6 6.2c-.4 2.1.3 4.6 1.3 5.4.8.5 2.9 1 4.3.7 1.1-.1 2.4-1.1 2.4-2q0-.2.3-.5c.3-.3.4-1.4.5-4.4a42 42 0 0 1 1-8.1c0-1.8.3-4.7.5-5 .2-.1 6-1 8.8-1.2 1.3 0 2.8-.3 3.2-.5l2.5-.4q1.6-.2 2.4-.5l1.9-.5 1.7-.5q.6-.4 1.8-.6t1.6-.5q.4-.2 1.6-.5 1-.1 1.4-.5l.7-.4 1.7-.6 1.6-.6 1-.5q.6-.5 1-.5t.7-.4l1-.4L70 75q1.3-1 2.4-1.4.7-.3 1-.7l.5-.2q.5 0 1.8-1.2l2-1.5 1.2-1 2.3-2a46 46 0 0 0 10.4-13.2l.7-1.2q.4-.2.4-.8l.5-1 .5-1q.1-.5.5-1 .5-.7.5-1.2c0-.4-.2-.5-5.9-.3h-6.9c-1.5-.3-1.5-1.5 0-1.7q1-.2 1.3-.6l1-.5q.8-.1 1-.5.1-.3 1-.5.7-.1 1-.5.1-.3.8-.5.6-.1.7-.4 0-.2.9-.6 1.6-.8 2.3-1.4.5-.5.8-.5l1.5-.9 1.9-1.4c1.9-1.2 5-5 5.5-6.7l.6-1q.3-.4.5-1.4.1-.9.5-1.4c.6-.7.6-11.1 0-11.8l-.6-1.5q-.2-.9-.6-1.6-.5-.5-.5-.9c0-1.5-4.3-3-6.1-2.3M226 15.9l-.4.3.8-.3q.9-.7-.4 0M222 16.9q-.6.3-.4.4l.8-.4q.9-.7-.4 0M671.4 16.7q-.8.5 2.6.5c1.4 0 2.6-.2 2.6-.3 0-.2-5-.4-5.3-.2M697.2 16.8q-.5.4 1.2.4l1.5.1q.4 0 .6-.3c0-.3-.2-.4-1.5-.4q-1.4 0-1.8.2M218 17.9q-.6.3-.4.4l.8-.4q.9-.7-.4 0M232.3 19.6q0 .7.1.3v-.7zM471.6 22.9v.3q.2-.4 0-.8zM672 23.9q0 .6.2.3v-.8q-.1-.2-.1.5M221.9 49.1v12.7zM447.8 25.1l.8.2q.9.2.4 0c-.4-.3-1.5-.4-1.2-.2M465.8 25.3q-.6.3.6 0 .5-.3.1-.3zM232.1 52.6v13.5zM462.9 28.8V30zM166.5 28q-.9.9 0 0 .8-.5.8-.7 0-.3-.8.6M176.7 28.4q-1 1 .1.1 1-.9.6-.8zM206.9 31.6v1.2-2.5zM162.5 32.2q-.9 1 0 0l.8-.6q0-.3-.8.6M207 36.3q0 2 .2 2.3.2-.1.1-1.4-.2-4.2-.2-.9M170 38.3q-.2.4-.2.6l.4-.5q.5-1.2-.2-.1M272.4 40.8q.4.4.7.4.5.1-.6-.4-.9-.4-.2 0M309.2 41q.4.6.5.6.1-.1-.4-.7-.9-.8-.1.1M364.3 40.9q-.6.3-.4.4l.8-.4q.7-.7-.5 0M621.3 40.9q-.6.3-.4.4l.8-.4q.7-.7-.5 0M565.6 41.4v.3q.1-.5 0-.8zM668 41q.2.3 6 .3t6-.3q-.2-.2-6-.2t-6 .2M359.8 42.8q-.5.4-.4.5.4-.1.7-.5.8-1-.3 0M591.5 42.3l.8.8q1.2 1.2.1 0t-.9-.8M616.8 42.8q-.5.4-.4.5.4-.1.7-.5.9-1-.3 0M339.6 46.8v1.4zM249.5 45.7l-1.4 1.4zM356.9 45q-1.2 1.3 0 .1 1.2-1 .8-.9zM613.9 45q-1.2 1.3 0 .1l.9-.8q.1-.3-1 .7M423.5 45.4l.7.6-.4-.6-.8-.6zM565.8 46q0 1.2.1.7v-1.4zM507.1 46.5 506 48l1.3-1.3 1.3-1.3c0-.2-.2 0-1.4 1.2M699.7 45.7h-1.4q-1.2 0-1.3.3c0 .3 0 .3 2 .4 1.3 0 1.5 0 1.5-.4q-.3-.7-.8-.3M269.7 46.3l.5.5-.4-.6q-.9-1-.1.1M661.5 46q-.1.4 2 .4c2.7 0 2.7-.5 0-.6q-2.1 0-2 .2M682.4 46c-.2.3-.4.3 2 .4q2 0 2-.3c-.1-.3-3.8-.5-4-.1M167.8 46.6q0 .7.1.3v-.7zM401.3 47.1q-1.1 1-1 1.1l1.2-1 1-1.2zM568.9 46.8q-1.2 1.2 0 .1t.8-.9zM298.7 47c.2.3.3 2.4.4 7.8V62l.1-7.4c0-6.8 0-7.4-.4-7.7q-.6-.4-.1 0M329.4 49.9V51v-2.6zM409.1 48l-.3.6.5-.5q.8-1.1-.2-.1M566 48q.2.4.9.4h.2l-.8-.5q-.4-.3-.2.1M553.7 49.1l1 .4c.3 0-1.1-.7-1.5-.7q-.3 0 .5.3M384.6 51.1v1.2-2.2zM641.6 51.1v1.2-2.2zM167.6 50v.4-.9zM361.6 50.6v.3-.7zM618.6 50.6v.3-.7zM540.3 50.8q.5 1 .5.6l-.4-.8q-.6-.6-.1.2M155.3 51.6q0 1.1.1.6v-1.3zM595.8 51.1q0 .7.1.3v-.7zM426.9 54.3v1.3zM271.6 52.6v.3-.7zM502.8 52.7q-.5.9 0 .2l.5-.7q0-.6-.5.5M555.9 56.3V58zM309.1 63.9V69zM585.8 54.1q0 .7.1.3v-.7zM380.5 54q.2.3.7.2t-.3-.3q-.7 0-.4.1M637.5 54q.2.3.7.2t-.3-.3q-.6 0-.4.1M281.9 67.4V74zM586.1 69v7zM353.3 56.9q0 .6.1.3v-.8zM610.3 56.9q0 .6.1.3v-.8zM511.3 57.6q0 .7.1.3v-.7zM405.8 58.1q0 1 .1.4v-1zM436.6 59.3v.9-1.9zM541.8 59.4q0 1.5.1.8v-1.8zM155.3 59.3q0 1 .1.5v-1.1zM425.5 59.2q-.9 1 0 0l.8-.6q0-.3-.8.6M511 59.5q.1 1.6 1 1.7.3 0-.2-.3-.5-.5-.6-1.4-.1-1.3-.1 0M167.6 60.8v.5-1.1zM556.1 65.5v2.8zM405.8 60.4c0 .4.6 1 1 .8q.3-.2-.1-.2l-.7-.5q-.2-.4-.3-.1M500.3 61.4q0 .6.1.3v-.8zM395 61.6q0 .7.2.3v-.7q-.1-.2-.1.4M298.9 69.5v3.6zM167.8 63.6q0 .7.1.3v-.7zM394.9 65.8v1.4zM511.2 64.1q-.4.5-.4 1.2 0 1.2.2 0 0-.9.8-1.2.6-.4.2-.4-.5 0-.8.4M511 67.3q0 1 .2.5v-1.1zM257.5 68.7q-1.3 1.5 0 0 1-.7 1-.9.1-.4-1 .9M248 69.4l-1 1.1 1.3-1.1 1-1.2q-.3 0-1.3 1.2M395 69.6q0 .7.2.3v-.7q-.1-.2-.1.4M500.3 69.9q0 .6.1.3v-.8zM157.5 69.9l.4.8.3.4-.3-.8q-.3-.7-.4-.4M488.4 70h.5l.6-.2c0-.2-1 0-1.1.2M491.9 70q.5 0 .7.3 0-.5-.6-.5t-.1.1M329.1 73.4V75zM207.8 72q0 1.2.1.7v-1.4zM492.6 72.4v.5-1.2zM555.9 77.6v3.2zM387.6 75.1v.5-1zM644.6 75.1v.5-1zM352.9 74.8l-.1 5.6v5.2l.2-5.6zM609.9 74.8l-.1 5.6v5.2l.2-5.6zM501.5 75.4l.4.8.3.4-.3-.8q-.4-.7-.4-.4M299 77.6q0 .7.2.3v-.7q-.1-.2-.1.4M515.3 78.1l.7.7-.5-.7-.7-.6q0 0 .5.6M378.8 78.9q0 1 .1.5v-1.2zM635.8 78.9q0 1 .1.5v-1.2zM207.6 80v1-2zM309.8 78.6l.3.8q.6.7.1-.2-.5-1-.5-.6M162.5 78.8l.8.8q1.2 1.2.1 0t-.9-.8M492 80.3q0 1.4.2.8v-1.7zM462.9 81.6V83zM271 80.4q-1 1 .1 0 .7-.6.6-.7zM596.6 81.9V83v-2.3zM175.5 81.1l1 .9-.8-.9q-.7-.7-1-.8zM536.8 80.8q-.5.4-.4.5.4-.1.7-.5.9-1-.3 0M311.5 81.4l1 .8-.7-.8-1-.9zM504.3 81q0 .2.5.6.9.8 0-.1l-.5-.7zM327.1 82q-1.5 1.6 0 .2t2-.7q0 .1 0 0-.3-1.1-2 .5M491.8 83.5q0 1.4.1.8v-1.6zM258 82.8q.4.5.6.4l-.5-.6q-1-.7-.2.2M539.2 83q-1 .9.1 0 1-.8.6-.8zM417.1 82.9l.8.3q.5.1-.6-.4-1-.5-.2 0M269.4 84.3l-1.5 1.6zM329.3 84.3q0 1.1.1.6v-1.4zM179 83.8q.4.5.6.4l-.5-.6q-1-.7-.2.2M221.3 84.3q-.3 1 0 .3c.4-.4.6-1.1.4-1.1zM260.5 83.8l.8.2q.3 0-.2-.3-1.1-.4-.6 0M383.6 84.8q-1.5 1.5.1 0 1.4-1.1 1-1zM450.8 84.4q-.5.5-.3.6c.2 0 1.1-1 1-1q-.1-.1-.7.4M537.7 84.7q-1.2 1.5.1 0l1-.9q.1-.4-1 .9M640.6 84.8q-1.5 1.5.1 0 1.4-1.1 1-1zM339.5 84.3c0 .4.7 1.1 1 .8l-.2-.1q-.3 0-.5-.6t-.3-.1M484 84.8q-.5.3-.3.4c.3 0 1-.7.8-.8q-.1 0-.5.4M555 84.8q-.4.4-.3.5l.7-.5q.9-1-.4 0M463 84.8c0 .2 1 .6 1.1.4l-.5-.4zM285.3 85.2h.8q.2-.2-.5-.2t-.3.2M183.4 85.9q.4.3.7.3.5.1-.6-.4-.9-.5-.1 0M361.4 85.9q.4.3.7.3.5.1-.6-.4-.9-.5-.2 0M618.4 85.9q.4.3.7.3.5.1-.6-.4-.9-.5-.2 0M215 86.1q-.4.4-.5.8 0 .6.2 0t.8-.8q.6-.3.4-.4zM238.7 87q.2 1.2.3.1 0-.7-.2-.9zM428.9 87.3q-.8.9.1 0l.7-.5h-.1q-.3 0-.7.5M410.5 88.9l.7.3q1 .5.2 0c-.4-.4-1.2-.7-.9-.4M424.4 89.1q-.8.6.1.1 1.1-.5.6-.5zM189.8 90.3q-.6.4.6 0 .4-.3.1-.3t-.7.3"></path></g><g fill="#2a241f"><path d="M230.6 14.8q-.4.3-2 .5c-.8.1-1.8.3-2.1.5l-2 .5-2 .5q-.6.3-2 .5l-2 .5c-.3.2-1.3.4-2 .5-1.9.2-2 .3-2 1.5 0 1.5.4 1.7 2.8 1.9q2 0 3.4.7c1.3.6 1.3.6 1.3 23.7 0 29.3-.2 38-.7 38.6q-.3.5-2.5.6-4 .3-4.1 2 0 1 .3 1.2c.6.3 23.2.3 23.7 0q.3 0 .1-1.2c-.1-1.4-1-1.8-3.9-2-3-.2-2.7 3-2.8-28.3-.1-17.3 0-29.5.2-34.2.2-6.8.2-7.4-.2-7.8q-.8-.9-1.5-.2M182 20.4l-1 .4-1.8.4q-1.4.3-2 .6-.3.4-1 .4l-1.4.5-1.5.8-1.7.9-1.3.7q-.6.4-2.9 2.2a32 32 0 0 0-10.6 16.8c-1 3.4-1.4 6-1.4 11.4a37 37 0 0 0 5.8 21.4 38 38 0 0 0 9.3 8.7q1.1.9 2 1 .6.2 1.2.7l1 .4q.6.1 1.4.5l1.7.5q.8 0 1.4.4t3.6.7l3.8.4c1 .4 2.5.4 3.2 0l4-.4c2-.2 3.7-.4 4.1-.6l2-.6c.6 0 1.4-.3 1.6-.5q.4-.3 1.3-.4t1.4-.6l.9-.3 1-.5 1-.6c.3-.1.4-1 .5-5.9.3-10.2.5-9.3-1.7-9.3-2.1 0-2 0-2.7 2.4l-2.6 10.3c-.2.8-1.8 2-2.6 2q-.7 0-1.7.6c-1.8.9-11.7.9-13 0l-1.4-.5q-.5-.1-1-.5l-1-.5a21 21 0 0 1-9.3-10.6q0-.6-.3-.8a40.2 40.2 0 0 1-2.6-17.6 38 38 0 0 1 2.6-17.5l1-2q.7-1.6 1.4-2.5l1.2-1.8a25 25 0 0 1 7.7-6.3l1.2-.4 1.4-.5c1-.5 1.5-.5 5.7-.5 4.1 0 4.7 0 5.6.5l1.5.5q2.5.1 3.4 4.5a50.7 50.7 0 0 1 1.3 5c1 4 1.4 5 1.7 5.3l1.7.2q2.8-.1 2.2-1.1c-.2-.3-.4-2.4-.5-7.2-.2-6.4-.2-6.8-.7-7.1l-1-.7-1.1-.4q-.5-.1-1.2-.5t-1.2-.5l-1.2-.4q-.8-.5-2-.6c-.9-.1-2-.4-2.5-.6-1-.4-12.1-.6-13.9-.3M443.4 21.8l-.1 1.6c0 1.2 0 1.2 2.5 1.4 1.3 0 2.8.2 3.2.4l1.6.5c.8.2.8.2.9 29.3 0 34.3.6 30-4 30.2s-4.3 0-4.2 1.9v1.5l23.7.1h24.2c.5-.2.6-.3.6-2.9l.3-6.8c.3-3.7.5-7.8.4-8.7q.1-.3-2-.2c-2.3 0-2.2-.1-3.3 4.4l-1.8 7.2c-.9 3.7 0 3.4-11.5 3.5-6.2 0-10.4 0-10.6-.2-.5-.3-.7-58.3-.3-58.9q.4-.3 1.2-.5.9-.1 1.6-.4c.4-.2 1.9-.3 3.3-.4 2.7-.2 2.7-.1 2.4-3.1 0-.4-28-.2-28.1.1M260.1 40.5q-.7.1-1.3.4-.5.3-1.2.3t-1.7.5l-1.7.8c-1.7.8-2.6 1.4-4.3 3a10 10 0 0 0-2.8 4q-2 4.6 2 6.6c1.6.8 2.2.7 4.1-.2q2.8-1.4 3.4-6.6c.3-2 1-5 1.4-5.4q.3-.3 4.5-.3c4 0 4.1 0 5.1.7 3.2 2.1 4.1 4.8 4.1 11.6 0 3.7-.2 4.3-1.5 4.3q-.8 0-1.7.5-1 .4-2.1.6-1 .2-1.7.5-.6.4-1.7.5-1 .2-1.6.6t-1.3.3-1.6.5q-.7.5-1.3.5l-1.3.5-1 .5a7 7 0 0 0-2.5 1.2l-1.5.8c-1.2.5-4.2 3.6-4.8 5-2.3 4.8-1.5 11.2 1.7 14.2 1.4 1.3 3 2.3 3.6 2.3l1 .5c.6.6 8.6.6 9.9 0l1.4-.7a29 29 0 0 0 6.2-4.7q1.7-1.7 2.3-.6c.8 2.4 3.2 5.5 4.3 5.5q.4 0 1 .5c.5.3 1.2.4 3.8.4s3.2 0 3.6-.4l1-.5c1 0 4.3-3.7 4.3-4.9 0-.6-1.2-.7-1.8-.1-.9.7-2.3 1.5-2.8 1.5-1 0-2.8-1.3-3.3-2.5-.4-1-.4-2-.6-16.2-.1-16.7 0-16-1.8-19.8-.8-1.6-3.3-4.5-4-4.5q-.5 0-1-.5-.7-.4-1.4-.5t-1.3-.4c-.5-.4-1.3-.4-6-.5-2.9 0-5.7 0-6 .2m11.6 31c0 8.4 0 8.4-.7 9q-.7.6-1.5 1.1l-1.2.8q-.7.1-1 .4c-1.3 1-5.6 1.3-7.9.6-1.4-.4-3.2-2-4-3.5-.4-.8-.5-1.6-.6-3.6a9 9 0 0 1 3-7.9l2-1.7 1-.4q.6-.5 1.3-.7.5-.1 1-.5.2-.4.9-.4t1.6-.5l1.6-.5q.7 0 1.5-.5 1-.4 2-.4c1 0 1 0 1 8.6M365.6 40.4l-1 .5q-.5.3-1.3.3-.7.1-1.4.5t-1 .5l-.7.5q-.5.5-1 .6c-.8.2-3.5 3.1-4.2 4.5-1.8 3.4-2.2 7.9-1 11.2q.5 1.7.9 2t.4.6a18 18 0 0 0 7.3 5.6c2.4 1.1 3.4 1.5 3.8 1.5l1.3.5q1 .5 1.4.5.6.1 1.3.5t1.2.5 1 .5l1 .5c.6 0 2.4 1.4 3.5 2.6 2.6 2.7 2.4 6.9-.4 9.7q-1 1.2-1.5 1.3l-1 .4c-2 1.5-11.1 1.3-13.6-.3q-1-.6-1.4-2a66 66 0 0 1-2-8c-.4-1-.4-1-2.2-.9l-1.9.1v5.7c-.1 5.4-.1 5.6.4 6q.6.5 1 .5t.8.3 1.2.6 1.3.5q.4.3 1.5.5l1.8.5c1.2.7 11.8.8 13.4.2l2.1-.6 1.8-.6 1.4-.7c1.5-.7 2.1-1.1 3.7-2.7 2-2 2.8-3.4 3.5-6 .9-3.5.4-7.6-1.2-10.4-.7-1.3-3.4-4.1-4-4.1l-.7-.5q-.4-.5-.6-.5l-1-.5q-.6-.5-1-.5t-.7-.4q-.4-.3-1.3-.5l-1.7-.7-1.5-.4q-.6-.1-1.3-.5-.9-.5-1.5-.5t-1-.4-1-.5-1.5-.7l-.8-.4c-.8 0-3-2-4-3.6-1.2-2.2-.5-6.6 1.5-8.1 2.6-2 2.2-2 7.6-2 4.7 0 4.9 0 5.8.7q.9.6 1 1.2l.7 2.3 1 3.8c.6 2.3.6 2.3 2.6 2.3h2l.2-5c.2-5 .2-5.6-.8-5.6l-1-.5q-.5-.5-1.1-.5-.4 0-1.1-.5-.6-.4-1.7-.6l-2-.5c-1-.4-10-.6-11.3-.3M412.9 40.4l-1 .5q-.5.3-1.3.3-.7.1-1.5.5-.7.5-1.1.5l-1 .5-.8.5c-1.1 0-6 4.9-7.6 7.8-3 5-4.2 11.8-3.4 19.4a21 21 0 0 0 13.6 18q.7.3 1.3.3t1.4.5c1 .6 11.5.6 12.8 0l1.7-.6q.8-.1 1.2-.5l.8-.4q.4 0 .9-.5t.9-.5c1 0 7-6.7 7-7.9l-.8-.6c-.7-.5-.7-.5-2 .7a13 13 0 0 1-3.5 2.5l-1 .5c-1.5 1-3 1.2-7.3 1.3-4 0-4.5 0-5.4-.5q-.8-.4-1.3-.5l-1-.5q-.5-.4-1-.5c-.8 0-4.6-4.3-5.6-6.3-1.8-3.8-3-10.2-1.9-10.9.2-.2 6.2-.3 15-.3s14.8 0 15-.2c.6-.4.5-7 0-9.6-1-4.3-4.2-9-7.4-10.8a25 25 0 0 0-5.7-2.5c-1-.3-8.7-.5-10-.2m9.6 4q4.4 3.1 4.5 10 .1 4.9-3.5 6.2c-1.3.4-2.1.5-9.2.6-5.8 0-8 0-8.2-.2-1-.9 0-6.9 2.2-11.5.8-1.5 3.7-4.8 4.3-4.8l1-.4c.8-.7 1.4-.8 4.8-.7 2.9 0 3 .1 4.1.8M517.9 40.6q-1 .5-2 .6-1.1.2-1.6.6t-.8.4-3.4 2a24 24 0 0 0-5.5 5.6 30 30 0 0 0-4.1 11.7c-.6 3.9.1 11.4 1.4 14.4 2.4 5.8 5.3 9 9.7 11.3q1 .4 1.9 1l1.9.6c.5 0 1.5.3 2.1.6a38 38 0 0 0 13.5-.7q.7 0 1.3-.5l1-.5q.4 0 1-.5l1-.5c.5 0 5.2-5 6-6.3.9-1.7.9-1.7 0-2.2s-.8-.5-2 .6q-2.6 2.6-3.1 2.4l-1 .5q-.7.5-1.1.5l-1.5.5c-.9.5-1.5.5-5.2.5s-4.3 0-5.2-.5l-1.4-.5q-.5 0-.7-.2-.1-.4-1-.6a16 16 0 0 1-6-6.9c-1-1.5-1.9-5.2-2.2-8.4-.3-2.6-1.6-2.4 15.5-2.4 11.1 0 14.8 0 15-.3.4-.3.5-6.7.1-8.4q-.7-3.5-2.6-7a21 21 0 0 0-7.1-6.1l-1.6-.6q-1-.3-2-.7a32 32 0 0 0-10.3 0m9.7 3.7c3.2 2.1 4.6 5.1 4.6 9.9 0 4.1-.8 5.4-4 6.5-1.7.5-2.1.5-9.1.5-9.1 0-8.4.4-7.7-4.4.8-5 3-9.7 5.7-11.5s2.8-1.8 6.7-1.7c2.6 0 3 .1 3.8.7M563.3 40.6c-1 .5-1.1.6-2 .7l-1.3.6q-.4.3-1 .4-.6 0-1.6.5l-1.5.5q-.5 0-1.4.5-.7.4-1.3.5l-1.4.4c-.5.3-1.4.6-1.9.7q-1.4.2-1.4 1.7c0 1.2.5 1.4 3 1.6 1.6 0 2.4.2 3.2.6.9.6 1 .6 1.1 2.4l.2 17c0 17.8.3 16.3-2.8 16.6-1 0-2.3.3-2.8.5-1 .4-1 .4-1 1.6s0 1.2 11.6 1.2 11.6 0 11.6-1.1c0-1 0-1.2-1-1.6-.6-.3-1.8-.5-2.8-.6-1.5-.1-1.9-.2-2-.6-.4-.6-.7-31.7-.4-32.2a15 15 0 0 1 4.1-3.2q.6-.5 1.2-.7t1-.5l1.4-.5q1-.1 1.7-.5c2.3-1.2 7.1.3 8.8 2.7 1.4 2.1 1.5 3 1.6 18.3.1 17.7.2 17-3 17.2q-1.5.2-2.6.6c-1 .5-1 .5-1 1.6s0 1.1 11.5 1.1 11.5 0 11.5-1.2 0-1.2-1-1.6c-.5-.2-1.8-.4-2.7-.5-1.6-.2-1.8-.2-2-.8-.3-.5-.4-3.9-.4-14.6 0-7.7-.1-14.8-.3-15.7-.7-5.7-.8-5.9-2.2-8.7-.7-1.5-3.2-4-4.3-4.2q-.6 0-1.6-.6c-1.5-.7-7.5-.7-9 0l-1.6.5-1 .5-1 .5q-.5.1-1 .5l-.9.5c-.4 0-2.7 1.9-4.3 3.5q-2.7 2.6-3.2 1.5l-.4-3.9q-.2-3.8-.5-3.8-.8-.5-2 .1M622.6 40.4l-1 .5q-.5.3-1.3.3-.7.1-1.4.5t-1 .5l-.7.5q-.5.5-1 .6c-.8.2-3.5 3.1-4.2 4.5-1.8 3.4-2.2 7.9-1 11.2q.5 1.7.9 2 .3.3.4.6a18 18 0 0 0 7.3 5.6c2.4 1.1 3.4 1.5 3.8 1.5l1.3.5q1 .5 1.4.5.6.1 1.3.5t1.2.5 1 .5l1 .5c.6 0 2.4 1.4 3.5 2.6 2.6 2.7 2.4 6.9-.4 9.7q-1 1.2-1.5 1.3l-1 .4c-2 1.5-11.1 1.3-13.6-.3q-1-.6-1.4-2a66 66 0 0 1-2-8c-.4-1-.4-1-2.2-.9l-1.9.1v5.7c-.1 5.4-.1 5.6.4 6q.6.5 1 .5t.8.3 1.2.6 1.3.5q.5.3 1.5.5l1.8.5c1.2.7 11.8.8 13.4.2l2.1-.6 1.8-.6 1.4-.7c1.5-.7 2.1-1.1 3.7-2.7 2-2 2.8-3.4 3.5-6 .9-3.5.4-7.6-1.2-10.4-.7-1.3-3.4-4.1-4-4.1l-.7-.5q-.4-.5-.6-.5l-1-.5q-.6-.5-1-.5t-.7-.4q-.4-.3-1.3-.5l-1.7-.7-1.5-.4q-.6-.1-1.3-.5-.9-.5-1.5-.5t-1-.4-1-.5-1.5-.7l-.8-.4c-.8 0-3-2-4-3.6-1.2-2.2-.5-6.6 1.5-8.1 2.6-2 2.2-2 7.6-2 4.7 0 4.9 0 5.8.7q.9.6 1 1.2l.7 2.3 1 3.8c.6 2.3.6 2.3 2.6 2.3h2l.2-5c.2-5 .2-5.6-.8-5.6l-1-.5q-.5-.5-1.1-.5-.4 0-1.1-.5-.6-.4-1.7-.6l-2-.5c-1-.4-10-.6-11.3-.3M307.4 40.8l-3.2.5c-1.5.1-3 .3-3.3.5-.3.1-1.6.4-3 .5a18 18 0 0 0-3.9.7c-1.3.4-1.4.5-1.4 1.4q-.3 1.4 1.5 1.3c.5 0 1.3.2 1.6.4l1.8.5c2 .3 1.8-.9 1.7 15-.3 17.2-.1 19.2 1.8 22.8.9 1.7 3.8 4.3 4.7 4.3l1.2.5c1.4.8 8.3.8 9.7 0l1.2-.5c.4 0 2.6-1 3.8-1.8 1.2-.7 3.2-2.4 4.8-4.1 2.7-2.9 3-2.6 3.2 3.6 0 1.6.2 3 .2 3 .3.3 3.7.1 4.7-.2.4-.2 3.1-.3 6-.4 5.1-.2 5.1-.2 5.1-1.3 0-1 0-1.2-1-1.6-.5-.2-1.7-.5-2.7-.6s-2-.2-2.1-.4c-.3-.2-.3-4.3-.3-22 0-17 0-21.7-.3-22q-.4-.7-2 0c-.5.2-1.6.3-2.4.3s-2 .2-2.8.4l-3.6.6c-1.3.2-3 .4-3.7.7l-1.6.5q-.3.1-.3 1c0 1.2.2 1.3 1.7 1.3q1 .1 2.3.5l1.8.5.6.3v15c0 14.5 0 14.6-.5 15.3a17 17 0 0 1-4.3 3.4q-.5.5-1.1.7l-1 .5-.8.3-1.3.5c-1.2.7-5.7.8-6.2.2q-.3-.3-1-.5c-1.7-.4-3.1-2.8-3.6-6.2-.5-3.2-.5-18 0-28 .2-6.2.2-6.6-.2-7.1q-.7-1-1.8-.3"></path></g><g fill="#74584a"><path d="m94.9 8.6-3 .5c-2 .2-5.3 1.1-4 1.1.3 0 1-.1 1.3-.3l3-.5c1.3-.1 2.8-.4 3.4-.6 1.9-.8 5.8.8 5.9 2.3l.5 1 .6 1.5q.2 1 .6 1.5c.6.7.6 11.1 0 11.8q-.4.5-.5 1.5l-.5 1.3-.6 1c-.5 1.7-3.6 5.5-5.5 6.7l-2 1.4-1.4 1q-.3 0-.8.4-.7.6-2.3 1.4-.8.4-.9.6t-.7.4-.9.5-1 .5q-.7.2-1 .5-.1.3-.8.5t-1 .5a1 1 0 0 1-.8.4q-.3 0-.2.2a32 32 0 0 0 7.5-3.8c3.9-2 11-7.8 11-9.1l.3-.6.8-1.2.6-1.3a25 25 0 0 0 .4-16.3l-.7-1.4-.5-1c0-.5-1.5-1.8-2.7-2.3a6 6 0 0 0-4.1 0M85.4 10.5l-2.2.8-5.3 1.5q-1.4.5-.3.4.8 0 1.1-.3.5-.3 1.7-.5t1.7-.5l1.7-.5 1.6-.5 1-.5q.8-.1 0-.1zM75.3 13.8l-1.3.4q-.6 0-3.4 1.5-1 .4-.4.5.4 0 .6-.3.3-.4 1-.6.8-.1 1.3-.4l1.4-.5 1.3-.5.7-.5q.5-.1 0-.1t-1.2.5M230.1 14.5c-.2.2-1 .4-1.5.5q-1.6.3.2.1 1 0 1.7-.5 1-.7-.4 0M232 14.7l.7 1q.4.6.1 0c-.1-.7-.8-1.5-1.1-1.5q-.1 0 .3.5"></path><path d="m226.2 15.5-1.5.5q-1.4.3-.3.2l1.9-.5q1-.4.7-.4zM66.4 17.7c-1.5.8-2.6 1.4-2.4 1.5q.3 0 .7-.3l1-.5 1-.5 1-.5c.7-.2 2-1.2 1.6-1.1zM222.2 16.5q-.6.3-1.6.5-1.7.3-.3.2 1 0 2-.5t.7-.4zM232.4 20.3l-.1 34c0 30 0 30 .7 30.5q.5.4 1.9.4h1.2L235 85c-2.5-.2-2.3 3.5-2.3-35V16.2zM670.9 17l-.5 1.6-.6 2-3 8.9-1 3-2 6.5-2 6.1c-.8 1.5-.6 1.7 1.9 1.6 2.2 0 2.2 0 2.8-2.2l1-2.4c.2-.3 1.6-.4 6.5-.4 7.1 0 6.6-.2 7.5 2.7.7 2.3.8 2.4 3.2 2.3 2.2 0 2.2 0 1.4-2.3a449 449 0 0 1-6.8-20.8l-1.5-4.2c-1-3-1-3-3.8-3.1-2.8 0-2.8 0-3.1.8m5.7-.1-2.7.3q-3.3.1-2.5-.5c.2-.2 5.2 0 5.2.2m-1.9 5.7q.4.4.7 1.8l.6 2.2 1.9 6.3.8 2.6q.8 1.7.2 2.3c-.4.4-1.1.4-4.8.4-5.6 0-5.7 0-4.8-2.6l3.5-11.7c0-1.4 1.2-2.2 2-1.3m-2.5 1.6q-.2.2-.2-.3 0-.7.2-.5zM680 41q-.2.2-6 .2t-6-.2q.2-.3 6-.3t6 .3m-14.4 5.1c-.1.4-4.1.3-4.1 0q-.1-.5 2-.3 2 0 2 .3m20.8 0q0 .3-2 .2c-2.4 0-2.2 0-2-.3.2-.4 3.9-.2 4 .1M696.9 16.4c-.2.4-.2 29.9 0 30.1q.5.3 2.1.2h1.9V16.3l-2-.1zm3.6.6q-.1.3-.6.3h-1.5l-1.2-.2q-.6-.5 1.8-.5 1.7-.1 1.4.4m0 29q.2.5-1.4.4c-2.1-.1-2.1-.1-2.1-.4q0-.3 1.3-.2l1.4-.1q.5-.3.7.3M218.2 17.5q-.6.3-1.6.5-1.7.3-.2.2a4 4 0 0 0 1.8-.5l.7-.4q-.3 0-.7.2M214.4 18.4c-.3.3-.2 2.7.2 3q.2.3.7.3.3 0-.2-.2c-.5-.2-.6-.4-.6-1.6q0-1.3.3-1.5.3 0 0-.1zM62.9 19.5q-.2.3-1.2.8l-3 1.8-1.4 1A92 92 0 0 0 43 36.6a50 50 0 0 0-6.1 9.1 46 46 0 0 0-3.4 6.5L32.3 55q0 .4-.5 1.3t-.3 1.3v-.1q.2-.5.5-.7.3-.4.5-1.3.1-.8.5-1.3l.6-1.3.5-.9q.2 0 .4-.9.1-.8.5-1.1l.5-1q.1-.7.4-.9l.6-1a73 73 0 0 1 22.4-24.8c.3 0 1.2-.6 2-1q1.2-1 1.6-1l.7-.6q.4-.4.1-.5zM180.5 20.5l-1.6.5q-1.4.3-.2.2l2-.5q1-.3.8-.4zM196.3 20.6c.4.2 1.4.5 2 .5q1.9.2.2 0l-1.7-.6-1-.3q-.3 0 .4.4"></path><path d="M176.9 21.6q-.5.3-1 .4l-1.6.6q-1 .6-.8.6l1.1-.4 1.3-.6 1.2-.4q.8-.5.5-.6zM200.4 21.7q.7.5 1.3.5c.7 0 .7 0-1.6-.8zM443.1 21.5c-.2.8-.3 2.8 0 2.5l.1-1.4q0-1 .4-1.2.3 0 0-.1zM457.9 21.5l13.7.1v1.5c0 1.5 0 1.5-2 1.7l-3.2.4-1.5.4q-.6 0 .1.1l2.1-.3c.8-.2 2.1-.4 2.9-.4 2 0 2-.1 2-2l-.1-1.6H444zM217.5 22c1.5.2 3 .6 3.7 1 .3.3.5 40 .1 53.7-.2 8.6 0 8.3-2.5 8.3q-1.7 0-.4.2 2.5.3 3-1c.4-1 .6-60.9.2-61.3a10 10 0 0 0-4.4-1.1q-2 0 .3.2"></path><path d="m203.1 22.8 1.2.4q.2 0-.7-.4-1.8-1-.5 0M172.3 23.6l-.7.4-1.7 1a34 34 0 0 0-14.7 24.7 68 68 0 0 0 .4 14.3 32 32 0 0 0 15.5 22.4c1.2.6 0-.2-2.1-1.7a38 38 0 0 1-8-8 37 37 0 0 1-5-12.6c-.9-3.7-.9-13.5 0-17.2a34 34 0 0 1 15.7-22.6c.3 0 1.5-1 1.2-1q-.4 0-.6.3M204.9 23.5q.1.3 1 .6c.8.4.8.4 1.1 7.3l.4 7.6q0 .6.2.5l-.2-6.1-.4-7.5c-.1-1.3-.2-1.6-.7-1.8l-.9-.6q-.6-.5-.5 0M184.6 24.2l-.7.5 1-.3c1-.6 9-.6 9.9 0q.5.3 1 .3.2 0-.7-.5a26 26 0 0 0-10.5 0M443.2 24.8l1.2.2 3 .4c2.2.4 2.9.4 1.2 0a19 19 0 0 0-5.5-.6"></path><path d="m182 25.1-.8.5L179 27c-8.6 5.8-12.7 18.2-11.2 34.5.6 7.5 3 14 6.7 18.2 1.6 2 3.7 3.8 3.4 3.1l-1-1c-2.4-1.7-5.8-7-7.1-11.3a44 44 0 0 1-1.9-15.3 40 40 0 0 1 2.1-15.5c0-1.6 4-8 6.2-10.1a24 24 0 0 1 7-4.6q.5 0-.2-.1-.7 0-1 .3M196.8 25c1.9.4 2.5 1.5 3.4 5.2l.8 3 .8 2.8 1.3 3.7v-.3c-.2-.1-.4-.9-.6-1.5l-2.2-8.6c0-2-2-4.6-3.5-4.5q-1 0 0 .2M450.8 26c.4.2.5 1.9.5 29 0 15.7-.1 28.8-.3 29-.3.5-2.5 1-5 1q-3 .1-.6.2 4.3.1 5.5-.8c.6-.6.6-.6.6-29.4 0-29.1 0-29.3-.8-29.3q-.2 0 .1.3"></path><path d="M463.3 26c-.4.2-.4 3.7-.4 29.2 0 27.5 0 29 .4 29.5s1.2.4 10.3.5c9.6 0 9.9 0 10.4-.4s.7-1.1 1.8-5.3l1.5-5.9.5-2.1c.6-1.6.6-1.6 2.7-1.6s2.1 0 2.1 1.9c0 2-.3 6.8-.7 12.8l-.3 4-24.1.2h-24.1l24 .2c19 0 24.1 0 24.3-.3.4-.6 1.5-17.5 1.2-18.6-.1-.6-.3-.6-2.3-.6-2.8 0-2.4-.8-4.9 9-1.2 4.8-1.4 5.5-1.9 6-.6.8-19.2.7-20 0-.7-.4-.7-.4-.8-24l.1-29c.2-5 .2-5.3.8-5.5q.4-.2.1-.2t-.7.2M204.3 40h1.9q.6-.2-1-.2t-.9.1M562.9 40.4l-1.5.6q-1 .3-.2.2.6 0 1.6-.5c1-.5 2.3-.6 2.6-.2.2.2.4 1.9.5 3.7.2 4.8.6 5 3.3 2.3 2-1.9 3.4-3 6.3-4.4q1.2-.6 1.2-.8a20 20 0 0 0-8 5.5c-2 2.1-2.4 1.6-2.6-2.9q-.2-3.2-.5-3.6c-.5-.4-1.8-.4-2.7.1M258.6 40.5l-1.4.5q-1.2.3 0 .2.8 0 1.8-.5 1.1-.4.6-.4zM272.5 40.7q.8.5 1.3.5c.5 0 2.4 1 3.4 1.8.9.7 2.6 3 3.1 4.1 1.6 3.8 1.5 3.2 1.7 19.6a78 78 0 0 0 .6 16.2c.4 1 2 2.1 3 2.1.7 0 2.3-.8 3-1.5.6-.6.7-.6 1.3-.2l.6.6c0 .5-1.2 2.3-2.4 3.5q-1.9 1.9-.3.6c1.3-1.1 3-3.5 2.9-4q-.1-.5-.7-1c-.6-.3-.7-.3-1.4.2-2.5 1.7-3.1 1.9-4.6 1-1.6-1-1.6-.9-1.7-17.6l-.3-15.3-.8-2.3a12 12 0 0 0-7.8-8.2l-1.3-.4zM306.8 40.5q-.8.3-2.6.5-2.8.3.2.1c1 0 2.4-.2 2.9-.4 1-.5.4-.6-.6-.2M309.1 40.8c.6.6.6.6.4 4.8-.4 7.2-.3 29.2 0 31.3q.9 4.3 4.4 5.8c1.6.7 5 .7 6.1 0q1.2-.9-.6 0a8 8 0 0 1-2.7.3c-3.3 0-6-2-6.7-5.2-.4-1.7-.6-17.5-.3-28 .2-8.3.2-8.4-.3-9l-.7-.6q-.2 0 .4.6M336.8 40.5q-.8.3-2.3.5-2.3.3-.4.2c.7 0 1.9-.1 2.6-.4q2.5-.8 3 .4.3.6.3.3c0-1-1.8-1.6-3.3-1M364.3 40.6l-1.3.4q-.7 0-.1.2l1.6-.4q1-.5.8-.5-.5 0-1 .3M377.5 40.7q1 .5 1.7.5.8 0-.4-.3-3.1-1-1.3-.2M411.5 40.6l-1.2.4-1.7.6q-1 .6-.8.6.4 0 1-.5l1.4-.5q.7 0 1.7-.5.8-.3.6-.4zM423.5 40.8l1.5.4q.6 0-.7-.5-2.6-.9-.8 0M516.9 40.5l-1.3.5q-1 .3-.1.2.6 0 1.6-.5t.6-.4zM528.9 40.8l1.6.4q1 0-.1-.2-.7-.1-1.3-.5l-.9-.3q-.2.1.7.5M578.6 40.5q-.1.3-1 .5-.6.2-.2.2.5 0 1.4-.5.8-.3.4-.5-.4 0-.6.3M588.4 40.8l1.2.5q.5 0-.6-.5-2.1-1-.6 0M621.3 40.6l-1.3.4q-.7 0-.1.2l1.6-.4q1-.5.8-.5-.4 0-1 .3M634.5 40.7q1 .5 1.7.5.8 0-.5-.3-3-1-1.2-.2"></path><path d="M255 41.8q-.8.3-.5.4l1.1-.5q1.4-.9-.6 0M300.4 41.5c-.2.2-1.3.4-2.4.5q-2.9.3.1.1c2 0 4.9-.8 3.4-.8zM330.5 41.5q-.7.3-2.2.5-2.5.3-.3.2 1.4 0 2.9-.5 1.3-.4.9-.4zM361.1 41.8l-.5.4 1-.5.5-.4zM380.7 41.8l1.2.4q.6-.2 0-.2t-.9-.4l-.7-.4q-.4 0 .4.6M426.4 41.7l1 .5c.5 0 2.3 1.5 4.1 3.3 2.9 2.9 4.3 6.2 5.1 11.5q0 .4.1-.5c.2-5-4.6-12.4-9.6-14.7q-2-.9-.7 0M512.5 42.3a23 23 0 0 0-12.2 18q0 .3.6-2a22.4 22.4 0 0 1 11.7-15.8l2.1-1.1q.4-.5-2.2.9M531.7 41.8q.6.4 1 .4t-.1-.2l-.7-.5q-.2-.2-.5-.3-.2.1.3.5M559.8 41.5q-.2.3-1.1.5t-.2.2 1.4-.5q.6-.4.5-.5zM590.4 41.5l.7.5q.8.5 0-.2c-.4-.5-1-.8-.7-.3M618.1 41.8l-.5.4 1-.5.5-.4zM637.7 41.8l1.2.4q.6-.2 0-.2t-.9-.4l-.7-.4q-.4 0 .4.6M253.3 42.6l-.6.4a13 13 0 0 0-3.5 2.7c-2.8 2.9-4 7-2.4 9 .5.8 2.6 2.2 2.8 2l-1-.8q-4.3-2.1-.5-8.6a14 14 0 0 1 4.6-4c.3 0 1.4-1 1.2-1q-.4 0-.6.3M293.8 42.6q-1.7.4-1.6 1 0 .3.3 0l1.6-.8q1.3-.5 1-.5zM324 42.7c-1.6.6-1.7.7-1.7 1.8q-.2 1.6 1.8 1.5l1.7.4 1.2.3c.8 0-2-1-2.9-1q-1.8.2-1.5-1.3c0-1 0-1 1.9-1.6q1.6-.5 1.3-.5zM339.6 49.5v21.2c0 15.8-.2 14.6 2.2 14.5q2 0 0-.1c-2.3-.2-2.1 1.6-2-22.1zM359.3 42.8c-1.2.7-3.6 3.1-4.4 4.3-1.4 2.3-1.8 4-1.8 7.8 0 3.5 0 3.5 1 5.4.5 1 1.4 2.4 2.1 3.1 1.2 1.2 4.3 3.5 4.5 3.2q0-.1-.6-.5-2.4-1.4-3.5-2.5c-5.5-5.4-4.1-16.2 2.6-20.4l1-.8c0-.2 0-.2-1 .4M383 42.8q.6.4 1 .4t-.1-.2l-.8-.5-.4-.3q-.2.1.3.5M406.4 42.8q-.6.4-.5.5c.3 0 1.6-1 1.4-1zM556.9 42.6l-1.1.5q-1 0 0 .1c.3 0 1-.2 1.3-.5q.6-.4.5-.5z"></path><path d="m592.8 43.5 1.7 2.6.8 1.8c.8 1.7 1 4.7 1.2 20.6.2 15.8.2 15.8.7 16.3q.6.4 1.9.4 2 0-.2-.2-1.3-.1-1.6-.5-.5-.7-.5-19a77 77 0 0 0-.5-14.5c-.8-4-2-6.4-3.8-8.1q-1-1 .3.6M616.3 42.8c-1.2.7-3.6 3.1-4.3 4.3-1.5 2.3-1.9 4-1.9 7.8 0 3.5 0 3.5 1 5.4.5 1 1.5 2.4 2.1 3.1 1.2 1.2 4.3 3.5 4.5 3.2q0-.1-.6-.5c-1.7-1-2.6-1.7-3.5-2.5-5.5-5.4-4.1-16.2 2.6-20.4l1-.8c0-.2 0-.2-1 .4M640 42.8q.6.4 1 .4t-.1-.2l-.8-.5-.4-.3q-.2.1.3.5M384.6 48.5q0 5.4-.3 5.4l-2 .2c-1.9 0-1.9 0-2.3-1.4a32 32 0 0 1-1.5-5.3l-.4-1.7c-.2-1-2-2-3.3-2q-1.5 0 .2.3c1.4.2 2.7 1 2.9 2l.6 2.3.5 2c0 .6 1 3.5 1.3 3.9q.2.3 2.3.2c1.9 0 2 0 2.2-.7.2-.8.2-10.2 0-10.3-.1 0-.2 2.2-.2 5.1M404.5 43.9a25 25 0 0 0-9.5 15.8 31 31 0 0 0 2.8 19.7c1 2 4.5 5.8 5.6 6.4q.4.1-1.2-1.3c-6-5.4-8.4-13.6-7-23.5.9-7.3 3.8-12.4 9.4-17q1.8-1.4-.1-.1M536.4 45a21 21 0 0 1 3.7 5q.5 1 .6.9c.5-.5-3.2-5.5-5.2-7q-.6-.5.9 1.1M554 43.6q-.4.4-1 .4t-.1.2l1.4-.4q.8-.5.4-.5t-.7.3M641.6 48.5q0 5.4-.3 5.4l-2 .2c-1.9 0-1.9 0-2.3-1.4a32 32 0 0 1-1.5-5.3l-.4-1.7c-.2-1-2-2-3.3-2q-1.5 0 .2.3c1.4.2 2.7 1 2.9 2l.6 2.3.5 2c0 .6 1 3.5 1.3 3.9q.3.3 2.3.2c1.9 0 2 0 2.2-.7.2-.8.3-10.2 0-10.3-.1 0-.2 2.2-.2 5.1M261.4 43.7h1.8q.7 0-.8-.1zM416.8 43.7h1.9l-1-.1zM522 43.7h2l-1-.1zM258 44c-.2.4-1.2 4.7-1.2 5.5q0 1 1-4c.3-1.4.4-1.4 1.3-1.5q1.5-.2.1-.2zM265.5 44q3.3.5 5 4.3c.5 1.4.6 1.9.7 6.1.1 5.1 0 5.6-1.3 5.6q-.7 0-.3.2 1.3.3 1.9-1c.7-2 0-9.5-1.1-11.7s-3.2-3.8-5-3.7q-1.5 0 .1.2M365.4 44.5a7 7 0 0 0-3 3.1 7 7 0 0 0 1.2 7.7c.7.7 2.7 2 2.8 1.9q0-.1-.8-.7c-2.6-1.7-3.6-3.4-3.6-6 0-1.8.8-3.7 1.9-4.6 1-1 2.5-1.8 3.4-2q1.2 0 0-.1c-.3 0-1.2.3-1.9.7M413.8 44.3l-1 .5a16 16 0 0 0-4.4 4.7 28 28 0 0 0-2.5 9.2c-.3 2.5-.6 2.4 7.9 2.4 5.3 0 7.6 0 8.4-.3q2.3-.8-.6-.2c-1 .3-3.3.4-8 .4-8.6 0-8 .5-7-5.2q.7-3.4 2.3-6.7c.7-1.3 3.4-4.1 4-4.1q.4 0 .9-.5l1.2-.6q.9 0 0-.1-.7 0-1.2.5"></path><path d="M420.6 44c1.8.4 3.7 2.1 4.8 4.3 1 1.9 1.5 6.8.8 9-.3 1.2-1.5 2.6-2.3 2.8q-.7 0 0 .1c.7 0 2.1-1.4 2.5-2.5.8-2 .2-8-.8-9.7-1.5-2.3-3.9-4.3-5.2-4.2q-.6 0 .2.2M518.8 44.4c-4.1 2.4-6.3 6-7.2 12-.8 5.2-1.3 5 8 4.8 6-.1 7.4-.2 8.3-.5q1.8-.8-1 0c-1.2.2-3 .3-8 .3-8 0-7.5.2-7.2-3.4.5-4 1.9-7.8 3.8-10.2.9-1.2 3.6-3 4.7-3.4q.8-.3.2-.2z"></path><path d="M525.9 44c1.9.2 4.5 3 5.4 5.7 1.4 4.5.6 9.3-2 10.3q-.4.2 0 .2c.5 0 1.8-1.2 2.4-2.2.7-1.4.6-6-.2-8.3-1-3-3.9-6-5.7-6q-1 .1 0 .2M622.4 44.5a7 7 0 0 0-3 3.1 7 7 0 0 0 1.2 7.7c.7.7 2.7 2 2.8 1.9q0-.1-.8-.7c-2.6-1.7-3.6-3.4-3.6-6 0-1.8.8-3.7 1.9-4.6 1-1 2.5-1.8 3.4-2q1.2 0 0-.1c-.3 0-1.2.3-1.9.7M551.4 44.5l-1.3.5q-1 .3 0 .2.8 0 1.5-.5 1.1-.8-.2-.2M292 45c0 .5.9 1 1.7 1q.9 0 1.6.4.6.3 1 .3c1 0-1.6-1-2.5-1q-.9 0-1.4-.4z"></path><path d="M548.6 45.5q-.3.4-.3.8 0 .6.1.2t.6-.8q.4-.8-.4-.2M80.9 46.1c-.5 1.3.5 1.5 7.9 1.3 5.7-.2 6-.1 6 .3q-.1.6-.5 1.1l-.5 1-.5 1q-.5.6-.5 1.1t1-1.4q.1-.6.5-1 .5-.9.9-2.2c.1-.6.1-.6-1.1-.5a99 99 0 0 1-12.5.1q-.7-.4 0-.8.8-.4 0-.3-.5 0-.7.3M297.6 47c1.3.2 1.2-.4 1 14.7-.1 12.3-.1 14.5.2 16.8q.8 4.3 2 6.5c.7 1 3.6 3.7 4 3.7q.2 0-.3-.4a18 18 0 0 1-3.2-3.1l-.5-.9q-1-1.7-1.7-6c-.3-2.3-.4-4.9-.2-16.7.2-15.2.2-14.9-1.1-14.8q-.9 0-.2.1M328.3 47c.6.1.6.1.6 8.1V70c-.2 6.8-.2 6.8-1.4 8a24 24 0 0 1-4.3 3.2c.4 0 3.9-2.4 5-3.5.9-.9.9-.9 1-15.7.1-15.8.2-15.3-1-15.2q-.7 0 0 .2M576.6 47l-1.4.5q-.9.4 0 .1c3.2-.7 3.3-.7 4.4-.4q2.6.9 1 0c-1-.5-2.6-.6-4-.2M548.3 47.6q0 1 1 1.1.4 0-.2-.2-.4-.2-.6-.8t-.2 0"></path><path d="m571.9 48.6-1.9 1c-1.3.7-3.4 2.7-3.6 3.4-.2 1-.2 18.5 0 26 .3 6.4.2 6.3 2.5 6.2q1.8 0-.1-.2c-1.2-.1-1.5-.2-1.7-.7-.3-.5-.3-4.2-.3-16.3V52.4l1.5-1.2q1.3-1.1 1.7-1.2l.8-.5 1.2-.6 1-.5 1-.5q.9 0 0-.1c-.3 0-1.3.4-2.1.8M582 48q2.6.9 3.4 5.4c.4 2.7.6 28.5.1 30.1-.3 1.2-.5 1.3-2.1 1.5q-2 .3 0 .2 2.2.1 2.5-1.8V68c0-15.7-.1-16-1.4-18-.6-1.1-2-2.3-2.5-2.2q-.4 0 0 .1M551.6 49a8 8 0 0 1 3.6 1.1c.6.5.5 33.5-.1 34.4q-.3.3-1.8.5-2 .3-.1.2 1.3.1 1.9-.5c.6-.6.6-.6.7-12.8.1-17.4 0-21.3-.5-21.8-.6-.8-2.4-1.3-4-1.3q-2.2 0 .3.2M256.5 50.6c0 1.1-1 3.5-1.7 4.2l-1.8 1.3q-1 .5-.8.6c.5 0 2.2-1 2.9-1.9.8-1 1.7-3.2 1.6-4q-.1-.8-.2-.2M540.8 51.4l.5 2c.5 1.8.8 9.3.4 10-.2.3-3.4.3-14.8.3s-14.6.1-15.1.4-.7.4-.6 2q.3 6.8 3.7 11.4a15 15 0 0 0 6.2 4.7q.8 0 0-.1l-1-.6-1-.5c-.7 0-3.8-3.2-4.9-5.1a22 22 0 0 1-2.8-9.7c-.3-2.4-1.3-2.2 15.5-2.2 11.3 0 14.6 0 14.8-.3.4-.5.6-4.7.3-7.3-.2-2-1.2-6-1.2-5M92.2 53l-.7 1-.9 1.6-.8 1.4q-.2.5-1.1 1.5l-1 1.4-1.6 2.1-2.5 2.8-2.3 2.2c-4 3.5-3.7 3.2-5 4.1l-1.5 1.2q-.7.7.5 0a71 71 0 0 0 13-12.8l1.6-2.1q.7-1 1-1.7l1.4-2.3q.8-1.3 0-.5M250.6 57h.7q.2-.2-.4-.2t-.3.1M367.2 57.8l1.2.4q.8 0 0-.1-.6-.1-.9-.5t-.6-.4q-.2.1.3.5M624.2 57.8q.5.4 1.1.4.9 0 0-.1-.5-.1-.8-.5t-.6-.4.3.5M436.7 60.4l-.5 3c-.2.3-3.4.3-15.1.4-12.9 0-14.9.1-15.1.4-.8 1.2.3 7.2 1.8 10.3 1.4 2.8 5 6.8 6 6.7q.3 0-.2-.3l-.8-.5-1-1c-1.2-1-2.7-3-3.4-4.4l-1-1.8c-.4-.9-1.4-5.8-1.4-7.2 0-1.2.1-1.5.5-1.8q.6-.2 15.1-.2c14 0 14.6 0 14.9-.5.2-.5.7-5.8.4-5.8zM30.7 59a21 21 0 0 0-1.3 4.1l.5-1 .5-1.4q.1-.7.5-1.4t.3-1zM369.6 58.8l1.3.4q.4 0-.3-.2-.8-.2-1-.5t-.4-.2q-.2 0 .4.5M626.6 58.8l1.3.4q.5 0-.3-.2t-1-.5-.4-.2.4.5M372.3 59.8l1.4.4q.9 0-.1-.2-.8-.2-1.2-.5l-.6-.3q-.3.1.5.5M629.3 59.8q.8.4 1.5.4t-.2-.2q-.8-.2-1.2-.5l-.6-.3q-.3.1.5.5M267.8 60.5l-1.2.5q-1.5.3 0 .1c1 0 2.7-.9 1.9-.9zM375.1 60.8q.7.4 1.3.5.5 0 1.2.5l1.1.5c.8 0-1.7-1.3-2.4-1.3l-.9-.4-.7-.4q-.2.1.4.5M632.1 60.8q.7.4 1.3.5.5 0 1.2.5l1.1.5c.7 0-1.7-1.3-2.4-1.3l-.9-.4-.7-.4q-.3.1.4.5M500.1 66.5a21.9 21.9 0 0 0 14 22.2l-.8-.6a21 21 0 0 1-9.2-7.5 25 25 0 0 1-3.8-14.4l-.2-5z"></path><path d="m264.6 61.5-1.3.5q-1.2.3-.2.2t1.7-.5.5-.5z"></path><path d="M261.1 62.5q-.4.3-1.2.5-1.2.3 0 .2.6 0 1.5-.5t.6-.5zM379.7 62.7l1.9 1.3q5.8 3.6 6 10.9.2 6-4.2 10.2-1.6 1.5-1.1 1.3c3.9-3.1 5.5-6.5 5.5-11.3 0-5.2-1.8-8.5-6.6-11.7-1.7-1.1-2.6-1.6-1.5-.7M636.7 62.7l1.9 1.3q5.8 3.6 6 10.9.1 6-4.2 10.2-1.6 1.5-1.1 1.3c3.9-3.1 5.5-6.5 5.5-11.3 0-5.2-1.8-8.5-6.6-11.7-1.7-1.1-2.6-1.6-1.5-.7M269 63.3q-.8.4-.5.4l1-.4q.4-.3 1-.3c.6.1.6.1.7 8.2v8.6c-.4.6-2.5 2.1-3.3 2.3l-1 .5q-.1.4-.9.4-.7 0-.1.2c.8.1 4.7-2.2 5.5-3.3.5-.8.5-16.2 0-16.8q-.8-.7-2.4.2"></path><path d="M258.1 63.5q-.1.3-1 .5-.6.2-.2.2.6 0 1.4-.5.7-.3.4-.5-.4 0-.6.3M266 64.3q-.8.3-.5.5l.7-.3q.3-.3 1.1-.5 1-.2.2-.2-.7 0-1.5.4M28.8 65l-.6 2.2-.6 2-.4 2.1-.5 2.3c-.2.4-.4 1.6-.5 2.6l-.5 3.3c-.2.7-.5 2.3-.5 3.5l-.6 4.2-.6 5.4-.5 5.4c-.5 4.3.3 6.1 3.6 7.1 1.3.4 1.5.4 2.3 0q1.5-.6 0-.2c-1.4.1-3.5-.3-4.3-.8-1-.8-1.7-3.3-1.3-5.4l.6-6.2.5-5c.2-.4.4-2 .5-3.6s.3-3.4.5-3.9.4-2 .5-3.2.3-2.5.5-2.8q.3-.7.5-2.4.1-1.7.5-2.2.3-.6.5-1.9c0-.7.3-1.6.5-1.9q.4-.6.3-1.1 0-.6-.4.4M255.4 64.6l-1 .5q-.7.1 0 .1.4 0 1.2-.5t.5-.5zM263.1 65.3q-.6.4-.5.5l.6-.3q.3-.3 1.1-.5 1-.3.2-.2zM253 65.6q-.3.4-.6.4l-1.2.6q-.7.7-.5.7.3 0 .5-.3t1.2-.8 1.2-.7c.3-.4-.2-.3-.6.1M261 66.3l-1 .5-2 1.8c-2.5 2.4-3.1 4-3.1 7.4 0 3.1.7 4.7 2.6 6.2l1.7 1q.3 0-.4-.3c-4-1.8-5-8.7-1.9-13 .9-1.1 2.5-2.6 3.6-3.1q2.1-1 1.5-1-.4 0-1 .5M362.3 67.4l2.8 1.3-.8-.6-1.9-.9-1.2-.5q-.2 0 1 .7M619.3 67.4l2.9 1.3-.9-.6-1.8-.9-1.3-.5q-.2 0 1 .7M248.8 68.4a11 11 0 0 0-4 6.3c-1.2 4-.1 8.9 2.4 11.6a12 12 0 0 0 4.7 3q.4.5.7.5.3-.1-.5-.5l-1-.5c-.5 0-2.6-1.5-3.7-2.6-1.9-2-2.6-4.4-2.6-8.2 0-4 .9-6.2 3.6-9l1.8-1.8zM366 69q.6 0 1.1.4l.8.3-.5-.5-1.4-.4q-.9 0 0 .1M623 69q.5 0 1.1.4l.8.3-.5-.5-1.4-.4q-.9 0 0 .1M368.8 70q.6 0 1 .4l.8.3q.2 0-.5-.5l-1.4-.4q-.9 0 0 .1M625.8 70q.6 0 1 .4l.8.3q.2 0-.5-.5l-1.4-.4q-.9 0 0 .1M203.6 70.5l-1.4 5-.9 3.2-.9 3.4q-.8 2.6-2.6 3h-.1c1.1.3 2.4-1 2.9-2.5l2.6-10.2c.5-1.8.5-1.8 2.4-1.9q1.8 0 2.2.2v7c-.2 3.8-.2 7-.1 7.2.2.3.4-7.6.4-12.9 0-1.6 0-1.6-2.1-1.7q-2.3 0-2.4.2M371.4 71q.5 0 .9.4.2.3.6.3.2 0-.4-.5-.6-.3-1.1-.4-.7 0 0 .1M628.4 71q.5 0 .9.4.2.3.6.3.2 0-.4-.5-.5-.3-1.1-.4-.7 0 0 .1M373.6 72c5.4 2.5 6.5 9 2 12.5q-.8.7-.6.8.5-.2 1.6-1.4c2.5-2.7 2.8-6.7.8-9.2-.9-1-3.4-3-3.9-3q-.3 0 .1.3M630.6 72c5.4 2.5 6.5 9 2 12.5q-.8.7-.6.8.5-.2 1.6-1.4c2.5-2.7 2.8-6.7.8-9.2-.9-1-3.4-3-3.9-3q-.3 0 .1.3"></path><path d="M73.4 73q-.3.3-1 .6-1 .5-2.4 1.4-.7.5-1.3.6l-1 .5-.7.4q-.4 0-1 .5l-1 .5-1.6.6-1.7.6-.7.4q-.3.3-1.4.5-1.2.2-1.6.5c-.2.2-1 .4-1.6.5q-1.2.2-1.8.5l-1.7.5-2 .5q-.6.3-2.3.5l-2.5.5c-.4.2-1.9.4-3.2.5-2.8.2-8.6 1-8.8 1.3-.2.2-.6 3.1-.6 4.9 0 .8-.1 2-.3 2.7s-.5 3.2-.6 5.4c-.1 3-.2 4.1-.5 4.4q-.3.2-.3.6T31 104q-.8.9-.1.4c1.2-1.1 1.7-2.4 1.9-5.4 0-1.6.3-4 .5-5.4l.5-5.2c.2-3.3.3-3.5 2.8-3.8a108 108 0 0 0 20-3.7 36 36 0 0 0 6-2.2 67.1 67.1 0 0 0 9.4-4.5l1.4-1q.8-.4.5-.5-.5 0-.6.3M352.7 74.4l-.2 5.8c0 5.6 0 5.6.6 6.2q.6.5 1.1.6t.8.3q.3.4 1.4.7t1.2.5l.5.2c.5 0-.9-1-1.4-1l-1.4-.4-1.6-.8c-.9-.3-1-.9-.9-6.9v-5h2.1c2.3-.1 2.2-.2 3 2.9 1.6 7.4 1.6 7.4 3.3 8.1q1.5.8 2.3.6 1.4-.1-.1-.2c-1.5 0-3.5-1.2-3.7-2.1L358 77c-.6-2.7-.7-2.8-3.1-2.8q-2 0-2.2.2M609.7 74.4l-.2 5.8c0 5.6 0 5.6.6 6.2l1.1.6q.5 0 .8.3.3.4 1.4.7t1.2.5l.5.2c.5 0-.9-1-1.4-1l-1.4-.4-1.6-.8c-.9-.3-1-.9-.9-6.9v-5h2.1c2.4-.1 2.3-.2 3 2.9 1.7 7.4 1.6 7.4 3.3 8.1q1.5.8 2.3.6 1.4-.1-.1-.2c-1.5 0-3.4-1.2-3.7-2.1L615 77c-.6-2.7-.6-2.8-3.1-2.8zM539.8 78a16 16 0 0 1-4.8 3.5l-1.2.6q-1 0 0 .1.6 0 1.2-.5l.9-.5c.4 0 2.5-1.6 3.9-2.9.8-.8.8-.8 1.6-.2q.7.6.5 1.2c-.2 1-2.3 3.6-4.4 5.7q-1.6 1.6-.9 1.1c2.3-1.7 6.2-6.8 5.7-7.5l-1.8-1.3zM434 78.5a19 19 0 0 1-5.6 3.6q-.6 0-.1.1c.8 0 4-1.8 5.7-3.4 1.3-1.2 1.3-1.2 2.1-.7s.8.9-.5 2.8a21 21 0 0 1-6.7 6.6c-.3.4 1.7-.8 3-1.9 2-1.7 5.1-5.8 5.1-6.8 0-.4-1.2-1.3-1.8-1.3zM322.1 81.6l-1 .5q-.7 0 0 .1a2 2 0 0 0 1.2-.5q1-.8-.2-.1M325.3 84l-2.2 2.3 3-2.7 2.3-2.1c.5 0 .6.5.7 4.3.1 2 .3 3.7.4 3.8s.2 0-.1-4.2c-.2-3.8-.3-4.2-.8-4.2-.3 0-1.8 1.3-3.4 2.9M414.7 81.8l1.2.4q.8 0 0-.1-.6-.1-.9-.5-.3-.3-.6-.4-.2.1.3.5"></path><path d="M417.3 82.8c1.2.7 8.1.7 9.6 0q.8-.5.6-.5l-1 .3c-.9.6-7.7.6-9 0q-1.8-.7-.3.2M522.6 82.8c1.4.6 7.8.7 9.4 0l1-.5-1 .3c-1.4.5-8 .5-9.1 0q-.6-.4-1-.3-.2 0 .7.5M269.5 84.3h.4c1.4-1.4 1.8-1.6 2.1-.8q.2.6.2.2-.1-.8-.8-1-.4.1-1.9 1.6M179.2 83.7l.9.5q.6.2-.7-.6-1.2-.6-.2.1M260.8 83.7l1.8.2q1 0 1.8-.2c.8-.3.5-.3-1.8-.3s-2.5 0-1.8.3"></path><path d="M181 84.8q.5.4 1.1.4.8 0 0-.1-.5-.1-.8-.5l-.6-.4q-.2.1.3.5M272.3 84.4c0 .7 1.7 3 3 4q.4.3-.6-.8c-.7-.6-1.5-1.7-1.8-2.3q-.5-1-.6-.9M183.5 85.8q.9.4 2.1.4 2 0-.1-.2-1.2-.1-2-.4-.4-.3-.7-.3zM195.6 85.6l-2 .4q-2.2.2-.1.2 1.3 0 2.4-.4.8-.5.6-.5zM215.2 85.8c-.9.4-1 .5-1 1.6q0 1 .3 1.2v-1c0-1.2.2-1.4 1.7-2q.8-.3.4-.3zM237.3 85.5c1.6.5 1.8.7 1.7 2v1.2q.3 0 .3-1.2 0-2-1.8-2.1-1-.1-.2 0M344.5 85.7c1.1.4 1.1.4 1.1 1.7s0 1.2-5 1.4a52 52 0 0 0-7.5.7q-1.9.2 1.3 0c1.6 0 3.2-.2 3.6-.3l4-.2c3.8 0 4 0 4-1.7 0-1.2-.5-1.6-1.9-2q-.8-.1.4.4M373.8 85.5l-1.2.5q-1.3.3-.2.2.7 0 1.5-.5.6-.4.5-.5zM549.8 85.6c-.7.4-.8.5-.7 1.3v.2c.2-1 .5-1.2 1.7-1.5q.7-.3.3-.3zM571.5 85.7c1.1.5 1.1.5 1.1 1.7s0 1.2-11.6 1.3l-11.6.2h11.5c8.7 0 11.6 0 11.8-.2q.3-.4.3-1.4c0-1-.1-1.1-.8-1.6l-1.3-.4q-.4 0 .6.4M580 85.7q-.7.3-.7.8t.3 0q.3-.5 1.3-.9.8-.3.5-.3zM601.7 85.6c1 .4 1 .5 1.1 1.3q.1 1.5.2 0c0-.9 0-1-.9-1.3q-.8-.4-1.2-.3zM630.8 85.5l-1.2.5q-1.3.3-.2.2.7 0 1.5-.5.6-.4.5-.5zM206.6 86.1q-.8.7-1.4.7c-.4 0-1.7 1-1.3 1q.3 0 .6-.4l.7-.4c.3 0 2.6-1.2 2.6-1.4s-.1-.1-1.2.5M188.3 86.4h2.4-2.4M366.5 86.7c1.2.2 1.8.2 3 0 1.4-.3 1.4-.3-1.5-.3-3 0-3 0-1.5.3M443 86.8q0 .6-.2 1.1 0 .6.2 0l.2-1.1q-.1-1-.2 0M623.5 86.7c1.2.2 1.8.2 3 0 1.4-.3 1.4-.3-1.5-.3-3 0-3 0-1.5.3M172.9 87.3q1.8.9.5 0l-1.2-.5q-.2 0 .7.5M321.6 87c-.2.3-3 1.6-3.9 1.9q-.6.2-1 .6-.9.4 0 .1l1.3-.5c1.8-.6 4.7-2.3 4-2.3q-.2 0-.4.2M380.5 87.3q-.6.4-.4.5l.8-.5.5-.5zM405 86.8l.9.5q1 .7.1 0l-.8-.6zM534.5 87.3q-.6.4-.4.5l.8-.5.5-.5zM637.5 87.3q-.6.4-.4.5l.8-.5.5-.5z"></path><path d="m579.3 87.2-.2.7q-.2.6.2 0 .2-.4.1-.7 0-.5-.1 0M175.1 88.2l1.3.5c.4 0-.8-.7-1.6-.8q-1-.3.3.3M201.5 88.3q-.8.4-.5.4t.7-.2 1.1-.5q1-.2.2-.2-.7 0-1.5.5M264.5 88.3q-.6.4-.4.5l.8-.5.5-.5zM378.4 88.3q-1.4.9.5 0 .9-.5.6-.5zM407.1 88q.5 0 1 .4.4.3 1.3.5l1.7.5q.6.3 1 .3c.5 0-1.9-1-2.5-1q-.5 0-1.3-.5l-1.3-.4q-.5 0 .1.1M427.2 88.3q-.4.3-.3.5.3 0 .5-.3.1-.3.7-.5t.1-.2zM532.6 88.3q-1.3.9.4 0 .8-.5.6-.5zM635.4 88.3q-1.4.9.5 0 .8-.5.6-.5zM177.5 89q.8.1 1.4.4l.9.3q.3 0-.7-.5l-1.7-.4q-1.2 0 .1.2M198 89.3q-1 .4-.7.4l1-.3 1.4-.4q1.3-.2.2-.2c-.4 0-1.3.2-1.9.5M262.3 89.3c-1.2.6-.7.6.6 0q.8-.5.6-.5-.4 0-1.2.5M276.9 89.3q1.8.9.5 0l-1.1-.5q-.4 0 .6.5M285 89.3c-1.2.6-.6.6.6 0q.9-.5.6-.5zM306 89.3q2 .9.6 0l-1.1-.5q-.3 0 .6.5M359.3 89q.7.1 1.4.4.5.3 1 .3.3 0-.7-.5l-1.9-.4q-1 0 .1.2"></path><path d="M375.3 89.3q-1.1.4-.7.4l1-.3 1.3-.4q1-.2.1-.2-.7 0-1.7.5M424.5 89.3q-.8.3-.7.5l.8-.3 1.3-.5q1-.2.1-.2-.7 0-1.5.5M515.1 89q.7.1 1.3.4t1 .3-.7-.5l-1.7-.4q-.8 0 .1.2M529.8 89.3q-.8.3-.5.5l.6-.3 1.1-.5q1-.3.2-.2-.6 0-1.5.5M616.3 89q.7.1 1.4.4.5.3 1 .3.3 0-.7-.5l-1.9-.4q-1 0 .1.2M632.3 89.3q-1.1.4-.7.4l1-.3 1.3-.4q1-.2.1-.2-.7 0-1.7.5M181.9 90c6.1.8 6.3.8 9 .5l2.8-.6c-1.5 0-3 .2-3.4.4-.8.3-3.3.3-4.1 0l-3.2-.4q-3 0-1.1.1M622.3 90"></path></g></svg>