<svg width="127" height="218" viewBox="0 0 127 218" fill="none" xmlns="http://www.w3.org/2000/svg">
<mask id="mask0_55_1887" style="mask-type:alpha" maskUnits="userSpaceOnUse" x="0" y="-21" width="203" height="239">
<path d="M0 -21H203V218H0V-21Z" fill="#D9D9D9"/>
</mask>
<g mask="url(#mask0_55_1887)">
<path opacity="0.65" fill-rule="evenodd" clip-rule="evenodd" d="M114.01 -36.6851C109.564 -36.6851 105.986 -33.0766 98.8291 -25.8596L75.022 -1.8516C67.8654 5.36537 64.2871 8.97385 64.2871 13.4579C64.2871 17.942 67.8654 21.5504 75.022 28.7674L98.8291 52.7754C105.986 59.9924 109.564 63.6009 114.01 63.6009C118.457 63.6009 122.035 59.9924 129.192 52.7754L152.999 28.7674C160.156 21.5505 163.734 17.942 163.734 13.4579C163.734 8.97385 160.156 5.36538 152.999 -1.85159L129.192 -25.8596C122.035 -33.0766 118.457 -36.6851 114.01 -36.6851ZM153.406 52.7043C148.96 52.7043 145.382 56.3128 138.225 63.5298L114.418 87.5378C107.261 94.7548 103.683 98.3632 103.683 102.847C103.683 107.331 107.261 110.94 114.418 118.157L138.225 142.165C145.382 149.382 148.96 152.99 153.406 152.99C157.853 152.99 161.431 149.382 168.588 142.165L192.395 118.157C199.552 110.94 203.13 107.331 203.13 102.847C203.13 98.3632 199.552 94.7548 192.395 87.5378L168.588 63.5298C161.431 56.3128 157.853 52.7043 153.406 52.7043ZM74.206 128.089C81.3626 120.872 84.9409 117.263 89.3874 117.263C93.8339 117.263 97.4122 120.872 104.569 128.089L128.376 152.097C135.533 159.314 139.111 162.922 139.111 167.406C139.111 171.89 135.532 175.499 128.376 182.716L104.569 206.724C97.4122 213.941 93.834 217.549 89.3874 217.549C84.9409 217.549 81.3626 213.941 74.206 206.724L50.3989 182.716C43.2423 175.499 39.6641 171.89 39.6641 167.406C39.6641 162.922 43.2424 159.314 50.3989 152.097L74.206 128.089ZM34.8096 38.6989L11.0024 62.707C3.84587 69.9239 0.267581 73.5324 0.267578 78.0165C0.267577 82.5005 3.84586 86.109 11.0024 93.326L34.8095 117.334C41.9661 124.551 45.5444 128.159 49.9909 128.159C54.4375 128.159 58.0158 124.551 65.1723 117.334L88.9794 93.326C96.136 86.109 99.7143 82.5005 99.7143 78.0165C99.7143 73.5324 96.136 69.9239 88.9794 62.707L65.1723 38.699C58.0158 31.482 54.4375 27.8735 49.9909 27.8735C45.5444 27.8735 41.9661 31.482 34.8096 38.6989Z" fill="#0B63E5" fill-opacity="0.2"/>
</g>
</svg>
