<svg xmlns="http://www.w3.org/2000/svg" width="52" height="52" viewBox="0 0 52 52" fill="none">
  <path d="M20.7998 43.3332H31.1998C39.8665 43.3332 43.3332 39.8665 43.3332 31.1998V20.7998C43.3332 12.1332 39.8665 8.6665 31.1998 8.6665H20.7998C12.1332 8.6665 8.6665 12.1332 8.6665 20.7998V31.1998C8.6665 39.8665 12.1332 43.3332 20.7998 43.3332Z" stroke="#1355FF" stroke-width="2.5" stroke-linecap="round" stroke-linejoin="round"/>
  <path d="M22.7498 36.8332H29.2498C34.6665 36.8332 36.8332 34.6665 36.8332 29.2498V22.7498C36.8332 17.3332 34.6665 15.1665 29.2498 15.1665H22.7498C17.3332 15.1665 15.1665 17.3332 15.1665 22.7498V29.2498C15.1665 34.6665 17.3332 36.8332 22.7498 36.8332Z" fill="#1355FF" fill-opacity="0.2" stroke="#1355FF" stroke-width="2.5" stroke-linecap="round" stroke-linejoin="round"/>
  <path d="M17.355 8.66634V4.33301" stroke="#1355FF" stroke-width="2.5" stroke-linecap="round" stroke-linejoin="round"/>
  <path d="M26 8.66634V4.33301" stroke="#1355FF" stroke-width="2.5" stroke-linecap="round" stroke-linejoin="round"/>
  <path d="M34.6665 8.66634V4.33301" stroke="#1355FF" stroke-width="2.5" stroke-linecap="round" stroke-linejoin="round"/>
  <path d="M43.3335 17.333H47.6668" stroke="#1355FF" stroke-width="1.5" stroke-linecap="round" stroke-linejoin="round"/>
  <path d="M43.3335 25.9998H47.6668" stroke="#1355FF" stroke-width="1.5" stroke-linecap="round" stroke-linejoin="round"/>
  <path d="M43.3335 34.6665H47.6668" stroke="#1355FF" stroke-width="1.5" stroke-linecap="round" stroke-linejoin="round"/>
  <path d="M34.6665 43.333V47.6663" stroke="#1355FF" stroke-width="1.5" stroke-linecap="round" stroke-linejoin="round"/>
  <path d="M26.0215 43.333V47.6663" stroke="#1355FF" stroke-width="1.5" stroke-linecap="round" stroke-linejoin="round"/>
  <path d="M17.355 43.333V47.6663" stroke="#1355FF" stroke-width="1.5" stroke-linecap="round" stroke-linejoin="round"/>
  <path d="M4.3335 17.333H8.66683" stroke="#1355FF" stroke-width="1.5" stroke-linecap="round" stroke-linejoin="round"/>
  <path d="M4.3335 25.9998H8.66683" stroke="#1355FF" stroke-width="1.5" stroke-linecap="round" stroke-linejoin="round"/>
  <path d="M4.3335 34.6665H8.66683" stroke="#1355FF" stroke-width="1.5" stroke-linecap="round" stroke-linejoin="round"/>
</svg>