<svg width="60" height="60" viewBox="0 0 60 60" fill="none" xmlns="http://www.w3.org/2000/svg">
<rect width="60" height="60" rx="30" fill="#E6EEFC"/>
<path d="M31.5 30C31.5 30.2967 31.412 30.5867 31.2472 30.8334C31.0824 31.0801 30.8481 31.2723 30.574 31.3859C30.2999 31.4994 29.9983 31.5291 29.7074 31.4712C29.4164 31.4133 29.1491 31.2705 28.9393 31.0607C28.7296 30.8509 28.5867 30.5836 28.5288 30.2927C28.4709 30.0017 28.5006 29.7001 28.6142 29.426C28.7277 29.1519 28.92 28.9177 29.1666 28.7528C29.4133 28.588 29.7033 28.5 30 28.5C30.3978 28.5 30.7794 28.6581 31.0607 28.9394C31.342 29.2207 31.5 29.6022 31.5 30ZM24.5 28.5C24.2033 28.5 23.9133 28.588 23.6666 28.7528C23.42 28.9177 23.2277 29.1519 23.1142 29.426C23.0006 29.7001 22.9709 30.0017 23.0288 30.2927C23.0867 30.5836 23.2296 30.8509 23.4393 31.0607C23.6491 31.2705 23.9164 31.4133 24.2074 31.4712C24.4983 31.5291 24.7999 31.4994 25.074 31.3859C25.3481 31.2723 25.5824 31.0801 25.7472 30.8334C25.912 30.5867 26 30.2967 26 30C26 29.6022 25.842 29.2207 25.5607 28.9394C25.2794 28.6581 24.8978 28.5 24.5 28.5ZM35.5 28.5C35.2033 28.5 34.9133 28.588 34.6666 28.7528C34.42 28.9177 34.2277 29.1519 34.1142 29.426C34.0007 29.7001 33.9709 30.0017 34.0288 30.2927C34.0867 30.5836 34.2296 30.8509 34.4393 31.0607C34.6491 31.2705 34.9164 31.4133 35.2074 31.4712C35.4983 31.5291 35.7999 31.4994 36.074 31.3859C36.3481 31.2723 36.5824 31.0801 36.7472 30.8334C36.912 30.5867 37 30.2967 37 30C37 29.6022 36.842 29.2207 36.5607 28.9394C36.2794 28.6581 35.8978 28.5 35.5 28.5ZM43 30C43.0005 32.2445 42.4199 34.4508 41.3147 36.4042C40.2095 38.3577 38.6174 39.9917 36.6934 41.1473C34.7693 42.3029 32.5788 42.9407 30.3352 42.9986C28.0915 43.0564 25.8711 42.5324 23.89 41.4775L19.6337 42.8963C19.2814 43.0138 18.9032 43.0309 18.5417 42.9455C18.1801 42.8602 17.8495 42.6759 17.5868 42.4132C17.3241 42.1506 17.1398 41.8199 17.0545 41.4584C16.9692 41.0968 16.9862 40.7187 17.1037 40.3663L18.5225 36.11C17.5952 34.3666 17.0772 32.4348 17.008 30.4613C16.9387 28.4877 17.32 26.5244 18.1228 24.7202C18.9257 22.916 20.129 21.3185 21.6414 20.0488C23.1538 18.7791 24.9356 17.8706 26.8516 17.3924C28.7675 16.9141 30.7672 16.8786 32.699 17.2886C34.6307 17.6986 36.4436 18.5433 38.0001 19.7585C39.5566 20.9737 40.8158 22.5276 41.6822 24.3022C42.5485 26.0767 42.9992 28.0253 43 30ZM41 30C40.9995 28.3127 40.6109 26.6481 39.8641 25.135C39.1174 23.6219 38.0325 22.3008 36.6935 21.2741C35.3545 20.2473 33.7973 19.5424 32.1422 19.2138C30.4872 18.8852 28.7787 18.9417 27.149 19.379C25.5194 19.8164 24.0121 20.6227 22.7439 21.7358C21.4758 22.8488 20.4806 24.2387 19.8356 25.7979C19.1905 27.357 18.9128 29.0437 19.0239 30.7274C19.135 32.4111 19.6319 34.0466 20.4762 35.5075C20.5471 35.6302 20.5911 35.7665 20.6053 35.9074C20.6196 36.0484 20.6037 36.1907 20.5587 36.325L19 41L23.675 39.4413C23.7769 39.4067 23.8837 39.3889 23.9912 39.3888C24.1669 39.3891 24.3393 39.4357 24.4912 39.5238C26.1635 40.4913 28.0611 41.0013 29.9931 41.0026C31.925 41.0038 33.8232 40.4961 35.4967 39.5307C37.1702 38.5653 38.5599 37.1762 39.526 35.5031C40.492 33.83 41.0004 31.932 41 30Z" fill="#0957DE"/>
</svg>
