<svg width="60" height="60" viewBox="0 0 60 60" fill="none" xmlns="http://www.w3.org/2000/svg">
<rect width="60" height="60" rx="30" fill="#E6EEFC"/>
<path d="M42 20.0016V26.0016C42 26.2668 41.8946 26.5211 41.7071 26.7087C41.5196 26.8962 41.2652 27.0016 41 27.0016H35C34.7348 27.0016 34.4804 26.8962 34.2929 26.7087C34.1054 26.5211 34 26.2668 34 26.0016C34 25.7363 34.1054 25.482 34.2929 25.2944C34.4804 25.1069 34.7348 25.0016 35 25.0016H38.5863L36.7575 23.1728C34.899 21.3058 32.3756 20.2525 29.7413 20.2441H29.685C27.0727 20.2379 24.563 21.2604 22.6987 23.0903C22.5078 23.2686 22.2546 23.365 21.9934 23.3591C21.7322 23.3531 21.4838 23.2451 21.3012 23.0582C21.1186 22.8714 21.0163 22.6205 21.0164 22.3593C21.0164 22.098 21.1186 21.8471 21.3012 21.6603C23.5607 19.4521 26.5998 18.2239 29.759 18.2424C32.9183 18.2609 35.9428 19.5245 38.1763 21.7591L40 23.5878V20.0016C40 19.7363 40.1054 19.482 40.2929 19.2945C40.4804 19.1069 40.7348 19.0016 41 19.0016C41.2652 19.0016 41.5196 19.1069 41.7071 19.2945C41.8946 19.482 42 19.7363 42 20.0016ZM37.3013 36.9128C35.4185 38.7519 32.8867 39.7746 30.2549 39.7591C27.6231 39.7437 25.1035 38.6913 23.2425 36.8303L21.4138 35.0016H25C25.2652 35.0016 25.5196 34.8962 25.7071 34.7087C25.8946 34.5211 26 34.2668 26 34.0016C26 33.7363 25.8946 33.482 25.7071 33.2944C25.5196 33.1069 25.2652 33.0016 25 33.0016H19C18.7348 33.0016 18.4804 33.1069 18.2929 33.2944C18.1054 33.482 18 33.7363 18 34.0016V40.0016C18 40.2668 18.1054 40.5211 18.2929 40.7087C18.4804 40.8962 18.7348 41.0016 19 41.0016C19.2652 41.0016 19.5196 40.8962 19.7071 40.7087C19.8946 40.5211 20 40.2668 20 40.0016V36.4153L21.8288 38.2441C24.059 40.4855 27.088 41.7498 30.25 41.7591H30.3162C33.4514 41.7671 36.4634 40.5398 38.7 38.3428C38.8826 38.156 38.9849 37.9051 38.9849 37.6439C38.9849 37.3826 38.8827 37.1317 38.7001 36.9449C38.5175 36.758 38.269 36.6501 38.0078 36.6441C37.7466 36.6381 37.4935 36.7345 37.3025 36.9128H37.3013Z" fill="#0957DE"/>
</svg>
