<svg width="60" height="60" viewBox="0 0 60 60" fill="none" xmlns="http://www.w3.org/2000/svg">
<rect width="60" height="60" rx="30" fill="#E6EEFC"/>
<path d="M39.8825 23.0838C38.5862 21.7846 37.0456 20.7549 35.3495 20.054C33.6534 19.3531 31.8352 18.9949 30 19.0001H29.95C22.2587 19.0263 16 25.3751 16 33.1413V36.0001C16 36.5305 16.2107 37.0392 16.5858 37.4143C16.9609 37.7893 17.4696 38.0001 18 38.0001H42C42.5304 38.0001 43.0391 37.7893 43.4142 37.4143C43.7893 37.0392 44 36.5305 44 36.0001V33.0001C44.0051 31.1568 43.6438 29.3309 42.9369 27.6285C42.23 25.9261 41.1918 24.3813 39.8825 23.0838ZM42 36.0001H28.9637L35.8088 26.5876C35.9649 26.3731 36.0294 26.1053 35.9882 25.8432C35.9469 25.5812 35.8032 25.3462 35.5888 25.1901C35.3743 25.0339 35.1065 24.9694 34.8444 25.0106C34.5824 25.0519 34.3474 25.1956 34.1912 25.4101L26.49 36.0001H18V33.1413C18 32.7563 18.0187 32.3763 18.0538 32.0001H21C21.2652 32.0001 21.5196 31.8947 21.7071 31.7072C21.8946 31.5196 22 31.2653 22 31.0001C22 30.7348 21.8946 30.4805 21.7071 30.2929C21.5196 30.1054 21.2652 30.0001 21 30.0001H18.4088C19.6988 25.1426 23.9088 21.4701 29 21.0426V24.0001C29 24.2653 29.1054 24.5196 29.2929 24.7072C29.4804 24.8947 29.7348 25.0001 30 25.0001C30.2652 25.0001 30.5196 24.8947 30.7071 24.7072C30.8946 24.5196 31 24.2653 31 24.0001V21.0413C33.4808 21.2501 35.8356 22.2242 37.7389 23.829C39.6422 25.4338 41.0001 27.5902 41.625 30.0001H39C38.7348 30.0001 38.4804 30.1054 38.2929 30.2929C38.1054 30.4805 38 30.7348 38 31.0001C38 31.2653 38.1054 31.5196 38.2929 31.7072C38.4804 31.8947 38.7348 32.0001 39 32.0001H41.9587C41.985 32.3313 42 32.6638 42 33.0001V36.0001Z" fill="#0957DE"/>
</svg>
