<svg width="101" height="12" viewBox="0 0 101 12" fill="none" xmlns="http://www.w3.org/2000/svg">
<path fill-rule="evenodd" clip-rule="evenodd" d="M14.6411 0.00250244H19.7315L25.1464 11.6015H20.1857L14.6411 0.00250244Z" fill="#CD2017"/>
<path fill-rule="evenodd" clip-rule="evenodd" d="M7.32056 0.00250244H12.411L17.8258 11.6015H12.8651L7.32056 0.00250244Z" fill="#CD2017"/>
<path fill-rule="evenodd" clip-rule="evenodd" d="M0.00012207 0.00271606H5.09056L10.5054 11.6017H5.54469L0.00012207 0.00271606Z" fill="#CD2017"/>
<path d="M30.7933 6.94744H25.9855V9.2811H31.3418L30.9873 11.6465H22.9358V0.20639H30.9873V2.588H25.9855V4.56237H30.7933V6.94744Z" fill="#262729"/>
<path d="M35.9371 9.329L35.3578 11.6465H32.2577L35.4667 0.209229H39.7213L43.081 11.6465H39.7931L39.156 9.329H35.9406H35.9371ZM38.6312 6.87172C38.1678 5.15151 37.7675 3.50235 37.5306 2.32223H37.4837C37.252 3.58091 36.8604 5.23931 36.4312 6.87172H38.6323H38.6312Z" fill="#262729"/>
<path d="M46.7825 8.14715C46.7899 8.35939 46.8408 8.56789 46.9319 8.75985C47.023 8.95181 47.1525 9.12318 47.3124 9.26348C47.4723 9.40377 47.6592 9.51003 47.8617 9.57572C48.0642 9.64142 48.2781 9.66518 48.4901 9.64554C49.5328 9.64554 49.8803 9.20423 49.8803 8.57864C49.8803 7.75204 49.3306 7.38004 47.7678 6.95201C44.9121 6.1826 44.0548 5.09606 44.0548 3.49484C44.0548 1.18833 45.9374 0.00012207 48.3413 0.00012207C51.1796 0.00012207 52.652 1.36162 52.7789 3.4804H49.7877C49.7892 3.29774 49.7522 3.1168 49.6789 2.94938C49.6056 2.78197 49.4978 2.63185 49.3624 2.50882C49.227 2.38579 49.0671 2.29261 48.8931 2.23538C48.7192 2.17815 48.5351 2.15814 48.3528 2.17667C47.5749 2.17667 47.1521 2.53423 47.1521 3.14595C47.1521 3.85413 47.663 4.06035 49.1962 4.49531C52.2222 5.35253 53.0615 6.49799 53.0615 8.23379C53.0615 10.4109 51.4397 11.8487 48.398 11.8487C45.5597 11.8487 43.8921 10.4329 43.764 8.14888H46.7785L46.7825 8.14715Z" fill="#262729"/>
<path d="M56.8087 11.6465V7.5557C56.8188 7.39917 56.7821 7.24318 56.7033 7.10745L53.1172 0.20639H56.6645C57.3168 1.85151 58.0912 3.70226 58.5459 4.89971C59.1784 3.3008 59.8712 1.62507 60.4458 0.20639H63.7232L60.0809 7.0803C60.0129 7.21224 59.9785 7.35884 59.9807 7.50717V11.646H56.8105L56.8087 11.6465Z" fill="#262729"/>
<path d="M67.8771 3.9119V7.88605H63.9167V3.9119H67.8771Z" fill="#262729"/>
<path d="M69.8399 0.20639H74.9327C77.6876 0.20639 78.7128 1.63316 78.7128 3.13502C78.7483 3.63204 78.6212 4.12712 78.3507 4.54607C78.0803 4.96503 77.6809 5.28529 77.2126 5.45887C77.7724 5.65585 78.2551 6.02477 78.5914 6.5126C78.9277 7.00042 79.1002 7.58201 79.0841 8.17377C79.0841 10.2671 77.5387 11.6431 74.8521 11.6431H69.8387V0.20639H69.8399ZM74.2132 4.63284C75.2136 4.63284 75.644 4.30474 75.644 3.47756C75.644 2.65038 75.1134 2.31362 74.2839 2.31362H72.9064V4.63284H74.2126H74.2132ZM72.9076 9.54682H74.3169C75.1591 9.54682 75.8426 9.16558 75.8426 8.12294C75.8426 7.16983 75.3161 6.68288 74.186 6.68288H72.9076V9.54682Z" fill="#262729"/>
<path d="M83.5117 9.329L82.9324 11.6465H79.8323L83.0413 0.209229H87.2959L90.6555 11.6465H87.3677L86.7305 9.329H83.5151H83.5117ZM86.2057 6.87172C85.7423 5.15151 85.3421 3.50235 85.1052 2.32223H85.0582C84.8265 3.58091 84.435 5.23931 84.0058 6.87172H86.2069H86.2057Z" fill="#262729"/>
<path d="M94.9481 7.25186V11.6454H91.8665V0.20639H97.0982C99.6174 0.20639 100.992 1.52745 100.992 3.34239C101.037 3.92302 100.889 4.50236 100.57 4.99002C100.251 5.47769 99.7783 5.84626 99.2269 6.03824C100.42 6.49573 100.775 7.46212 100.775 8.77971V9.13323C100.761 9.97309 100.805 10.813 100.909 11.6465H97.8738C97.6725 10.8235 97.5973 9.97472 97.6508 9.12918V8.80628C97.6508 7.61173 97.2575 7.25301 96.0382 7.25301H94.9481V7.25186ZM94.9481 5.00657H96.2774C97.2175 5.00657 97.8808 4.6519 97.8808 3.68262C97.8808 2.78555 97.2807 2.44128 96.4784 2.44128H94.9481V5.00773V5.00657Z" fill="#262729"/>
</svg>
