<svg width="60" height="60" viewBox="0 0 60 60" fill="none" xmlns="http://www.w3.org/2000/svg">
<rect width="60" height="60" rx="30" fill="#E6EEFC"/>
<path d="M30 17C27.4288 17 24.9154 17.7624 22.7776 19.1909C20.6398 20.6194 18.9735 22.6497 17.9896 25.0251C17.0056 27.4006 16.7482 30.0144 17.2498 32.5362C17.7514 35.0579 18.9895 37.3743 20.8076 39.1924C22.6257 41.0105 24.9421 42.2486 27.4638 42.7502C29.9856 43.2518 32.5994 42.9944 34.9749 42.0104C37.3503 41.0265 39.3807 39.3603 40.8091 37.2224C42.2376 35.0846 43 32.5712 43 30C42.9964 26.5533 41.6256 23.2488 39.1884 20.8116C36.7512 18.3744 33.4467 17.0036 30 17ZM41 30C41.0012 31.4112 40.7295 32.8094 40.2 34.1175L34.6125 30.6812C34.375 30.5346 34.1092 30.4396 33.8325 30.4025L30.98 30.0175C30.5869 29.9662 30.1875 30.0321 29.8317 30.2069C29.476 30.3817 29.1797 30.6576 28.98 31H27.89L27.415 30.0175C27.2837 29.7439 27.0915 29.504 26.8532 29.3162C26.6148 29.1283 26.3367 28.9975 26.04 28.9337L25.04 28.7175L26.0175 27H28.1063C28.4442 26.9993 28.7766 26.9133 29.0725 26.75L30.6038 25.905C30.7383 25.83 30.8641 25.7403 30.9788 25.6375L34.3425 22.595C34.6798 22.2928 34.9039 21.8846 34.978 21.4378C35.0521 20.9911 34.9717 20.5324 34.75 20.1375L34.705 20.0562C36.5872 20.9487 38.1778 22.3567 39.292 24.1168C40.4063 25.8769 40.9985 27.9169 41 30ZM31.9138 19.1675L33 21.1125L29.6363 24.155L28.1063 25H26.0175C25.6659 24.9995 25.3204 25.0916 25.0158 25.2672C24.7112 25.4428 24.4583 25.6955 24.2825 26L23.1913 27.9037L21.9225 24.5237L23.29 21.29C24.5004 20.3547 25.8929 19.6826 27.3781 19.3167C28.8633 18.9508 30.4086 18.8991 31.915 19.165L31.9138 19.1675ZM19 30C18.9982 28.365 19.363 26.7504 20.0675 25.275L21.485 29.0587C21.6031 29.372 21.798 29.6506 22.0518 29.869C22.3056 30.0874 22.6101 30.2386 22.9375 30.3087L25.6163 30.885L26.0925 31.875C26.2578 32.2117 26.5139 32.4955 26.832 32.6943C27.1501 32.8931 27.5174 32.999 27.8925 33H28.0775L27.1738 35.0287C27.0145 35.386 26.9635 35.782 27.0271 36.168C27.0906 36.5539 27.2659 36.9127 27.5313 37.2L27.5488 37.2175L30 39.7425L29.7575 40.9925C26.8848 40.9256 24.152 39.7387 22.1422 37.685C20.1324 35.6313 19.0048 32.8735 19 30ZM31.8225 40.8475L31.9638 40.1212C32.0218 39.8127 32.0068 39.4949 31.92 39.1931C31.8332 38.8914 31.6769 38.6142 31.4638 38.3837C31.4576 38.3782 31.4518 38.3724 31.4463 38.3662L29 35.8425L30.7125 32L33.565 32.385L39.28 35.9C38.452 37.2003 37.3605 38.3125 36.076 39.1647C34.7914 40.0169 33.3424 40.5902 31.8225 40.8475Z" fill="#0957DE"/>
</svg>
