<svg width="48" height="48" viewBox="0 0 48 48" fill="none" xmlns="http://www.w3.org/2000/svg">
<rect width="48" height="48" rx="24" fill="#E6EEFC"/>
<path opacity="0.2" d="M33.375 16.9688L24 25.5625L14.625 16.9688H33.375Z" fill="#0957DE"/>
<path d="M33.375 16.1875H14.625C14.4178 16.1875 14.2191 16.2698 14.0726 16.4163C13.9261 16.5628 13.8438 16.7615 13.8438 16.9688V30.25C13.8438 30.6644 14.0084 31.0618 14.3014 31.3549C14.5944 31.6479 14.9918 31.8125 15.4062 31.8125H32.5938C33.0082 31.8125 33.4056 31.6479 33.6986 31.3549C33.9916 31.0618 34.1562 30.6644 34.1562 30.25V16.9688C34.1562 16.7615 34.0739 16.5628 33.9274 16.4163C33.7809 16.2698 33.5822 16.1875 33.375 16.1875ZM24 24.5029L16.6338 17.75H31.3662L24 24.5029ZM21.1396 24L15.4062 29.2549V18.7451L21.1396 24ZM22.2959 25.0596L23.4678 26.1387C23.6119 26.271 23.8004 26.3444 23.9961 26.3444C24.1917 26.3444 24.3803 26.271 24.5244 26.1387L25.6963 25.0596L31.3604 30.25H16.6338L22.2959 25.0596ZM26.8604 24L32.5938 18.7441V29.2559L26.8604 24Z" fill="#0957DE"/>
</svg>
