<svg width="64" height="64" viewBox="0 0 64 64" fill="none" xmlns="http://www.w3.org/2000/svg">
<rect width="64" height="64" rx="8" fill="white" fill-opacity="0.2"/>
<path d="M32 36C34.2091 36 36 34.2091 36 32C36 29.7909 34.2091 28 32 28C29.7909 28 28 29.7909 28 32C28 34.2091 29.7909 36 32 36Z" stroke="white" stroke-width="2" stroke-linecap="round" stroke-linejoin="round"/>
<path d="M20 25.3333V22.6667C20 21.9594 20.281 21.2811 20.781 20.781C21.2811 20.281 21.9594 20 22.6667 20H25.3333M38.6667 20H41.3333C42.0406 20 42.7189 20.281 43.219 20.781C43.719 21.2811 44 21.9594 44 22.6667V25.3333M44 38.6667V41.3333C44 42.0406 43.719 42.7189 43.219 43.219C42.7189 43.719 42.0406 44 41.3333 44H38.6667M25.3333 44H22.6667C21.9594 44 21.2811 43.719 20.781 43.219C20.281 42.7189 20 42.0406 20 41.3333V38.6667" stroke="white" stroke-width="2" stroke-linecap="round" stroke-linejoin="round"/>
</svg>
