<svg width="95" height="47" viewBox="0 0 95 47" fill="none" xmlns="http://www.w3.org/2000/svg">
<path d="M40.0527 13.8081C34.6998 4.53663 22.8444 1.35999 13.573 6.71289C4.30146 12.0658 1.12482 23.9211 6.47771 33.1926C11.8306 42.4641 23.686 45.6407 32.9574 40.2879C42.2289 34.9349 45.4055 23.0796 40.0527 13.8081ZM22.3579 35.3903L22.3325 24.0388L12.5146 18.341L22.3072 12.6873L32.1253 18.385L32.1506 29.7366L22.3579 35.3903Z" fill="url(#paint0_linear_347_8678)"/>
<path d="M64.7468 18.862C64.2505 17.9521 63.5681 17.2593 62.6995 16.7837C61.8309 16.308 60.8176 16.0702 59.6595 16.0702C58.3773 16.0702 57.2399 16.3597 56.2473 16.9388C55.2546 17.5178 54.4791 18.345 53.9207 19.4204C53.3624 20.4958 53.0832 21.7366 53.0832 23.1429C53.0832 24.5905 53.3624 25.852 53.9207 26.9273C54.4998 28.0027 55.296 28.8299 56.3093 29.409C57.3226 29.988 58.5014 30.2776 59.8456 30.2776C61.5 30.2776 62.8546 29.8433 63.9093 28.9747C64.964 28.0854 65.6568 26.855 65.9877 25.2833H58.5428V21.9641H70.2685V25.7486C69.979 27.2582 69.3585 28.6541 68.4073 29.9363C67.456 31.2185 66.2255 32.2525 64.7158 33.0384C63.2268 33.8035 61.5517 34.1861 59.6905 34.1861C57.6018 34.1861 55.7096 33.7208 54.0138 32.7902C52.3387 31.8389 51.0151 30.5257 50.0432 28.8506C49.0919 27.1755 48.6162 25.2729 48.6162 23.1429C48.6162 21.0128 49.0919 19.1102 50.0432 17.4351C51.0151 15.7393 52.3387 14.4261 54.0138 13.4955C55.7096 12.5442 57.5915 12.0686 59.6595 12.0686C62.0998 12.0686 64.2195 12.6683 66.0187 13.8678C67.8179 15.0465 69.0587 16.7113 69.7411 18.862H64.7468ZM82.2913 34.2171C80.2646 34.2171 78.4034 33.7415 76.7076 32.7902C75.0119 31.8389 73.6676 30.5257 72.675 28.8506C71.6823 27.1548 71.186 25.2419 71.186 23.1118C71.186 21.0024 71.6823 19.1102 72.675 17.4351C73.6676 15.7393 75.0119 14.4158 76.7076 13.4645C78.4034 12.5132 80.2646 12.0376 82.2913 12.0376C84.3387 12.0376 86.1999 12.5132 87.875 13.4645C89.5708 14.4158 90.9046 15.7393 91.8766 17.4351C92.8693 19.1102 93.3656 21.0024 93.3656 23.1118C93.3656 25.2419 92.8693 27.1548 91.8766 28.8506C90.9046 30.5257 89.5708 31.8389 87.875 32.7902C86.1792 33.7415 84.318 34.2171 82.2913 34.2171ZM82.2913 30.3396C83.5942 30.3396 84.7419 30.0501 85.7346 29.471C86.7272 28.8713 87.5027 28.0234 88.0611 26.9273C88.6195 25.8313 88.8987 24.5595 88.8987 23.1118C88.8987 21.6642 88.6195 20.4027 88.0611 19.3273C87.5027 18.2313 86.7272 17.3937 85.7346 16.8147C84.7419 16.2356 83.5942 15.9461 82.2913 15.9461C80.9885 15.9461 79.8304 16.2356 78.817 16.8147C77.8244 17.3937 77.0489 18.2313 76.4905 19.3273C75.9321 20.4027 75.6529 21.6642 75.6529 23.1118C75.6529 24.5595 75.9321 25.8313 76.4905 26.9273C77.0489 28.0234 77.8244 28.8713 78.817 29.471C79.8304 30.0501 80.9885 30.3396 82.2913 30.3396Z" fill="#01A785"/>
<defs>
<linearGradient id="paint0_linear_347_8678" x1="9.13056" y1="13.0006" x2="36.2166" y2="42.8882" gradientUnits="userSpaceOnUse">
<stop stop-color="#B4F1E5"/>
<stop offset="0.5" stop-color="#01C69D"/>
<stop offset="1" stop-color="#019375"/>
</linearGradient>
</defs>
</svg>
