<svg width="60" height="60" viewBox="0 0 60 60" fill="none" xmlns="http://www.w3.org/2000/svg">
<rect width="60" height="60" rx="30" fill="#E6EEFC"/>
<path d="M43 42H40V18H41C41.2652 18 41.5196 17.8946 41.7071 17.7071C41.8946 17.5196 42 17.2652 42 17C42 16.7348 41.8946 16.4804 41.7071 16.2929C41.5196 16.1054 41.2652 16 41 16H19C18.7348 16 18.4804 16.1054 18.2929 16.2929C18.1054 16.4804 18 16.7348 18 17C18 17.2652 18.1054 17.5196 18.2929 17.7071C18.4804 17.8946 18.7348 18 19 18H20V42H17C16.7348 42 16.4804 42.1054 16.2929 42.2929C16.1054 42.4804 16 42.7348 16 43C16 43.2652 16.1054 43.5196 16.2929 43.7071C16.4804 43.8946 16.7348 44 17 44H43C43.2652 44 43.5196 43.8946 43.7071 43.7071C43.8946 43.5196 44 43.2652 44 43C44 42.7348 43.8946 42.4804 43.7071 42.2929C43.5196 42.1054 43.2652 42 43 42ZM22 18H38V42H34V37C34 36.7348 33.8946 36.4804 33.7071 36.2929C33.5196 36.1054 33.2652 36 33 36H27C26.7348 36 26.4804 36.1054 26.2929 36.2929C26.1054 36.4804 26 36.7348 26 37V42H22V18ZM32 42H28V38H32V42ZM25 22C25 21.7348 25.1054 21.4804 25.2929 21.2929C25.4804 21.1054 25.7348 21 26 21H28C28.2652 21 28.5196 21.1054 28.7071 21.2929C28.8946 21.4804 29 21.7348 29 22C29 22.2652 28.8946 22.5196 28.7071 22.7071C28.5196 22.8946 28.2652 23 28 23H26C25.7348 23 25.4804 22.8946 25.2929 22.7071C25.1054 22.5196 25 22.2652 25 22ZM31 22C31 21.7348 31.1054 21.4804 31.2929 21.2929C31.4804 21.1054 31.7348 21 32 21H34C34.2652 21 34.5196 21.1054 34.7071 21.2929C34.8946 21.4804 35 21.7348 35 22C35 22.2652 34.8946 22.5196 34.7071 22.7071C34.5196 22.8946 34.2652 23 34 23H32C31.7348 23 31.4804 22.8946 31.2929 22.7071C31.1054 22.5196 31 22.2652 31 22ZM25 27C25 26.7348 25.1054 26.4804 25.2929 26.2929C25.4804 26.1054 25.7348 26 26 26H28C28.2652 26 28.5196 26.1054 28.7071 26.2929C28.8946 26.4804 29 26.7348 29 27C29 27.2652 28.8946 27.5196 28.7071 27.7071C28.5196 27.8946 28.2652 28 28 28H26C25.7348 28 25.4804 27.8946 25.2929 27.7071C25.1054 27.5196 25 27.2652 25 27ZM31 27C31 26.7348 31.1054 26.4804 31.2929 26.2929C31.4804 26.1054 31.7348 26 32 26H34C34.2652 26 34.5196 26.1054 34.7071 26.2929C34.8946 26.4804 35 26.7348 35 27C35 27.2652 34.8946 27.5196 34.7071 27.7071C34.5196 27.8946 34.2652 28 34 28H32C31.7348 28 31.4804 27.8946 31.2929 27.7071C31.1054 27.5196 31 27.2652 31 27ZM25 32C25 31.7348 25.1054 31.4804 25.2929 31.2929C25.4804 31.1054 25.7348 31 26 31H28C28.2652 31 28.5196 31.1054 28.7071 31.2929C28.8946 31.4804 29 31.7348 29 32C29 32.2652 28.8946 32.5196 28.7071 32.7071C28.5196 32.8946 28.2652 33 28 33H26C25.7348 33 25.4804 32.8946 25.2929 32.7071C25.1054 32.5196 25 32.2652 25 32ZM31 32C31 31.7348 31.1054 31.4804 31.2929 31.2929C31.4804 31.1054 31.7348 31 32 31H34C34.2652 31 34.5196 31.1054 34.7071 31.2929C34.8946 31.4804 35 31.7348 35 32C35 32.2652 34.8946 32.5196 34.7071 32.7071C34.5196 32.8946 34.2652 33 34 33H32C31.7348 33 31.4804 32.8946 31.2929 32.7071C31.1054 32.5196 31 32.2652 31 32Z" fill="#0957DE"/>
</svg>
