<svg width="933" height="1020" viewBox="0 0 933 1020" fill="none" xmlns="http://www.w3.org/2000/svg">
<g filter="url(#filter0_f_577_7769)">
<path fill-rule="evenodd" clip-rule="evenodd" d="M501.634 240.36C628.734 237.854 747.592 317.956 782.793 439.936C815.087 551.842 736.379 655.699 640.718 722.317C551.829 784.22 436.098 805.314 347.392 743.15C254.453 678.019 219.425 558.794 252.682 450.385C287.86 335.713 381.553 242.727 501.634 240.36Z" fill="url(#paint0_linear_577_7769)"/>
</g>
<g filter="url(#filter1_f_577_7769)">
<path fill-rule="evenodd" clip-rule="evenodd" d="M520.058 195.133C453.155 193.791 381.229 217.763 360.205 281.383C338.917 345.8 381.551 408.875 436.143 449.065C491.927 490.132 566.037 514.734 622.312 474.342C679.429 433.346 685.542 353.495 661.345 287.424C639.94 228.976 582.21 196.38 520.058 195.133Z" fill="url(#paint1_linear_577_7769)"/>
</g>
<defs>
<filter id="filter0_f_577_7769" x="0.943253" y="0.866104" width="1028.65" height="1019.13" filterUnits="userSpaceOnUse" color-interpolation-filters="sRGB">
<feFlood flood-opacity="0" result="BackgroundImageFix"/>
<feBlend mode="normal" in="SourceGraphic" in2="BackgroundImageFix" result="shape"/>
<feGaussianBlur stdDeviation="119.718" result="effect1_foregroundBlur_577_7769"/>
</filter>
<filter id="filter1_f_577_7769" x="234.901" y="75.3618" width="559.547" height="539.317" filterUnits="userSpaceOnUse" color-interpolation-filters="sRGB">
<feFlood flood-opacity="0" result="BackgroundImageFix"/>
<feBlend mode="normal" in="SourceGraphic" in2="BackgroundImageFix" result="shape"/>
<feGaussianBlur stdDeviation="59.8592" result="effect1_foregroundBlur_577_7769"/>
</filter>
<linearGradient id="paint0_linear_577_7769" x1="515.27" y1="240.303" x2="515.27" y2="780.563" gradientUnits="userSpaceOnUse">
<stop stop-color="#FC50B7"/>
<stop offset="1" stop-color="#FFC56F" stop-opacity="0.46"/>
</linearGradient>
<linearGradient id="paint1_linear_577_7769" x1="514.674" y1="195.08" x2="514.674" y2="494.96" gradientUnits="userSpaceOnUse">
<stop stop-color="#FF08AB"/>
<stop offset="1" stop-color="#F58A25" stop-opacity="0"/>
<stop offset="1" stop-color="#7061A3" stop-opacity="0"/>
</linearGradient>
</defs>
</svg>
