<svg width="95" height="25" viewBox="0 0 95 25" fill="none" xmlns="http://www.w3.org/2000/svg">
<g clip-path="url(#clip0_347_8756)">
<path d="M13.2772 24.4974H10.3407C10.1222 24.4974 10.0282 24.4023 10.0282 24.1813V16.379C10.0282 16.158 9.93415 16.0629 9.71565 16.0629H3.90545C3.68695 16.0629 3.5929 16.158 3.5929 16.379V24.1813C3.5929 24.4023 3.49885 24.4974 3.28035 24.4974H0.31255C0.09405 24.4974 0 24.4023 0 24.1813V4.91179C0 4.69084 0.09405 4.59573 0.31255 4.59573H3.28035C3.49885 4.59573 3.5929 4.69084 3.5929 4.91179V12.4298C3.5929 12.6507 3.686 12.7458 3.90545 12.7458H9.71565C9.93415 12.7458 10.0282 12.6507 10.0282 12.4298V4.91179C10.0282 4.69084 10.1222 4.59573 10.3407 4.59573H13.2772C13.4957 4.59573 13.5897 4.69084 13.5897 4.91179V24.1813C13.5897 24.4023 13.4957 24.4974 13.2772 24.4974Z" fill="black"/>
<path d="M30.9251 24.4974H27.7701C27.6143 24.4974 27.4889 24.434 27.4576 24.2764L26.5209 20.9593C26.4895 20.8018 26.3641 20.7701 26.2083 20.7701H21.7405C21.5847 20.7701 21.4593 20.8018 21.4279 20.9593L20.4912 24.2764C20.4599 24.434 20.3354 24.4974 20.1787 24.4974H17.0551C16.8366 24.4974 16.7112 24.4023 16.7112 24.2447C16.7112 24.1189 16.8052 23.9287 16.8679 23.676L22.5537 4.81668C22.585 4.65914 22.7095 4.59573 22.8662 4.59573H25.1158C25.2716 4.59573 25.397 4.65914 25.4284 4.81668L31.1141 23.676C31.1768 23.8653 31.2699 24.1179 31.2699 24.2447C31.2699 24.4023 31.1455 24.4974 30.926 24.4974H30.9251ZM25.302 16.5682L24.3957 12.8726C24.333 12.6517 24.1145 11.3875 24.0518 11.1348H23.9578C23.8951 11.3875 23.6452 12.62 23.5825 12.8726L22.6449 16.5375C22.5822 16.7584 22.4891 17.0428 22.4891 17.1696C22.4891 17.3271 22.6145 17.454 22.833 17.454H25.1139C25.3324 17.454 25.4578 17.3271 25.4578 17.1696C25.4578 17.0438 25.3638 16.7594 25.3011 16.5692L25.302 16.5682Z" fill="black"/>
<path d="M48.5427 24.4974H44.888C44.794 24.4974 44.7009 24.434 44.6382 24.3398L39.7333 16.4107C39.6393 16.2839 39.5462 16.1897 39.4521 16.1897C39.3581 16.1897 39.265 16.2531 39.2023 16.3473L38.2029 17.7056C38.0461 17.9266 37.953 18.1475 37.953 18.4636V24.1813C37.953 24.4023 37.859 24.4974 37.6405 24.4974H34.6727C34.4542 24.4974 34.3601 24.4023 34.3601 24.1813V4.91179C34.3601 4.69084 34.4542 4.59573 34.6727 4.59573H37.6405C37.859 4.59573 37.953 4.69084 37.953 4.91179V11.9245C37.953 12.1454 38.0775 12.3039 38.2342 12.3039C38.3283 12.3039 38.4214 12.2405 38.5154 12.1147L44.0758 4.72254C44.1385 4.65914 44.2316 4.59669 44.3256 4.59669H47.9185C48.137 4.59669 48.2624 4.6918 48.2624 4.84934C48.2624 4.91275 48.2311 5.00689 48.1684 5.10199L42.2955 12.4624C42.1701 12.62 42.077 12.7468 42.077 12.8726C42.077 12.9677 42.1397 13.0619 42.2641 13.2828L48.6681 23.7711C48.7935 23.9921 48.8866 24.1189 48.8866 24.2447C48.8866 24.4023 48.7612 24.4974 48.5427 24.4974Z" fill="black"/>
<path d="M65.069 24.4974H61.8513C61.7259 24.4974 61.6015 24.4023 61.5701 24.2764L58.8208 16.2522C58.7895 16.1254 58.6954 16.0629 58.571 16.0629H55.7903C55.5718 16.0629 55.4778 16.158 55.4778 16.379V24.1813C55.4778 24.4023 55.3837 24.4974 55.1652 24.4974H52.1974C51.9789 24.4974 51.8849 24.4023 51.8849 24.1813V4.91179C51.8849 4.69084 51.9789 4.59573 52.1974 4.59573H59.2265C62.788 4.59573 65.0367 6.90224 65.0367 10.471V10.7871C65.0367 12.3981 63.6934 14.2617 62.5068 15.0831C62.4128 15.1465 62.3814 15.2099 62.3814 15.3357C62.3814 15.4308 62.4441 15.5884 62.5372 15.841L65.2238 23.7385C65.2865 23.9594 65.3806 24.1487 65.3806 24.2438C65.3806 24.4013 65.2865 24.4964 65.068 24.4964L65.069 24.4974ZM61.477 10.1867C61.477 8.95514 60.4463 7.91188 59.2274 7.91188H55.7913C55.5728 7.91188 55.4787 8.00698 55.4787 8.22793V12.4298C55.4787 12.6507 55.5718 12.7458 55.7913 12.7458H59.2274C60.4463 12.7458 61.477 11.7035 61.477 10.471V10.1867Z" fill="black"/>
<path d="M76.5008 24.813H74.9704C71.4088 24.813 69.1602 22.5065 69.1602 19.2211V9.87023C69.1602 6.58483 71.4098 4.27832 74.9704 4.27832H76.5008C80.031 4.27832 82.311 6.58483 82.311 9.87023V19.2211C82.311 22.5065 80.031 24.813 76.5008 24.813ZM78.7191 9.87119C78.7191 8.60794 77.751 7.59639 76.5008 7.59639H74.9704C73.7525 7.59639 72.7208 8.63868 72.7208 9.87119V19.2221C72.7208 20.4536 73.7515 21.4969 74.9704 21.4969H76.5008C77.751 21.4969 78.7191 20.4863 78.7191 19.2221V9.87119Z" fill="black"/>
<path d="M93.7299 7.48476C92.9452 8.27826 91.8613 8.76914 90.6643 8.76914C89.4673 8.76914 88.3833 8.27826 87.5986 7.48476L90.6643 4.38477L93.7299 7.48476Z" fill="#E4032E"/>
<path d="M87.5988 1.28438C88.3835 0.490889 89.4674 0 90.6644 0C91.8614 0 92.9454 0.490889 93.7301 1.28438L90.6644 4.38438L87.5988 1.28438Z" fill="#E4032E"/>
<path d="M92.9932 4.38418C92.9932 3.31691 93.3703 2.33897 93.9964 1.5791C94.6224 2.33897 94.9996 3.31691 94.9996 4.38418C94.9996 5.45146 94.6224 6.42939 93.9964 7.18926C93.3703 6.42939 92.9932 5.45146 92.9932 4.38418Z" fill="#E4032E"/>
<path d="M87.3313 1.5791C87.9574 2.33897 88.3345 3.31691 88.3345 4.38418C88.3345 5.45146 87.9574 6.42939 87.3313 7.18926C86.7053 6.42939 86.3281 5.45146 86.3281 4.38418C86.3281 3.31691 86.7053 2.33897 87.3313 1.5791Z" fill="#E4032E"/>
</g>
<defs>
<clipPath id="clip0_347_8756">
<rect width="95" height="24.8134" fill="white"/>
</clipPath>
</defs>
</svg>
