<svg width="60" height="60" viewBox="0 0 60 60" fill="none" xmlns="http://www.w3.org/2000/svg">
<rect width="60" height="60" rx="30" fill="#E6EEFC"/>
<path d="M43.7081 16.2926C43.6152 16.1996 43.5049 16.1258 43.3835 16.0755C43.2621 16.0252 43.132 15.9993 43.0006 15.9993C42.8691 15.9993 42.739 16.0252 42.6176 16.0755C42.4962 16.1258 42.3859 16.1996 42.2931 16.2926L35.7431 22.8438L35.0718 22.1713C34.3208 21.4225 33.3036 21.002 32.2431 21.002C31.1825 21.002 30.1653 21.4225 29.4143 22.1713L26.5006 25.0863L25.7081 24.2926C25.5204 24.1049 25.2659 23.9995 25.0006 23.9995C24.7352 23.9995 24.4807 24.1049 24.2931 24.2926C24.1054 24.4802 24 24.7347 24 25.0001C24 25.2654 24.1054 25.5199 24.2931 25.7076L25.0868 26.5001L22.1718 29.4138C21.8003 29.7853 21.5056 30.2262 21.3045 30.7116C21.1034 31.197 20.9999 31.7172 20.9999 32.2426C20.9999 32.7679 21.1034 33.2881 21.3045 33.7735C21.5056 34.2589 21.8003 34.6999 22.1718 35.0713L22.8443 35.7426L16.2931 42.2926C16.2001 42.3855 16.1264 42.4958 16.0762 42.6172C16.0259 42.7386 16 42.8687 16 43.0001C16 43.1314 16.0259 43.2616 16.0762 43.3829C16.1264 43.5043 16.2001 43.6146 16.2931 43.7076C16.4807 43.8952 16.7352 44.0006 17.0006 44.0006C17.132 44.0006 17.2621 43.9747 17.3835 43.9244C17.5048 43.8742 17.6151 43.8005 17.7081 43.7076L24.2581 37.1563L24.9293 37.8288C25.3008 38.2003 25.7417 38.4951 26.2271 38.6961C26.7125 38.8972 27.2327 39.0007 27.7581 39.0007C28.2834 39.0007 28.8036 38.8972 29.289 38.6961C29.7744 38.4951 30.2154 38.2003 30.5868 37.8288L33.5006 34.9138L34.2931 35.7076C34.386 35.8005 34.4963 35.8742 34.6177 35.9244C34.7391 35.9747 34.8692 36.0006 35.0006 36.0006C35.132 36.0006 35.2621 35.9747 35.3835 35.9244C35.5048 35.8742 35.6151 35.8005 35.7081 35.7076C35.801 35.6146 35.8747 35.5043 35.9249 35.3829C35.9752 35.2616 36.0011 35.1314 36.0011 35.0001C36.0011 34.8687 35.9752 34.7386 35.9249 34.6172C35.8747 34.4958 35.801 34.3855 35.7081 34.2926L34.9143 33.5001L37.8293 30.5863C38.2008 30.2149 38.4956 29.7739 38.6966 29.2885C38.8977 28.8031 39.0012 28.2829 39.0012 27.7576C39.0012 27.2322 38.8977 26.712 38.6966 26.2266C38.4956 25.7412 38.2008 25.3003 37.8293 24.9288L37.1568 24.2576L43.7081 17.7076C43.801 17.6147 43.8748 17.5044 43.9251 17.383C43.9754 17.2616 44.0013 17.1315 44.0013 17.0001C44.0013 16.8686 43.9754 16.7385 43.9251 16.6171C43.8748 16.4957 43.801 16.3854 43.7081 16.2926ZM29.1718 36.4176C28.7968 36.7923 28.2883 37.0029 27.7581 37.0029C27.2278 37.0029 26.7193 36.7923 26.3443 36.4176L23.5868 33.6563C23.212 33.2813 23.0015 32.7728 23.0015 32.2426C23.0015 31.7123 23.212 31.2038 23.5868 30.8288L26.5006 27.9138L32.0868 33.5001L29.1718 36.4176ZM36.4143 29.1751L33.5006 32.0863L27.9143 26.5001L30.8293 23.5863C31.2043 23.2115 31.7129 23.001 32.2431 23.001C32.7733 23.001 33.2818 23.2115 33.6568 23.5863L36.4143 26.3363C36.601 26.5221 36.7492 26.743 36.8503 26.9863C36.9513 27.2295 37.0034 27.4904 37.0034 27.7538C37.0034 28.0172 36.9513 28.2781 36.8503 28.5213C36.7492 28.7646 36.601 28.9855 36.4143 29.1713V29.1751ZM25.0718 18.3751C25.0226 18.2531 24.9978 18.1226 24.999 17.9911C25.0002 17.8596 25.0272 17.7296 25.0787 17.6085C25.1825 17.364 25.3792 17.1708 25.6256 17.0713C25.8719 16.9718 26.1476 16.9743 26.3921 17.0782C26.6366 17.182 26.8299 17.3787 26.9293 17.6251L27.9293 20.1251C27.9786 20.247 28.0033 20.3775 28.0021 20.509C28.0009 20.6405 27.9739 20.7706 27.9224 20.8916C27.871 21.0127 27.7963 21.1224 27.7024 21.2146C27.6086 21.3068 27.4975 21.3796 27.3756 21.4288C27.2536 21.4781 27.1231 21.5028 26.9916 21.5016C26.8601 21.5004 26.7301 21.4734 26.609 21.4219C26.4879 21.3705 26.3782 21.2958 26.286 21.2019C26.1938 21.1081 26.1211 20.997 26.0718 20.8751L25.0718 18.3751ZM17.0718 25.6251C17.1209 25.503 17.1936 25.3917 17.2857 25.2978C17.3778 25.2038 17.4876 25.129 17.6087 25.0776C17.7299 25.0261 17.8599 24.9991 17.9915 24.998C18.1231 24.9969 18.2536 25.0218 18.3756 25.0713L20.8756 26.0713C20.9975 26.1206 21.1086 26.1933 21.2024 26.2855C21.2963 26.3777 21.371 26.4874 21.4224 26.6085C21.4739 26.7296 21.5009 26.8596 21.5021 26.9911C21.5033 27.1226 21.4786 27.2531 21.4293 27.3751C21.3801 27.497 21.3073 27.6081 21.2151 27.7019C21.1229 27.7958 21.0132 27.8705 20.8921 27.9219C20.7711 27.9734 20.641 28.0004 20.5095 28.0016C20.378 28.0028 20.2475 27.9781 20.1256 27.9288L17.6256 26.9288C17.5035 26.8797 17.3922 26.807 17.2983 26.7149C17.2043 26.6228 17.1295 26.513 17.0781 26.3919C17.0266 26.2708 16.9996 26.1407 16.9985 26.0091C16.9974 25.8775 17.0223 25.747 17.0718 25.6251ZM42.9293 34.3751C42.8806 34.497 42.8083 34.6082 42.7166 34.7023C42.6249 34.7963 42.5155 34.8713 42.3948 34.9231C42.2741 34.9749 42.1443 35.0024 42.013 35.004C41.8816 35.0056 41.7513 34.9813 41.6293 34.9326L39.1293 33.9326C39.0071 33.8836 38.8957 33.811 38.8016 33.7189C38.7074 33.6269 38.6323 33.5172 38.5805 33.3961C38.5288 33.2751 38.5014 33.145 38.4999 33.0133C38.4984 32.8817 38.5228 32.751 38.5718 32.6288C38.6208 32.5066 38.6934 32.3952 38.7854 32.3011C38.8775 32.2069 38.9872 32.1318 39.1082 32.08C39.2293 32.0283 39.3594 32.0009 39.491 31.9994C39.6227 31.9979 39.7533 32.0223 39.8756 32.0713L42.3756 33.0713C42.4977 33.1204 42.6089 33.1931 42.7028 33.2852C42.7968 33.3773 42.8716 33.4871 42.9231 33.6082C42.9745 33.7294 43.0015 33.8594 43.0026 33.991C43.0037 34.1226 42.9788 34.2531 42.9293 34.3751ZM34.9293 41.6326C34.9781 41.7545 35.0023 41.8849 35.0007 42.0162C34.999 42.1476 34.9716 42.2773 34.9198 42.398C34.868 42.5187 34.793 42.6281 34.699 42.7198C34.6049 42.8115 34.4938 42.8838 34.3718 42.9326C34.2498 42.9813 34.1195 43.0056 33.9881 43.0039C33.8568 43.0023 33.7271 42.9748 33.6063 42.923C33.4856 42.8713 33.3763 42.7962 33.2846 42.7022C33.1929 42.6082 33.1206 42.497 33.0718 42.3751L32.0718 39.8751C31.9724 39.6287 31.9748 39.353 32.0787 39.1085C32.1825 38.864 32.3792 38.6708 32.6256 38.5713C32.8719 38.4718 33.1476 38.4743 33.3921 38.5782C33.6366 38.682 33.8298 38.8787 33.9293 39.1251L34.9293 41.6326Z" fill="#0957DE"/>
</svg>
