<svg width="33" height="33" viewBox="0 0 33 33" fill="none" xmlns="http://www.w3.org/2000/svg">
  <path d="M5.69922 8.24998C5.69922 8.01128 5.79404 7.78236 5.96282 7.61358C6.13161 7.4448 6.36052 7.34998 6.59922 7.34998H26.3992C26.6379 7.34998 26.8668 7.4448 27.0356 7.61358C27.2044 7.78236 27.2992 8.01128 27.2992 8.24998C27.2992 8.48867 27.2044 8.71759 27.0356 8.88637C26.8668 9.05515 26.6379 9.14998 26.3992 9.14998H6.59922C6.36052 9.14998 6.13161 9.05515 5.96282 8.88637C5.79404 8.71759 5.69922 8.48867 5.69922 8.24998ZM5.69922 16.5C5.69922 16.2613 5.79404 16.0324 5.96282 15.8636C6.13161 15.6948 6.36052 15.6 6.59922 15.6H26.3992C26.6379 15.6 26.8668 15.6948 27.0356 15.8636C27.2044 16.0324 27.2992 16.2613 27.2992 16.5C27.2992 16.7387 27.2044 16.9676 27.0356 17.1364C26.8668 17.3052 26.6379 17.4 26.3992 17.4H6.59922C6.36052 17.4 6.13161 17.3052 5.96282 17.1364C5.79404 16.9676 5.69922 16.7387 5.69922 16.5ZM5.69922 24.75C5.69922 24.5113 5.79404 24.2824 5.96282 24.1136C6.13161 23.9448 6.36052 23.85 6.59922 23.85H26.3992C26.6379 23.85 26.8668 23.9448 27.0356 24.1136C27.2044 24.2824 27.2992 24.5113 27.2992 24.75C27.2992 24.9887 27.2044 25.2176 27.0356 25.3864C26.8668 25.5552 26.6379 25.65 26.3992 25.65H6.59922C6.36052 25.65 6.13161 25.5552 5.96282 25.3864C5.79404 25.2176 5.69922 24.9887 5.69922 24.75Z" fill="#6B7280" stroke="#6B7280" stroke-width="1.5"/>
</svg>