<svg width="385" height="99" viewBox="0 0 385 99" fill="none" xmlns="http://www.w3.org/2000/svg">
<g clip-path="url(#clip0_362_5713)">
<path fill-rule="evenodd" clip-rule="evenodd" d="M338.217 37.5262C336.013 47.8033 337.814 59.9954 339.639 70.1328C351.708 67.8641 367.645 63.1788 378.711 57.4451C378.923 57.3343 377.032 54.9756 376.881 54.7962C374.958 52.5147 372.128 51.4947 369.629 50.0171C361.102 44.9788 348.56 40.5253 338.793 38.4826" fill="#0B63E5"/>
<path d="M338.217 37.5262C336.013 47.8033 337.814 59.9954 339.639 70.1328C351.708 67.8641 367.645 63.1788 378.711 57.4451C378.923 57.3343 377.032 54.9756 376.881 54.7962C374.958 52.5147 372.128 51.4947 369.629 50.0171C361.102 44.9788 348.56 40.5253 338.793 38.4826" stroke="#0B63E5" stroke-width="3" stroke-miterlimit="1.5" stroke-linecap="round" stroke-linejoin="round"/>
<path d="M362.284 54.6628C244.549 44.2761 125.856 53.645 7.99973 45.2091" stroke="#0B63E5" stroke-width="3" stroke-miterlimit="1.5" stroke-linecap="round" stroke-linejoin="round"/>
</g>
<defs>
<clipPath id="clip0_362_5713">
<rect width="385" height="99" fill="white"/>
</clipPath>
</defs>
</svg>
