<svg width="9" height="16" viewBox="0 0 9 16" fill="none" xmlns="http://www.w3.org/2000/svg">
<path d="M0.30418 7.17765L7.17918 0.302655C7.37291 0.108923 7.63567 8.58526e-05 7.90965 8.58526e-05C8.18363 8.58526e-05 8.44639 0.108923 8.64012 0.302655C8.83385 0.496388 8.94269 0.759146 8.94269 1.03312C8.94269 1.3071 8.83385 1.56986 8.64012 1.76359L2.49473 7.90726L8.6384 14.0527C8.73433 14.1486 8.81042 14.2625 8.86233 14.3878C8.91425 14.5131 8.94097 14.6475 8.94097 14.7831C8.94097 14.9188 8.91425 15.0531 8.86233 15.1785C8.81042 15.3038 8.73433 15.4177 8.6384 15.5136C8.54247 15.6095 8.42859 15.6856 8.30326 15.7375C8.17792 15.7894 8.04359 15.8162 7.90793 15.8162C7.77227 15.8162 7.63794 15.7894 7.5126 15.7375C7.38727 15.6856 7.27339 15.6095 7.17746 15.5136L0.302462 8.63859C0.206434 8.54267 0.130286 8.42874 0.0783843 8.30333C0.0264825 8.17792 -0.0001527 8.04349 7.51702e-06 7.90777C0.000166781 7.77204 0.0271186 7.63768 0.0793151 7.51239C0.131512 7.3871 0.207927 7.27335 0.30418 7.17765Z" fill="#0957DE"/>
</svg>
