<svg width="60" height="60" viewBox="0 0 60 60" fill="none" xmlns="http://www.w3.org/2000/svg">
<rect width="60" height="60" rx="30" fill="#E6EEFC"/>
<path d="M20.0009 22C20.0009 21.7348 20.1063 21.4804 20.2938 21.2929C20.4814 21.1054 20.7357 21 21.0009 21H23.0009V19C23.0009 18.7348 23.1063 18.4804 23.2938 18.2929C23.4814 18.1054 23.7357 18 24.0009 18C24.2662 18 24.5205 18.1054 24.7081 18.2929C24.8956 18.4804 25.0009 18.7348 25.0009 19V21H27.0009C27.2662 21 27.5205 21.1054 27.7081 21.2929C27.8956 21.4804 28.0009 21.7348 28.0009 22C28.0009 22.2652 27.8956 22.5196 27.7081 22.7071C27.5205 22.8946 27.2662 23 27.0009 23H25.0009V25C25.0009 25.2652 24.8956 25.5196 24.7081 25.7071C24.5205 25.8946 24.2662 26 24.0009 26C23.7357 26 23.4814 25.8946 23.2938 25.7071C23.1063 25.5196 23.0009 25.2652 23.0009 25V23H21.0009C20.7357 23 20.4814 22.8946 20.2938 22.7071C20.1063 22.5196 20.0009 22.2652 20.0009 22ZM37.0009 38H36.0009V37C36.0009 36.7348 35.8956 36.4804 35.7081 36.2929C35.5205 36.1054 35.2662 36 35.0009 36C34.7357 36 34.4814 36.1054 34.2938 36.2929C34.1063 36.4804 34.0009 36.7348 34.0009 37V38H33.0009C32.7357 38 32.4814 38.1054 32.2938 38.2929C32.1063 38.4804 32.0009 38.7348 32.0009 39C32.0009 39.2652 32.1063 39.5196 32.2938 39.7071C32.4814 39.8946 32.7357 40 33.0009 40H34.0009V41C34.0009 41.2652 34.1063 41.5196 34.2938 41.7071C34.4814 41.8946 34.7357 42 35.0009 42C35.2662 42 35.5205 41.8946 35.7081 41.7071C35.8956 41.5196 36.0009 41.2652 36.0009 41V40H37.0009C37.2662 40 37.5205 39.8946 37.7081 39.7071C37.8956 39.5196 38.0009 39.2652 38.0009 39C38.0009 38.7348 37.8956 38.4804 37.7081 38.2929C37.5205 38.1054 37.2662 38 37.0009 38ZM44.0009 32H42.0009V30C42.0009 29.7348 41.8956 29.4804 41.7081 29.2929C41.5205 29.1054 41.2662 29 41.0009 29C40.7357 29 40.4814 29.1054 40.2938 29.2929C40.1063 29.4804 40.0009 29.7348 40.0009 30V32H38.0009C37.7357 32 37.4814 32.1054 37.2938 32.2929C37.1063 32.4804 37.0009 32.7348 37.0009 33C37.0009 33.2652 37.1063 33.5196 37.2938 33.7071C37.4814 33.8946 37.7357 34 38.0009 34H40.0009V36C40.0009 36.2652 40.1063 36.5196 40.2938 36.7071C40.4814 36.8946 40.7357 37 41.0009 37C41.2662 37 41.5205 36.8946 41.7081 36.7071C41.8956 36.5196 42.0009 36.2652 42.0009 36V34H44.0009C44.2662 34 44.5205 33.8946 44.7081 33.7071C44.8956 33.5196 45.0009 33.2652 45.0009 33C45.0009 32.7348 44.8956 32.4804 44.7081 32.2929C44.5205 32.1054 44.2662 32 44.0009 32ZM41.4147 24L24.0009 41.4137C23.6259 41.7885 23.1174 41.9991 22.5872 41.9991C22.057 41.9991 21.5485 41.7885 21.1734 41.4137L18.5859 38.8288C18.4002 38.643 18.2528 38.4225 18.1523 38.1798C18.0517 37.9372 18 37.6771 18 37.4144C18 37.1517 18.0517 36.8916 18.1523 36.6489C18.2528 36.4062 18.4002 36.1857 18.5859 36L36.0009 18.5862C36.1867 18.4005 36.4072 18.2531 36.6499 18.1526C36.8925 18.052 37.1526 18.0003 37.4153 18.0003C37.678 18.0003 37.9381 18.052 38.1808 18.1526C38.4235 18.2531 38.644 18.4005 38.8297 18.5862L41.4147 21.1712C41.6005 21.357 41.7478 21.5775 41.8484 21.8202C41.9489 22.0628 42.0006 22.3229 42.0006 22.5856C42.0006 22.8483 41.9489 23.1084 41.8484 23.3511C41.7478 23.5938 41.6005 23.8143 41.4147 24ZM34.5859 28L32.0009 25.4137L20.0009 37.4137L22.5859 40L34.5859 28ZM40.0009 22.5863L37.4147 20L33.4147 24L36.0009 26.5863L40.0009 22.5863Z" fill="#0957DE"/>
</svg>
