<svg xmlns="http://www.w3.org/2000/svg" width="32" height="32" viewBox="0 0 32 32" fill="none">
  <path fill-rule="evenodd" clip-rule="evenodd" d="M15.9993 3.66602C12.7283 3.66602 9.59131 4.96542 7.27837 7.27837C4.96542 9.59131 3.66602 12.7283 3.66602 15.9993C3.66602 19.2704 4.96542 22.4074 7.27837 24.7203C9.59131 27.0333 12.7283 28.3327 15.9993 28.3327C19.2704 28.3327 22.4074 27.0333 24.7203 24.7203C27.0333 22.4074 28.3327 19.2704 28.3327 15.9993C28.3327 12.7283 27.0333 9.59131 24.7203 7.27837C22.4074 4.96542 19.2704 3.66602 15.9993 3.66602ZM1.66602 15.9993C1.66602 8.08335 8.08335 1.66602 15.9993 1.66602C23.9153 1.66602 30.3327 8.08335 30.3327 15.9993C30.3327 23.9153 23.9153 30.3327 15.9993 30.3327C8.08335 30.3327 1.66602 23.9153 1.66602 15.9993ZM15.9993 6.99935C16.2646 6.99935 16.5189 7.10471 16.7065 7.29224C16.894 7.47978 16.9993 7.73413 16.9993 7.99935V8.42202C19.1727 8.81135 20.9993 10.4447 20.9993 12.666C20.9993 12.9312 20.894 13.1856 20.7065 13.3731C20.5189 13.5607 20.2646 13.666 19.9993 13.666C19.7341 13.666 19.4798 13.5607 19.2922 13.3731C19.1047 13.1856 18.9993 12.9312 18.9993 12.666C18.9993 11.762 18.2473 10.8033 16.9993 10.462V15.0887C19.1727 15.478 20.9993 17.1113 20.9993 19.3327C20.9993 21.554 19.1727 23.1873 16.9993 23.5767V23.9993C16.9993 24.2646 16.894 24.5189 16.7065 24.7065C16.5189 24.894 16.2646 24.9993 15.9993 24.9993C15.7341 24.9993 15.4798 24.894 15.2922 24.7065C15.1047 24.5189 14.9993 24.2646 14.9993 23.9993V23.5767C12.826 23.1873 10.9993 21.554 10.9993 19.3327C10.9993 19.0675 11.1047 18.8131 11.2922 18.6256C11.4798 18.438 11.7341 18.3327 11.9993 18.3327C12.2646 18.3327 12.5189 18.438 12.7065 18.6256C12.894 18.8131 12.9993 19.0675 12.9993 19.3327C12.9993 20.2367 13.7513 21.1953 14.9993 21.5353V16.91C12.826 16.5207 10.9993 14.8873 10.9993 12.666C10.9993 10.4447 12.826 8.81135 14.9993 8.42202V7.99935C14.9993 7.73413 15.1047 7.47978 15.2922 7.29224C15.4798 7.10471 15.7341 6.99935 15.9993 6.99935ZM14.9993 10.462C13.7513 10.8033 12.9993 11.762 12.9993 12.666C12.9993 13.57 13.7513 14.5287 14.9993 14.8687V10.462ZM16.9993 17.1287V21.5367C18.2473 21.1953 18.9993 20.238 18.9993 19.3327C18.9993 18.4287 18.2473 17.4687 16.9993 17.1287Z" fill="#0B63E5"/>
</svg>