<svg xmlns="http://www.w3.org/2000/svg" width="42" height="42" viewBox="0 0 42 42" fill="none">
  <path fill-rule="evenodd" clip-rule="evenodd" d="M21 4.8125C16.7068 4.8125 12.5895 6.51796 9.55371 9.55371C6.51796 12.5895 4.8125 16.7068 4.8125 21C4.8125 25.2932 6.51796 29.4105 9.55371 32.4463C12.5895 35.482 16.7068 37.1875 21 37.1875C25.2932 37.1875 29.4105 35.482 32.4463 32.4463C35.482 29.4105 37.1875 25.2932 37.1875 21C37.1875 16.7068 35.482 12.5895 32.4463 9.55371C29.4105 6.51796 25.2932 4.8125 21 4.8125ZM2.1875 21C2.1875 10.6103 10.6103 2.1875 21 2.1875C31.3897 2.1875 39.8125 10.6103 39.8125 21C39.8125 31.3897 31.3897 39.8125 21 39.8125C10.6103 39.8125 2.1875 31.3897 2.1875 21ZM21 9.1875C21.3481 9.1875 21.6819 9.32578 21.9281 9.57192C22.1742 9.81806 22.3125 10.1519 22.3125 10.5V11.0547C25.165 11.5657 27.5625 13.7095 27.5625 16.625C27.5625 16.9731 27.4242 17.3069 27.1781 17.5531C26.9319 17.7992 26.5981 17.9375 26.25 17.9375C25.9019 17.9375 25.5681 17.7992 25.3219 17.5531C25.0758 17.3069 24.9375 16.9731 24.9375 16.625C24.9375 15.4385 23.9505 14.1803 22.3125 13.7323V19.8048C25.165 20.3158 27.5625 22.4595 27.5625 25.375C27.5625 28.2905 25.165 30.4343 22.3125 30.9453V31.5C22.3125 31.8481 22.1742 32.1819 21.9281 32.4281C21.6819 32.6742 21.3481 32.8125 21 32.8125C20.6519 32.8125 20.3181 32.6742 20.0719 32.4281C19.8258 32.1819 19.6875 31.8481 19.6875 31.5V30.9453C16.835 30.4343 14.4375 28.2905 14.4375 25.375C14.4375 25.0269 14.5758 24.6931 14.8219 24.4469C15.0681 24.2008 15.4019 24.0625 15.75 24.0625C16.0981 24.0625 16.4319 24.2008 16.6781 24.4469C16.9242 24.6931 17.0625 25.0269 17.0625 25.375C17.0625 26.5615 18.0495 27.8198 19.6875 28.266V22.1952C16.835 21.6842 14.4375 19.5405 14.4375 16.625C14.4375 13.7095 16.835 11.5657 19.6875 11.0547V10.5C19.6875 10.1519 19.8258 9.81806 20.0719 9.57192C20.3181 9.32578 20.6519 9.1875 21 9.1875ZM19.6875 13.7323C18.0495 14.1803 17.0625 15.4385 17.0625 16.625C17.0625 17.8115 18.0495 19.0698 19.6875 19.516V13.7323ZM22.3125 22.4823V28.2677C23.9505 27.8197 24.9375 26.5633 24.9375 25.375C24.9375 24.1885 23.9505 22.9285 22.3125 22.4823Z" fill="#1355FF"/>
</svg>