<svg width="64" height="64" viewBox="0 0 64 64" fill="none" xmlns="http://www.w3.org/2000/svg">
<rect width="64" height="64" rx="8" fill="white"/>
<path fill-rule="evenodd" clip-rule="evenodd" d="M32.0003 19.666C28.7293 19.666 25.5923 20.9654 23.2793 23.2784C20.9664 25.5913 19.667 28.7283 19.667 31.9993C19.667 35.2704 20.9664 38.4074 23.2793 40.7203C25.5923 43.0333 28.7293 44.3327 32.0003 44.3327C35.2713 44.3327 38.4084 43.0333 40.7213 40.7203C43.0343 38.4074 44.3337 35.2704 44.3337 31.9993C44.3337 28.7283 43.0343 25.5913 40.7213 23.2784C38.4084 20.9654 35.2713 19.666 32.0003 19.666ZM17.667 31.9993C17.667 24.0833 24.0843 17.666 32.0003 17.666C39.9163 17.666 46.3337 24.0833 46.3337 31.9993C46.3337 39.9153 39.9163 46.3327 32.0003 46.3327C24.0843 46.3327 17.667 39.9153 17.667 31.9993ZM32.0003 22.9993C32.2655 22.9993 32.5199 23.1047 32.7074 23.2922C32.895 23.4798 33.0003 23.7341 33.0003 23.9993V24.422C35.1737 24.8113 37.0003 26.4447 37.0003 28.666C37.0003 28.9312 36.895 29.1856 36.7074 29.3731C36.5199 29.5607 36.2655 29.666 36.0003 29.666C35.7351 29.666 35.4808 29.5607 35.2932 29.3731C35.1057 29.1856 35.0003 28.9312 35.0003 28.666C35.0003 27.762 34.2483 26.8033 33.0003 26.462V31.0887C35.1737 31.478 37.0003 33.1113 37.0003 35.3327C37.0003 37.554 35.1737 39.1873 33.0003 39.5767V39.9993C33.0003 40.2646 32.895 40.5189 32.7074 40.7065C32.5199 40.894 32.2655 40.9993 32.0003 40.9993C31.7351 40.9993 31.4808 40.894 31.2932 40.7065C31.1057 40.5189 31.0003 40.2646 31.0003 39.9993V39.5767C28.827 39.1873 27.0003 37.554 27.0003 35.3327C27.0003 35.0675 27.1057 34.8131 27.2932 34.6256C27.4808 34.438 27.7351 34.3327 28.0003 34.3327C28.2655 34.3327 28.5199 34.438 28.7074 34.6256C28.895 34.8131 29.0003 35.0675 29.0003 35.3327C29.0003 36.2367 29.7523 37.1953 31.0003 37.5353V32.91C28.827 32.5207 27.0003 30.8873 27.0003 28.666C27.0003 26.4447 28.827 24.8113 31.0003 24.422V23.9993C31.0003 23.7341 31.1057 23.4798 31.2932 23.2922C31.4808 23.1047 31.7351 22.9993 32.0003 22.9993ZM31.0003 26.462C29.7523 26.8033 29.0003 27.762 29.0003 28.666C29.0003 29.57 29.7523 30.5287 31.0003 30.8687V26.462ZM33.0003 33.1287V37.5367C34.2483 37.1953 35.0003 36.238 35.0003 35.3327C35.0003 34.4287 34.2483 33.4687 33.0003 33.1287Z" fill="#0B63E5"/>
</svg>
