<svg width="48" height="48" viewBox="0 0 48 48" fill="none" xmlns="http://www.w3.org/2000/svg">
<rect width="48" height="48" rx="24" fill="#E6EEFC"/>
<path opacity="0.2" d="M24 13.8438C21.928 13.8438 19.9409 14.6669 18.4757 16.132C17.0106 17.5971 16.1875 19.5842 16.1875 21.6562C16.1875 28.6875 24 34.1562 24 34.1562C24 34.1562 31.8125 28.6875 31.8125 21.6562C31.8125 19.5842 30.9894 17.5971 29.5243 16.132C28.0591 14.6669 26.072 13.8438 24 13.8438ZM24 24.7812C23.3819 24.7812 22.7777 24.598 22.2638 24.2546C21.7499 23.9112 21.3494 23.4232 21.1129 22.8521C20.8764 22.2811 20.8145 21.6528 20.935 21.0466C21.0556 20.4404 21.3533 19.8836 21.7903 19.4465C22.2273 19.0095 22.7842 18.7119 23.3903 18.5913C23.9965 18.4707 24.6249 18.5326 25.1959 18.7691C25.7669 19.0057 26.255 19.4062 26.5983 19.9201C26.9417 20.434 27.125 21.0382 27.125 21.6562C27.125 22.4851 26.7958 23.2799 26.2097 23.866C25.6237 24.452 24.8288 24.7812 24 24.7812Z" fill="#0957DE"/>
<path d="M24 17.75C23.2274 17.75 22.4722 17.9791 21.8298 18.4083C21.1874 18.8375 20.6867 19.4476 20.3911 20.1614C20.0954 20.8752 20.0181 21.6606 20.1688 22.4183C20.3195 23.1761 20.6916 23.8721 21.2379 24.4184C21.7842 24.9647 22.4802 25.3367 23.2379 25.4874C23.9957 25.6382 24.7811 25.5608 25.4949 25.2652C26.2086 24.9695 26.8187 24.4688 27.2479 23.8264C27.6772 23.1841 27.9062 22.4288 27.9062 21.6562C27.9062 20.6202 27.4947 19.6267 26.7621 18.8941C26.0296 18.1615 25.036 17.75 24 17.75ZM24 24C23.5365 24 23.0833 23.8625 22.6979 23.605C22.3125 23.3475 22.0121 22.9814 21.8347 22.5532C21.6573 22.1249 21.6109 21.6536 21.7013 21.199C21.7917 20.7444 22.0149 20.3267 22.3427 19.999C22.6705 19.6712 23.0881 19.448 23.5428 19.3575C23.9974 19.2671 24.4686 19.3135 24.8969 19.4909C25.3252 19.6683 25.6912 19.9687 25.9488 20.3541C26.2063 20.7396 26.3438 21.1927 26.3438 21.6562C26.3438 22.2779 26.0968 22.874 25.6573 23.3135C25.2177 23.7531 24.6216 24 24 24ZM24 13.0625C21.7216 13.0651 19.5372 13.9713 17.9262 15.5824C16.3151 17.1935 15.4088 19.3778 15.4062 21.6562C15.4062 24.7227 16.8232 27.9727 19.5078 31.0557C20.7141 32.4488 22.0717 33.7033 23.5557 34.7959C23.687 34.8879 23.8435 34.9373 24.0039 34.9373C24.1643 34.9373 24.3208 34.8879 24.4521 34.7959C25.9333 33.7028 27.2884 32.4483 28.4922 31.0557C31.1729 27.9727 32.5938 24.7227 32.5938 21.6562C32.5912 19.3778 31.6849 17.1935 30.0738 15.5824C28.4628 13.9713 26.2784 13.0651 24 13.0625ZM24 33.1797C22.3857 31.9102 16.9688 27.2471 16.9688 21.6562C16.9688 19.7914 17.7095 18.003 19.0282 16.6844C20.3468 15.3658 22.1352 14.625 24 14.625C25.8648 14.625 27.6532 15.3658 28.9718 16.6844C30.2905 18.003 31.0312 19.7914 31.0312 21.6562C31.0312 27.2451 25.6143 31.9102 24 33.1797Z" fill="#0957DE"/>
</svg>
