<svg width="64" height="64" viewBox="0 0 64 64" fill="none" xmlns="http://www.w3.org/2000/svg">
<rect width="64" height="64" rx="8" fill="white" fill-opacity="0.2"/>
<path opacity="0.2" d="M20.1385 25.3262C20.0478 25.48 20 25.6553 20 25.8339V38.1642C20 38.3416 20.0472 38.5159 20.1368 38.669C20.2264 38.8222 20.3551 38.9488 20.5097 39.0358L31.5097 45.2233C31.6594 45.3075 31.8283 45.3517 32 45.3517L32.0013 45.3517L32.1186 31.999L20.1385 25.3262L20.1385 25.3262Z" fill="white"/>
<path d="M44 38.1643V25.834C44 25.6565 43.9528 25.4823 43.8632 25.3291C43.7736 25.176 43.6449 25.0494 43.4903 24.9624L32.4903 18.7749C32.3406 18.6907 32.1717 18.6465 32 18.6465C31.8283 18.6465 31.6594 18.6907 31.5097 18.7749L20.5097 24.9624C20.3551 25.0494 20.2264 25.176 20.1368 25.3291C20.0472 25.4823 20 25.6565 20 25.834V38.1643C20 38.3417 20.0472 38.516 20.1368 38.6691C20.2264 38.8223 20.3551 38.9489 20.5097 39.0359L31.5097 45.2234C31.6594 45.3076 31.8283 45.3518 32 45.3518C32.1717 45.3518 32.3406 45.3076 32.4903 45.2234L43.4903 39.0359C43.6449 38.9489 43.7736 38.8223 43.8632 38.6691C43.9528 38.516 44 38.3417 44 38.1643Z" stroke="white" stroke-width="2" stroke-linecap="round" stroke-linejoin="round"/>
<path d="M38.1278 35.0639V28.5639L26 21.875" stroke="white" stroke-width="2" stroke-linecap="round" stroke-linejoin="round"/>
<path d="M43.8623 25.3274L32.1188 31.999L20.1387 25.3262" stroke="white" stroke-width="2" stroke-linecap="round" stroke-linejoin="round"/>
<path d="M32.1183 32L32.001 45.3527" stroke="white" stroke-width="2" stroke-linecap="round" stroke-linejoin="round"/>
</svg>
