<svg xmlns="http://www.w3.org/2000/svg" width="32" height="32" viewBox="0 0 32 32" fill="none">
  <path opacity="0.2" d="M4.13848 9.32617C4.04778 9.48 3.99997 9.65532 4 9.83389V22.1642C4 22.3416 4.04721 22.5159 4.13679 22.669C4.22637 22.8222 4.35509 22.9488 4.50974 23.0358L15.5097 29.2233C15.6594 29.3075 15.8283 29.3517 16 29.3517L16.0013 29.3517L16.1186 15.999L4.1385 9.32619L4.13848 9.32617Z" fill="#0B63E5"/>
  <path d="M28 22.1643V9.83398C28 9.65655 27.9528 9.4823 27.8632 9.32914C27.7736 9.17597 27.6449 9.0494 27.4903 8.96241L16.4903 2.77491C16.3406 2.69071 16.1717 2.64648 16 2.64648C15.8283 2.64648 15.6594 2.69071 15.5097 2.77491L4.50974 8.96241C4.35509 9.0494 4.22637 9.17597 4.13679 9.32914C4.04721 9.4823 4 9.65655 4 9.83398V22.1643C4 22.3417 4.04721 22.516 4.13679 22.6691C4.22637 22.8223 4.35509 22.9489 4.50974 23.0359L15.5097 29.2234C15.6594 29.3076 15.8283 29.3518 16 29.3518C16.1717 29.3518 16.3406 29.3076 16.4903 29.2234L27.4903 23.0359C27.6449 22.9489 27.7736 22.8223 27.8632 22.6691C27.9528 22.516 28 22.3417 28 22.1643Z" stroke="#0B63E5" stroke-width="2" stroke-linecap="round" stroke-linejoin="round"/>
  <path d="M22.1278 19.0639V12.5639L10 5.875" stroke="#0B63E5" stroke-width="2" stroke-linecap="round" stroke-linejoin="round"/>
  <path d="M27.8623 9.32742L16.1188 15.999L4.13867 9.32617" stroke="#0B63E5" stroke-width="2" stroke-linecap="round" stroke-linejoin="round"/>
  <path d="M16.1193 16L16.002 29.3527" stroke="#0B63E5" stroke-width="2" stroke-linecap="round" stroke-linejoin="round"/>
</svg>