<svg width="60" height="60" viewBox="0 0 60 60" fill="none" xmlns="http://www.w3.org/2000/svg">
<rect width="60" height="60" rx="30" fill="#E6EEFC"/>
<path d="M42 22.887C41.7646 23.0089 41.4904 23.0324 41.2378 22.9522C40.9851 22.8721 40.7746 22.6948 40.6525 22.4595C39.698 20.5739 38.2532 18.9802 36.47 17.8458C36.3589 17.7757 36.2626 17.6844 36.1868 17.5771C36.1109 17.4698 36.057 17.3487 36.0279 17.2205C35.9989 17.0924 35.9954 16.9598 36.0177 16.8303C36.0399 16.7008 36.0874 16.5769 36.1575 16.4658C36.2276 16.3547 36.3189 16.2584 36.4262 16.1826C36.5335 16.1067 36.6546 16.0527 36.7828 16.0237C36.9109 15.9947 37.0435 15.9912 37.173 16.0134C37.3025 16.0357 37.4264 16.0832 37.5375 16.1533C39.6157 17.484 41.3033 19.3427 42.4275 21.5395C42.5494 21.7749 42.5728 22.0491 42.4927 22.3018C42.4125 22.5545 42.2353 22.765 42 22.887ZM18.4638 22.9995C18.647 22.9995 18.8266 22.9491 18.9831 22.8538C19.1396 22.7586 19.267 22.6222 19.3513 22.4595C20.3058 20.5739 21.7505 18.9802 23.5338 17.8458C23.6449 17.7757 23.7411 17.6844 23.817 17.5771C23.8928 17.4698 23.9468 17.3487 23.9758 17.2205C24.0048 17.0924 24.0083 16.9598 23.9861 16.8303C23.9639 16.7008 23.9163 16.5769 23.8463 16.4658C23.7762 16.3547 23.6849 16.2584 23.5776 16.1826C23.4703 16.1067 23.3491 16.0527 23.221 16.0237C23.0928 15.9947 22.9602 15.9912 22.8307 16.0134C22.7012 16.0357 22.5774 16.0832 22.4663 16.1533C20.388 17.484 18.7005 19.3427 17.5763 21.5395C17.4973 21.6919 17.4589 21.8621 17.4648 22.0336C17.4706 22.2052 17.5205 22.3723 17.6097 22.519C17.6988 22.6656 17.8242 22.7869 17.9738 22.8711C18.1234 22.9552 18.2921 22.9995 18.4638 22.9995ZM41.7262 35.992C41.9034 36.2958 41.9973 36.641 41.9985 36.9927C41.9997 37.3444 41.9082 37.6901 41.7331 37.9952C41.5581 38.3002 41.3056 38.5536 41.0014 38.73C40.6971 38.9063 40.3517 38.9993 40 38.9995H34.9C34.6705 40.1298 34.0573 41.146 33.1643 41.8759C32.2712 42.6058 31.1534 43.0046 30 43.0046C28.8466 43.0046 27.7288 42.6058 26.8357 41.8759C25.9427 41.146 25.3295 40.1298 25.1 38.9995H20C19.6485 38.9988 19.3034 38.9055 18.9995 38.729C18.6956 38.5525 18.4435 38.299 18.2688 37.9941C18.094 37.6891 18.0026 37.3435 18.004 36.9921C18.0053 36.6406 18.0992 36.2957 18.2763 35.992C19.4025 34.0483 20 31.2845 20 27.9995C20 25.3474 21.0536 22.8038 22.9289 20.9285C24.8043 19.0531 27.3478 17.9995 30 17.9995C32.6522 17.9995 35.1957 19.0531 37.0711 20.9285C38.9464 22.8038 40 25.3474 40 27.9995C40 31.2833 40.5975 34.047 41.7262 35.992ZM32.8275 38.9995H27.1725C27.3797 39.5838 27.7628 40.0895 28.2691 40.4472C28.7754 40.8049 29.3801 40.9969 30 40.9969C30.6199 40.9969 31.2246 40.8049 31.7309 40.4472C32.2372 40.0895 32.6203 39.5838 32.8275 38.9995ZM40 36.9995C38.67 34.7158 38 31.6883 38 27.9995C38 25.8778 37.1571 23.843 35.6569 22.3427C34.1566 20.8424 32.1217 19.9995 30 19.9995C27.8783 19.9995 25.8434 20.8424 24.3431 22.3427C22.8429 23.843 22 25.8778 22 27.9995C22 31.6895 21.3275 34.717 20 36.9995H40Z" fill="#0957DE"/>
</svg>
