<svg width="60" height="60" viewBox="0 0 60 60" fill="none" xmlns="http://www.w3.org/2000/svg">
<rect width="60" height="60" rx="30" fill="#E6EEFC"/>
<path d="M27 19H21C20.4696 19 19.9609 19.2107 19.5858 19.5858C19.2107 19.9609 19 20.4696 19 21V27C19 27.5304 19.2107 28.0391 19.5858 28.4142C19.9609 28.7893 20.4696 29 21 29H27C27.5304 29 28.0391 28.7893 28.4142 28.4142C28.7893 28.0391 29 27.5304 29 27V21C29 20.4696 28.7893 19.9609 28.4142 19.5858C28.0391 19.2107 27.5304 19 27 19ZM27 27H21V21H27V27ZM39 19H33C32.4696 19 31.9609 19.2107 31.5858 19.5858C31.2107 19.9609 31 20.4696 31 21V27C31 27.5304 31.2107 28.0391 31.5858 28.4142C31.9609 28.7893 32.4696 29 33 29H39C39.5304 29 40.0391 28.7893 40.4142 28.4142C40.7893 28.0391 41 27.5304 41 27V21C41 20.4696 40.7893 19.9609 40.4142 19.5858C40.0391 19.2107 39.5304 19 39 19ZM39 27H33V21H39V27ZM27 31H21C20.4696 31 19.9609 31.2107 19.5858 31.5858C19.2107 31.9609 19 32.4696 19 33V39C19 39.5304 19.2107 40.0391 19.5858 40.4142C19.9609 40.7893 20.4696 41 21 41H27C27.5304 41 28.0391 40.7893 28.4142 40.4142C28.7893 40.0391 29 39.5304 29 39V33C29 32.4696 28.7893 31.9609 28.4142 31.5858C28.0391 31.2107 27.5304 31 27 31ZM27 39H21V33H27V39ZM39 31H33C32.4696 31 31.9609 31.2107 31.5858 31.5858C31.2107 31.9609 31 32.4696 31 33V39C31 39.5304 31.2107 40.0391 31.5858 40.4142C31.9609 40.7893 32.4696 41 33 41H39C39.5304 41 40.0391 40.7893 40.4142 40.4142C40.7893 40.0391 41 39.5304 41 39V33C41 32.4696 40.7893 31.9609 40.4142 31.5858C40.0391 31.2107 39.5304 31 39 31ZM39 39H33V33H39V39Z" fill="#0957DE"/>
</svg>
