<svg xmlns="http://www.w3.org/2000/svg" width="52" height="52" viewBox="0 0 52 52" fill="none">
  <path d="M6.5 19.7382V32.2399C6.5 36.8332 6.5 36.8332 10.8333 39.7582L22.75 46.6482C24.5483 47.6882 27.4733 47.6882 29.25 46.6482L41.1667 39.7582C45.5 36.8332 45.5 36.8332 45.5 32.2615V19.7382C45.5 15.1665 45.5 15.1665 41.1667 12.2415L29.25 5.35153C27.4733 4.31153 24.5483 4.31153 22.75 5.35153L10.8333 12.2415C6.5 15.1665 6.5 15.1665 6.5 19.7382Z" stroke="#FFF" stroke-width="2.5" stroke-linecap="round" stroke-linejoin="round"/>
  <path d="M26 32.4998C29.5899 32.4998 32.5 29.5896 32.5 25.9998C32.5 22.4099 29.5899 19.4998 26 19.4998C22.4101 19.4998 19.5 22.4099 19.5 25.9998C19.5 29.5896 22.4101 32.4998 26 32.4998Z" stroke="#FFF" stroke-width="2.5" stroke-linecap="round" stroke-linejoin="round"/>
</svg>