<svg width="60" height="60" viewBox="0 0 60 60" fill="none" xmlns="http://www.w3.org/2000/svg">
<rect width="60" height="60" rx="30" fill="#E6EEFC"/>
<path d="M34.0001 19C31.9572 19.0016 29.955 19.5714 28.2175 20.6458C26.48 21.7202 25.0756 23.2568 24.1614 25.0837C23.0738 24.9251 21.9652 24.9923 20.9048 25.2811C19.8444 25.5699 18.8548 26.0741 17.9978 26.7622C17.1409 27.4504 16.4349 28.3077 15.924 29.2808C15.413 30.2538 15.108 31.3217 15.028 32.4179C14.9481 33.514 15.0948 34.6149 15.4591 35.6518C15.8234 36.6887 16.3975 37.6395 17.1455 38.4447C17.8935 39.2499 18.7994 39.8924 19.8067 40.3321C20.814 40.7717 21.9011 40.9991 23.0001 41H34.0001C36.9175 41 39.7154 39.8411 41.7783 37.7782C43.8412 35.7153 45.0001 32.9174 45.0001 30C45.0001 27.0826 43.8412 24.2847 41.7783 22.2218C39.7154 20.1589 36.9175 19 34.0001 19ZM34.0001 39H23.0001C21.4088 39 19.8827 38.3679 18.7575 37.2426C17.6323 36.1174 17.0001 34.5913 17.0001 33C17.0001 31.4087 17.6323 29.8826 18.7575 28.7574C19.8827 27.6321 21.4088 27 23.0001 27C23.1376 27 23.2751 27 23.4114 27.0138C23.1379 27.9856 22.9995 28.9904 23.0001 30C23.0001 30.2652 23.1055 30.5196 23.293 30.7071C23.4805 30.8946 23.7349 31 24.0001 31C24.2653 31 24.5197 30.8946 24.7072 30.7071C24.8948 30.5196 25.0001 30.2652 25.0001 30C25.0001 28.22 25.528 26.4799 26.5169 24.9999C27.5058 23.5198 28.9114 22.3663 30.556 21.6851C32.2005 21.0039 34.0101 20.8257 35.7559 21.1729C37.5018 21.5202 39.1054 22.3774 40.3641 23.636C41.6228 24.8947 42.4799 26.4984 42.8272 28.2442C43.1745 29.99 42.9962 31.7996 42.315 33.4442C41.6339 35.0887 40.4803 36.4943 39.0003 37.4832C37.5202 38.4722 35.7802 39 34.0001 39ZM38.7076 27.2925C38.8006 27.3854 38.8744 27.4957 38.9247 27.6171C38.975 27.7385 39.0009 27.8686 39.0009 28C39.0009 28.1314 38.975 28.2615 38.9247 28.3829C38.8744 28.5043 38.8006 28.6146 38.7076 28.7075L32.7076 34.7075C32.6147 34.8005 32.5045 34.8742 32.3831 34.9246C32.2617 34.9749 32.1315 35.0008 32.0001 35.0008C31.8687 35.0008 31.7386 34.9749 31.6172 34.9246C31.4958 34.8742 31.3855 34.8005 31.2926 34.7075L28.2926 31.7075C28.105 31.5199 27.9996 31.2654 27.9996 31C27.9996 30.7346 28.105 30.4801 28.2926 30.2925C28.4803 30.1049 28.7348 29.9994 29.0001 29.9994C29.2655 29.9994 29.52 30.1049 29.7076 30.2925L32.0001 32.5863L37.2926 27.2925C37.3855 27.1995 37.4958 27.1258 37.6172 27.0754C37.7386 27.0251 37.8687 26.9992 38.0001 26.9992C38.1315 26.9992 38.2617 27.0251 38.3831 27.0754C38.5045 27.1258 38.6147 27.1995 38.7076 27.2925Z" fill="#0957DE"/>
</svg>
