<svg width="621" height="521" viewBox="0 0 621 521" fill="none" xmlns="http://www.w3.org/2000/svg">
<g filter="url(#filter0_b_372_7189)">
<circle cx="295" cy="256" r="210" fill="white" fill-opacity="0.6"/>
</g>
<path d="M448.443 95.1603C447.027 94.1105 441.234 86.3124 440.712 86.1865M440.712 86.1865C440.267 86.0788 438.448 91.4299 436.774 96.7901M440.712 86.1865C448.989 107.924 430.019 124.108 415.373 135.425C397.656 149.113 381.97 156.166 366.537 166.168C343.88 180.853 316.005 202.353 317.934 227.992" stroke="#0B63E5" stroke-width="2" stroke-miterlimit="1.5" stroke-linecap="round" stroke-linejoin="round"/>
<path d="M530.201 322.422C529.93 320.68 531.282 311.06 530.999 310.604M530.999 310.604C530.758 310.215 525.705 312.747 520.749 315.387M530.999 310.604C521.627 331.892 496.756 330.091 478.381 327.862C456.156 325.166 440.035 319.17 422.024 315.453C395.582 309.996 360.639 305.727 344.006 325.334" stroke="#0B63E5" stroke-width="2" stroke-miterlimit="1.5" stroke-linecap="round" stroke-linejoin="round"/>
<path d="M328.024 487.758C329.54 486.858 338.972 484.531 339.289 484.099M339.289 484.099C339.561 483.73 335.33 479.983 331.034 476.366M339.289 484.099C316.043 483.326 308.454 459.573 303.682 441.689C297.91 420.057 297.472 402.864 294.217 384.764C289.437 358.191 280.39 324.171 255.999 316.034" stroke="#0B63E5" stroke-width="2" stroke-miterlimit="1.5" stroke-linecap="round" stroke-linejoin="round"/>
<path d="M102.208 396.705C103.467 397.938 108.138 406.456 108.638 406.653M108.638 406.653C109.064 406.82 111.599 401.769 113.991 396.688M108.638 406.653C103.416 383.987 124.424 370.553 140.482 361.349C159.906 350.216 176.411 345.378 193.068 337.583C217.523 326.141 248.079 308.661 249.68 282.999" stroke="#0B63E5" stroke-width="2" stroke-miterlimit="1.5" stroke-linecap="round" stroke-linejoin="round"/>
<path d="M163.523 76.5494C162.59 78.0454 155.284 84.4473 155.2 84.977M155.2 84.977C155.128 85.4297 160.608 86.8126 166.086 88.0503M155.2 84.977C176.201 74.9789 193.858 92.5864 206.316 106.275C221.385 122.834 229.677 137.902 240.888 152.481C257.346 173.883 281.018 199.939 306.419 195.955" stroke="#0B63E5" stroke-width="2" stroke-miterlimit="1.5" stroke-linecap="round" stroke-linejoin="round"/>
<circle cx="295" cy="256" r="112" fill="#0B63E5"/>
<path d="M248.479 226.288C247.359 226.288 246.319 226.08 245.359 225.664C244.399 225.232 243.583 224.648 242.911 223.912C242.239 223.176 241.743 222.328 241.423 221.368L243.823 220.36C244.255 221.464 244.887 222.312 245.719 222.904C246.551 223.496 247.511 223.792 248.599 223.792C249.239 223.792 249.799 223.696 250.279 223.504C250.759 223.296 251.127 223.008 251.383 222.64C251.655 222.272 251.791 221.848 251.791 221.368C251.791 220.712 251.607 220.192 251.239 219.808C250.871 219.424 250.327 219.12 249.607 218.896L246.247 217.84C244.903 217.424 243.879 216.792 243.175 215.944C242.471 215.08 242.119 214.072 242.119 212.92C242.119 211.912 242.367 211.032 242.863 210.28C243.359 209.512 244.039 208.912 244.903 208.48C245.783 208.048 246.783 207.832 247.903 207.832C248.975 207.832 249.951 208.024 250.831 208.408C251.711 208.776 252.463 209.288 253.087 209.944C253.727 210.6 254.191 211.36 254.479 212.224L252.127 213.256C251.775 212.312 251.223 211.584 250.471 211.072C249.735 210.56 248.879 210.304 247.903 210.304C247.311 210.304 246.791 210.408 246.343 210.616C245.895 210.808 245.543 211.096 245.287 211.48C245.047 211.848 244.927 212.28 244.927 212.776C244.927 213.352 245.111 213.864 245.479 214.312C245.847 214.76 246.407 215.096 247.159 215.32L250.279 216.304C251.703 216.736 252.775 217.36 253.495 218.176C254.215 218.976 254.575 219.976 254.575 221.176C254.575 222.168 254.311 223.048 253.783 223.816C253.271 224.584 252.559 225.192 251.647 225.64C250.735 226.072 249.679 226.288 248.479 226.288ZM263.754 226.288C262.506 226.288 261.362 225.992 260.322 225.4C259.298 224.808 258.482 224 257.874 222.976C257.266 221.952 256.962 220.792 256.962 219.496C256.962 218.184 257.266 217.024 257.874 216.016C258.482 214.992 259.298 214.192 260.322 213.616C261.346 213.024 262.49 212.728 263.754 212.728C265.034 212.728 266.178 213.024 267.186 213.616C268.21 214.192 269.018 214.992 269.61 216.016C270.218 217.024 270.522 218.184 270.522 219.496C270.522 220.808 270.218 221.976 269.61 223C269.002 224.024 268.186 224.832 267.162 225.424C266.138 226 265.002 226.288 263.754 226.288ZM263.754 223.768C264.522 223.768 265.202 223.584 265.794 223.216C266.386 222.848 266.85 222.344 267.186 221.704C267.538 221.048 267.714 220.312 267.714 219.496C267.714 218.68 267.538 217.952 267.186 217.312C266.85 216.672 266.386 216.168 265.794 215.8C265.202 215.432 264.522 215.248 263.754 215.248C263.002 215.248 262.322 215.432 261.714 215.8C261.122 216.168 260.65 216.672 260.298 217.312C259.962 217.952 259.794 218.68 259.794 219.496C259.794 220.312 259.962 221.048 260.298 221.704C260.65 222.344 261.122 222.848 261.714 223.216C262.322 223.584 263.002 223.768 263.754 223.768ZM274.282 226V215.464H271.882V213.016H274.282V212.344C274.282 211.368 274.482 210.552 274.882 209.896C275.282 209.224 275.834 208.712 276.538 208.36C277.258 208.008 278.082 207.832 279.01 207.832C279.186 207.832 279.386 207.848 279.61 207.88C279.834 207.896 280.018 207.92 280.162 207.952V210.304C280.034 210.272 279.89 210.256 279.73 210.256C279.57 210.24 279.442 210.232 279.346 210.232C278.626 210.232 278.05 210.4 277.618 210.736C277.186 211.056 276.97 211.592 276.97 212.344V213.016H279.946V215.464H276.97V226H274.282ZM288.559 226.144C287.199 226.144 286.143 225.76 285.391 224.992C284.639 224.224 284.263 223.144 284.263 221.752V215.464H281.983V213.016H282.343C282.951 213.016 283.423 212.84 283.759 212.488C284.095 212.136 284.263 211.656 284.263 211.048V210.04H286.975V213.016H289.927V215.464H286.975V221.632C286.975 222.08 287.047 222.464 287.191 222.784C287.335 223.088 287.567 223.328 287.887 223.504C288.207 223.664 288.623 223.744 289.135 223.744C289.263 223.744 289.407 223.736 289.567 223.72C289.727 223.704 289.879 223.688 290.023 223.672V226C289.799 226.032 289.551 226.064 289.279 226.096C289.007 226.128 288.767 226.144 288.559 226.144ZM295.814 226L291.35 213.016H294.23L297.638 223.36H296.63L300.11 213.016H302.582L306.038 223.36H305.03L308.462 213.016H311.342L306.854 226H304.406L300.902 215.416H301.79L298.286 226H295.814ZM316.62 226.288C315.74 226.288 314.964 226.136 314.292 225.832C313.636 225.512 313.124 225.08 312.756 224.536C312.388 223.976 312.204 223.32 312.204 222.568C312.204 221.864 312.356 221.232 312.66 220.672C312.98 220.112 313.468 219.64 314.124 219.256C314.78 218.872 315.604 218.6 316.596 218.44L321.108 217.696V219.832L317.124 220.528C316.404 220.656 315.876 220.888 315.54 221.224C315.204 221.544 315.036 221.96 315.036 222.472C315.036 222.968 315.22 223.376 315.588 223.696C315.972 224 316.46 224.152 317.052 224.152C317.788 224.152 318.428 223.992 318.972 223.672C319.532 223.352 319.964 222.928 320.268 222.4C320.572 221.856 320.724 221.256 320.724 220.6V217.264C320.724 216.624 320.484 216.104 320.004 215.704C319.54 215.288 318.916 215.08 318.132 215.08C317.412 215.08 316.78 215.272 316.236 215.656C315.708 216.024 315.316 216.504 315.06 217.096L312.804 215.968C313.044 215.328 313.436 214.768 313.98 214.288C314.524 213.792 315.156 213.408 315.876 213.136C316.612 212.864 317.388 212.728 318.204 212.728C319.228 212.728 320.132 212.92 320.916 213.304C321.716 213.688 322.332 214.224 322.764 214.912C323.212 215.584 323.436 216.368 323.436 217.264V226H320.844V223.648L321.396 223.72C321.092 224.248 320.7 224.704 320.22 225.088C319.756 225.472 319.22 225.768 318.612 225.976C318.02 226.184 317.356 226.288 316.62 226.288ZM326.607 226V213.016H329.199V215.632L328.959 215.248C329.247 214.4 329.711 213.792 330.351 213.424C330.991 213.04 331.759 212.848 332.655 212.848H333.447V215.32H332.319C331.423 215.32 330.695 215.6 330.135 216.16C329.591 216.704 329.319 217.488 329.319 218.512V226H326.607ZM341.399 226.288C340.103 226.288 338.951 225.992 337.943 225.4C336.951 224.792 336.175 223.976 335.615 222.952C335.055 221.912 334.775 220.752 334.775 219.472C334.775 218.16 335.055 217 335.615 215.992C336.191 214.984 336.959 214.192 337.919 213.616C338.879 213.024 339.967 212.728 341.183 212.728C342.159 212.728 343.031 212.896 343.799 213.232C344.567 213.568 345.215 214.032 345.743 214.624C346.271 215.2 346.671 215.864 346.943 216.616C347.231 217.368 347.375 218.168 347.375 219.016C347.375 219.224 347.367 219.44 347.351 219.664C347.335 219.888 347.303 220.096 347.255 220.288H336.911V218.128H345.719L344.423 219.112C344.583 218.328 344.527 217.632 344.255 217.024C343.999 216.4 343.599 215.912 343.055 215.56C342.527 215.192 341.903 215.008 341.183 215.008C340.463 215.008 339.823 215.192 339.263 215.56C338.703 215.912 338.271 216.424 337.967 217.096C337.663 217.752 337.543 218.552 337.607 219.496C337.527 220.376 337.647 221.144 337.967 221.8C338.303 222.456 338.767 222.968 339.359 223.336C339.967 223.704 340.655 223.888 341.423 223.888C342.207 223.888 342.871 223.712 343.415 223.36C343.975 223.008 344.415 222.552 344.735 221.992L346.943 223.072C346.687 223.68 346.287 224.232 345.743 224.728C345.215 225.208 344.575 225.592 343.823 225.88C343.087 226.152 342.279 226.288 341.399 226.288ZM217.172 266V248.12H223.028C224.884 248.12 226.492 248.496 227.852 249.248C229.228 249.984 230.292 251.024 231.044 252.368C231.796 253.712 232.172 255.272 232.172 257.048C232.172 258.808 231.796 260.368 231.044 261.728C230.292 263.072 229.228 264.12 227.852 264.872C226.492 265.624 224.884 266 223.028 266H217.172ZM220.004 263.48H223.076C224.34 263.48 225.436 263.216 226.364 262.688C227.308 262.16 228.036 261.416 228.548 260.456C229.06 259.496 229.316 258.36 229.316 257.048C229.316 255.736 229.052 254.608 228.524 253.664C228.012 252.704 227.292 251.96 226.364 251.432C225.436 250.904 224.34 250.64 223.076 250.64H220.004V263.48ZM240.793 266.288C239.497 266.288 238.345 265.992 237.337 265.4C236.345 264.792 235.569 263.976 235.009 262.952C234.449 261.912 234.169 260.752 234.169 259.472C234.169 258.16 234.449 257 235.009 255.992C235.585 254.984 236.353 254.192 237.313 253.616C238.273 253.024 239.361 252.728 240.577 252.728C241.553 252.728 242.425 252.896 243.193 253.232C243.961 253.568 244.609 254.032 245.137 254.624C245.665 255.2 246.065 255.864 246.337 256.616C246.625 257.368 246.769 258.168 246.769 259.016C246.769 259.224 246.761 259.44 246.745 259.664C246.729 259.888 246.697 260.096 246.649 260.288H236.305V258.128H245.113L243.817 259.112C243.977 258.328 243.921 257.632 243.649 257.024C243.393 256.4 242.993 255.912 242.449 255.56C241.921 255.192 241.297 255.008 240.577 255.008C239.857 255.008 239.217 255.192 238.657 255.56C238.097 255.912 237.665 256.424 237.361 257.096C237.057 257.752 236.937 258.552 237.001 259.496C236.921 260.376 237.041 261.144 237.361 261.8C237.697 262.456 238.161 262.968 238.753 263.336C239.361 263.704 240.049 263.888 240.817 263.888C241.601 263.888 242.265 263.712 242.809 263.36C243.369 263.008 243.809 262.552 244.129 261.992L246.337 263.072C246.081 263.68 245.681 264.232 245.137 264.728C244.609 265.208 243.969 265.592 243.217 265.88C242.481 266.152 241.673 266.288 240.793 266.288ZM252.95 266L247.862 253.016H250.814L254.726 263.6H253.646L257.558 253.016H260.534L255.422 266H252.95ZM268.239 266.288C266.943 266.288 265.791 265.992 264.783 265.4C263.791 264.792 263.015 263.976 262.455 262.952C261.895 261.912 261.615 260.752 261.615 259.472C261.615 258.16 261.895 257 262.455 255.992C263.031 254.984 263.799 254.192 264.759 253.616C265.719 253.024 266.807 252.728 268.023 252.728C268.999 252.728 269.871 252.896 270.639 253.232C271.407 253.568 272.055 254.032 272.583 254.624C273.111 255.2 273.511 255.864 273.783 256.616C274.071 257.368 274.215 258.168 274.215 259.016C274.215 259.224 274.207 259.44 274.191 259.664C274.175 259.888 274.143 260.096 274.095 260.288H263.751V258.128H272.559L271.263 259.112C271.423 258.328 271.367 257.632 271.095 257.024C270.839 256.4 270.439 255.912 269.895 255.56C269.367 255.192 268.743 255.008 268.023 255.008C267.303 255.008 266.663 255.192 266.103 255.56C265.543 255.912 265.111 256.424 264.807 257.096C264.503 257.752 264.383 258.552 264.447 259.496C264.367 260.376 264.487 261.144 264.807 261.8C265.143 262.456 265.607 262.968 266.199 263.336C266.807 263.704 267.495 263.888 268.263 263.888C269.047 263.888 269.711 263.712 270.255 263.36C270.815 263.008 271.255 262.552 271.575 261.992L273.783 263.072C273.527 263.68 273.127 264.232 272.583 264.728C272.055 265.208 271.415 265.592 270.663 265.88C269.927 266.152 269.119 266.288 268.239 266.288ZM276.861 266V247.832H279.573V266H276.861ZM289.008 266.288C287.76 266.288 286.616 265.992 285.576 265.4C284.552 264.808 283.736 264 283.128 262.976C282.52 261.952 282.216 260.792 282.216 259.496C282.216 258.184 282.52 257.024 283.128 256.016C283.736 254.992 284.552 254.192 285.576 253.616C286.6 253.024 287.744 252.728 289.008 252.728C290.288 252.728 291.432 253.024 292.44 253.616C293.464 254.192 294.272 254.992 294.864 256.016C295.472 257.024 295.776 258.184 295.776 259.496C295.776 260.808 295.472 261.976 294.864 263C294.256 264.024 293.44 264.832 292.416 265.424C291.392 266 290.256 266.288 289.008 266.288ZM289.008 263.768C289.776 263.768 290.456 263.584 291.048 263.216C291.64 262.848 292.104 262.344 292.44 261.704C292.792 261.048 292.968 260.312 292.968 259.496C292.968 258.68 292.792 257.952 292.44 257.312C292.104 256.672 291.64 256.168 291.048 255.8C290.456 255.432 289.776 255.248 289.008 255.248C288.256 255.248 287.576 255.432 286.968 255.8C286.376 256.168 285.904 256.672 285.552 257.312C285.216 257.952 285.048 258.68 285.048 259.496C285.048 260.312 285.216 261.048 285.552 261.704C285.904 262.344 286.376 262.848 286.968 263.216C287.576 263.584 288.256 263.768 289.008 263.768ZM298.424 270.8V253.016H301.016V255.704L300.704 255.08C301.184 254.344 301.824 253.768 302.624 253.352C303.424 252.936 304.336 252.728 305.36 252.728C306.592 252.728 307.696 253.024 308.672 253.616C309.664 254.208 310.44 255.016 311 256.04C311.576 257.064 311.864 258.216 311.864 259.496C311.864 260.776 311.576 261.928 311 262.952C310.44 263.976 309.672 264.792 308.696 265.4C307.72 265.992 306.608 266.288 305.36 266.288C304.352 266.288 303.432 266.08 302.6 265.664C301.784 265.248 301.152 264.648 300.704 263.864L301.136 263.36V270.8H298.424ZM305.096 263.768C305.864 263.768 306.544 263.584 307.136 263.216C307.728 262.848 308.192 262.344 308.528 261.704C308.88 261.048 309.056 260.312 309.056 259.496C309.056 258.68 308.88 257.952 308.528 257.312C308.192 256.672 307.728 256.168 307.136 255.8C306.544 255.432 305.864 255.248 305.096 255.248C304.344 255.248 303.664 255.432 303.056 255.8C302.464 256.168 301.992 256.672 301.64 257.312C301.304 257.952 301.136 258.68 301.136 259.496C301.136 260.312 301.304 261.048 301.64 261.704C301.992 262.344 302.464 262.848 303.056 263.216C303.664 263.584 304.344 263.768 305.096 263.768ZM314.502 266V253.016H317.094V255.824L316.758 255.392C317.03 254.512 317.526 253.848 318.246 253.4C318.966 252.952 319.79 252.728 320.718 252.728C321.758 252.728 322.678 253.008 323.478 253.568C324.294 254.112 324.838 254.84 325.11 255.752L324.342 255.824C324.726 254.784 325.31 254.008 326.094 253.496C326.894 252.984 327.806 252.728 328.83 252.728C329.726 252.728 330.534 252.936 331.254 253.352C331.99 253.768 332.574 254.344 333.006 255.08C333.438 255.816 333.654 256.656 333.654 257.6V266H330.942V258.344C330.942 257.688 330.822 257.136 330.582 256.688C330.358 256.224 330.038 255.872 329.622 255.632C329.222 255.376 328.75 255.248 328.206 255.248C327.662 255.248 327.182 255.376 326.766 255.632C326.35 255.872 326.022 256.224 325.782 256.688C325.542 257.152 325.422 257.704 325.422 258.344V266H322.734V258.344C322.734 257.688 322.614 257.136 322.374 256.688C322.15 256.224 321.83 255.872 321.414 255.632C321.014 255.376 320.534 255.248 319.974 255.248C319.43 255.248 318.95 255.376 318.534 255.632C318.118 255.872 317.79 256.224 317.55 256.688C317.326 257.152 317.214 257.704 317.214 258.344V266H314.502ZM342.653 266.288C341.357 266.288 340.205 265.992 339.197 265.4C338.205 264.792 337.429 263.976 336.869 262.952C336.309 261.912 336.029 260.752 336.029 259.472C336.029 258.16 336.309 257 336.869 255.992C337.445 254.984 338.213 254.192 339.173 253.616C340.133 253.024 341.221 252.728 342.437 252.728C343.413 252.728 344.285 252.896 345.053 253.232C345.821 253.568 346.469 254.032 346.997 254.624C347.525 255.2 347.925 255.864 348.197 256.616C348.485 257.368 348.629 258.168 348.629 259.016C348.629 259.224 348.621 259.44 348.605 259.664C348.589 259.888 348.557 260.096 348.509 260.288H338.165V258.128H346.973L345.677 259.112C345.837 258.328 345.781 257.632 345.509 257.024C345.253 256.4 344.853 255.912 344.309 255.56C343.781 255.192 343.157 255.008 342.437 255.008C341.717 255.008 341.077 255.192 340.517 255.56C339.957 255.912 339.525 256.424 339.221 257.096C338.917 257.752 338.797 258.552 338.861 259.496C338.781 260.376 338.901 261.144 339.221 261.8C339.557 262.456 340.021 262.968 340.613 263.336C341.221 263.704 341.909 263.888 342.677 263.888C343.461 263.888 344.125 263.712 344.669 263.36C345.229 263.008 345.669 262.552 345.989 261.992L348.197 263.072C347.941 263.68 347.541 264.232 346.997 264.728C346.469 265.208 345.829 265.592 345.077 265.88C344.341 266.152 343.533 266.288 342.653 266.288ZM351.275 266V253.016H353.867V255.56L353.555 255.224C353.875 254.408 354.387 253.792 355.091 253.376C355.795 252.944 356.611 252.728 357.539 252.728C358.499 252.728 359.347 252.936 360.083 253.352C360.819 253.768 361.395 254.344 361.811 255.08C362.227 255.816 362.435 256.664 362.435 257.624V266H359.747V258.344C359.747 257.688 359.627 257.136 359.387 256.688C359.147 256.224 358.803 255.872 358.355 255.632C357.923 255.376 357.427 255.248 356.867 255.248C356.307 255.248 355.803 255.376 355.355 255.632C354.923 255.872 354.587 256.224 354.347 256.688C354.107 257.152 353.987 257.704 353.987 258.344V266H351.275ZM370.954 266.144C369.594 266.144 368.538 265.76 367.786 264.992C367.034 264.224 366.658 263.144 366.658 261.752V255.464H364.378V253.016H364.738C365.346 253.016 365.818 252.84 366.154 252.488C366.49 252.136 366.658 251.656 366.658 251.048V250.04H369.37V253.016H372.322V255.464H369.37V261.632C369.37 262.08 369.442 262.464 369.586 262.784C369.73 263.088 369.962 263.328 370.282 263.504C370.602 263.664 371.018 263.744 371.53 263.744C371.658 263.744 371.802 263.736 371.962 263.72C372.122 263.704 372.274 263.688 372.418 263.672V266C372.194 266.032 371.946 266.064 371.674 266.096C371.402 266.128 371.162 266.144 370.954 266.144ZM270.707 306V290.64H265.955V288.12H278.195V290.64H273.515V306H270.707ZM284.457 306.288C283.161 306.288 282.009 305.992 281.001 305.4C280.009 304.792 279.233 303.976 278.673 302.952C278.113 301.912 277.833 300.752 277.833 299.472C277.833 298.16 278.113 297 278.673 295.992C279.249 294.984 280.017 294.192 280.977 293.616C281.937 293.024 283.025 292.728 284.241 292.728C285.217 292.728 286.089 292.896 286.857 293.232C287.625 293.568 288.273 294.032 288.801 294.624C289.329 295.2 289.729 295.864 290.001 296.616C290.289 297.368 290.433 298.168 290.433 299.016C290.433 299.224 290.425 299.44 290.409 299.664C290.393 299.888 290.361 300.096 290.313 300.288H279.969V298.128H288.777L287.481 299.112C287.641 298.328 287.585 297.632 287.313 297.024C287.057 296.4 286.657 295.912 286.113 295.56C285.585 295.192 284.961 295.008 284.241 295.008C283.521 295.008 282.881 295.192 282.321 295.56C281.761 295.912 281.329 296.424 281.025 297.096C280.721 297.752 280.601 298.552 280.665 299.496C280.585 300.376 280.705 301.144 281.025 301.8C281.361 302.456 281.825 302.968 282.417 303.336C283.025 303.704 283.713 303.888 284.481 303.888C285.265 303.888 285.929 303.712 286.473 303.36C287.033 303.008 287.473 302.552 287.793 301.992L290.001 303.072C289.745 303.68 289.345 304.232 288.801 304.728C288.273 305.208 287.633 305.592 286.881 305.88C286.145 306.152 285.337 306.288 284.457 306.288ZM296.851 306.288C295.971 306.288 295.195 306.136 294.523 305.832C293.867 305.512 293.355 305.08 292.987 304.536C292.619 303.976 292.435 303.32 292.435 302.568C292.435 301.864 292.587 301.232 292.891 300.672C293.211 300.112 293.699 299.64 294.355 299.256C295.011 298.872 295.835 298.6 296.827 298.44L301.339 297.696V299.832L297.355 300.528C296.635 300.656 296.107 300.888 295.771 301.224C295.435 301.544 295.267 301.96 295.267 302.472C295.267 302.968 295.451 303.376 295.819 303.696C296.203 304 296.691 304.152 297.283 304.152C298.019 304.152 298.659 303.992 299.203 303.672C299.763 303.352 300.195 302.928 300.499 302.4C300.803 301.856 300.955 301.256 300.955 300.6V297.264C300.955 296.624 300.715 296.104 300.235 295.704C299.771 295.288 299.147 295.08 298.363 295.08C297.643 295.08 297.011 295.272 296.467 295.656C295.939 296.024 295.547 296.504 295.291 297.096L293.035 295.968C293.275 295.328 293.667 294.768 294.211 294.288C294.755 293.792 295.387 293.408 296.107 293.136C296.843 292.864 297.619 292.728 298.435 292.728C299.459 292.728 300.363 292.92 301.147 293.304C301.947 293.688 302.563 294.224 302.995 294.912C303.443 295.584 303.667 296.368 303.667 297.264V306H301.075V303.648L301.627 303.72C301.323 304.248 300.931 304.704 300.451 305.088C299.987 305.472 299.451 305.768 298.843 305.976C298.251 306.184 297.587 306.288 296.851 306.288ZM306.838 306V293.016H309.43V295.824L309.094 295.392C309.366 294.512 309.862 293.848 310.582 293.4C311.302 292.952 312.126 292.728 313.054 292.728C314.094 292.728 315.014 293.008 315.814 293.568C316.63 294.112 317.174 294.84 317.446 295.752L316.678 295.824C317.062 294.784 317.646 294.008 318.43 293.496C319.23 292.984 320.142 292.728 321.166 292.728C322.062 292.728 322.87 292.936 323.59 293.352C324.326 293.768 324.91 294.344 325.342 295.08C325.774 295.816 325.99 296.656 325.99 297.6V306H323.278V298.344C323.278 297.688 323.158 297.136 322.918 296.688C322.694 296.224 322.374 295.872 321.958 295.632C321.558 295.376 321.086 295.248 320.542 295.248C319.998 295.248 319.518 295.376 319.102 295.632C318.686 295.872 318.358 296.224 318.118 296.688C317.878 297.152 317.758 297.704 317.758 298.344V306H315.07V298.344C315.07 297.688 314.95 297.136 314.71 296.688C314.486 296.224 314.166 295.872 313.75 295.632C313.35 295.376 312.87 295.248 312.31 295.248C311.766 295.248 311.286 295.376 310.87 295.632C310.454 295.872 310.126 296.224 309.886 296.688C309.662 297.152 309.55 297.704 309.55 298.344V306H306.838Z" fill="white"/>
<g filter="url(#filter1_b_372_7189)">
<rect y="52" width="148" height="80" rx="12" fill="white"/>
<path d="M40.8177 88V73.1H46.2377C47.2377 73.1 48.1177 73.2867 48.8777 73.66C49.6511 74.02 50.2511 74.5533 50.6777 75.26C51.1044 75.9533 51.3177 76.7867 51.3177 77.76C51.3177 78.72 51.0977 79.5467 50.6577 80.24C50.2311 80.9333 49.6377 81.4667 48.8777 81.84C48.1177 82.2133 47.2377 82.4 46.2377 82.4H43.1777V88H40.8177ZM43.1777 80.3H46.2977C46.8311 80.3 47.2977 80.1933 47.6977 79.98C48.0977 79.7667 48.4111 79.4733 48.6377 79.1C48.8644 78.7133 48.9777 78.26 48.9777 77.74C48.9777 77.22 48.8644 76.7733 48.6377 76.4C48.4111 76.0133 48.0977 75.72 47.6977 75.52C47.2977 75.3067 46.8311 75.2 46.2977 75.2H43.1777V80.3ZM53.3274 88V77.18H55.4874V79.36L55.2874 79.04C55.5274 78.3333 55.9141 77.8267 56.4474 77.52C56.9808 77.2 57.6208 77.04 58.3674 77.04H59.0274V79.1H58.0874C57.3408 79.1 56.7341 79.3333 56.2674 79.8C55.8141 80.2533 55.5874 80.9067 55.5874 81.76V88H53.3274ZM65.5935 88.24C64.5535 88.24 63.6002 87.9933 62.7335 87.5C61.8802 87.0067 61.2002 86.3333 60.6935 85.48C60.1868 84.6267 59.9335 83.66 59.9335 82.58C59.9335 81.4867 60.1868 80.52 60.6935 79.68C61.2002 78.8267 61.8802 78.16 62.7335 77.68C63.5868 77.1867 64.5402 76.94 65.5935 76.94C66.6602 76.94 67.6135 77.1867 68.4535 77.68C69.3068 78.16 69.9802 78.8267 70.4735 79.68C70.9802 80.52 71.2335 81.4867 71.2335 82.58C71.2335 83.6733 70.9802 84.6467 70.4735 85.5C69.9668 86.3533 69.2868 87.0267 68.4335 87.52C67.5802 88 66.6335 88.24 65.5935 88.24ZM65.5935 86.14C66.2335 86.14 66.8002 85.9867 67.2935 85.68C67.7868 85.3733 68.1735 84.9533 68.4535 84.42C68.7468 83.8733 68.8935 83.26 68.8935 82.58C68.8935 81.9 68.7468 81.2933 68.4535 80.76C68.1735 80.2267 67.7868 79.8067 67.2935 79.5C66.8002 79.1933 66.2335 79.04 65.5935 79.04C64.9668 79.04 64.4002 79.1933 63.8935 79.5C63.4002 79.8067 63.0068 80.2267 62.7135 80.76C62.4335 81.2933 62.2935 81.9 62.2935 82.58C62.2935 83.26 62.4335 83.8733 62.7135 84.42C63.0068 84.9533 63.4002 85.3733 63.8935 85.68C64.4002 85.9867 64.9668 86.14 65.5935 86.14ZM71.5799 92.42C71.4333 92.42 71.2733 92.4067 71.0999 92.38C70.9133 92.3667 70.7599 92.3467 70.6399 92.32V90.36C70.8933 90.4 71.1466 90.42 71.3999 90.42C71.9599 90.42 72.4066 90.2733 72.7399 89.98C73.0733 89.7 73.2399 89.2733 73.2399 88.7V77.18H75.4999V88.7C75.4999 89.4867 75.3333 90.16 74.9999 90.72C74.6666 91.28 74.2066 91.7 73.6199 91.98C73.0333 92.2733 72.3533 92.42 71.5799 92.42ZM73.2399 75.7V73.1H75.4999V75.7H73.2399ZM83.0223 88.24C81.9423 88.24 80.9823 87.9933 80.1423 87.5C79.3156 86.9933 78.6689 86.3133 78.2023 85.46C77.7356 84.5933 77.5023 83.6267 77.5023 82.56C77.5023 81.4667 77.7356 80.5 78.2023 79.66C78.6823 78.82 79.3223 78.16 80.1223 77.68C80.9223 77.1867 81.8289 76.94 82.8423 76.94C83.6556 76.94 84.3823 77.08 85.0223 77.36C85.6623 77.64 86.2023 78.0267 86.6423 78.52C87.0823 79 87.4156 79.5533 87.6423 80.18C87.8823 80.8067 88.0023 81.4733 88.0023 82.18C88.0023 82.3533 87.9956 82.5333 87.9823 82.72C87.9689 82.9067 87.9423 83.08 87.9023 83.24H79.2823V81.44H86.6223L85.5423 82.26C85.6756 81.6067 85.6289 81.0267 85.4023 80.52C85.1889 80 84.8556 79.5933 84.4023 79.3C83.9623 78.9933 83.4423 78.84 82.8423 78.84C82.2423 78.84 81.7089 78.9933 81.2423 79.3C80.7756 79.5933 80.4156 80.02 80.1623 80.58C79.9089 81.1267 79.8089 81.7933 79.8623 82.58C79.7956 83.3133 79.8956 83.9533 80.1623 84.5C80.4423 85.0467 80.8289 85.4733 81.3223 85.78C81.8289 86.0867 82.4023 86.24 83.0423 86.24C83.6956 86.24 84.2489 86.0933 84.7023 85.8C85.1689 85.5067 85.5356 85.1267 85.8023 84.66L87.6423 85.56C87.4289 86.0667 87.0956 86.5267 86.6423 86.94C86.2023 87.34 85.6689 87.66 85.0423 87.9C84.4289 88.1267 83.7556 88.24 83.0223 88.24ZM95.1479 88.24C94.0679 88.24 93.1079 87.9933 92.2679 87.5C91.4412 86.9933 90.7812 86.3133 90.2879 85.46C89.8079 84.6067 89.5679 83.64 89.5679 82.56C89.5679 81.4933 89.8079 80.5333 90.2879 79.68C90.7679 78.8267 91.4279 78.16 92.2679 77.68C93.1079 77.1867 94.0679 76.94 95.1479 76.94C95.8812 76.94 96.5679 77.0733 97.2079 77.34C97.8479 77.5933 98.4012 77.9467 98.8679 78.4C99.3479 78.8533 99.7012 79.38 99.9279 79.98L97.9479 80.9C97.7212 80.34 97.3546 79.8933 96.8479 79.56C96.3546 79.2133 95.7879 79.04 95.1479 79.04C94.5346 79.04 93.9812 79.1933 93.4879 79.5C93.0079 79.7933 92.6279 80.2133 92.3479 80.76C92.0679 81.2933 91.9279 81.9 91.9279 82.58C91.9279 83.26 92.0679 83.8733 92.3479 84.42C92.6279 84.9533 93.0079 85.3733 93.4879 85.68C93.9812 85.9867 94.5346 86.14 95.1479 86.14C95.8012 86.14 96.3679 85.9733 96.8479 85.64C97.3412 85.2933 97.7079 84.8333 97.9479 84.26L99.9279 85.2C99.7146 85.7733 99.3679 86.2933 98.8879 86.76C98.4212 87.2133 97.8679 87.5733 97.2279 87.84C96.5879 88.1067 95.8946 88.24 95.1479 88.24ZM106.617 88.12C105.483 88.12 104.603 87.8 103.977 87.16C103.35 86.52 103.037 85.62 103.037 84.46V79.22H101.137V77.18H101.437C101.943 77.18 102.337 77.0333 102.617 76.74C102.897 76.4467 103.037 76.0467 103.037 75.54V74.7H105.297V77.18H107.757V79.22H105.297V84.36C105.297 84.7333 105.357 85.0533 105.477 85.32C105.597 85.5733 105.79 85.7733 106.057 85.92C106.323 86.0533 106.67 86.12 107.097 86.12C107.203 86.12 107.323 86.1133 107.457 86.1C107.59 86.0867 107.717 86.0733 107.837 86.06V88C107.65 88.0267 107.443 88.0533 107.217 88.08C106.99 88.1067 106.79 88.12 106.617 88.12ZM33.7693 112V97.1H35.9693L41.5693 104.86H40.4693L45.9693 97.1H48.1693V112H45.8293V99.88L46.7093 100.12L41.0893 107.8H40.8493L35.3493 100.12L36.1293 99.88V112H33.7693ZM54.0698 112.24C53.3364 112.24 52.6898 112.113 52.1298 111.86C51.5831 111.593 51.1564 111.233 50.8498 110.78C50.5431 110.313 50.3898 109.767 50.3898 109.14C50.3898 108.553 50.5164 108.027 50.7698 107.56C51.0364 107.093 51.4431 106.7 51.9898 106.38C52.5364 106.06 53.2231 105.833 54.0498 105.7L57.8098 105.08V106.86L54.4898 107.44C53.8898 107.547 53.4498 107.74 53.1698 108.02C52.8898 108.287 52.7498 108.633 52.7498 109.06C52.7498 109.473 52.9031 109.813 53.2098 110.08C53.5298 110.333 53.9364 110.46 54.4298 110.46C55.0431 110.46 55.5764 110.327 56.0298 110.06C56.4964 109.793 56.8564 109.44 57.1098 109C57.3631 108.547 57.4898 108.047 57.4898 107.5V104.72C57.4898 104.187 57.2898 103.753 56.8898 103.42C56.5031 103.073 55.9831 102.9 55.3298 102.9C54.7298 102.9 54.2031 103.06 53.7498 103.38C53.3098 103.687 52.9831 104.087 52.7698 104.58L50.8898 103.64C51.0898 103.107 51.4164 102.64 51.8698 102.24C52.3231 101.827 52.8498 101.507 53.4498 101.28C54.0631 101.053 54.7098 100.94 55.3898 100.94C56.2431 100.94 56.9964 101.1 57.6498 101.42C58.3164 101.74 58.8298 102.187 59.1898 102.76C59.5631 103.32 59.7498 103.973 59.7498 104.72V112H57.5898V110.04L58.0498 110.1C57.7964 110.54 57.4698 110.92 57.0698 111.24C56.6831 111.56 56.2364 111.807 55.7298 111.98C55.2364 112.153 54.6831 112.24 54.0698 112.24ZM62.1923 112V101.18H64.3523V103.3L64.0923 103.02C64.3589 102.34 64.7856 101.827 65.3723 101.48C65.9589 101.12 66.6389 100.94 67.4123 100.94C68.2123 100.94 68.9189 101.113 69.5323 101.46C70.1456 101.807 70.6256 102.287 70.9723 102.9C71.3189 103.513 71.4923 104.22 71.4923 105.02V112H69.2523V105.62C69.2523 105.073 69.1523 104.613 68.9523 104.24C68.7523 103.853 68.4656 103.56 68.0923 103.36C67.7323 103.147 67.3189 103.04 66.8523 103.04C66.3856 103.04 65.9656 103.147 65.5923 103.36C65.2323 103.56 64.9523 103.853 64.7523 104.24C64.5523 104.627 64.4523 105.087 64.4523 105.62V112H62.1923ZM76.951 112.24C76.2177 112.24 75.571 112.113 75.011 111.86C74.4644 111.593 74.0377 111.233 73.731 110.78C73.4244 110.313 73.271 109.767 73.271 109.14C73.271 108.553 73.3977 108.027 73.651 107.56C73.9177 107.093 74.3244 106.7 74.871 106.38C75.4177 106.06 76.1044 105.833 76.931 105.7L80.691 105.08V106.86L77.371 107.44C76.771 107.547 76.331 107.74 76.051 108.02C75.771 108.287 75.631 108.633 75.631 109.06C75.631 109.473 75.7844 109.813 76.091 110.08C76.411 110.333 76.8177 110.46 77.311 110.46C77.9244 110.46 78.4577 110.327 78.911 110.06C79.3777 109.793 79.7377 109.44 79.991 109C80.2444 108.547 80.371 108.047 80.371 107.5V104.72C80.371 104.187 80.171 103.753 79.771 103.42C79.3844 103.073 78.8644 102.9 78.211 102.9C77.611 102.9 77.0844 103.06 76.631 103.38C76.191 103.687 75.8644 104.087 75.651 104.58L73.771 103.64C73.971 103.107 74.2977 102.64 74.751 102.24C75.2044 101.827 75.731 101.507 76.331 101.28C76.9444 101.053 77.591 100.94 78.271 100.94C79.1244 100.94 79.8777 101.1 80.531 101.42C81.1977 101.74 81.711 102.187 82.071 102.76C82.4444 103.32 82.631 103.973 82.631 104.72V112H80.471V110.04L80.931 110.1C80.6777 110.54 80.351 110.92 79.951 111.24C79.5644 111.56 79.1177 111.807 78.611 111.98C78.1177 112.153 77.5644 112.24 76.951 112.24ZM90.2935 116.4C89.5069 116.4 88.7802 116.273 88.1135 116.02C87.4469 115.767 86.8735 115.413 86.3935 114.96C85.9135 114.52 85.5535 114 85.3135 113.4L87.3935 112.54C87.5802 113.047 87.9202 113.467 88.4135 113.8C88.9202 114.133 89.5402 114.3 90.2735 114.3C90.8469 114.3 91.3602 114.187 91.8135 113.96C92.2669 113.747 92.6269 113.427 92.8935 113C93.1602 112.587 93.2935 112.087 93.2935 111.5V109.06L93.6935 109.52C93.3202 110.213 92.8002 110.74 92.1335 111.1C91.4802 111.46 90.7402 111.64 89.9135 111.64C88.9135 111.64 88.0135 111.407 87.2135 110.94C86.4135 110.473 85.7802 109.833 85.3135 109.02C84.8602 108.207 84.6335 107.293 84.6335 106.28C84.6335 105.253 84.8602 104.34 85.3135 103.54C85.7802 102.74 86.4069 102.107 87.1935 101.64C87.9802 101.173 88.8802 100.94 89.8935 100.94C90.7202 100.94 91.4535 101.12 92.0935 101.48C92.7469 101.827 93.2802 102.333 93.6935 103L93.3935 103.56V101.18H95.5335V111.5C95.5335 112.433 95.3069 113.267 94.8535 114C94.4135 114.747 93.8002 115.333 93.0135 115.76C92.2269 116.187 91.3202 116.4 90.2935 116.4ZM90.1735 109.54C90.7735 109.54 91.3069 109.4 91.7735 109.12C92.2402 108.827 92.6069 108.44 92.8735 107.96C93.1535 107.467 93.2935 106.913 93.2935 106.3C93.2935 105.687 93.1535 105.133 92.8735 104.64C92.5935 104.147 92.2202 103.76 91.7535 103.48C91.2869 103.187 90.7602 103.04 90.1735 103.04C89.5602 103.04 89.0135 103.187 88.5335 103.48C88.0535 103.76 87.6735 104.147 87.3935 104.64C87.1269 105.12 86.9935 105.673 86.9935 106.3C86.9935 106.9 87.1269 107.447 87.3935 107.94C87.6735 108.433 88.0535 108.827 88.5335 109.12C89.0135 109.4 89.5602 109.54 90.1735 109.54ZM103.059 112.24C101.979 112.24 101.019 111.993 100.179 111.5C99.3523 110.993 98.7056 110.313 98.239 109.46C97.7723 108.593 97.539 107.627 97.539 106.56C97.539 105.467 97.7723 104.5 98.239 103.66C98.719 102.82 99.359 102.16 100.159 101.68C100.959 101.187 101.866 100.94 102.879 100.94C103.692 100.94 104.419 101.08 105.059 101.36C105.699 101.64 106.239 102.027 106.679 102.52C107.119 103 107.452 103.553 107.679 104.18C107.919 104.807 108.039 105.473 108.039 106.18C108.039 106.353 108.032 106.533 108.019 106.72C108.006 106.907 107.979 107.08 107.939 107.24H99.319V105.44H106.659L105.579 106.26C105.712 105.607 105.666 105.027 105.439 104.52C105.226 104 104.892 103.593 104.439 103.3C103.999 102.993 103.479 102.84 102.879 102.84C102.279 102.84 101.746 102.993 101.279 103.3C100.812 103.593 100.452 104.02 100.199 104.58C99.9456 105.127 99.8456 105.793 99.899 106.58C99.8323 107.313 99.9323 107.953 100.199 108.5C100.479 109.047 100.866 109.473 101.359 109.78C101.866 110.087 102.439 110.24 103.079 110.24C103.732 110.24 104.286 110.093 104.739 109.8C105.206 109.507 105.572 109.127 105.839 108.66L107.679 109.56C107.466 110.067 107.132 110.527 106.679 110.94C106.239 111.34 105.706 111.66 105.079 111.9C104.466 112.127 103.792 112.24 103.059 112.24ZM110.045 112V101.18H112.205V103.36L112.005 103.04C112.245 102.333 112.631 101.827 113.165 101.52C113.698 101.2 114.338 101.04 115.085 101.04H115.745V103.1H114.805C114.058 103.1 113.451 103.333 112.985 103.8C112.531 104.253 112.305 104.907 112.305 105.76V112H110.045Z" fill="#0B63E5"/>
</g>
<g filter="url(#filter2_b_372_7189)">
<rect x="365" width="148" height="80" rx="12" fill="white"/>
<path d="M398.662 36V21.1H404.942C405.875 21.1 406.682 21.2667 407.362 21.6C408.042 21.92 408.562 22.3867 408.922 23C409.282 23.6 409.462 24.3133 409.462 25.14C409.462 25.86 409.275 26.52 408.902 27.12C408.542 27.7067 407.975 28.1733 407.202 28.52V27.52C407.882 27.7867 408.435 28.1267 408.862 28.54C409.289 28.94 409.595 29.3933 409.782 29.9C409.982 30.4067 410.082 30.94 410.082 31.5C410.082 32.9 409.622 34 408.702 34.8C407.795 35.6 406.549 36 404.962 36H398.662ZM401.022 33.9H405.142C405.929 33.9 406.555 33.6867 407.022 33.26C407.489 32.82 407.722 32.24 407.722 31.52C407.722 30.7867 407.489 30.2067 407.022 29.78C406.555 29.34 405.929 29.12 405.142 29.12H401.022V33.9ZM401.022 27.04H405.002C405.642 27.04 406.155 26.86 406.542 26.5C406.929 26.1267 407.122 25.64 407.122 25.04C407.122 24.44 406.929 23.9733 406.542 23.64C406.155 23.3067 405.642 23.14 405.002 23.14H401.022V27.04ZM415.95 36.24C415.136 36.24 414.423 36.06 413.81 35.7C413.196 35.3267 412.716 34.8133 412.37 34.16C412.036 33.4933 411.87 32.7267 411.87 31.86V25.18H414.13V31.66C414.13 32.1533 414.23 32.5867 414.43 32.96C414.63 33.3333 414.91 33.6267 415.27 33.84C415.63 34.04 416.043 34.14 416.51 34.14C416.99 34.14 417.41 34.0333 417.77 33.82C418.13 33.6067 418.41 33.3067 418.61 32.92C418.823 32.5333 418.93 32.08 418.93 31.56V25.18H421.17V36H419.03V33.88L419.27 34.16C419.016 34.8267 418.596 35.34 418.01 35.7C417.423 36.06 416.736 36.24 415.95 36.24ZM427.608 36.24C426.502 36.24 425.528 35.9667 424.688 35.42C423.862 34.8733 423.282 34.14 422.948 33.22L424.688 32.4C424.982 33.0133 425.382 33.5 425.888 33.86C426.408 34.22 426.982 34.4 427.608 34.4C428.142 34.4 428.575 34.28 428.908 34.04C429.242 33.8 429.408 33.4733 429.408 33.06C429.408 32.7933 429.335 32.58 429.188 32.42C429.042 32.2467 428.855 32.1067 428.628 32C428.415 31.8933 428.195 31.8133 427.968 31.76L426.268 31.28C425.335 31.0133 424.635 30.6133 424.168 30.08C423.715 29.5333 423.488 28.9 423.488 28.18C423.488 27.5267 423.655 26.96 423.988 26.48C424.322 25.9867 424.782 25.6067 425.368 25.34C425.955 25.0733 426.615 24.94 427.348 24.94C428.335 24.94 429.215 25.1867 429.988 25.68C430.762 26.16 431.308 26.8333 431.628 27.7L429.888 28.52C429.675 28 429.335 27.5867 428.868 27.28C428.415 26.9733 427.902 26.82 427.328 26.82C426.835 26.82 426.442 26.94 426.148 27.18C425.855 27.4067 425.708 27.7067 425.708 28.08C425.708 28.3333 425.775 28.5467 425.908 28.72C426.042 28.88 426.215 29.0133 426.428 29.12C426.642 29.2133 426.862 29.2933 427.088 29.36L428.848 29.88C429.742 30.1333 430.428 30.5333 430.908 31.08C431.388 31.6133 431.628 32.2533 431.628 33C431.628 33.64 431.455 34.2067 431.108 34.7C430.775 35.18 430.308 35.56 429.708 35.84C429.108 36.1067 428.408 36.24 427.608 36.24ZM433.643 36V25.18H435.903V36H433.643ZM433.643 23.7V21.1H435.903V23.7H433.643ZM438.345 36V25.18H440.505V27.3L440.245 27.02C440.512 26.34 440.938 25.8267 441.525 25.48C442.112 25.12 442.792 24.94 443.565 24.94C444.365 24.94 445.072 25.1133 445.685 25.46C446.298 25.8067 446.778 26.2867 447.125 26.9C447.472 27.5133 447.645 28.22 447.645 29.02V36H445.405V29.62C445.405 29.0733 445.305 28.6133 445.105 28.24C444.905 27.8533 444.618 27.56 444.245 27.36C443.885 27.1467 443.472 27.04 443.005 27.04C442.538 27.04 442.118 27.1467 441.745 27.36C441.385 27.56 441.105 27.8533 440.905 28.24C440.705 28.6267 440.605 29.0867 440.605 29.62V36H438.345ZM454.944 36.24C453.864 36.24 452.904 35.9933 452.064 35.5C451.237 34.9933 450.59 34.3133 450.124 33.46C449.657 32.5933 449.424 31.6267 449.424 30.56C449.424 29.4667 449.657 28.5 450.124 27.66C450.604 26.82 451.244 26.16 452.044 25.68C452.844 25.1867 453.75 24.94 454.764 24.94C455.577 24.94 456.304 25.08 456.944 25.36C457.584 25.64 458.124 26.0267 458.564 26.52C459.004 27 459.337 27.5533 459.564 28.18C459.804 28.8067 459.924 29.4733 459.924 30.18C459.924 30.3533 459.917 30.5333 459.904 30.72C459.89 30.9067 459.864 31.08 459.824 31.24H451.204V29.44H458.544L457.464 30.26C457.597 29.6067 457.55 29.0267 457.324 28.52C457.11 28 456.777 27.5933 456.324 27.3C455.884 26.9933 455.364 26.84 454.764 26.84C454.164 26.84 453.63 26.9933 453.164 27.3C452.697 27.5933 452.337 28.02 452.084 28.58C451.83 29.1267 451.73 29.7933 451.784 30.58C451.717 31.3133 451.817 31.9533 452.084 32.5C452.364 33.0467 452.75 33.4733 453.244 33.78C453.75 34.0867 454.324 34.24 454.964 34.24C455.617 34.24 456.17 34.0933 456.624 33.8C457.09 33.5067 457.457 33.1267 457.724 32.66L459.564 33.56C459.35 34.0667 459.017 34.5267 458.564 34.94C458.124 35.34 457.59 35.66 456.964 35.9C456.35 36.1267 455.677 36.24 454.944 36.24ZM465.929 36.24C464.823 36.24 463.849 35.9667 463.009 35.42C462.183 34.8733 461.603 34.14 461.269 33.22L463.009 32.4C463.303 33.0133 463.703 33.5 464.209 33.86C464.729 34.22 465.303 34.4 465.929 34.4C466.463 34.4 466.896 34.28 467.229 34.04C467.563 33.8 467.729 33.4733 467.729 33.06C467.729 32.7933 467.656 32.58 467.509 32.42C467.363 32.2467 467.176 32.1067 466.949 32C466.736 31.8933 466.516 31.8133 466.289 31.76L464.589 31.28C463.656 31.0133 462.956 30.6133 462.489 30.08C462.036 29.5333 461.809 28.9 461.809 28.18C461.809 27.5267 461.976 26.96 462.309 26.48C462.643 25.9867 463.103 25.6067 463.689 25.34C464.276 25.0733 464.936 24.94 465.669 24.94C466.656 24.94 467.536 25.1867 468.309 25.68C469.083 26.16 469.629 26.8333 469.949 27.7L468.209 28.52C467.996 28 467.656 27.5867 467.189 27.28C466.736 26.9733 466.223 26.82 465.649 26.82C465.156 26.82 464.763 26.94 464.469 27.18C464.176 27.4067 464.029 27.7067 464.029 28.08C464.029 28.3333 464.096 28.5467 464.229 28.72C464.363 28.88 464.536 29.0133 464.749 29.12C464.963 29.2133 465.183 29.2933 465.409 29.36L467.169 29.88C468.063 30.1333 468.749 30.5333 469.229 31.08C469.709 31.6133 469.949 32.2533 469.949 33C469.949 33.64 469.776 34.2067 469.429 34.7C469.096 35.18 468.629 35.56 468.029 35.84C467.429 36.1067 466.729 36.24 465.929 36.24ZM475.964 36.24C474.857 36.24 473.884 35.9667 473.044 35.42C472.217 34.8733 471.637 34.14 471.304 33.22L473.044 32.4C473.337 33.0133 473.737 33.5 474.244 33.86C474.764 34.22 475.337 34.4 475.964 34.4C476.497 34.4 476.93 34.28 477.264 34.04C477.597 33.8 477.764 33.4733 477.764 33.06C477.764 32.7933 477.69 32.58 477.544 32.42C477.397 32.2467 477.21 32.1067 476.984 32C476.77 31.8933 476.55 31.8133 476.324 31.76L474.624 31.28C473.69 31.0133 472.99 30.6133 472.524 30.08C472.07 29.5333 471.844 28.9 471.844 28.18C471.844 27.5267 472.01 26.96 472.344 26.48C472.677 25.9867 473.137 25.6067 473.724 25.34C474.31 25.0733 474.97 24.94 475.704 24.94C476.69 24.94 477.57 25.1867 478.344 25.68C479.117 26.16 479.664 26.8333 479.984 27.7L478.244 28.52C478.03 28 477.69 27.5867 477.224 27.28C476.77 26.9733 476.257 26.82 475.684 26.82C475.19 26.82 474.797 26.94 474.504 27.18C474.21 27.4067 474.064 27.7067 474.064 28.08C474.064 28.3333 474.13 28.5467 474.264 28.72C474.397 28.88 474.57 29.0133 474.784 29.12C474.997 29.2133 475.217 29.2933 475.444 29.36L477.204 29.88C478.097 30.1333 478.784 30.5333 479.264 31.08C479.744 31.6133 479.984 32.2533 479.984 33C479.984 33.64 479.81 34.2067 479.464 34.7C479.13 35.18 478.664 35.56 478.064 35.84C477.464 36.1067 476.764 36.24 475.964 36.24ZM398.924 60L404.164 45.1H407.084L412.324 60H409.804L408.664 56.66H402.604L401.444 60H398.924ZM403.284 54.56H407.944L405.304 46.76H405.964L403.284 54.56ZM413.672 60V49.18H415.832V51.3L415.572 51.02C415.838 50.34 416.265 49.8267 416.852 49.48C417.438 49.12 418.118 48.94 418.892 48.94C419.692 48.94 420.398 49.1133 421.012 49.46C421.625 49.8067 422.105 50.2867 422.452 50.9C422.798 51.5133 422.972 52.22 422.972 53.02V60H420.732V53.62C420.732 53.0733 420.632 52.6133 420.432 52.24C420.232 51.8533 419.945 51.56 419.572 51.36C419.212 51.1467 418.798 51.04 418.332 51.04C417.865 51.04 417.445 51.1467 417.072 51.36C416.712 51.56 416.432 51.8533 416.232 52.24C416.032 52.6267 415.932 53.0867 415.932 53.62V60H413.672ZM428.43 60.24C427.697 60.24 427.05 60.1133 426.49 59.86C425.944 59.5933 425.517 59.2333 425.21 58.78C424.904 58.3133 424.75 57.7667 424.75 57.14C424.75 56.5533 424.877 56.0267 425.13 55.56C425.397 55.0933 425.804 54.7 426.35 54.38C426.897 54.06 427.584 53.8333 428.41 53.7L432.17 53.08V54.86L428.85 55.44C428.25 55.5467 427.81 55.74 427.53 56.02C427.25 56.2867 427.11 56.6333 427.11 57.06C427.11 57.4733 427.264 57.8133 427.57 58.08C427.89 58.3333 428.297 58.46 428.79 58.46C429.404 58.46 429.937 58.3267 430.39 58.06C430.857 57.7933 431.217 57.44 431.47 57C431.724 56.5467 431.85 56.0467 431.85 55.5V52.72C431.85 52.1867 431.65 51.7533 431.25 51.42C430.864 51.0733 430.344 50.9 429.69 50.9C429.09 50.9 428.564 51.06 428.11 51.38C427.67 51.6867 427.344 52.0867 427.13 52.58L425.25 51.64C425.45 51.1067 425.777 50.64 426.23 50.24C426.684 49.8267 427.21 49.5067 427.81 49.28C428.424 49.0533 429.07 48.94 429.75 48.94C430.604 48.94 431.357 49.1 432.01 49.42C432.677 49.74 433.19 50.1867 433.55 50.76C433.924 51.32 434.11 51.9733 434.11 52.72V60H431.95V58.04L432.41 58.1C432.157 58.54 431.83 58.92 431.43 59.24C431.044 59.56 430.597 59.8067 430.09 59.98C429.597 60.1533 429.044 60.24 428.43 60.24ZM436.553 60V44.86H438.813V60H436.553ZM442.215 64.42C441.948 64.42 441.682 64.3933 441.415 64.34C441.162 64.3 440.928 64.2333 440.715 64.14V62.2C440.875 62.24 441.068 62.2733 441.295 62.3C441.522 62.34 441.742 62.36 441.955 62.36C442.582 62.36 443.042 62.22 443.335 61.94C443.642 61.6733 443.915 61.2533 444.155 60.68L444.875 59.04L444.835 60.94L440.155 49.18H442.575L446.035 58.2H445.215L448.655 49.18H451.095L446.315 61.18C446.062 61.82 445.742 62.38 445.355 62.86C444.982 63.3533 444.535 63.7333 444.015 64C443.508 64.28 442.908 64.42 442.215 64.42ZM456.442 60.24C455.335 60.24 454.362 59.9667 453.522 59.42C452.695 58.8733 452.115 58.14 451.782 57.22L453.522 56.4C453.815 57.0133 454.215 57.5 454.722 57.86C455.242 58.22 455.815 58.4 456.442 58.4C456.975 58.4 457.409 58.28 457.742 58.04C458.075 57.8 458.242 57.4733 458.242 57.06C458.242 56.7933 458.169 56.58 458.022 56.42C457.875 56.2467 457.689 56.1067 457.462 56C457.249 55.8933 457.029 55.8133 456.802 55.76L455.102 55.28C454.169 55.0133 453.469 54.6133 453.002 54.08C452.549 53.5333 452.322 52.9 452.322 52.18C452.322 51.5267 452.489 50.96 452.822 50.48C453.155 49.9867 453.615 49.6067 454.202 49.34C454.789 49.0733 455.449 48.94 456.182 48.94C457.169 48.94 458.049 49.1867 458.822 49.68C459.595 50.16 460.142 50.8333 460.462 51.7L458.722 52.52C458.509 52 458.169 51.5867 457.702 51.28C457.249 50.9733 456.735 50.82 456.162 50.82C455.669 50.82 455.275 50.94 454.982 51.18C454.689 51.4067 454.542 51.7067 454.542 52.08C454.542 52.3333 454.609 52.5467 454.742 52.72C454.875 52.88 455.049 53.0133 455.262 53.12C455.475 53.2133 455.695 53.2933 455.922 53.36L457.682 53.88C458.575 54.1333 459.262 54.5333 459.742 55.08C460.222 55.6133 460.462 56.2533 460.462 57C460.462 57.64 460.289 58.2067 459.942 58.7C459.609 59.18 459.142 59.56 458.542 59.84C457.942 60.1067 457.242 60.24 456.442 60.24ZM467.156 60.12C466.023 60.12 465.143 59.8 464.516 59.16C463.89 58.52 463.576 57.62 463.576 56.46V51.22H461.676V49.18H461.976C462.483 49.18 462.876 49.0333 463.156 48.74C463.436 48.4467 463.576 48.0467 463.576 47.54V46.7H465.836V49.18H468.296V51.22H465.836V56.36C465.836 56.7333 465.896 57.0533 466.016 57.32C466.136 57.5733 466.33 57.7733 466.596 57.92C466.863 58.0533 467.21 58.12 467.636 58.12C467.743 58.12 467.863 58.1133 467.996 58.1C468.13 58.0867 468.256 58.0733 468.376 58.06V60C468.19 60.0267 467.983 60.0533 467.756 60.08C467.53 60.1067 467.33 60.12 467.156 60.12ZM474.382 60.24C473.275 60.24 472.302 59.9667 471.462 59.42C470.635 58.8733 470.055 58.14 469.722 57.22L471.462 56.4C471.755 57.0133 472.155 57.5 472.662 57.86C473.182 58.22 473.755 58.4 474.382 58.4C474.915 58.4 475.348 58.28 475.682 58.04C476.015 57.8 476.182 57.4733 476.182 57.06C476.182 56.7933 476.108 56.58 475.962 56.42C475.815 56.2467 475.628 56.1067 475.402 56C475.188 55.8933 474.968 55.8133 474.742 55.76L473.042 55.28C472.108 55.0133 471.408 54.6133 470.942 54.08C470.488 53.5333 470.262 52.9 470.262 52.18C470.262 51.5267 470.428 50.96 470.762 50.48C471.095 49.9867 471.555 49.6067 472.142 49.34C472.728 49.0733 473.388 48.94 474.122 48.94C475.108 48.94 475.988 49.1867 476.762 49.68C477.535 50.16 478.082 50.8333 478.402 51.7L476.662 52.52C476.448 52 476.108 51.5867 475.642 51.28C475.188 50.9733 474.675 50.82 474.102 50.82C473.608 50.82 473.215 50.94 472.922 51.18C472.628 51.4067 472.482 51.7067 472.482 52.08C472.482 52.3333 472.548 52.5467 472.682 52.72C472.815 52.88 472.988 53.0133 473.202 53.12C473.415 53.2133 473.635 53.2933 473.862 53.36L475.622 53.88C476.515 54.1333 477.202 54.5333 477.682 55.08C478.162 55.6133 478.402 56.2533 478.402 57C478.402 57.64 478.228 58.2067 477.882 58.7C477.548 59.18 477.082 59.56 476.482 59.84C475.882 60.1067 475.182 60.24 474.382 60.24Z" fill="#0B63E5"/>
</g>
<g filter="url(#filter3_b_372_7189)">
<rect x="473" y="222" width="148" height="80" rx="12" fill="white"/>
<path d="M500.942 270V255.1H505.822C507.368 255.1 508.708 255.413 509.842 256.04C510.988 256.653 511.875 257.52 512.502 258.64C513.128 259.76 513.442 261.06 513.442 262.54C513.442 264.007 513.128 265.307 512.502 266.44C511.875 267.56 510.988 268.433 509.842 269.06C508.708 269.687 507.368 270 505.822 270H500.942ZM503.302 267.9H505.862C506.915 267.9 507.828 267.68 508.602 267.24C509.388 266.8 509.995 266.18 510.422 265.38C510.848 264.58 511.062 263.633 511.062 262.54C511.062 261.447 510.842 260.507 510.402 259.72C509.975 258.92 509.375 258.3 508.602 257.86C507.828 257.42 506.915 257.2 505.862 257.2H503.302V267.9ZM520.426 270.24C519.346 270.24 518.386 269.993 517.546 269.5C516.719 268.993 516.072 268.313 515.606 267.46C515.139 266.593 514.906 265.627 514.906 264.56C514.906 263.467 515.139 262.5 515.606 261.66C516.086 260.82 516.726 260.16 517.526 259.68C518.326 259.187 519.232 258.94 520.246 258.94C521.059 258.94 521.786 259.08 522.426 259.36C523.066 259.64 523.606 260.027 524.046 260.52C524.486 261 524.819 261.553 525.046 262.18C525.286 262.807 525.406 263.473 525.406 264.18C525.406 264.353 525.399 264.533 525.386 264.72C525.372 264.907 525.346 265.08 525.306 265.24H516.686V263.44H524.026L522.946 264.26C523.079 263.607 523.032 263.027 522.806 262.52C522.592 262 522.259 261.593 521.806 261.3C521.366 260.993 520.846 260.84 520.246 260.84C519.646 260.84 519.112 260.993 518.646 261.3C518.179 261.593 517.819 262.02 517.566 262.58C517.312 263.127 517.212 263.793 517.266 264.58C517.199 265.313 517.299 265.953 517.566 266.5C517.846 267.047 518.232 267.473 518.726 267.78C519.232 268.087 519.806 268.24 520.446 268.24C521.099 268.24 521.652 268.093 522.106 267.8C522.572 267.507 522.939 267.127 523.206 266.66L525.046 267.56C524.832 268.067 524.499 268.527 524.046 268.94C523.606 269.34 523.072 269.66 522.446 269.9C521.832 270.127 521.159 270.24 520.426 270.24ZM531.411 270.24C530.305 270.24 529.331 269.967 528.491 269.42C527.665 268.873 527.085 268.14 526.751 267.22L528.491 266.4C528.785 267.013 529.185 267.5 529.691 267.86C530.211 268.22 530.785 268.4 531.411 268.4C531.945 268.4 532.378 268.28 532.711 268.04C533.045 267.8 533.211 267.473 533.211 267.06C533.211 266.793 533.138 266.58 532.991 266.42C532.845 266.247 532.658 266.107 532.431 266C532.218 265.893 531.998 265.813 531.771 265.76L530.071 265.28C529.138 265.013 528.438 264.613 527.971 264.08C527.518 263.533 527.291 262.9 527.291 262.18C527.291 261.527 527.458 260.96 527.791 260.48C528.125 259.987 528.585 259.607 529.171 259.34C529.758 259.073 530.418 258.94 531.151 258.94C532.138 258.94 533.018 259.187 533.791 259.68C534.565 260.16 535.111 260.833 535.431 261.7L533.691 262.52C533.478 262 533.138 261.587 532.671 261.28C532.218 260.973 531.705 260.82 531.131 260.82C530.638 260.82 530.245 260.94 529.951 261.18C529.658 261.407 529.511 261.707 529.511 262.08C529.511 262.333 529.578 262.547 529.711 262.72C529.845 262.88 530.018 263.013 530.231 263.12C530.445 263.213 530.665 263.293 530.891 263.36L532.651 263.88C533.545 264.133 534.231 264.533 534.711 265.08C535.191 265.613 535.431 266.253 535.431 267C535.431 267.64 535.258 268.207 534.911 268.7C534.578 269.18 534.111 269.56 533.511 269.84C532.911 270.107 532.211 270.24 531.411 270.24ZM537.446 270V259.18H539.706V270H537.446ZM537.446 257.7V255.1H539.706V257.7H537.446ZM547.368 274.4C546.581 274.4 545.855 274.273 545.188 274.02C544.521 273.767 543.948 273.413 543.468 272.96C542.988 272.52 542.628 272 542.388 271.4L544.468 270.54C544.655 271.047 544.995 271.467 545.488 271.8C545.995 272.133 546.615 272.3 547.348 272.3C547.921 272.3 548.435 272.187 548.888 271.96C549.341 271.747 549.701 271.427 549.968 271C550.235 270.587 550.368 270.087 550.368 269.5V267.06L550.768 267.52C550.395 268.213 549.875 268.74 549.208 269.1C548.555 269.46 547.815 269.64 546.988 269.64C545.988 269.64 545.088 269.407 544.288 268.94C543.488 268.473 542.855 267.833 542.388 267.02C541.935 266.207 541.708 265.293 541.708 264.28C541.708 263.253 541.935 262.34 542.388 261.54C542.855 260.74 543.481 260.107 544.268 259.64C545.055 259.173 545.955 258.94 546.968 258.94C547.795 258.94 548.528 259.12 549.168 259.48C549.821 259.827 550.355 260.333 550.768 261L550.468 261.56V259.18H552.608V269.5C552.608 270.433 552.381 271.267 551.928 272C551.488 272.747 550.875 273.333 550.088 273.76C549.301 274.187 548.395 274.4 547.368 274.4ZM547.248 267.54C547.848 267.54 548.381 267.4 548.848 267.12C549.315 266.827 549.681 266.44 549.948 265.96C550.228 265.467 550.368 264.913 550.368 264.3C550.368 263.687 550.228 263.133 549.948 262.64C549.668 262.147 549.295 261.76 548.828 261.48C548.361 261.187 547.835 261.04 547.248 261.04C546.635 261.04 546.088 261.187 545.608 261.48C545.128 261.76 544.748 262.147 544.468 262.64C544.201 263.12 544.068 263.673 544.068 264.3C544.068 264.9 544.201 265.447 544.468 265.94C544.748 266.433 545.128 266.827 545.608 267.12C546.088 267.4 546.635 267.54 547.248 267.54ZM555.054 270V259.18H557.214V261.3L556.954 261.02C557.22 260.34 557.647 259.827 558.234 259.48C558.82 259.12 559.5 258.94 560.274 258.94C561.074 258.94 561.78 259.113 562.394 259.46C563.007 259.807 563.487 260.287 563.834 260.9C564.18 261.513 564.354 262.22 564.354 263.02V270H562.114V263.62C562.114 263.073 562.014 262.613 561.814 262.24C561.614 261.853 561.327 261.56 560.954 261.36C560.594 261.147 560.18 261.04 559.714 261.04C559.247 261.04 558.827 261.147 558.454 261.36C558.094 261.56 557.814 261.853 557.614 262.24C557.414 262.627 557.314 263.087 557.314 263.62V270H555.054ZM571.652 270.24C570.572 270.24 569.612 269.993 568.772 269.5C567.946 268.993 567.299 268.313 566.832 267.46C566.366 266.593 566.132 265.627 566.132 264.56C566.132 263.467 566.366 262.5 566.832 261.66C567.312 260.82 567.952 260.16 568.752 259.68C569.552 259.187 570.459 258.94 571.472 258.94C572.286 258.94 573.012 259.08 573.652 259.36C574.292 259.64 574.832 260.027 575.272 260.52C575.712 261 576.046 261.553 576.272 262.18C576.512 262.807 576.632 263.473 576.632 264.18C576.632 264.353 576.626 264.533 576.612 264.72C576.599 264.907 576.572 265.08 576.532 265.24H567.912V263.44H575.252L574.172 264.26C574.306 263.607 574.259 263.027 574.032 262.52C573.819 262 573.486 261.593 573.032 261.3C572.592 260.993 572.072 260.84 571.472 260.84C570.872 260.84 570.339 260.993 569.872 261.3C569.406 261.593 569.046 262.02 568.792 262.58C568.539 263.127 568.439 263.793 568.492 264.58C568.426 265.313 568.526 265.953 568.792 266.5C569.072 267.047 569.459 267.473 569.952 267.78C570.459 268.087 571.032 268.24 571.672 268.24C572.326 268.24 572.879 268.093 573.332 267.8C573.799 267.507 574.166 267.127 574.432 266.66L576.272 267.56C576.059 268.067 575.726 268.527 575.272 268.94C574.832 269.34 574.299 269.66 573.672 269.9C573.059 270.127 572.386 270.24 571.652 270.24ZM578.638 270V259.18H580.798V261.36L580.598 261.04C580.838 260.333 581.225 259.827 581.758 259.52C582.291 259.2 582.931 259.04 583.678 259.04H584.338V261.1H583.398C582.651 261.1 582.045 261.333 581.578 261.8C581.125 262.253 580.898 262.907 580.898 263.76V270H578.638ZM589.684 270.24C588.577 270.24 587.604 269.967 586.764 269.42C585.937 268.873 585.357 268.14 585.024 267.22L586.764 266.4C587.057 267.013 587.457 267.5 587.964 267.86C588.484 268.22 589.057 268.4 589.684 268.4C590.217 268.4 590.651 268.28 590.984 268.04C591.317 267.8 591.484 267.473 591.484 267.06C591.484 266.793 591.411 266.58 591.264 266.42C591.117 266.247 590.931 266.107 590.704 266C590.491 265.893 590.271 265.813 590.044 265.76L588.344 265.28C587.411 265.013 586.711 264.613 586.244 264.08C585.791 263.533 585.564 262.9 585.564 262.18C585.564 261.527 585.731 260.96 586.064 260.48C586.397 259.987 586.857 259.607 587.444 259.34C588.031 259.073 588.691 258.94 589.424 258.94C590.411 258.94 591.291 259.187 592.064 259.68C592.837 260.16 593.384 260.833 593.704 261.7L591.964 262.52C591.751 262 591.411 261.587 590.944 261.28C590.491 260.973 589.977 260.82 589.404 260.82C588.911 260.82 588.517 260.94 588.224 261.18C587.931 261.407 587.784 261.707 587.784 262.08C587.784 262.333 587.851 262.547 587.984 262.72C588.117 262.88 588.291 263.013 588.504 263.12C588.717 263.213 588.937 263.293 589.164 263.36L590.924 263.88C591.817 264.133 592.504 264.533 592.984 265.08C593.464 265.613 593.704 266.253 593.704 267C593.704 267.64 593.531 268.207 593.184 268.7C592.851 269.18 592.384 269.56 591.784 269.84C591.184 270.107 590.484 270.24 589.684 270.24Z" fill="#0B63E5"/>
</g>
<g filter="url(#filter4_b_372_7189)">
<rect x="351" y="441" width="148" height="80" rx="12" fill="white"/>
<path d="M371.903 489V474.1H376.783C378.33 474.1 379.67 474.413 380.803 475.04C381.95 475.653 382.836 476.52 383.463 477.64C384.09 478.76 384.403 480.06 384.403 481.54C384.403 483.007 384.09 484.307 383.463 485.44C382.836 486.56 381.95 487.433 380.803 488.06C379.67 488.687 378.33 489 376.783 489H371.903ZM374.263 486.9H376.823C377.876 486.9 378.79 486.68 379.563 486.24C380.35 485.8 380.956 485.18 381.383 484.38C381.81 483.58 382.023 482.633 382.023 481.54C382.023 480.447 381.803 479.507 381.363 478.72C380.936 477.92 380.336 477.3 379.563 476.86C378.79 476.42 377.876 476.2 376.823 476.2H374.263V486.9ZM391.387 489.24C390.307 489.24 389.347 488.993 388.507 488.5C387.68 487.993 387.034 487.313 386.567 486.46C386.1 485.593 385.867 484.627 385.867 483.56C385.867 482.467 386.1 481.5 386.567 480.66C387.047 479.82 387.687 479.16 388.487 478.68C389.287 478.187 390.194 477.94 391.207 477.94C392.02 477.94 392.747 478.08 393.387 478.36C394.027 478.64 394.567 479.027 395.007 479.52C395.447 480 395.78 480.553 396.007 481.18C396.247 481.807 396.367 482.473 396.367 483.18C396.367 483.353 396.36 483.533 396.347 483.72C396.334 483.907 396.307 484.08 396.267 484.24H387.647V482.44H394.987L393.907 483.26C394.04 482.607 393.994 482.027 393.767 481.52C393.554 481 393.22 480.593 392.767 480.3C392.327 479.993 391.807 479.84 391.207 479.84C390.607 479.84 390.074 479.993 389.607 480.3C389.14 480.593 388.78 481.02 388.527 481.58C388.274 482.127 388.174 482.793 388.227 483.58C388.16 484.313 388.26 484.953 388.527 485.5C388.807 486.047 389.194 486.473 389.687 486.78C390.194 487.087 390.767 487.24 391.407 487.24C392.06 487.24 392.614 487.093 393.067 486.8C393.534 486.507 393.9 486.127 394.167 485.66L396.007 486.56C395.794 487.067 395.46 487.527 395.007 487.94C394.567 488.34 394.034 488.66 393.407 488.9C392.794 489.127 392.12 489.24 391.387 489.24ZM401.317 489L397.077 478.18H399.537L402.797 487H401.897L405.157 478.18H407.637L403.377 489H401.317ZM413.858 489.24C412.778 489.24 411.818 488.993 410.978 488.5C410.152 487.993 409.505 487.313 409.038 486.46C408.572 485.593 408.338 484.627 408.338 483.56C408.338 482.467 408.572 481.5 409.038 480.66C409.518 479.82 410.158 479.16 410.958 478.68C411.758 478.187 412.665 477.94 413.678 477.94C414.492 477.94 415.218 478.08 415.858 478.36C416.498 478.64 417.038 479.027 417.478 479.52C417.918 480 418.252 480.553 418.478 481.18C418.718 481.807 418.838 482.473 418.838 483.18C418.838 483.353 418.832 483.533 418.818 483.72C418.805 483.907 418.778 484.08 418.738 484.24H410.118V482.44H417.458L416.378 483.26C416.512 482.607 416.465 482.027 416.238 481.52C416.025 481 415.692 480.593 415.238 480.3C414.798 479.993 414.278 479.84 413.678 479.84C413.078 479.84 412.545 479.993 412.078 480.3C411.612 480.593 411.252 481.02 410.998 481.58C410.745 482.127 410.645 482.793 410.698 483.58C410.632 484.313 410.732 484.953 410.998 485.5C411.278 486.047 411.665 486.473 412.158 486.78C412.665 487.087 413.238 487.24 413.878 487.24C414.532 487.24 415.085 487.093 415.538 486.8C416.005 486.507 416.372 486.127 416.638 485.66L418.478 486.56C418.265 487.067 417.932 487.527 417.478 487.94C417.038 488.34 416.505 488.66 415.878 488.9C415.265 489.127 414.592 489.24 413.858 489.24ZM420.844 489V473.86H423.104V489H420.844ZM430.766 489.24C429.726 489.24 428.773 488.993 427.906 488.5C427.053 488.007 426.373 487.333 425.866 486.48C425.36 485.627 425.106 484.66 425.106 483.58C425.106 482.487 425.36 481.52 425.866 480.68C426.373 479.827 427.053 479.16 427.906 478.68C428.76 478.187 429.713 477.94 430.766 477.94C431.833 477.94 432.786 478.187 433.626 478.68C434.48 479.16 435.153 479.827 435.646 480.68C436.153 481.52 436.406 482.487 436.406 483.58C436.406 484.673 436.153 485.647 435.646 486.5C435.14 487.353 434.46 488.027 433.606 488.52C432.753 489 431.806 489.24 430.766 489.24ZM430.766 487.14C431.406 487.14 431.973 486.987 432.466 486.68C432.96 486.373 433.346 485.953 433.626 485.42C433.92 484.873 434.066 484.26 434.066 483.58C434.066 482.9 433.92 482.293 433.626 481.76C433.346 481.227 432.96 480.807 432.466 480.5C431.973 480.193 431.406 480.04 430.766 480.04C430.14 480.04 429.573 480.193 429.066 480.5C428.573 480.807 428.18 481.227 427.886 481.76C427.606 482.293 427.466 482.9 427.466 483.58C427.466 484.26 427.606 484.873 427.886 485.42C428.18 485.953 428.573 486.373 429.066 486.68C429.573 486.987 430.14 487.14 430.766 487.14ZM438.413 493V478.18H440.573V480.42L440.313 479.9C440.713 479.287 441.246 478.807 441.913 478.46C442.579 478.113 443.339 477.94 444.193 477.94C445.219 477.94 446.139 478.187 446.953 478.68C447.779 479.173 448.426 479.847 448.893 480.7C449.373 481.553 449.613 482.513 449.613 483.58C449.613 484.647 449.373 485.607 448.893 486.46C448.426 487.313 447.786 487.993 446.973 488.5C446.159 488.993 445.233 489.24 444.193 489.24C443.353 489.24 442.586 489.067 441.893 488.72C441.213 488.373 440.686 487.873 440.313 487.22L440.673 486.8V493H438.413ZM443.973 487.14C444.613 487.14 445.179 486.987 445.673 486.68C446.166 486.373 446.553 485.953 446.833 485.42C447.126 484.873 447.273 484.26 447.273 483.58C447.273 482.9 447.126 482.293 446.833 481.76C446.553 481.227 446.166 480.807 445.673 480.5C445.179 480.193 444.613 480.04 443.973 480.04C443.346 480.04 442.779 480.193 442.273 480.5C441.779 480.807 441.386 481.227 441.093 481.76C440.813 482.293 440.673 482.9 440.673 483.58C440.673 484.26 440.813 484.873 441.093 485.42C441.386 485.953 441.779 486.373 442.273 486.68C442.779 486.987 443.346 487.14 443.973 487.14ZM456.691 489.24C455.611 489.24 454.651 488.993 453.811 488.5C452.984 487.993 452.338 487.313 451.871 486.46C451.404 485.593 451.171 484.627 451.171 483.56C451.171 482.467 451.404 481.5 451.871 480.66C452.351 479.82 452.991 479.16 453.791 478.68C454.591 478.187 455.498 477.94 456.511 477.94C457.324 477.94 458.051 478.08 458.691 478.36C459.331 478.64 459.871 479.027 460.311 479.52C460.751 480 461.084 480.553 461.311 481.18C461.551 481.807 461.671 482.473 461.671 483.18C461.671 483.353 461.664 483.533 461.651 483.72C461.638 483.907 461.611 484.08 461.571 484.24H452.951V482.44H460.291L459.211 483.26C459.344 482.607 459.298 482.027 459.071 481.52C458.858 481 458.524 480.593 458.071 480.3C457.631 479.993 457.111 479.84 456.511 479.84C455.911 479.84 455.378 479.993 454.911 480.3C454.444 480.593 454.084 481.02 453.831 481.58C453.578 482.127 453.478 482.793 453.531 483.58C453.464 484.313 453.564 484.953 453.831 485.5C454.111 486.047 454.498 486.473 454.991 486.78C455.498 487.087 456.071 487.24 456.711 487.24C457.364 487.24 457.918 487.093 458.371 486.8C458.838 486.507 459.204 486.127 459.471 485.66L461.311 486.56C461.098 487.067 460.764 487.527 460.311 487.94C459.871 488.34 459.338 488.66 458.711 488.9C458.098 489.127 457.424 489.24 456.691 489.24ZM463.677 489V478.18H465.837V480.36L465.637 480.04C465.877 479.333 466.263 478.827 466.797 478.52C467.33 478.2 467.97 478.04 468.717 478.04H469.377V480.1H468.437C467.69 480.1 467.083 480.333 466.617 480.8C466.163 481.253 465.937 481.907 465.937 482.76V489H463.677ZM474.723 489.24C473.616 489.24 472.643 488.967 471.803 488.42C470.976 487.873 470.396 487.14 470.063 486.22L471.803 485.4C472.096 486.013 472.496 486.5 473.003 486.86C473.523 487.22 474.096 487.4 474.723 487.4C475.256 487.4 475.689 487.28 476.023 487.04C476.356 486.8 476.523 486.473 476.523 486.06C476.523 485.793 476.449 485.58 476.303 485.42C476.156 485.247 475.969 485.107 475.743 485C475.529 484.893 475.309 484.813 475.083 484.76L473.383 484.28C472.449 484.013 471.749 483.613 471.283 483.08C470.829 482.533 470.603 481.9 470.603 481.18C470.603 480.527 470.769 479.96 471.103 479.48C471.436 478.987 471.896 478.607 472.483 478.34C473.069 478.073 473.729 477.94 474.463 477.94C475.449 477.94 476.329 478.187 477.103 478.68C477.876 479.16 478.423 479.833 478.743 480.7L477.003 481.52C476.789 481 476.449 480.587 475.983 480.28C475.529 479.973 475.016 479.82 474.443 479.82C473.949 479.82 473.556 479.94 473.263 480.18C472.969 480.407 472.823 480.707 472.823 481.08C472.823 481.333 472.889 481.547 473.023 481.72C473.156 481.88 473.329 482.013 473.543 482.12C473.756 482.213 473.976 482.293 474.203 482.36L475.963 482.88C476.856 483.133 477.543 483.533 478.023 484.08C478.503 484.613 478.743 485.253 478.743 486C478.743 486.64 478.569 487.207 478.223 487.7C477.889 488.18 477.423 488.56 476.823 488.84C476.223 489.107 475.523 489.24 474.723 489.24Z" fill="#0B63E5"/>
</g>
<g filter="url(#filter5_b_372_7189)">
<rect x="42" y="415" width="148" height="80" rx="12" fill="white"/>
<path d="M104.462 463.24C103.382 463.24 102.376 463.047 101.442 462.66C100.522 462.273 99.7091 461.733 99.0024 461.04C98.3091 460.347 97.7624 459.533 97.3624 458.6C96.9758 457.667 96.7824 456.647 96.7824 455.54C96.7824 454.433 96.9758 453.413 97.3624 452.48C97.7624 451.533 98.3091 450.72 99.0024 450.04C99.6958 449.347 100.509 448.813 101.442 448.44C102.376 448.053 103.382 447.86 104.462 447.86C105.556 447.86 106.562 448.053 107.482 448.44C108.416 448.813 109.229 449.347 109.922 450.04C110.629 450.733 111.176 451.547 111.562 452.48C111.949 453.413 112.142 454.433 112.142 455.54C112.142 456.647 111.942 457.667 111.542 458.6C111.156 459.533 110.616 460.347 109.922 461.04C109.229 461.733 108.416 462.273 107.482 462.66C106.549 463.047 105.542 463.24 104.462 463.24ZM104.462 461.08C105.236 461.08 105.942 460.94 106.582 460.66C107.236 460.38 107.802 459.993 108.282 459.5C108.762 458.993 109.136 458.407 109.402 457.74C109.669 457.06 109.802 456.327 109.802 455.54C109.802 454.753 109.669 454.027 109.402 453.36C109.136 452.693 108.762 452.107 108.282 451.6C107.802 451.093 107.236 450.7 106.582 450.42C105.942 450.14 105.236 450 104.462 450C103.689 450 102.976 450.14 102.322 450.42C101.682 450.7 101.122 451.093 100.642 451.6C100.162 452.107 99.7891 452.693 99.5224 453.36C99.2691 454.027 99.1424 454.753 99.1424 455.54C99.1424 456.327 99.2691 457.06 99.5224 457.74C99.7891 458.407 100.162 458.993 100.642 459.5C101.122 459.993 101.689 460.38 102.342 460.66C102.996 460.94 103.702 461.08 104.462 461.08ZM108.202 464.8L103.322 457.04H105.842L110.742 464.8H108.202ZM112.656 463L117.896 448.1H120.816L126.056 463H123.536L122.396 459.66H116.336L115.176 463H112.656ZM117.016 457.56H121.676L119.036 449.76H119.696L117.016 457.56ZM131.403 463.24C130.297 463.24 129.323 462.967 128.483 462.42C127.657 461.873 127.077 461.14 126.743 460.22L128.483 459.4C128.777 460.013 129.177 460.5 129.683 460.86C130.203 461.22 130.777 461.4 131.403 461.4C131.937 461.4 132.37 461.28 132.703 461.04C133.037 460.8 133.203 460.473 133.203 460.06C133.203 459.793 133.13 459.58 132.983 459.42C132.837 459.247 132.65 459.107 132.423 459C132.21 458.893 131.99 458.813 131.763 458.76L130.063 458.28C129.13 458.013 128.43 457.613 127.963 457.08C127.51 456.533 127.283 455.9 127.283 455.18C127.283 454.527 127.45 453.96 127.783 453.48C128.117 452.987 128.577 452.607 129.163 452.34C129.75 452.073 130.41 451.94 131.143 451.94C132.13 451.94 133.01 452.187 133.783 452.68C134.557 453.16 135.103 453.833 135.423 454.7L133.683 455.52C133.47 455 133.13 454.587 132.663 454.28C132.21 453.973 131.697 453.82 131.123 453.82C130.63 453.82 130.237 453.94 129.943 454.18C129.65 454.407 129.503 454.707 129.503 455.08C129.503 455.333 129.57 455.547 129.703 455.72C129.837 455.88 130.01 456.013 130.223 456.12C130.437 456.213 130.657 456.293 130.883 456.36L132.643 456.88C133.537 457.133 134.223 457.533 134.703 458.08C135.183 458.613 135.423 459.253 135.423 460C135.423 460.64 135.25 461.207 134.903 461.7C134.57 462.18 134.103 462.56 133.503 462.84C132.903 463.107 132.203 463.24 131.403 463.24Z" fill="#0B63E5"/>
</g>
<defs>
<filter id="filter0_b_372_7189" x="-65" y="-104" width="720" height="720" filterUnits="userSpaceOnUse" color-interpolation-filters="sRGB">
<feFlood flood-opacity="0" result="BackgroundImageFix"/>
<feGaussianBlur in="BackgroundImageFix" stdDeviation="75"/>
<feComposite in2="SourceAlpha" operator="in" result="effect1_backgroundBlur_372_7189"/>
<feBlend mode="normal" in="SourceGraphic" in2="effect1_backgroundBlur_372_7189" result="shape"/>
</filter>
<filter id="filter1_b_372_7189" x="-150" y="-98" width="448" height="380" filterUnits="userSpaceOnUse" color-interpolation-filters="sRGB">
<feFlood flood-opacity="0" result="BackgroundImageFix"/>
<feGaussianBlur in="BackgroundImageFix" stdDeviation="75"/>
<feComposite in2="SourceAlpha" operator="in" result="effect1_backgroundBlur_372_7189"/>
<feBlend mode="normal" in="SourceGraphic" in2="effect1_backgroundBlur_372_7189" result="shape"/>
</filter>
<filter id="filter2_b_372_7189" x="215" y="-150" width="448" height="380" filterUnits="userSpaceOnUse" color-interpolation-filters="sRGB">
<feFlood flood-opacity="0" result="BackgroundImageFix"/>
<feGaussianBlur in="BackgroundImageFix" stdDeviation="75"/>
<feComposite in2="SourceAlpha" operator="in" result="effect1_backgroundBlur_372_7189"/>
<feBlend mode="normal" in="SourceGraphic" in2="effect1_backgroundBlur_372_7189" result="shape"/>
</filter>
<filter id="filter3_b_372_7189" x="323" y="72" width="448" height="380" filterUnits="userSpaceOnUse" color-interpolation-filters="sRGB">
<feFlood flood-opacity="0" result="BackgroundImageFix"/>
<feGaussianBlur in="BackgroundImageFix" stdDeviation="75"/>
<feComposite in2="SourceAlpha" operator="in" result="effect1_backgroundBlur_372_7189"/>
<feBlend mode="normal" in="SourceGraphic" in2="effect1_backgroundBlur_372_7189" result="shape"/>
</filter>
<filter id="filter4_b_372_7189" x="201" y="291" width="448" height="380" filterUnits="userSpaceOnUse" color-interpolation-filters="sRGB">
<feFlood flood-opacity="0" result="BackgroundImageFix"/>
<feGaussianBlur in="BackgroundImageFix" stdDeviation="75"/>
<feComposite in2="SourceAlpha" operator="in" result="effect1_backgroundBlur_372_7189"/>
<feBlend mode="normal" in="SourceGraphic" in2="effect1_backgroundBlur_372_7189" result="shape"/>
</filter>
<filter id="filter5_b_372_7189" x="-108" y="265" width="448" height="380" filterUnits="userSpaceOnUse" color-interpolation-filters="sRGB">
<feFlood flood-opacity="0" result="BackgroundImageFix"/>
<feGaussianBlur in="BackgroundImageFix" stdDeviation="75"/>
<feComposite in2="SourceAlpha" operator="in" result="effect1_backgroundBlur_372_7189"/>
<feBlend mode="normal" in="SourceGraphic" in2="effect1_backgroundBlur_372_7189" result="shape"/>
</filter>
</defs>
</svg>
