<svg width="745" height="829" viewBox="0 0 745 829" fill="none" xmlns="http://www.w3.org/2000/svg">
<g filter="url(#filter0_f_362_6460)">
<path fill-rule="evenodd" clip-rule="evenodd" d="M363.827 628.013C443.291 629.997 517.603 566.588 539.611 470.03C559.801 381.445 510.592 299.233 450.784 246.497C395.209 197.495 322.853 180.797 267.394 230.006C209.287 281.564 187.387 375.942 208.18 461.758C230.173 552.532 288.751 626.14 363.827 628.013Z" fill="url(#paint0_linear_362_6460)"/>
</g>
<g filter="url(#filter1_f_362_6460)">
<path fill-rule="evenodd" clip-rule="evenodd" d="M375.347 663.813C333.518 664.876 288.549 645.899 275.405 595.538C262.096 544.546 288.751 494.616 322.882 462.802C357.759 430.293 404.093 410.819 439.277 442.792C474.987 475.245 478.809 538.455 463.681 590.756C450.298 637.024 414.205 662.826 375.347 663.813Z" fill="url(#paint1_linear_362_6460)"/>
</g>
<defs>
<filter id="filter0_f_362_6460" x="0.488281" y="0.390625" width="743.729" height="827.668" filterUnits="userSpaceOnUse" color-interpolation-filters="sRGB">
<feFlood flood-opacity="0" result="BackgroundImageFix"/>
<feBlend mode="normal" in="SourceGraphic" in2="BackgroundImageFix" result="shape"/>
<feGaussianBlur stdDeviation="100" result="effect1_foregroundBlur_362_6460"/>
</filter>
<filter id="filter1_f_362_6460" x="171.912" y="326.471" width="400.137" height="437.385" filterUnits="userSpaceOnUse" color-interpolation-filters="sRGB">
<feFlood flood-opacity="0" result="BackgroundImageFix"/>
<feBlend mode="normal" in="SourceGraphic" in2="BackgroundImageFix" result="shape"/>
<feGaussianBlur stdDeviation="50" result="effect1_foregroundBlur_362_6460"/>
</filter>
<linearGradient id="paint0_linear_362_6460" x1="372.352" y1="628.059" x2="372.352" y2="200.391" gradientUnits="userSpaceOnUse">
<stop stop-color="#FC50B7"/>
<stop offset="1" stop-color="#FFC56F" stop-opacity="0.46"/>
</linearGradient>
<linearGradient id="paint1_linear_362_6460" x1="371.981" y1="663.855" x2="371.981" y2="426.471" gradientUnits="userSpaceOnUse">
<stop stop-color="#FF08AB"/>
<stop offset="1" stop-color="#F58A25" stop-opacity="0"/>
<stop offset="1" stop-color="#7061A3" stop-opacity="0"/>
</linearGradient>
</defs>
</svg>
