<svg width="352" height="352" viewBox="0 0 352 352" fill="none" xmlns="http://www.w3.org/2000/svg">
<g filter="url(#filter0_b_372_7188)">
<circle cx="176" cy="176" r="176" fill="white" fill-opacity="0.6"/>
</g>
<g filter="url(#filter1_b_372_7188)">
<circle cx="176" cy="176" r="80" fill="#0B63E5"/>
</g>
<path d="M152.211 192.288C150.947 192.288 149.771 192.056 148.683 191.592C147.611 191.128 146.675 190.488 145.875 189.672C145.091 188.84 144.475 187.864 144.027 186.744C143.579 185.624 143.355 184.392 143.355 183.048C143.355 181.72 143.571 180.496 144.003 179.376C144.451 178.24 145.075 177.264 145.875 176.448C146.675 175.616 147.611 174.976 148.683 174.528C149.755 174.064 150.931 173.832 152.211 173.832C153.475 173.832 154.603 174.048 155.595 174.48C156.603 174.912 157.451 175.48 158.139 176.184C158.827 176.872 159.323 177.624 159.627 178.44L157.083 179.64C156.699 178.68 156.083 177.904 155.235 177.312C154.403 176.704 153.395 176.4 152.211 176.4C151.027 176.4 149.979 176.68 149.067 177.24C148.155 177.8 147.443 178.576 146.931 179.568C146.435 180.56 146.187 181.72 146.187 183.048C146.187 184.376 146.435 185.544 146.931 186.552C147.443 187.544 148.155 188.32 149.067 188.88C149.979 189.424 151.027 189.696 152.211 189.696C153.395 189.696 154.403 189.4 155.235 188.808C156.083 188.216 156.699 187.44 157.083 186.48L159.627 187.68C159.323 188.48 158.827 189.232 158.139 189.936C157.451 190.64 156.603 191.208 155.595 191.64C154.603 192.072 153.475 192.288 152.211 192.288ZM162.275 192V173.832H164.987V192H162.275ZM168.158 192V179.016H170.87V192H168.158ZM168.158 177.24V174.12H170.87V177.24H168.158ZM180.137 192.288C178.841 192.288 177.689 191.992 176.681 191.4C175.689 190.792 174.913 189.976 174.353 188.952C173.793 187.912 173.513 186.752 173.513 185.472C173.513 184.16 173.793 183 174.353 181.992C174.929 180.984 175.697 180.192 176.657 179.616C177.617 179.024 178.705 178.728 179.921 178.728C180.897 178.728 181.769 178.896 182.537 179.232C183.305 179.568 183.953 180.032 184.481 180.624C185.009 181.2 185.409 181.864 185.681 182.616C185.969 183.368 186.113 184.168 186.113 185.016C186.113 185.224 186.105 185.44 186.089 185.664C186.073 185.888 186.041 186.096 185.993 186.288H175.649V184.128H184.457L183.161 185.112C183.321 184.328 183.265 183.632 182.993 183.024C182.737 182.4 182.337 181.912 181.793 181.56C181.265 181.192 180.641 181.008 179.921 181.008C179.201 181.008 178.561 181.192 178.001 181.56C177.441 181.912 177.009 182.424 176.705 183.096C176.401 183.752 176.281 184.552 176.345 185.496C176.265 186.376 176.385 187.144 176.705 187.8C177.041 188.456 177.505 188.968 178.097 189.336C178.705 189.704 179.393 189.888 180.161 189.888C180.945 189.888 181.609 189.712 182.153 189.36C182.713 189.008 183.153 188.552 183.473 187.992L185.681 189.072C185.425 189.68 185.025 190.232 184.481 190.728C183.953 191.208 183.313 191.592 182.561 191.88C181.825 192.152 181.017 192.288 180.137 192.288ZM188.76 192V179.016H191.352V181.56L191.04 181.224C191.36 180.408 191.872 179.792 192.576 179.376C193.28 178.944 194.096 178.728 195.024 178.728C195.984 178.728 196.832 178.936 197.568 179.352C198.304 179.768 198.88 180.344 199.296 181.08C199.712 181.816 199.92 182.664 199.92 183.624V192H197.232V184.344C197.232 183.688 197.112 183.136 196.872 182.688C196.632 182.224 196.288 181.872 195.84 181.632C195.408 181.376 194.912 181.248 194.352 181.248C193.792 181.248 193.288 181.376 192.84 181.632C192.408 181.872 192.072 182.224 191.832 182.688C191.592 183.152 191.472 183.704 191.472 184.344V192H188.76ZM208.438 192.144C207.078 192.144 206.022 191.76 205.27 190.992C204.518 190.224 204.142 189.144 204.142 187.752V181.464H201.862V179.016H202.222C202.83 179.016 203.302 178.84 203.638 178.488C203.974 178.136 204.142 177.656 204.142 177.048V176.04H206.854V179.016H209.806V181.464H206.854V187.632C206.854 188.08 206.926 188.464 207.07 188.784C207.214 189.088 207.446 189.328 207.766 189.504C208.086 189.664 208.502 189.744 209.014 189.744C209.142 189.744 209.286 189.736 209.446 189.72C209.606 189.704 209.758 189.688 209.902 189.672V192C209.678 192.032 209.43 192.064 209.158 192.096C208.886 192.128 208.646 192.144 208.438 192.144Z" fill="white"/>
<defs>
<filter id="filter0_b_372_7188" x="-150" y="-150" width="652" height="652" filterUnits="userSpaceOnUse" color-interpolation-filters="sRGB">
<feFlood flood-opacity="0" result="BackgroundImageFix"/>
<feGaussianBlur in="BackgroundImageFix" stdDeviation="75"/>
<feComposite in2="SourceAlpha" operator="in" result="effect1_backgroundBlur_372_7188"/>
<feBlend mode="normal" in="SourceGraphic" in2="effect1_backgroundBlur_372_7188" result="shape"/>
</filter>
<filter id="filter1_b_372_7188" x="-54" y="-54" width="460" height="460" filterUnits="userSpaceOnUse" color-interpolation-filters="sRGB">
<feFlood flood-opacity="0" result="BackgroundImageFix"/>
<feGaussianBlur in="BackgroundImageFix" stdDeviation="75"/>
<feComposite in2="SourceAlpha" operator="in" result="effect1_backgroundBlur_372_7188"/>
<feBlend mode="normal" in="SourceGraphic" in2="effect1_backgroundBlur_372_7188" result="shape"/>
</filter>
</defs>
</svg>
