<svg width="448" height="325" viewBox="0 0 448 325" fill="none" xmlns="http://www.w3.org/2000/svg">
<g filter="url(#filter0_b_379_7286)">
<path d="M29.414 320.782C29.414 320.782 -2.98758 244.65 37.991 187.115C78.9697 129.58 53.9768 78.5772 125.927 27.8004C218.408 -37.4648 307.609 26.9289 334.209 70.5877C360.81 114.246 451.159 91.9596 424.901 216.188C404.532 312.554 419.731 316.782 419.731 316.782L29.414 320.782Z" fill="#F5F5F5" fill-opacity="0.6"/>
</g>
<path d="M48.9366 300.186C48.9366 300.186 -8.56485 270.2 5.29025 202.775C19.1453 135.349 75.5726 119.35 98.7787 124.3C142.273 133.577 71.2122 160.95 54.2375 113.967C32.939 55.0164 108.879 10.3843 179.274 21.9348C224.516 29.3584 246.355 50.9756 286.571 64.5589C326.644 78.0936 343.451 59.9662 327.485 49.4603C312.33 39.4865 257.304 55.7583 276.197 78.06C302.067 108.596 364.413 61.2847 412.733 113.967C461.053 166.649 419.105 232.88 381.957 238.404C344.81 243.926 361.098 190.703 419.105 232.881C477.112 275.059 403.841 320.783 403.841 320.783" stroke="#C3C8FF" stroke-miterlimit="10"/>
<path d="M443.775 325H4.22461C1.89082 325 0 323.112 0 320.783C0 318.454 1.89181 316.566 4.22461 316.566H448V320.783C448 323.112 446.108 325 443.775 325Z" fill="#6876EB"/>
<path d="M162.183 325H4.22461C1.89082 325 0 323.112 0 320.783V316.566H166.409V320.783C166.409 323.112 164.517 325 162.183 325Z" fill="#1C145E"/>
<path d="M227.849 155.803C209.026 191.907 187.876 206.616 187.876 206.616L206.141 235.723L238.036 202.64L227.849 155.803Z" fill="#1C145E"/>
<path d="M274.52 147.184L227.849 155.801C224.893 243.939 223.785 316.553 223.785 316.553H307.558C307.558 316.553 309.989 181.589 296.512 152.141L274.52 147.184Z" fill="#1C145E"/>
<path d="M269.101 192.1L291.838 190.18" stroke="#6876EB" stroke-width="4" stroke-miterlimit="10"/>
<path d="M258.664 173.156C258.664 173.156 273.096 271.457 260.539 311.231" stroke="#6876EB" stroke-miterlimit="10"/>
<path d="M243.553 222.396C243.553 222.396 257.492 227.997 275.564 228.59C293.636 229.182 282.392 238.78 255.601 236.96" stroke="#6876EB" stroke-miterlimit="10"/>
<path d="M247.146 143.601L258.664 174.147L274.52 147.185L264.07 130.139L247.146 143.601Z" fill="#E9A394"/>
<path d="M258.664 174.145L280.166 168.22L274.52 147.184L258.664 174.145Z" fill="#6876EB"/>
<path d="M249.705 150.389L238.036 163.398L258.664 174.146L249.705 150.389Z" fill="#6876EB"/>
<path d="M206.141 235.722C206.141 235.722 212.956 221.537 198.323 203.266C190.209 193.134 186.47 175.65 186.47 175.65L174.278 177.501L185.442 235.723H206.141V235.722Z" fill="#E9A394"/>
<path d="M171.786 157.396L166.795 161.925L173.468 167.804L152.572 167.449L152.124 174.606L174.278 177.502L186.47 175.652L171.786 157.396Z" fill="#E9A394"/>
<path d="M175.438 168.542L155.389 160.287L154.095 163.842L170.829 170.861L175.438 168.542Z" fill="#E9A394"/>
<path d="M296.513 152.143C296.513 152.143 323.445 167.449 331.95 224.783L300.704 232.308L296.513 152.143Z" fill="#1C145E"/>
<path d="M238.02 106.274L227.849 132.253L235.627 134.642L238.02 149.275L262.853 143.601L266.442 103.885L238.02 106.274Z" fill="#E9A394"/>
<path d="M254.593 112.448H235.604L237.675 106.847L254.593 105.803V112.448Z" fill="#E37A82"/>
<path d="M264.516 124.299C264.516 124.299 252.401 121.798 252.401 109.288C252.401 109.288 234.425 111.73 228.22 101.991C220.87 90.454 232.102 77.1962 241.379 79.8897C241.379 79.8897 235.533 85.6733 244.412 86.3529C250.743 86.8376 262.313 78.4297 266.443 86.5616C266.443 86.5616 298.312 93.827 274.521 123.465L264.516 124.299Z" fill="#16005C"/>
<path d="M252.4 108.298C252.4 108.298 228.371 112.932 223.346 95.7323C220.407 85.6774 230.505 79.9512 230.505 79.9512" stroke="#16005C" stroke-width="2" stroke-miterlimit="10"/>
<path d="M242.232 131.426C247.241 131.426 251.302 127.372 251.302 122.372C251.302 117.372 247.241 113.318 242.232 113.318C237.222 113.318 233.161 117.372 233.161 122.372C233.161 127.372 237.222 131.426 242.232 131.426Z" stroke="#16005C" stroke-width="0.5" stroke-miterlimit="10"/>
<path d="M250.814 119.441L263.733 120.148" stroke="#16005C" stroke-width="0.5" stroke-miterlimit="10"/>
<path d="M280.165 126.579C280.165 132.186 272.639 136.731 267.021 136.731C261.403 136.731 259.822 132.185 259.822 126.579C259.822 120.972 264.377 116.426 269.994 116.426C275.611 116.426 280.165 120.972 280.165 126.579Z" fill="#E9A394"/>
<path d="M328.221 225.68V272.499H304.832L302.886 231.782L328.221 225.68Z" fill="#E9A394"/>
<path d="M226.028 215.095L227.01 182.473L211.859 229.792L226.028 215.095Z" fill="#1C145C"/>
<path d="M248.35 146.709L262.853 143.602L250.963 153.724L248.35 146.709Z" fill="#E37A82"/>
<path d="M239.772 126.578C240.731 126.578 241.509 124.96 241.509 122.964C241.509 120.968 240.731 119.35 239.772 119.35C238.813 119.35 238.036 120.968 238.036 122.964C238.036 124.96 238.813 126.578 239.772 126.578Z" fill="#16005C"/>
<path d="M244.488 114.174C244.488 109.331 240.625 112.591 240.625 112.591L244.488 114.174Z" fill="#16005C"/>
<path d="M240.624 135.614L246.149 134.146C246.149 134.146 248.516 154.6 240.624 135.614Z" fill="white"/>
<path d="M121.567 227.295C121.567 227.295 158.842 221.538 159.574 286.417C159.693 296.946 166.409 316.565 166.409 316.565H132.629L121.567 227.295Z" fill="#5321D7"/>
<path d="M82.5927 221.539L60.0645 226.847L66.938 316.566H154.593C154.593 316.566 151.653 245.581 118.598 224.285L82.5927 221.539Z" fill="#6A3FDC"/>
<path d="M60.0642 226.846C36.8442 232.132 42.2798 249.921 46.7631 286.451C35.1734 295.846 46.2924 300.075 46.2924 300.075C33.564 313.542 49.4427 316.565 49.4427 316.565H91.8315C91.8315 316.565 83.3001 221.556 60.0642 226.846Z" fill="#6A3FDC"/>
<path d="M89.3103 295.844L79.1377 249.234" stroke="#5321D7" stroke-miterlimit="10"/>
<path d="M49.4414 316.565C49.4414 316.565 56.5984 300.163 79.2178 291.918C97.9724 285.082 125.406 302.828 142.968 285.965L146.22 304.951L91.8302 316.565H49.4414Z" fill="#E9A394"/>
<path d="M124.006 175.331L140.776 200.81L130.015 204.644L128.155 225.35L95.8145 214.135L98.8618 172.018L124.006 175.331Z" fill="#E9A394"/>
<path d="M99.1236 202.094L82.5928 221.538L103.792 247.47L113.353 217.181L99.1236 202.094Z" fill="#E37A82"/>
<path d="M104.651 190.055L128.306 181.864L124.006 175.33L100.639 177.757L104.651 190.055Z" fill="#E37A82"/>
<path d="M102.609 198.98C102.609 198.98 109.771 213.293 104.788 185.704C104.788 185.704 111.584 186.465 116.907 177.513C116.907 177.513 115.253 192.102 130.866 177.513C146.479 162.922 126.63 151.507 102.377 155.802C81.3548 159.526 60.3179 171.381 91.0645 211.573L102.609 198.98Z" fill="#16005C"/>
<path d="M98.7797 204.671C97.1663 206.831 94.3945 208.79 91.5127 209.209C85.7491 210.047 80.1202 205.506 79.2808 199.753C78.4415 194 81.353 191.013 87.1156 190.175C90.3552 189.704 94.1061 190.663 96.9196 192.614C97.7698 193.672 98.7797 204.671 98.7797 204.671Z" fill="#E9A394"/>
<path d="M121.594 196.718C122.457 196.484 122.724 194.701 122.189 192.735C121.655 190.769 120.522 189.364 119.658 189.598C118.795 189.832 118.529 191.615 119.064 193.581C119.598 195.547 120.731 196.952 121.594 196.718Z" fill="#16005C"/>
<path d="M115.038 188.157C115.038 188.157 114.197 183.426 118.597 185.704L115.038 188.157Z" fill="#16005C"/>
<path d="M79.9453 222.333L83.7834 217.934L82.3752 214.672L91.0633 211.574L115.988 224.085L116.905 233.638L112.688 232.307L105.802 257.925L79.9453 222.333Z" fill="#6A3FDC"/>
<path d="M102.452 228.59L116.906 233.638L115.988 224.086" stroke="#5321D7" stroke-miterlimit="10"/>
<path d="M104.788 185.703C104.788 185.703 107.695 202.594 111.948 206.067C113.344 207.208 115.987 204.306 128.154 204.063C135.594 203.915 135.588 229.835 125.716 229.092C115.843 228.349 100.841 222.205 98.5921 203.312C96.621 186.738 104.788 185.703 104.788 185.703Z" fill="#16005C"/>
<path d="M116.905 209.209C116.905 209.209 119.414 213.873 124.36 210.714" stroke="#C4C6C5" stroke-miterlimit="10"/>
<path d="M173.324 305.898H90.1123V312.052C90.1123 314.545 92.1369 316.565 94.6332 316.565H173.324C175.821 316.565 177.845 314.544 177.845 312.052V310.411C177.846 307.919 175.821 305.898 173.324 305.898Z" fill="#1C145E"/>
<path d="M240.905 244.209H144.108C141.231 244.209 138.802 246.344 138.438 249.191L130.64 310.137C130.204 313.548 132.865 316.565 136.31 316.565H233.107C235.983 316.565 238.412 314.431 238.777 311.583L246.575 250.638C247.011 247.227 244.349 244.209 240.905 244.209Z" fill="#1C145E"/>
<path d="M245.589 244.209H148.793C145.916 244.209 143.487 246.344 143.122 249.191L135.324 310.137C134.888 313.548 137.55 316.565 140.995 316.565H237.791C240.668 316.565 243.097 314.431 243.462 311.583L251.26 250.638C251.696 247.227 249.034 244.209 245.589 244.209Z" fill="#6876EB"/>
<path d="M199.52 286.936C203.551 283.119 204.028 277.088 200.585 273.466C197.141 269.843 191.083 270.002 187.052 273.82C183.021 277.638 182.544 283.669 185.987 287.291C189.43 290.913 195.489 290.754 199.52 286.936Z" fill="white"/>
<path d="M243.478 316.049H122.992" stroke="#1C145E" stroke-miterlimit="10"/>
<path d="M296.727 234.49L336.725 235.246L327.657 186.408L306.39 188.812C306.39 188.812 296.81 202.925 304.375 213.899C312.91 226.28 295.848 226.742 296.727 234.49Z" fill="#16005C"/>
<path d="M306.389 188.812C306.389 188.812 296.809 202.926 304.374 213.9C312.91 226.282 295.848 226.743 296.727 234.49" stroke="#7079F1" stroke-width="2" stroke-miterlimit="10"/>
<path d="M314.368 228.59C314.368 228.59 296.169 246.415 286.573 313.588H306.831L314.368 228.59Z" fill="#7079F1"/>
<path d="M362.464 223.624L354.544 313.588H295.707L303.031 279.228C303.031 279.228 280.631 267.563 314.367 228.59L322.752 224.285L359.181 221.539L362.464 223.624Z" fill="#C3C8FF"/>
<path d="M314.368 268.854C314.368 268.854 310.841 274.883 314.232 279.724L309.238 313.588" stroke="#7079F1" stroke-miterlimit="10"/>
<path d="M306.145 279.383L340.224 280.387" stroke="#7079F1" stroke-miterlimit="10"/>
<path d="M346.942 296.318L343.338 253.047" stroke="#7079F1" stroke-miterlimit="10"/>
<path d="M362.465 223.625C362.465 223.625 365.714 227.705 369.476 237.167C374.81 250.583 381.171 274.82 380.754 313.588H354.545L362.465 223.625Z" fill="#C3C8FF"/>
<path d="M380.754 316.555C380.754 316.555 367.659 286.663 334.721 295.217C298.757 304.558 285.402 302.812 285.402 302.812L282.676 316.555H380.754Z" fill="#E9A394"/>
<path d="M346.471 288.936L334.784 291.544L361.33 316.556H386.352C386.352 316.556 375.568 290.456 346.471 288.936Z" fill="#7079F1"/>
<path d="M347.193 296.694L352.76 294.996" stroke="#C3C8FF" stroke-miterlimit="10"/>
<path d="M285.402 302.812L268.313 299.285L256.063 316.555H282.676L285.402 302.812Z" fill="#E9A394"/>
<path d="M314.367 268.852L346.123 237.155L340.223 234.375L362.464 223.624L352.251 217.137H328.481L314.367 234.746L318.267 235.723L314.367 238.453V268.852Z" fill="#7079F1"/>
<path d="M336.568 227.913L346.942 220.757L335.744 195.764L318.387 206.645L323.276 227.377L314.367 268.853L336.568 227.913Z" fill="#E9A394"/>
<path d="M319.783 212.567L331.965 206.227L321.089 218.102L319.783 212.567Z" fill="#E37A82"/>
<path d="M297.531 176.383L292.212 205.807H300.19L309.149 218.102L331.965 206.227L316.008 170.738L297.531 176.383Z" fill="#E9A394"/>
<path d="M296.241 183.517L295.707 186.75L316.749 183.884L316.427 179.859L296.241 183.517Z" fill="#E37A82"/>
<path d="M355.689 174.147C350.422 159.895 343.981 154.4 343.981 154.4C331.074 141.598 309.009 155.804 309.009 155.804C280.734 148.973 292.212 184.012 292.212 184.012L315.238 181.193C318.458 200.474 329.973 190.711 329.973 190.711L335.343 200.379C335.343 200.379 329.925 205.158 335.574 213.353C340.224 220.1 329.088 222.399 331.965 229.581L376.474 220.373C376.474 191.141 365.208 199.905 355.689 174.147Z" fill="#16005C"/>
<path d="M290.407 184.238C290.407 184.238 286.335 164.232 293.815 157.723C297.716 154.328 309.999 155.804 309.999 155.804" stroke="#7079F1" stroke-width="2" stroke-miterlimit="10"/>
<path d="M379.388 219.531C379.388 219.531 382.942 206.226 363.575 191.141" stroke="#16005C" stroke-width="2" stroke-miterlimit="10"/>
<path d="M330.635 201.615C335.93 201.615 340.223 197.33 340.223 192.045C340.223 186.759 335.93 182.475 330.635 182.475C325.339 182.475 321.047 186.759 321.047 192.045C321.047 197.33 325.339 201.615 330.635 201.615Z" fill="#E9A394"/>
<path d="M306.145 204.725L312.089 203.268C312.089 203.268 314.175 220.189 306.145 204.725Z" fill="white"/>
<path d="M301.194 194.724C301.194 194.724 303.086 183.216 307.226 194.724" stroke="#1C145E" stroke-width="0.5" stroke-miterlimit="10"/>
<path d="M302.655 185.97C302.655 185.97 304.959 182.074 307.69 185.97H302.655Z" fill="#16005C"/>
<path d="M213.215 82.2844C209.766 72.7112 198.923 67.9178 189.42 72.008C181.241 75.5284 176.905 84.7899 179.442 93.3126C180.861 98.0774 184.063 101.763 188.074 103.913C191.776 105.898 194.953 108.73 197.282 112.22L197.954 113.227L211.27 108.449L211.146 107.251C210.707 103.009 211.451 98.7659 213.021 94.8003C214.553 90.9297 214.736 86.5081 213.215 82.2844Z" fill="#C3C8FF"/>
<path d="M213.215 82.2844C209.766 72.7112 198.923 67.9178 189.42 72.008C181.241 75.5284 176.905 84.7899 179.442 93.3126C180.861 98.0774 184.063 101.763 188.074 103.913C191.776 105.898 194.953 108.73 197.282 112.22L197.954 113.227L211.27 108.449L211.146 107.251C210.707 103.009 211.451 98.7659 213.021 94.8003C214.553 90.9297 214.736 86.5081 213.215 82.2844Z" fill="#C3C8FF"/>
<path d="M201 109.308L190.386 94.3655C190.386 94.3655 190.579 91.3396 193.911 91.8194C197.242 92.2991 199.231 97.5476 196.854 96.7009C194.477 95.8542 193.635 89.6847 198.134 88.744C202.632 87.8033 204.136 98.0046 201.65 96.0391C199.165 94.0737 199.689 87.5788 204.506 87.5254L207.333 109.076" stroke="white" stroke-miterlimit="10"/>
<path d="M210.961 118.661L204.708 120.906C202.33 121.759 199.709 120.527 198.855 118.154L197.533 114.484C196.678 112.111 197.912 109.495 200.29 108.642L206.543 106.398C208.92 105.544 211.541 106.777 212.396 109.15L213.718 112.819C214.572 115.192 213.338 117.808 210.961 118.661Z" fill="#16005C"/>
<path d="M212.433 103.076L193.602 109.834L196.906 119.01L215.738 112.252L212.433 103.076Z" fill="#6876EB"/>
<path d="M196.036 66.0149L194.157 55.2637" stroke="#C3C8FF" stroke-miterlimit="10"/>
<path d="M182.466 72.4194L173.47 63.6484" stroke="#C3C8FF" stroke-miterlimit="10"/>
<path d="M173.09 88.3516L162.825 89.0845" stroke="#C3C8FF" stroke-miterlimit="10"/>
<path d="M210.832 71.9068L215.452 63.3555" stroke="#C3C8FF" stroke-miterlimit="10"/>
<path d="M355.36 150.889H419.009C421.222 150.889 423.342 149.098 423.743 146.888L430.32 110.668C430.722 108.459 429.252 106.668 427.039 106.668H363.39C361.177 106.668 359.057 108.458 358.656 110.668L352.078 146.888C351.678 149.097 353.147 150.889 355.36 150.889Z" fill="#1C145C"/>
<path d="M406.386 131.592C408.244 129.898 408.602 127.27 407.186 125.722C405.77 124.175 403.116 124.293 401.258 125.987C399.4 127.681 399.042 130.309 400.458 131.857C401.874 133.404 404.528 133.286 406.386 131.592Z" fill="white"/>
<path d="M393.744 131.592C395.602 129.898 395.96 127.27 394.544 125.722C393.127 124.175 390.473 124.293 388.615 125.987C386.757 127.681 386.399 130.309 387.815 131.857C389.232 133.404 391.886 133.286 393.744 131.592Z" fill="white"/>
<path d="M381.101 131.592C382.959 129.898 383.317 127.27 381.901 125.722C380.485 124.175 377.83 124.293 375.973 125.987C374.115 127.681 373.756 130.309 375.173 131.857C376.589 133.404 379.243 133.286 381.101 131.592Z" fill="white"/>
<path d="M389.615 148.507L367.499 161.627L371.463 147.473L389.615 148.507Z" fill="#1C145C"/>
<path d="M150.312 145.519H86.6624C84.4495 145.519 82.3298 143.729 81.9284 141.519L75.3512 105.299C74.9498 103.09 76.4195 101.299 78.6324 101.299H142.282C144.495 101.299 146.615 103.089 147.016 105.299L153.593 141.519C153.995 143.728 152.526 145.519 150.312 145.519Z" fill="#C3C8FF"/>
<path d="M105.182 126.471C106.599 124.924 106.24 122.296 104.383 120.602C102.525 118.908 99.8703 118.789 98.454 120.337C97.0378 121.884 97.3958 124.512 99.2538 126.206C101.112 127.9 103.766 128.019 105.182 126.471Z" fill="white"/>
<path d="M117.825 126.471C119.241 124.923 118.883 122.296 117.025 120.602C115.167 118.908 112.513 118.789 111.097 120.337C109.68 121.884 110.038 124.512 111.896 126.206C113.754 127.9 116.409 128.019 117.825 126.471Z" fill="white"/>
<path d="M130.466 126.473C131.883 124.925 131.525 122.298 129.667 120.604C127.809 118.91 125.154 118.791 123.738 120.338C122.322 121.886 122.68 124.514 124.538 126.208C126.396 127.902 129.05 128.021 130.466 126.473Z" fill="white"/>
<path d="M127.606 143.138L131.098 155.803L145.217 142.252L127.606 143.138Z" fill="#C3C8FF"/>
<defs>
<filter id="filter0_b_379_7286" x="-132.746" y="-150" width="712.38" height="620.781" filterUnits="userSpaceOnUse" color-interpolation-filters="sRGB">
<feFlood flood-opacity="0" result="BackgroundImageFix"/>
<feGaussianBlur in="BackgroundImageFix" stdDeviation="75"/>
<feComposite in2="SourceAlpha" operator="in" result="effect1_backgroundBlur_379_7286"/>
<feBlend mode="normal" in="SourceGraphic" in2="effect1_backgroundBlur_379_7286" result="shape"/>
</filter>
</defs>
</svg>
