<svg width="60" height="60" viewBox="0 0 60 60" fill="none" xmlns="http://www.w3.org/2000/svg">
<rect width="60" height="60" rx="30" fill="#E6EEFC"/>
<path d="M40 18H37V17C37 16.7348 36.8946 16.4804 36.7071 16.2929C36.5196 16.1054 36.2652 16 36 16C35.7348 16 35.4804 16.1054 35.2929 16.2929C35.1054 16.4804 35 16.7348 35 17V18H25V17C25 16.7348 24.8946 16.4804 24.7071 16.2929C24.5196 16.1054 24.2652 16 24 16C23.7348 16 23.4804 16.1054 23.2929 16.2929C23.1054 16.4804 23 16.7348 23 17V18H20C19.4696 18 18.9609 18.2107 18.5858 18.5858C18.2107 18.9609 18 19.4696 18 20V40C18 40.5304 18.2107 41.0391 18.5858 41.4142C18.9609 41.7893 19.4696 42 20 42H40C40.5304 42 41.0391 41.7893 41.4142 41.4142C41.7893 41.0391 42 40.5304 42 40V20C42 19.4696 41.7893 18.9609 41.4142 18.5858C41.0391 18.2107 40.5304 18 40 18ZM23 20V21C23 21.2652 23.1054 21.5196 23.2929 21.7071C23.4804 21.8946 23.7348 22 24 22C24.2652 22 24.5196 21.8946 24.7071 21.7071C24.8946 21.5196 25 21.2652 25 21V20H35V21C35 21.2652 35.1054 21.5196 35.2929 21.7071C35.4804 21.8946 35.7348 22 36 22C36.2652 22 36.5196 21.8946 36.7071 21.7071C36.8946 21.5196 37 21.2652 37 21V20H40V24H20V20H23ZM40 40H20V26H40V40ZM35.2075 29.2925C35.3005 29.3854 35.3742 29.4957 35.4246 29.6171C35.4749 29.7385 35.5008 29.8686 35.5008 30C35.5008 30.1314 35.4749 30.2615 35.4246 30.3829C35.3742 30.5043 35.3005 30.6146 35.2075 30.7075L29.2075 36.7075C29.1146 36.8005 29.0043 36.8742 28.8829 36.9246C28.7615 36.9749 28.6314 37.0008 28.5 37.0008C28.3686 37.0008 28.2385 36.9749 28.1171 36.9246C27.9957 36.8742 27.8854 36.8005 27.7925 36.7075L24.7925 33.7075C24.6049 33.5199 24.4994 33.2654 24.4994 33C24.4994 32.7346 24.6049 32.4801 24.7925 32.2925C24.9801 32.1049 25.2346 31.9994 25.5 31.9994C25.7654 31.9994 26.0199 32.1049 26.2075 32.2925L28.5 34.5863L33.7925 29.2925C33.8854 29.1995 33.9957 29.1258 34.1171 29.0754C34.2385 29.0251 34.3686 28.9992 34.5 28.9992C34.6314 28.9992 34.7615 29.0251 34.8829 29.0754C35.0043 29.1258 35.1146 29.1995 35.2075 29.2925Z" fill="#0957DE"/>
</svg>
