<svg width="101" height="22" viewBox="0 0 101 22" fill="none" xmlns="http://www.w3.org/2000/svg">
<g clip-path="url(#clip0_347_8683)">
<path d="M15.627 12.9442C18.7857 12.9442 21.3564 15.4978 21.3564 18.659H18.2012C18.2012 17.2507 17.0537 16.0995 15.627 16.0995C14.2003 16.0996 13.0527 17.2508 13.0527 18.659H9.89844C9.89844 15.4979 12.4683 12.9443 15.627 12.9442ZM6.53809 7.61996C9.27609 9.19994 10.2028 12.7024 8.62402 15.4383C7.04533 18.1741 3.54948 19.1244 0.811523 17.5448L2.3877 14.8114C3.60747 15.5152 5.17849 15.097 5.8916 13.8612C6.60442 12.6255 6.1805 11.0572 4.96094 10.3534L6.53809 7.61996ZM13.5752 3.27426C12.3557 3.97808 11.9318 5.54639 12.6445 6.78207C13.3576 8.01787 14.9287 8.43614 16.1484 7.73227L17.7246 10.4657C14.9866 12.0453 11.4908 11.095 9.91211 8.35922C8.33345 5.62331 9.26007 2.12081 11.998 0.540863L13.5752 3.27426Z" fill="#222224"/>
<g clip-path="url(#clip1_347_8683)">
<path d="M70.5641 10.2753V16.4949H67.4267V10.2753H66.3867V7.57115H67.4267V4.867H70.5641V7.57115H72.3494V10.2753H70.5641Z" fill="#222224"/>
<path d="M72.8767 3.78589H76.0141V8.7145C76.4416 8.1945 76.875 7.84783 77.3141 7.6745C77.7532 7.48961 78.2674 7.39716 78.8567 7.39716C79.9776 7.39716 80.8212 7.70916 81.3874 8.33317C81.9652 8.94561 82.2541 9.77762 82.2541 10.8292V16.4954H79.1167V11.9905C79.1167 11.5399 79.0821 11.1758 79.0127 10.8985C78.9434 10.6212 78.8279 10.4074 78.6661 10.2572C78.3887 10.0145 78.0536 9.89318 77.6607 9.89318C77.1292 9.89318 76.719 10.055 76.4301 10.3785C76.1527 10.6905 76.0141 11.1412 76.0141 11.7305V16.4954H72.8767L72.8767 3.78589Z" fill="#222224"/>
<path d="M89.7288 10.7425C89.6248 10.3034 89.411 9.95094 89.0875 9.68516C88.7639 9.41939 88.371 9.2865 87.9088 9.2865C87.4234 9.2865 87.0248 9.41361 86.7128 9.66783C86.4123 9.92206 86.2217 10.2803 86.1408 10.7425H89.7288ZM86.0541 12.5625C86.0541 13.9145 86.6897 14.5905 87.9608 14.5905C88.6426 14.5905 89.1568 14.3132 89.5035 13.7585H92.5368C91.9244 15.7923 90.3932 16.8092 87.9434 16.8092C87.1923 16.8092 86.5048 16.6994 85.8808 16.4799C85.2568 16.2488 84.7194 15.9252 84.2688 15.5092C83.8296 15.0932 83.4887 14.5963 83.2461 14.0185C83.0034 13.4407 82.8821 12.7936 82.8821 12.0772C82.8821 11.3376 82.9976 10.6732 83.2288 10.0838C83.4599 9.48294 83.7892 8.97449 84.2168 8.55849C84.6443 8.14249 85.1585 7.82471 85.7594 7.60515C86.3719 7.37404 87.0594 7.25848 87.8221 7.25848C88.5732 7.25848 89.2492 7.37404 89.8501 7.60515C90.451 7.82471 90.9595 8.14827 91.3755 8.57582C91.7915 9.00338 92.1092 9.52916 92.3288 10.1532C92.5484 10.7656 92.6581 11.459 92.6581 12.2332V12.5625H86.0541Z" fill="#222224"/>
<path d="M93.293 7.57195H96.4303V9.01661C96.7654 8.48505 97.1757 8.0806 97.661 7.80327C98.1463 7.51438 98.7126 7.36993 99.3597 7.36993C99.4406 7.36993 99.5272 7.36993 99.6197 7.36993C99.7237 7.36993 99.8392 7.38149 99.9663 7.4046V10.4033C99.5503 10.1953 99.0997 10.0913 98.6143 10.0913C97.8863 10.0913 97.3374 10.3108 96.9677 10.75C96.6094 11.1775 96.4303 11.8073 96.4303 12.6393V16.4956H93.293V7.57195Z" fill="#222224"/>
<path d="M47.8773 11.9909C47.8773 12.2798 47.9293 12.5513 48.0333 12.8056C48.1373 13.0482 48.276 13.262 48.4493 13.4469C48.6342 13.6318 48.848 13.7762 49.0907 13.8802C49.3449 13.9842 49.6165 14.0362 49.9053 14.0362C50.1827 14.0362 50.4427 13.9842 50.6854 13.8802C50.9396 13.7762 51.1534 13.6318 51.3267 13.4469C51.5116 13.262 51.656 13.0482 51.76 12.8056C51.8756 12.5513 51.9334 12.2855 51.9334 12.0082C51.9334 11.7193 51.8756 11.4535 51.76 11.2109C51.656 10.9682 51.5116 10.7544 51.3267 10.5695C51.1418 10.3846 50.9222 10.2402 50.668 10.1362C50.4254 10.0322 50.1711 9.9802 49.9053 9.9802C49.628 9.9802 49.368 10.038 49.1253 10.1535C48.8827 10.2575 48.6689 10.402 48.484 10.5869C48.2991 10.7602 48.1489 10.9682 48.0333 11.2109C47.9293 11.4535 47.8773 11.7135 47.8773 11.9909ZM54.9147 7.57206V15.8736C54.9147 16.3705 54.8858 16.8154 54.828 17.2082C54.7703 17.6011 54.6894 17.9478 54.5854 18.2483C54.4467 18.6296 54.2272 18.982 53.9267 19.3056C53.6378 19.6407 53.2854 19.9296 52.8694 20.1723C52.4534 20.4149 51.9796 20.6056 51.448 20.7443C50.928 20.8829 50.3618 20.9523 49.7493 20.9523C49.056 20.9523 48.4205 20.8656 47.8427 20.6923C47.2649 20.5189 46.7564 20.2763 46.3173 19.9643C45.8898 19.6638 45.5373 19.3056 45.26 18.8896C44.9827 18.4851 44.7978 18.0402 44.7053 17.5549H48.2413C48.4609 18.1442 48.9578 18.4389 49.732 18.4389C50.3907 18.4389 50.8934 18.254 51.24 17.8842C51.5982 17.5145 51.7774 17.0002 51.7774 16.3416V15.4922C51.5462 15.7118 51.3209 15.8967 51.1014 16.0469C50.8934 16.1856 50.6796 16.3011 50.46 16.3936C50.2405 16.486 50.0093 16.5496 49.7667 16.5842C49.524 16.6305 49.2582 16.6536 48.9693 16.6536C48.3338 16.6536 47.7502 16.5438 47.2187 16.3242C46.6871 16.1047 46.2249 15.7985 45.832 15.4056C45.4507 15.0127 45.1502 14.5447 44.9307 14.0016C44.7227 13.4469 44.6187 12.8344 44.6187 12.1642C44.6187 11.4824 44.7342 10.8527 44.9653 10.2749C45.1964 9.68553 45.5084 9.17709 45.9013 8.74953C46.3058 8.31041 46.7796 7.96952 47.3227 7.72686C47.8773 7.47263 48.4782 7.34552 49.1253 7.34552C50.1769 7.34552 51.0609 7.73841 51.7774 8.52419V7.57206H54.9147Z" fill="#222224"/>
<path d="M36.7072 11.9633C36.7072 12.2637 36.7592 12.5411 36.8632 12.7953C36.9787 13.038 37.1232 13.2517 37.2965 13.4366C37.4814 13.6215 37.6952 13.766 37.9378 13.87C38.1921 13.974 38.4578 14.026 38.7352 14.026C39.0125 14.026 39.2725 13.974 39.5152 13.87C39.7694 13.766 39.9832 13.6215 40.1565 13.4366C40.3414 13.2517 40.4859 13.038 40.5899 12.7953C40.7054 12.5411 40.7632 12.2695 40.7632 11.9806C40.7632 11.7033 40.7054 11.4433 40.5899 11.2006C40.4859 10.9464 40.3414 10.7268 40.1565 10.5419C39.9832 10.3571 39.7694 10.2126 39.5152 10.1086C39.2725 10.0046 39.0125 9.95261 38.7352 9.95261C38.4578 9.95261 38.1921 10.0046 37.9378 10.1086C37.6952 10.2126 37.4814 10.3571 37.2965 10.5419C37.1232 10.7268 36.9787 10.9406 36.8632 11.1833C36.7592 11.426 36.7072 11.686 36.7072 11.9633ZM33.3965 11.9286C33.3965 11.27 33.5294 10.6575 33.7952 10.0913C34.0609 9.5135 34.4307 9.01661 34.9045 8.6006C35.3783 8.17305 35.9387 7.83793 36.5858 7.59526C37.2445 7.3526 37.961 7.23126 38.7352 7.23126C39.4979 7.23126 40.2027 7.3526 40.8499 7.59526C41.5085 7.82638 42.0748 8.15571 42.5485 8.58327C43.0339 8.99927 43.4094 9.50194 43.6752 10.0913C43.941 10.6691 44.0739 11.3104 44.0739 12.0153C44.0739 12.7202 43.9352 13.3673 43.6579 13.9566C43.3921 14.5344 43.0223 15.0371 42.5485 15.4646C42.0748 15.8806 41.5028 16.2042 40.8325 16.4353C40.1739 16.6664 39.4574 16.782 38.6832 16.782C37.9205 16.782 37.2156 16.6664 36.5685 16.4353C35.9214 16.2042 35.3609 15.8749 34.8872 15.4473C34.4249 15.0198 34.0609 14.5113 33.7952 13.922C33.5294 13.3211 33.3965 12.6566 33.3965 11.9286Z" fill="#222224"/>
<path d="M58.829 12.0635C58.829 12.3524 58.881 12.624 58.985 12.8782C59.089 13.1209 59.2277 13.3347 59.401 13.5195C59.5859 13.7044 59.7997 13.8489 60.0423 13.9529C60.2966 14.0569 60.5681 14.1089 60.857 14.1089C61.1343 14.1089 61.3943 14.0569 61.637 13.9529C61.8912 13.8489 62.105 13.7044 62.2784 13.5195C62.4632 13.3347 62.6077 13.1209 62.7117 12.8782C62.8272 12.6355 62.885 12.3755 62.885 12.0982C62.885 11.8209 62.8272 11.5609 62.7117 11.3182C62.6077 11.064 62.4632 10.8444 62.2784 10.6595C62.105 10.4746 61.8912 10.3302 61.637 10.2262C61.3943 10.1222 61.1343 10.0702 60.857 10.0702C60.5681 10.0702 60.2966 10.1222 60.0423 10.2262C59.7997 10.3302 59.5859 10.4746 59.401 10.6595C59.2277 10.8444 59.089 11.0582 58.985 11.3009C58.881 11.532 58.829 11.7862 58.829 12.0635ZM62.781 7.57166H65.9357V16.4954H62.781V15.5476C62.1108 16.3911 61.2037 16.8129 60.0597 16.8129C59.4126 16.8129 58.8174 16.6973 58.2743 16.4662C57.7312 16.2236 57.2574 15.8885 56.853 15.4609C56.4485 15.0333 56.1308 14.5307 55.8996 13.9529C55.6801 13.3751 55.5703 12.7453 55.5703 12.0635C55.5703 11.428 55.6801 10.8271 55.8996 10.2609C56.1192 9.68308 56.4254 9.18041 56.8183 8.75286C57.2112 8.3253 57.6792 7.99019 58.2223 7.74752C58.7654 7.49329 59.3663 7.36618 60.025 7.36618C61.1343 7.36618 62.053 7.75329 62.781 8.52752V7.57166Z" fill="#222224"/>
<path d="M31.901 6.49004V16.4954H28.7803V6.49004H26.2168V3.78589H34.4645V6.49004H31.901Z" fill="#222224"/>
</g>
</g>
<defs>
<clipPath id="clip0_347_8683">
<rect width="101" height="21.9036" fill="white"/>
</clipPath>
<clipPath id="clip1_347_8683">
<rect width="73.8233" height="17.1714" fill="white" transform="translate(26.0952 3.78595)"/>
</clipPath>
</defs>
</svg>
