<svg width="45" height="53" viewBox="0 0 45 53" fill="none" xmlns="http://www.w3.org/2000/svg">
  <path d="M0.074646 13.6033C0.144726 13.7609 0.260143 13.895 0.406746 13.9892C0.553345 14.0833 0.724754 14.1334 0.899948 14.1333H7.19995V34.026C7.19995 44.1314 15.3693 52.6379 25.4115 52.9877C27.9497 53.0785 30.4806 52.6662 32.8529 51.7755C35.2252 50.8848 37.3902 49.534 39.2186 47.8036C41.047 46.0733 42.5014 43.999 43.4947 41.7046C44.488 39.4103 45 36.9429 45 34.45V2.65C44.9993 1.9474 44.7146 1.27377 44.2084 0.776943C43.7022 0.280125 43.0159 0.000701904 42.3 0H36.9C36.1841 0.000701904 35.4978 0.280125 34.9916 0.776943C34.4854 1.27377 34.2007 1.9474 34.2 2.65V34.1471C34.236 36.2037 33.476 38.1973 32.0733 39.7256C30.6706 41.2539 28.7296 42.2034 26.6418 42.3824C25.535 42.4549 24.4248 42.3037 23.3799 41.9379C22.3351 41.5721 21.378 40.9997 20.5678 40.256C19.7576 39.5123 19.1117 38.6133 18.67 37.6146C18.2283 36.6159 18.0002 35.5388 18 34.45V14.1333H24.3C24.475 14.1331 24.6462 14.0828 24.7925 13.9886C24.9389 13.8944 25.0541 13.7603 25.124 13.6029C25.1939 13.4454 25.2155 13.2713 25.1862 13.1019C25.1568 12.9326 25.0778 12.7753 24.9588 12.6493L13.2588 0.282669C13.1745 0.193851 13.0726 0.12302 12.9592 0.074585C12.8459 0.0261497 12.7236 0.00115204 12.6 0.00115204C12.4763 0.00115204 12.354 0.0261497 12.2407 0.074585C12.1273 0.12302 12.0254 0.193851 11.9412 0.282669L0.24115 12.6493C0.121815 12.7752 0.0424919 12.9325 0.0129166 13.102C-0.0166588 13.2714 0.00479507 13.4457 0.074646 13.6033Z" fill="#1355FF"/>
</svg>