<svg xmlns="http://www.w3.org/2000/svg" width="42" height="42" viewBox="0 0 42 42" fill="none">
  <path d="M37.4474 10.3474L36.6829 9.90609C36.7726 9.43123 36.7726 8.94377 36.6829 8.46891L37.4474 8.02758C37.7489 7.85353 37.969 7.56682 38.0591 7.23053C38.1493 6.89424 38.1021 6.53591 37.9281 6.23438C37.7541 5.93284 37.4673 5.71279 37.1311 5.62264C36.7948 5.53249 36.4364 5.57962 36.1349 5.75367L35.3687 6.19664C35.0021 5.88206 34.5805 5.63789 34.1251 5.47641V4.59375C34.1251 4.24565 33.9869 3.91181 33.7407 3.66567C33.4946 3.41953 33.1607 3.28125 32.8126 3.28125C32.4645 3.28125 32.1307 3.41953 31.8846 3.66567C31.6384 3.91181 31.5001 4.24565 31.5001 4.59375V5.47641C31.0448 5.63789 30.6232 5.88206 30.2565 6.19664L29.4904 5.75367C29.3411 5.66749 29.1762 5.61156 29.0053 5.58908C28.8344 5.5666 28.6607 5.578 28.4942 5.62264C28.3277 5.66728 28.1716 5.74427 28.0348 5.84924C27.8981 5.9542 27.7833 6.08507 27.6972 6.23438C27.611 6.38368 27.5551 6.5485 27.5326 6.71942C27.5101 6.89034 27.5215 7.06402 27.5661 7.23053C27.6108 7.39705 27.6878 7.55314 27.7927 7.6899C27.8977 7.82665 28.0286 7.9414 28.1779 8.02758L28.9424 8.46891C28.8527 8.94377 28.8527 9.43123 28.9424 9.90609L28.1779 10.3474C27.9275 10.4918 27.7318 10.7148 27.6211 10.9818C27.5105 11.2488 27.491 11.5449 27.5658 11.824C27.6406 12.1032 27.8055 12.3499 28.0348 12.5258C28.2641 12.7017 28.5451 12.797 28.8341 12.7969C29.0646 12.7976 29.2911 12.737 29.4904 12.6213L30.2565 12.1784C30.6232 12.4929 31.0448 12.7371 31.5001 12.8986V13.7812C31.5001 14.1293 31.6384 14.4632 31.8846 14.7093C32.1307 14.9555 32.4645 15.0938 32.8126 15.0938C33.1607 15.0938 33.4946 14.9555 33.7407 14.7093C33.9869 14.4632 34.1251 14.1293 34.1251 13.7812V12.8986C34.5805 12.7371 35.0021 12.4929 35.3687 12.1784L36.1349 12.6213C36.3342 12.737 36.5607 12.7976 36.7911 12.7969C37.0802 12.797 37.3611 12.7017 37.5905 12.5258C37.8198 12.3499 37.9847 12.1032 38.0594 11.824C38.1342 11.5449 38.1148 11.2488 38.0041 10.9818C37.8935 10.7148 37.6978 10.4918 37.4474 10.3474ZM31.5001 9.1875C31.5001 8.92791 31.5771 8.67415 31.7213 8.45831C31.8655 8.24247 32.0705 8.07425 32.3104 7.97491C32.5502 7.87557 32.8141 7.84958 33.0687 7.90022C33.3233 7.95086 33.5572 8.07587 33.7407 8.25942C33.9243 8.44298 34.0493 8.67684 34.0999 8.93144C34.1506 9.18604 34.1246 9.44994 34.0252 9.68977C33.9259 9.9296 33.7577 10.1346 33.5418 10.2788C33.326 10.423 33.0722 10.5 32.8126 10.5C32.4645 10.5 32.1307 10.3617 31.8846 10.1156C31.6384 9.86944 31.5001 9.5356 31.5001 9.1875ZM36.3154 17.0805C35.9721 17.138 35.6656 17.3295 35.4635 17.6128C35.2614 17.8962 35.1801 18.2483 35.2375 18.5916C35.3707 19.3875 35.4377 20.193 35.4376 21C35.4407 24.5342 34.1418 27.9457 31.7889 30.5829C30.3251 28.4617 28.2668 26.8206 25.8728 25.8661C27.1587 24.8532 28.0971 23.4648 28.5574 21.894C29.0177 20.3231 28.977 18.6478 28.441 17.1011C27.9051 15.5544 26.9005 14.2132 25.5669 13.2639C24.2333 12.3147 22.6371 11.8046 21.0001 11.8046C19.3632 11.8046 17.767 12.3147 16.4334 13.2639C15.0998 14.2132 14.0952 15.5544 13.5592 17.1011C13.0233 18.6478 12.9826 20.3231 13.4429 21.894C13.9032 23.4648 14.8415 24.8532 16.1275 25.8661C13.7335 26.8206 11.6752 28.4617 10.2114 30.5829C8.36522 28.5025 7.15928 25.9332 6.73858 23.1837C6.31788 20.4343 6.70032 17.6219 7.83992 15.0847C8.97952 12.5474 10.8278 10.3934 13.1624 8.88153C15.4971 7.36968 18.2187 6.5644 21.0001 6.5625C21.8071 6.56237 22.6127 6.62932 23.4086 6.76266C23.7503 6.81658 24.0996 6.73338 24.3803 6.53115C24.661 6.32891 24.8506 6.02401 24.9076 5.68277C24.9647 5.34152 24.8848 4.99153 24.6852 4.70894C24.4855 4.42634 24.1824 4.234 23.8417 4.17375C20.2773 3.57413 16.6146 4.12278 13.3824 5.7405C10.1502 7.35823 7.51578 9.9613 5.85944 13.1739C4.2031 16.3865 3.61058 20.0423 4.16745 23.6136C4.72431 27.1849 6.40174 30.4868 8.95753 33.0426C11.5133 35.5984 14.8152 37.2758 18.3865 37.8327C21.9578 38.3896 25.6137 37.797 28.8263 36.1407C32.0388 34.4844 34.6419 31.8499 36.2596 28.6177C37.8774 25.3855 38.426 21.7228 37.8264 18.1584C37.7689 17.8151 37.5775 17.5087 37.2941 17.3066C37.0107 17.1044 36.6587 17.0231 36.3154 17.0805ZM15.7501 19.6875C15.7501 18.6491 16.058 17.6341 16.6349 16.7708C17.2118 15.9074 18.0317 15.2345 18.991 14.8371C19.9504 14.4398 21.006 14.3358 22.0244 14.5384C23.0428 14.7409 23.9782 15.241 24.7124 15.9752C25.4467 16.7094 25.9467 17.6449 26.1493 18.6633C26.3518 19.6817 26.2479 20.7373 25.8505 21.6966C25.4531 22.6559 24.7802 23.4758 23.9169 24.0527C23.0535 24.6296 22.0385 24.9375 21.0001 24.9375C19.6077 24.9375 18.2724 24.3844 17.2878 23.3998C16.3033 22.4152 15.7501 21.0799 15.7501 19.6875ZM12.1539 32.4023C13.1034 30.9174 14.4114 29.6953 15.9574 28.8488C17.5034 28.0024 19.2376 27.5587 21.0001 27.5587C22.7627 27.5587 24.4969 28.0024 26.0429 28.8488C27.5889 29.6953 28.8969 30.9174 29.8464 32.4023C27.3171 34.3694 24.2043 35.4374 21.0001 35.4374C17.796 35.4374 14.6832 34.3694 12.1539 32.4023Z" fill="#1355FF"/>
</svg>