<svg width="95" height="45" viewBox="0 0 95 45" fill="none" xmlns="http://www.w3.org/2000/svg">
<g clip-path="url(#clip0_347_8700)">
<path d="M6.64453 44.3791C6.64264 44.3387 6.63941 44.2986 6.63941 44.2582C6.63914 43.5362 6.63941 42.8142 6.63941 42.0922C6.63941 42.052 6.63941 42.0119 6.63941 41.9629C5.93249 41.5525 5.22772 41.1434 4.50598 40.7244C4.50841 40.6786 4.50167 40.6239 4.51568 40.5755C4.56927 40.3907 4.62313 40.2057 4.68884 40.025C4.77879 39.7767 4.87224 39.5292 4.97726 39.2871C5.10895 38.9836 5.24711 38.6828 5.39549 38.3871C5.49325 38.1924 5.60959 38.0063 5.7262 37.8221C5.88455 37.5714 6.04748 37.3231 6.21579 37.0791C6.31974 36.9283 6.43581 36.7858 6.54973 36.642C6.67415 36.485 6.79507 36.3242 6.92999 36.1766C7.20199 35.8796 7.47102 35.5791 7.78045 35.3186C7.89464 35.2225 8.0002 35.1164 8.11143 35.0167C8.16017 34.9731 8.21268 34.933 8.2652 34.8937C8.52696 34.6982 8.78846 34.5021 9.0521 34.3087C9.17033 34.222 9.28855 34.134 9.41405 34.0586C9.6031 33.9449 9.797 33.8393 9.99144 33.7354C10.1993 33.6244 10.4094 33.517 10.6203 33.4122C10.836 33.305 11.053 33.2006 11.2806 33.119C11.5189 33.0336 11.7546 32.9415 11.9934 32.858C12.099 32.8211 12.2097 32.799 12.3174 32.7686C12.4356 32.7349 12.5523 32.6953 12.6713 32.6655C12.8127 32.6299 12.9559 32.6003 13.0989 32.5709C13.2726 32.5351 13.4469 32.5009 13.6214 32.4686C13.665 32.4605 13.7105 32.4632 13.7652 32.4605C13.7725 32.5079 13.7822 32.5435 13.7824 32.5793C13.784 32.7611 13.7835 32.9428 13.7835 33.1246C13.7835 33.5404 13.7843 33.9562 13.7832 34.3723C13.7827 34.5336 13.7781 34.6952 13.7746 34.8565C13.7744 34.8732 13.769 34.8899 13.7641 34.9155C13.2848 35.02 12.807 35.135 12.3487 35.3184C12.2264 35.3663 12.1028 35.4102 11.9827 35.4627C11.782 35.5502 11.5811 35.6378 11.3851 35.735C11.2362 35.8088 11.0918 35.8928 10.9504 35.9803C10.7186 36.1241 10.4859 36.2674 10.2629 36.4239C10.0776 36.5539 9.90499 36.7026 9.72752 36.844C9.62195 36.9283 9.51342 37.0096 9.41432 37.1009C9.28936 37.2162 9.1706 37.3381 9.05318 37.461C8.93226 37.5873 8.81404 37.7165 8.69824 37.8477C8.63199 37.9228 8.57355 38.0047 8.51107 38.0833C8.43459 38.1795 8.35434 38.2729 8.28136 38.3717C8.19599 38.4873 8.11385 38.606 8.03494 38.7261C7.93745 38.8745 7.84051 39.024 7.75083 39.1772C7.67892 39.3006 7.61779 39.4301 7.55235 39.5572C7.48637 39.6849 7.41797 39.8114 7.3563 39.9412C7.30028 40.0597 7.24992 40.1809 7.20091 40.3026C7.14328 40.4459 7.08484 40.5895 7.03582 40.736C6.98196 40.8965 6.93888 41.0607 6.89067 41.2231C6.84758 41.368 6.80126 41.5118 6.76194 41.6578C6.74578 41.7178 6.74417 41.7819 6.73447 41.8552C6.87128 41.884 7.00189 41.9117 7.12766 41.9381C7.12766 42.107 7.12766 42.2556 7.12766 42.4043C7.12766 43.0455 7.12766 43.6865 7.12766 44.3277C7.12766 44.3449 7.12954 44.3621 7.13062 44.3794H6.64533L6.64453 44.3791Z" fill="#E7B10A"/>
<path d="M7.19318 10.4277C7.00979 10.4791 6.8404 10.5268 6.67047 10.5745V28.4075C6.02817 28.784 5.40743 29.1882 4.82142 29.6334C4.75464 29.6153 4.76783 29.5685 4.76756 29.531C4.76622 29.3145 4.76648 29.0977 4.76648 28.8812C4.76648 23.1822 4.76648 17.4832 4.76648 11.7842C4.76648 11.7494 4.76191 11.7139 4.76891 11.6805C4.77429 11.6546 4.7883 11.6221 4.80877 11.6094C4.93318 11.5326 5.06056 11.4607 5.18741 11.3875C5.37915 11.2765 5.57117 11.1661 5.76318 11.0554C5.98966 10.9248 6.21642 10.7948 6.4429 10.6639C6.49272 10.6351 6.54147 10.6041 6.6026 10.5669C6.60799 10.5298 6.61957 10.4856 6.62011 10.4412C6.62226 10.2715 6.62091 10.1016 6.62091 9.9319C6.62091 9.47274 6.6193 9.01331 6.62226 8.55414C6.62603 7.95683 6.63276 7.35951 6.63976 6.76246C6.64057 6.69594 6.62199 6.64208 6.58375 6.58634C6.38285 6.29253 6.18437 5.99683 5.98913 5.69898C5.8507 5.48811 5.71901 5.27294 5.58032 5.05319C6.02629 3.38162 6.47414 1.7025 6.92846 -0.000305176C6.95647 0.0301262 6.97828 0.0433221 6.98286 0.0608269C7.04722 0.308317 7.10755 0.556616 7.17245 0.803837C7.20449 0.925832 7.24489 1.04567 7.27963 1.16713C7.30171 1.24415 7.32137 1.32198 7.34103 1.39981C7.38978 1.59398 7.43717 1.78841 7.48592 1.98231C7.54247 2.20772 7.59795 2.43313 7.658 2.65746C7.69813 2.80692 7.74903 2.95369 7.78835 3.10343C7.83063 3.26447 7.86214 3.42821 7.90334 3.58925C7.98952 3.92588 8.0792 4.2617 8.16699 4.59806C8.20334 4.73675 8.24132 4.87491 8.27283 5.01441C8.27956 5.04403 8.26825 5.0847 8.25155 5.11163C8.16053 5.25786 8.06627 5.40247 7.97094 5.54601C7.80693 5.79297 7.64185 6.03884 7.47649 6.28472C7.41051 6.38274 7.34669 6.48238 7.27371 6.57503C7.21985 6.64343 7.20288 6.71695 7.20288 6.80016C7.20342 7.41822 7.20288 8.03654 7.20288 8.65459C7.20288 9.19751 7.20369 9.74069 7.20342 10.2836C7.20342 10.3286 7.19695 10.3736 7.19265 10.4269L7.19318 10.4277Z" fill="#E7B10A"/>
<path d="M13.7719 26.6154C13.8005 27.38 13.7681 28.1356 13.7889 28.8905C13.7902 28.9379 13.7719 28.9858 13.7609 29.044C13.6717 29.061 13.5864 29.0806 13.4996 29.0925C13.3954 29.107 13.2896 29.1111 13.1854 29.1269C13.0607 29.1461 12.9373 29.1738 12.8132 29.1964C12.6977 29.2174 12.5813 29.2355 12.4658 29.257C12.3756 29.2737 12.2856 29.2912 12.1965 29.3125C12.0971 29.3362 11.9985 29.3642 11.9 29.3911C11.7037 29.4445 11.5068 29.4959 11.3116 29.553C11.1128 29.6109 10.9143 29.6715 10.718 29.7366C10.5602 29.7892 10.4051 29.85 10.2491 29.9079C10.1145 29.958 9.97823 30.0046 9.846 30.0609C9.58962 30.17 9.33378 30.2804 9.08145 30.3981C8.86546 30.4988 8.64921 30.6016 8.44212 30.7193C8.11464 30.9054 7.79121 31.0993 7.47289 31.3005C7.24425 31.4448 7.02423 31.6035 6.80502 31.7618C6.58419 31.9215 6.36632 32.0855 6.15249 32.2546C6.00653 32.3702 5.86865 32.4962 5.72996 32.6209C5.60581 32.7327 5.49512 32.8608 5.36236 32.9602C5.14314 33.1245 4.97456 33.3386 4.77554 33.5225C4.64358 33.6445 4.53802 33.7945 4.41898 33.9305C4.33577 34.0256 4.24663 34.1158 4.16557 34.2128C4.07347 34.3226 3.98675 34.4368 3.89896 34.5502C3.79716 34.6813 3.69429 34.8117 3.59599 34.9455C3.49419 35.0845 3.3959 35.2259 3.29868 35.3681C3.20442 35.5054 3.11124 35.6436 3.02156 35.7839C2.91788 35.946 2.8142 36.1081 2.71887 36.2751C2.61626 36.4547 2.52308 36.6395 2.42586 36.822C2.35584 36.9537 2.28098 37.083 2.21715 37.2176C2.13959 37.3811 2.07227 37.5492 1.99875 37.7145C1.95943 37.8028 1.91526 37.8888 1.87487 37.9765C1.84659 38.0388 1.81912 38.1015 1.79515 38.1653C1.74048 38.3105 1.68932 38.4573 1.63357 38.6021C1.61122 38.66 1.58052 38.7147 1.54578 38.7877C1.48061 38.7276 1.42648 38.6792 1.37369 38.6293C1.13132 38.4004 0.942536 38.1314 0.765604 37.8497C0.60833 37.5998 0.487412 37.3343 0.373497 37.0644C0.318828 36.9351 0.264159 36.8048 0.225649 36.6702C0.181483 36.5148 0.163978 36.3518 0.119004 36.197C0.0767236 36.051 0.127353 35.9352 0.19441 35.814C0.288935 35.6433 0.370534 35.4653 0.466137 35.2951C0.566049 35.1176 0.676464 34.9461 0.782031 34.7718C0.856628 34.6488 0.926917 34.5227 1.00663 34.4029C1.14963 34.1874 1.29559 33.9739 1.44452 33.7627C1.57836 33.5729 1.71382 33.3838 1.85629 33.2004C1.9842 33.0354 2.12263 32.8783 2.25647 32.7178C2.39947 32.546 2.53978 32.3721 2.68628 32.2032C2.7598 32.1184 2.84625 32.0449 2.92381 31.9635C2.95828 31.9274 2.98575 31.8843 3.01429 31.8469C3.17345 31.6805 3.33126 31.5157 3.48935 31.3506C3.49931 31.3404 3.50847 31.3288 3.52005 31.3204C3.73414 31.165 3.91619 30.9725 4.11602 30.8007C4.30561 30.6372 4.49951 30.4788 4.69475 30.3221C4.89431 30.1619 5.09521 30.0035 5.29961 29.8495C5.4278 29.7528 5.56245 29.665 5.69522 29.5748C5.88561 29.4455 6.07493 29.3146 6.26856 29.1908C6.4428 29.0793 6.62108 28.9745 6.79963 28.8703C6.98761 28.7607 7.17558 28.6511 7.36759 28.5493C7.57038 28.4416 7.77667 28.3411 7.98322 28.2407C8.23879 28.1165 8.49356 27.9902 8.75343 27.8758C8.94706 27.7904 9.14796 27.7214 9.34644 27.6471C9.55111 27.5706 9.75578 27.4939 9.96207 27.4222C10.1379 27.3611 10.3154 27.3048 10.4931 27.2502C10.6593 27.199 10.8265 27.1505 10.9943 27.1055C11.144 27.0654 11.2957 27.032 11.4462 26.9954C11.6102 26.9553 11.7731 26.9103 11.9385 26.8756C12.0896 26.8438 12.2428 26.8233 12.395 26.7964C12.5328 26.7719 12.6699 26.7417 12.8081 26.7207C12.9659 26.6967 13.1248 26.6806 13.2829 26.6604C13.3933 26.6461 13.5034 26.6289 13.6141 26.6165C13.661 26.6114 13.7089 26.6157 13.7714 26.6157L13.7719 26.6154Z" fill="#E7B10A"/>
<path d="M13.7805 31.9777C13.6294 32.0022 13.5001 32.0229 13.3709 32.0442C13.2831 32.0584 13.1942 32.0684 13.108 32.0886C12.8985 32.1374 12.689 32.1874 12.4813 32.2437C12.2627 32.303 12.0453 32.3673 11.8291 32.4349C11.6454 32.4923 11.4639 32.5559 11.2824 32.6205C11.1822 32.656 11.0828 32.6951 10.9864 32.7392C10.6775 32.8806 10.3668 33.0182 10.0635 33.1707C9.83758 33.284 9.61945 33.4136 9.40293 33.5447C9.16756 33.6872 8.93299 33.8326 8.70732 33.9902C8.4644 34.1596 8.22849 34.3395 7.99689 34.5239C7.82777 34.6588 7.66699 34.8048 7.50945 34.9532C7.25226 35.1953 6.99777 35.4404 6.74867 35.6908C6.6501 35.7899 6.57066 35.9076 6.47909 36.014C6.41204 36.0918 6.33582 36.1621 6.27038 36.2413C6.18447 36.3452 6.10422 36.454 6.02343 36.562C5.91005 36.7142 5.79614 36.8658 5.6868 37.0209C5.60412 37.1381 5.52387 37.2571 5.45062 37.3802C5.31112 37.6147 5.17431 37.8509 5.04236 38.0898C4.92548 38.3012 4.80887 38.5134 4.70707 38.7321C4.59423 38.9739 4.49728 39.223 4.39603 39.4702C4.38121 39.5066 4.38014 39.5486 4.37179 39.593C4.21263 39.85 4.17977 40.1605 4.06478 40.4532C4.00742 40.4276 3.96029 40.4085 3.91478 40.3864C3.71172 40.2876 3.52752 40.1562 3.3312 40.0457C3.08317 39.9062 2.83083 39.7737 2.58765 39.6259C2.38648 39.5034 2.19554 39.3639 2.00164 39.2297C1.9766 39.2122 1.95963 39.1829 1.9292 39.1479C1.96394 39.0385 1.99841 38.9235 2.03746 38.8102C2.08136 38.6828 2.12768 38.5565 2.17588 38.4307C2.20147 38.3642 2.23297 38.2998 2.26287 38.2349C2.35443 38.0348 2.44842 37.8358 2.53756 37.6347C2.59546 37.504 2.64636 37.3705 2.69995 37.2388C2.72553 37.2038 2.75569 37.1701 2.77697 37.1313C2.86234 36.9746 2.94555 36.8168 3.0285 36.6587C3.07509 36.5701 3.11495 36.478 3.16611 36.3924C3.22213 36.2992 3.28999 36.2133 3.34897 36.1217C3.45965 35.9502 3.56307 35.774 3.67779 35.6055C3.76962 35.4708 3.87438 35.3448 3.97187 35.2139C4.02654 35.1404 4.07528 35.0625 4.13157 34.9906C4.23363 34.86 4.3392 34.7324 4.44369 34.6036C4.52152 34.5078 4.59746 34.4097 4.67853 34.3168C4.76847 34.214 4.863 34.1151 4.95618 34.0152C5.11157 33.8488 5.26426 33.6794 5.4245 33.5175C5.57396 33.3665 5.72935 33.2213 5.88635 33.0783C6.02397 32.9528 6.16724 32.8338 6.30835 32.7121C6.39399 32.6383 6.47667 32.5602 6.56662 32.492C6.68996 32.3991 6.82057 32.3154 6.94607 32.2246C7.06483 32.1387 7.17767 32.0444 7.29832 31.9615C7.45882 31.8514 7.6239 31.7477 7.78818 31.6429C7.94815 31.5411 8.10811 31.4393 8.27077 31.3418C8.36934 31.2826 8.47356 31.233 8.57374 31.1765C8.61844 31.1512 8.65803 31.1164 8.70274 31.0911C8.7531 31.0626 8.80642 31.0397 8.85866 31.0149C9.13632 30.8837 9.41208 30.7483 9.6927 30.6233C10.1125 30.4362 10.545 30.281 10.9808 30.1345C11.155 30.0761 11.3282 30.015 11.504 29.9614C11.6056 29.9304 11.7111 29.9121 11.8148 29.8881C12.013 29.8426 12.211 29.7952 12.4097 29.7524C12.5928 29.7128 12.777 29.6775 12.961 29.6409C13.0536 29.6226 13.1463 29.6045 13.2392 29.5884C13.272 29.5827 13.3062 29.5827 13.3388 29.5706C13.4764 29.558 13.614 29.5456 13.7624 29.5321C13.7692 29.5922 13.7778 29.6339 13.778 29.6756C13.7802 30.3486 13.7813 31.0214 13.7824 31.6943C13.7824 31.7821 13.781 31.8697 13.7799 31.9782L13.7805 31.9777Z" fill="#E7B10A"/>
<path d="M1.25017 13.9934C1.28545 13.9581 1.32935 13.9279 1.35439 13.8865C1.41606 13.7841 1.51382 13.7182 1.59353 13.6347C1.66463 13.5603 1.74623 13.496 1.82406 13.4284C1.84022 13.4144 1.86014 13.405 1.89246 13.3845C1.90296 13.4262 1.91508 13.4542 1.91616 13.4828C1.91912 13.552 1.91697 13.6215 1.91697 13.6907C1.91697 19.8809 1.91697 26.0711 1.91697 32.2611C1.91697 32.3045 1.91697 32.3475 1.91697 32.3909C1.91239 32.3885 1.90781 32.3858 1.90323 32.3834C1.57738 32.8202 1.23886 33.2484 0.928891 33.6962C0.621077 34.1408 0.342077 34.6054 0.039649 35.0594C0.0140651 34.9614 -0.00747927 34.8661 0.00248499 34.7664C0.00840968 34.7064 0.0162195 34.6461 0.0162195 34.5857C0.0170274 29.086 0.0172967 23.5863 0.017566 18.0863C0.017566 17.7195 0.0137958 17.3524 0.0194511 16.9859C0.0213363 16.8663 0.0466509 16.747 0.0638863 16.628C0.0811218 16.509 0.09728 16.3891 0.122325 16.2717C0.193152 15.9396 0.289025 15.6143 0.432833 15.3062C0.534899 15.0876 0.641813 14.87 0.762192 14.661C0.845946 14.5153 0.956091 14.385 1.05546 14.2482C1.11848 14.1612 1.18311 14.0755 1.24694 13.9891C1.24802 13.9904 1.24882 13.9918 1.2499 13.9928L1.25017 13.9934Z" fill="#E7B10A"/>
<path d="M2.38724 13.0107C2.64039 12.862 2.8868 12.7155 3.1351 12.5717C3.4211 12.4061 3.70845 12.2429 3.99526 12.0789C4.07605 12.0326 4.15711 11.9865 4.25541 11.9305C4.26456 11.9849 4.27399 12.017 4.27426 12.0487C4.27587 12.2017 4.27534 12.3549 4.27534 12.5079C4.27534 18.2877 4.27534 24.0678 4.27534 29.8476C4.27534 30.0964 4.27426 30.0953 4.0844 30.2313C4.0098 30.2847 3.93655 30.3412 3.86842 30.4026C3.73403 30.5238 3.60423 30.6498 3.47146 30.7729C3.35135 30.8841 3.22747 30.9916 3.10979 31.1055C2.9482 31.2617 2.78958 31.4214 2.63177 31.5816C2.59784 31.6161 2.57253 31.6589 2.54263 31.6977C2.50762 31.7432 2.46965 31.785 2.39425 31.803C2.38697 31.7586 2.37593 31.7211 2.37539 31.6834C2.37351 31.5189 2.37432 31.3541 2.37432 31.1895C2.37432 25.2075 2.37432 19.2254 2.37486 13.2431C2.37486 13.1717 2.38186 13.1001 2.38671 13.0107H2.38724Z" fill="#E7B10A"/>
<path d="M13.7636 21.6396C13.6962 21.6041 13.6728 21.5446 13.6443 21.4902C13.5629 21.3351 13.4964 21.1705 13.4 21.0259C13.2497 20.8008 13.0776 20.5907 12.9182 20.3715C12.751 20.1415 12.5382 19.9541 12.333 19.7623C12.1722 19.6123 11.9918 19.4798 11.8065 19.36C11.5111 19.1693 11.206 18.9935 10.9025 18.8157C10.6081 18.6431 10.3097 18.4769 10.0146 18.3059C9.88532 18.2311 9.76117 18.1481 9.63136 18.0746C9.41161 17.9504 9.18728 17.8341 8.96807 17.7083C8.75182 17.5842 8.54014 17.4525 8.32605 17.3246C8.1782 17.2362 8.03116 17.1468 7.88169 17.0612C7.68537 16.9486 7.48689 16.8401 7.29003 16.7283C7.24264 16.7014 7.19874 16.6686 7.14299 16.6317C7.13788 16.5972 7.1263 16.5552 7.1263 16.5134C7.12522 15.6732 7.12522 14.8327 7.1263 13.9925C7.1263 13.9564 7.13545 13.92 7.14138 13.8767C7.22594 13.9157 7.30323 13.9443 7.37379 13.9849C7.64713 14.143 7.91805 14.3054 8.19059 14.4651C8.41546 14.5968 8.64167 14.7263 8.86708 14.8572C9.08306 14.9824 9.2985 15.1085 9.51449 15.2334C9.86727 15.4376 10.2198 15.6417 10.5731 15.8442C10.7791 15.9624 10.9887 16.0742 11.1925 16.1957C11.3379 16.2824 11.4791 16.3774 11.6178 16.4747C11.7537 16.5703 11.8887 16.6683 12.0163 16.7747C12.1108 16.8536 12.1962 16.9443 12.2797 17.0351C12.4389 17.2085 12.601 17.3803 12.7483 17.5635C12.8495 17.6895 12.9303 17.8322 13.0168 17.9696C13.0779 18.0668 13.1382 18.1653 13.1897 18.268C13.267 18.422 13.3373 18.5795 13.4081 18.7365C13.4504 18.83 13.494 18.9234 13.5266 19.0204C13.5627 19.1289 13.5891 19.2409 13.6157 19.3524C13.6515 19.5024 13.6887 19.6524 13.7159 19.8043C13.7372 19.9226 13.7498 20.0429 13.7568 20.163C13.7695 20.3785 13.7776 20.5942 13.783 20.8099C13.7883 21.0254 13.7897 21.2408 13.7886 21.4562C13.7886 21.5147 13.7735 21.5734 13.7644 21.6394L13.7636 21.6396Z" fill="#E7B10A"/>
<path d="M7.14175 10.5632C7.2422 10.6098 7.3211 10.6424 7.39624 10.6822C7.53574 10.756 7.67443 10.8314 7.8107 10.9111C7.94751 10.9914 8.07946 11.08 8.21654 11.1602C8.34985 11.2381 8.48773 11.3081 8.62184 11.3846C8.7266 11.4444 8.82786 11.5103 8.93235 11.5709C9.1039 11.6703 9.27787 11.7656 9.44888 11.8661C9.64951 11.9841 9.84718 12.1069 10.0478 12.2245C10.1493 12.2841 10.2552 12.3366 10.3586 12.3934C10.3898 12.4106 10.4181 12.4324 10.4491 12.4508C10.6252 12.5544 10.8016 12.6581 10.978 12.761C11.1256 12.8472 11.2777 12.9258 11.4199 13.0195C11.5705 13.1186 11.7178 13.225 11.8562 13.3405C12.0436 13.4967 12.2251 13.6607 12.4021 13.8291C12.4829 13.9058 12.5443 14.0025 12.6178 14.087C12.7904 14.2858 12.9393 14.5015 13.0664 14.731C13.179 14.9343 13.3077 15.1293 13.3804 15.3539C13.4305 15.5092 13.5081 15.6565 13.5509 15.8136C13.6107 16.0333 13.6821 16.2493 13.7133 16.4785C13.7499 16.747 13.7771 17.0141 13.7752 17.2848C13.7739 17.4752 13.7752 17.6656 13.7752 17.8562C13.7752 17.979 13.7744 18.1016 13.7728 18.2244C13.7726 18.2459 13.7669 18.2677 13.7623 18.2995C13.6918 18.2556 13.6694 18.188 13.636 18.1317C13.5528 17.9914 13.4836 17.8422 13.3931 17.707C13.2428 17.4827 13.0883 17.2605 12.9207 17.0489C12.7891 16.8824 12.6404 16.7287 12.4901 16.5784C12.3994 16.4876 12.2911 16.4141 12.1909 16.3325C12.0899 16.2506 11.9933 16.1628 11.8874 16.088C11.7609 15.9986 11.6284 15.9172 11.4956 15.837C11.3526 15.7508 11.2058 15.6708 11.0615 15.5865C10.8019 15.4346 10.5444 15.279 10.2834 15.1298C10.029 14.9841 9.76989 14.8468 9.51512 14.7016C9.3355 14.5993 9.16099 14.4883 8.98244 14.3841C8.80443 14.2799 8.62346 14.1805 8.44518 14.0768C8.21169 13.9411 7.97955 13.8027 7.74634 13.6664C7.65235 13.6115 7.55621 13.56 7.46195 13.5053C7.36311 13.448 7.2632 13.3914 7.16841 13.3279C7.14525 13.3123 7.1299 13.2713 7.12747 13.2406C7.12155 13.166 7.12505 13.0906 7.12505 13.0155C7.12505 12.2587 7.12505 11.502 7.12586 10.7453C7.12586 10.6922 7.13501 10.6389 7.14175 10.5637V10.5632Z" fill="#E7B10A"/>
<path d="M13.7409 24.9367C13.7067 24.8796 13.6679 24.8249 13.6391 24.7654C13.509 24.4947 13.3488 24.2429 13.1689 24.003C13.0929 23.9017 13.0205 23.7983 12.9462 23.696C12.9394 23.6866 12.9335 23.6763 12.9254 23.6685C12.6987 23.4447 12.4824 23.2088 12.2419 23.0009C12.0308 22.818 11.8035 22.6522 11.5557 22.5159C11.2943 22.3723 11.0414 22.2132 10.7837 22.0632C10.5825 21.946 10.3783 21.834 10.1769 21.7171C9.95312 21.5871 9.73202 21.4524 9.50742 21.3234C9.28578 21.196 9.06064 21.0751 8.83847 20.9485C8.68658 20.8621 8.53873 20.7689 8.38738 20.6817C8.18083 20.5624 7.97238 20.4468 7.76583 20.3275C7.64141 20.2559 7.51942 20.1799 7.3958 20.1067C7.30747 20.0544 7.21806 20.0038 7.13135 19.954V17.2165C7.17174 17.2241 7.20648 17.2222 7.2318 17.2365C7.41115 17.3372 7.58836 17.4414 7.76691 17.5437C7.95407 17.6509 8.14232 17.7557 8.32894 17.8634C8.55085 17.9916 8.77141 18.1219 8.99305 18.2506C9.17213 18.3546 9.3523 18.4569 9.53085 18.5617C9.69162 18.656 9.84997 18.7537 10.011 18.8472C10.1026 18.9002 10.1993 18.9452 10.2908 18.9982C10.4217 19.0739 10.5496 19.1552 10.6802 19.2315C10.7869 19.2934 10.8989 19.3464 11.0034 19.4119C11.2735 19.581 11.5485 19.7439 11.8065 19.9303C11.9842 20.0588 12.1393 20.2193 12.2993 20.3712C12.4032 20.47 12.5056 20.5726 12.5945 20.6849C12.7253 20.8505 12.8481 21.0229 12.9653 21.1985C13.0415 21.3129 13.0954 21.4424 13.1702 21.558C13.2876 21.7398 13.3612 21.9412 13.4422 22.1391C13.5359 22.3686 13.6046 22.6056 13.649 22.8498C13.6668 22.9484 13.697 23.0448 13.7134 23.1436C13.7325 23.2597 13.7503 23.3766 13.7557 23.494C13.7686 23.7789 13.7772 24.0644 13.7818 24.3498C13.7845 24.519 13.777 24.6884 13.7732 24.8575C13.7727 24.8817 13.767 24.9057 13.7638 24.9297C13.7562 24.9321 13.7484 24.9348 13.7409 24.9372V24.9367Z" fill="#E7B10A"/>
<path d="M13.6151 26.1391C13.4901 26.1603 13.3665 26.1824 13.2426 26.2021C13.1222 26.2209 13.0016 26.2374 12.8809 26.2543C12.7501 26.2726 12.6192 26.2896 12.4883 26.3082C12.4457 26.3141 12.404 26.3251 12.3615 26.33C12.2559 26.3421 12.1818 26.2786 12.108 26.2188C11.8724 26.0278 11.6217 25.8601 11.3559 25.7136C11.1722 25.6123 10.9942 25.5008 10.8119 25.3971C10.5302 25.2366 10.2455 25.0812 9.96464 24.9194C9.76536 24.8047 9.57065 24.6819 9.37244 24.5652C9.23644 24.4853 9.09668 24.412 8.96068 24.332C8.75816 24.213 8.55888 24.0883 8.35609 23.9701C8.21228 23.8863 8.06363 23.8104 7.91874 23.7282C7.77439 23.6464 7.63193 23.5607 7.48839 23.4773C7.40141 23.4266 7.31469 23.3752 7.22528 23.3286C7.15634 23.2928 7.12402 23.2424 7.12402 23.1635C7.1251 22.3144 7.12456 21.4653 7.12564 20.6162C7.12564 20.5814 7.13668 20.547 7.14341 20.5066C7.22797 20.5488 7.30069 20.5812 7.36936 20.6202C7.60177 20.7519 7.8331 20.8849 8.06416 21.0188C8.33455 21.1758 8.60439 21.3336 8.87396 21.4919C9.12926 21.6417 9.38322 21.7936 9.63906 21.9425C9.78098 22.0252 9.92613 22.1022 10.0686 22.1838C10.2108 22.2654 10.3511 22.3499 10.4925 22.4324C10.6433 22.5201 10.7936 22.6087 10.946 22.6936C11.2037 22.8371 11.4577 22.986 11.6914 23.1673C11.8153 23.2634 11.9424 23.3555 12.0649 23.4533C12.1204 23.4977 12.1719 23.5484 12.2198 23.6011C12.3709 23.767 12.5182 23.9364 12.669 24.1023C12.8352 24.2852 12.9528 24.5017 13.0864 24.7064C13.1653 24.8273 13.2189 24.9649 13.28 25.0966C13.3439 25.2339 13.4028 25.3737 13.464 25.5124C13.5254 25.6516 13.6183 26.0233 13.6145 26.1388L13.6151 26.1391Z" fill="#E7B10A"/>
<path d="M13.7379 35.3962C13.7662 35.5137 13.7605 35.6076 13.7489 35.7011C13.7295 35.8578 13.7088 36.0146 13.6859 36.171C13.6808 36.2063 13.663 36.2397 13.6533 36.2747C13.6062 36.4457 13.5653 36.6186 13.5111 36.7872C13.4659 36.9291 13.4058 37.0662 13.352 37.2052C13.3345 37.2504 13.3178 37.2965 13.2962 37.3398C13.2208 37.4912 13.1473 37.6439 13.0649 37.7912C13.0137 37.8827 12.9456 37.9646 12.8882 38.0527C12.7428 38.2754 12.5645 38.4701 12.39 38.6696C12.1775 38.9123 11.9292 39.1116 11.6801 39.3095C11.5237 39.4339 11.347 39.5344 11.1744 39.637C10.928 39.7835 10.6762 39.9214 10.4276 40.0641C10.1435 40.2273 9.85991 40.391 9.57715 40.5561C9.3714 40.6762 9.16807 40.8004 8.96205 40.9202C8.75631 41.04 8.54894 41.1577 8.34185 41.2749C8.21716 41.3454 8.08978 41.412 7.9659 41.4839C7.83394 41.5606 7.70575 41.6433 7.57379 41.72C7.47738 41.7761 7.37828 41.8272 7.27971 41.8789C7.25871 41.89 7.23393 41.8945 7.20081 41.8929C7.46392 40.5919 8.01437 39.4248 8.84194 38.3968C10.1109 36.8209 11.7467 35.8306 13.7384 35.3962H13.7379Z" fill="#E7B10A"/>
<path d="M11.636 26.4343C11.6005 26.462 11.5865 26.4806 11.569 26.4852C11.3379 26.5436 11.1044 26.5934 10.8755 26.6588C10.5599 26.7488 10.2467 26.8476 9.93405 26.9478C9.71833 27.0168 9.50397 27.0914 9.29122 27.1689C9.11321 27.2338 8.93654 27.3033 8.76204 27.3774C8.51912 27.4805 8.27648 27.5844 8.03815 27.6978C7.76103 27.8298 7.48877 27.9722 7.21434 28.1096C7.19738 28.1182 7.17799 28.1217 7.1454 28.1322C7.13786 28.0829 7.12628 28.0423 7.12601 28.0011C7.1244 27.77 7.12547 27.5392 7.12547 27.3081C7.12547 26.2255 7.1252 25.1429 7.12574 24.0603C7.12574 23.9925 7.13382 23.9246 7.13894 23.8425C7.18337 23.8581 7.21381 23.8643 7.23966 23.8788C7.34684 23.9386 7.45187 24.0016 7.55852 24.0622C7.6902 24.1368 7.82378 24.2087 7.95493 24.2844C8.14075 24.3918 8.32415 24.5031 8.50997 24.6108C8.67397 24.7059 8.83986 24.7972 9.00387 24.8922C9.27721 25.0506 9.54948 25.2111 9.82309 25.3692C9.96259 25.4497 10.1053 25.5251 10.2446 25.6061C10.3835 25.6869 10.5192 25.7739 10.6582 25.855C10.7869 25.9301 10.9202 25.998 11.0482 26.0745C11.2394 26.1884 11.4281 26.3071 11.6358 26.4348L11.636 26.4343Z" fill="#E7B10A"/>
<path d="M26.7741 29.9699L26.5153 26.4765H24.4968L24.2122 29.9699H19.2177L21.8054 10.5097H28.9993L31.6907 29.9699H26.7738H26.7741ZM25.4025 14.081L25.1437 17.9627L24.7815 23.0089H26.2047L25.8425 17.9369L25.5837 14.081H25.4025Z" fill="#E7B10A"/>
<path d="M33.088 29.9698V10.5096H38.0308V26.0622H41.0328V29.9698H33.0883H33.088Z" fill="#E7B10A"/>
<path d="M53.0268 20.7833L53.9067 15.1677L54.6831 10.5099H60.6608V29.97H56.158V20.1881H56.0285L55.2521 23.7593L54.3723 27.1493H51.4482L50.4908 23.6818L49.6885 20.3435H49.5593V29.97H44.9272V10.5096H50.6203L51.6297 15.0641L52.82 20.783H53.0271L53.0268 20.7833Z" fill="#E7B10A"/>
<path d="M69.8214 29.9698L69.5626 26.4764H67.5442L67.2595 29.9698H62.265L64.8528 10.5096H72.0467L74.7381 29.9698H69.8214ZM68.4499 14.0808L68.1911 17.9626L67.8288 23.0088H69.2521L68.8899 17.9367L68.6311 14.0808H68.4499Z" fill="#E7B10A"/>
<path d="M83.4325 19.6188V10.5099H87.9353V29.97H83.2254L81.828 24.8463L80.8186 20.7574H80.6633V29.97H76.1346V10.5096H80.6633L82.1124 15.4004L83.2769 19.6185H83.4322L83.4325 19.6188Z" fill="#E7B10A"/>
<path d="M90.0571 29.9698V10.5096H94.9999V29.9698H90.0571Z" fill="#E7B10A"/>
<path d="M22.1476 41.6909V38.0157H21.39V41.6909H19.2302V33.1871H21.39V36.4211H22.1476V33.1871H24.3074V41.6909H22.1476Z" fill="#898121"/>
<path d="M25.2341 41.6909V33.1871H28.8415V34.759H27.3939V36.4214H28.751V38.016H27.3939V40.0966H28.9885V41.6912H25.2341V41.6909Z" fill="#898121"/>
<path d="M32.6747 41.6909L32.5616 40.1642H31.6797L31.5552 41.6909H29.3728L30.5036 33.1871H33.6472L34.8233 41.6909H32.6747ZM32.0755 34.7474L31.9624 36.4438L31.8041 38.6488H32.4259L32.2676 36.4325L32.1544 34.7474H32.0753H32.0755Z" fill="#898121"/>
<path d="M35.4343 41.6909V33.1871H37.5941V39.9835H38.9059V41.6912H35.4343V41.6909Z" fill="#898121"/>
<path d="M42.1399 34.7591V41.691H39.9801V34.7591H38.7023V33.1872H43.4178V34.7591H42.1399Z" fill="#898121"/>
<path d="M46.9572 41.6909V38.0157H46.1996V41.6909H44.0398V33.1871H46.1996V36.4211H46.9572V33.1871H49.117V41.6909H46.9572Z" fill="#898121"/>
<path d="M52.6453 41.6909V33.1871H54.8051V41.6909H52.6453Z" fill="#898121"/>
<path d="M58.9096 37.1677V33.1871H60.8771V41.6909H58.8191L58.2083 39.4519L57.7672 37.6651H57.6993V41.6909H55.7205V33.1871H57.6993L58.3327 35.3243L58.8417 37.1677H58.9096Z" fill="#898121"/>
<path d="M66.554 39.5202C66.554 39.9349 66.4974 40.2874 66.3843 40.5774C66.2712 40.8678 66.1091 41.1053 65.8979 41.2898C65.6868 41.4745 65.4304 41.6083 65.1291 41.6913C64.8274 41.7742 64.4846 41.8157 64.1001 41.8157C63.5571 41.8157 63.1257 41.7381 62.8052 41.5838C62.4848 41.4295 62.2416 41.2259 62.076 40.9733C61.9101 40.7207 61.8045 40.4361 61.7593 40.1196C61.714 39.8029 61.6914 39.479 61.6914 39.1472V38.5593H63.6929V39.6448C63.6929 39.7278 63.6966 39.8107 63.7042 39.8937C63.7117 39.9766 63.7287 40.0558 63.7551 40.1312C63.7815 40.2066 63.8211 40.2669 63.8738 40.3122C63.9266 40.3574 63.9942 40.38 64.0774 40.38C64.1679 40.38 64.2414 40.3593 64.298 40.3178C64.3545 40.2764 64.3979 40.2236 64.4281 40.1595C64.4582 40.0954 64.479 40.0238 64.4903 39.9446C64.5016 39.8654 64.5072 39.7881 64.5072 39.7127C64.5072 39.4792 64.4903 39.2869 64.4563 39.1359C64.4224 38.985 64.3602 38.8496 64.2697 38.7287C64.1792 38.6083 64.0567 38.493 63.9021 38.3837C63.7475 38.2746 63.5458 38.1405 63.2973 37.9822C63.0032 37.7939 62.7506 37.6186 62.5397 37.4562C62.3286 37.2941 62.1551 37.1209 62.0194 36.9359C61.8837 36.7512 61.7838 36.5365 61.7197 36.2915C61.6556 36.0467 61.6235 35.7469 61.6235 35.3925C61.6235 34.9853 61.6817 34.635 61.7989 34.3409C61.9157 34.0468 62.0816 33.8058 62.2965 33.6173C62.5114 33.429 62.7659 33.2893 63.0597 33.1988C63.3535 33.1083 63.6816 33.063 64.0435 33.063C64.5638 33.063 64.9783 33.1347 65.2874 33.278C65.5966 33.4212 65.832 33.606 65.9941 33.8322C66.1562 34.0584 66.2615 34.3129 66.3108 34.5954C66.3598 34.8782 66.3843 35.1628 66.3843 35.4491V35.9352H64.3715V35.1776C64.3715 35.0042 64.3489 34.848 64.3037 34.7082C64.2584 34.5687 64.1604 34.499 64.0096 34.499C63.8588 34.499 63.7607 34.5631 63.7155 34.6913C63.6702 34.8194 63.6476 34.9514 63.6476 35.0871C63.6476 35.3058 63.674 35.4849 63.7268 35.6244C63.7796 35.7639 63.8606 35.8883 63.97 35.9977C64.079 36.107 64.2188 36.2144 64.3885 36.32C64.5581 36.4256 64.7634 36.5538 65.0049 36.7046C65.3515 36.9233 65.6267 37.1287 65.8303 37.3207C66.0339 37.5128 66.1904 37.7129 66.2997 37.9202C66.4088 38.1276 66.4788 38.3595 66.509 38.6156C66.5391 38.8719 66.5542 39.1736 66.5542 39.5202H66.554Z" fill="#898121"/>
<path d="M70.3989 34.7591V41.691H68.239V34.7591H66.9612V33.1872H71.6767V34.7591H70.3989Z" fill="#898121"/>
<path d="M72.2986 41.6909V33.1871H74.4584V41.6909H72.2986Z" fill="#898121"/>
<path d="M78.4839 34.7591V41.691H76.3241V34.7591H75.0463V33.1872H79.7618V34.7591H78.4839Z" fill="#898121"/>
<path d="M85.3366 33.1765V39.4074C85.3366 39.8975 85.2612 40.2991 85.1104 40.6117C84.9596 40.9247 84.7654 41.1697 84.5279 41.3467C84.2903 41.5239 84.0245 41.6464 83.7307 41.7143C83.4366 41.7821 83.1428 41.8161 82.8487 41.8161C82.3737 41.8161 81.9762 41.7538 81.6557 41.6294C81.3353 41.505 81.0792 41.3259 80.8869 41.0922C80.6946 40.8587 80.557 40.5797 80.474 40.2554C80.3911 39.9315 80.3496 39.5655 80.3496 39.1586V33.1765H82.5094V39.6902C82.5094 39.758 82.5113 39.8316 82.5151 39.9107C82.5189 39.9899 82.532 40.0615 82.5547 40.1256C82.5773 40.1897 82.6131 40.2425 82.6621 40.284C82.7111 40.3255 82.7768 40.3462 82.8601 40.3462C82.9352 40.3462 82.9939 40.3255 83.0354 40.284C83.0769 40.2425 83.1089 40.1897 83.1315 40.1256C83.1541 40.0615 83.1671 39.9899 83.1711 39.9107C83.1749 39.8316 83.1768 39.758 83.1768 39.6902V33.1765H85.3366Z" fill="#898121"/>
<path d="M89.3396 34.7591V41.691H87.1798V34.7591H85.902V33.1872H90.6175V34.7591H89.3396Z" fill="#898121"/>
<path d="M91.2395 41.6909V33.1871H94.8468V34.759H93.3993V36.4214H94.7563V38.016H93.3993V40.0966H94.9939V41.6912H91.2395V41.6909Z" fill="#898121"/>
</g>
<defs>
<clipPath id="clip0_347_8700">
<rect width="95" height="44.3792" fill="white"/>
</clipPath>
</defs>
</svg>
