<svg width="32" height="32" viewBox="0 0 32 32" fill="none" xmlns="http://www.w3.org/2000/svg">
<mask id="path-1-outside-1_347_13228" maskUnits="userSpaceOnUse" x="-0.799988" y="-0.799988" width="33" height="33" fill="black">
<rect fill="white" x="-0.799988" y="-0.799988" width="33" height="33"/>
<path d="M8.63751 23.2625H22.7V9.20001H8.63751V23.2625ZM23.825 9.20001H26.075V10.325H23.825V12.575H26.075V13.7H23.825V15.3875H26.075V16.5125H23.825V18.7625H26.075V19.8875H23.825V22.1375H26.075V23.2625H23.825V23.339C23.8248 23.617 23.7142 23.8836 23.5176 24.0801C23.3211 24.2767 23.0545 24.3873 22.7765 24.3875H22.7V26.6375H21.575V24.3875H19.325V26.6375H18.2V24.3875H16.5125V26.6375H15.3875V24.3875H13.1375V26.6375H12.0125V24.3875H9.76251V26.6375H8.63751V24.3875H8.56105C8.28303 24.3873 8.01647 24.2767 7.81988 24.0801C7.62329 23.8836 7.51274 23.617 7.51251 23.339V23.2625H5.82501V22.1375H7.51251V19.8875H5.82501V18.7625H7.51251V16.5125H5.82501V15.3875H7.51251V13.7H5.82501V12.575H7.51251V10.325H5.82501V9.20001H7.51251V9.12355C7.51274 8.84553 7.62329 8.57897 7.81988 8.38238C8.01647 8.18579 8.28303 8.07524 8.56105 8.07501H8.63751V5.82501H9.76251V8.07501H12.0125V5.82501H13.1375V8.07501H15.3875V5.82501H16.5125V8.07501H18.2V5.82501H19.325V8.07501H21.575V5.82501H22.7V8.07501H22.7765C23.0545 8.07524 23.3211 8.18579 23.5176 8.38238C23.7142 8.57897 23.8248 8.84553 23.825 9.12355V9.20001ZM16.5125 30.5052C16.5124 30.5237 16.505 30.5414 16.4919 30.5544C16.4789 30.5675 16.4612 30.5749 16.4427 30.575H1.3948C1.37633 30.5749 1.35866 30.5675 1.3456 30.5544C1.33255 30.5414 1.32515 30.5237 1.32501 30.5052V15.4573C1.32515 15.4388 1.33255 15.4212 1.3456 15.4081C1.35866 15.395 1.37633 15.3876 1.3948 15.3875H4.70001V14.2625H1.3948C1.07803 14.2629 0.774353 14.3889 0.550368 14.6129C0.326383 14.8369 0.200384 15.1405 0.200012 15.4573V30.5052C0.200384 30.822 0.326383 31.1257 0.550368 31.3497C0.774353 31.5736 1.07803 31.6996 1.3948 31.7H16.4427C16.7595 31.6996 17.0632 31.5736 17.2872 31.3497C17.5111 31.1257 17.6371 30.822 17.6375 30.5052V27.7625H16.5125V30.5052ZM31.7 1.3948V16.4427C31.6996 16.7595 31.5736 17.0632 31.3497 17.2872C31.1257 17.5111 30.822 17.6371 30.5052 17.6375H27.2V16.5125H30.5052C30.5237 16.5124 30.5414 16.505 30.5544 16.4919C30.5675 16.4789 30.5749 16.4612 30.575 16.4427V1.3948C30.5749 1.37633 30.5675 1.35866 30.5544 1.3456C30.5414 1.33255 30.5237 1.32515 30.5052 1.32501H15.4573C15.4388 1.32515 15.4212 1.33255 15.4081 1.3456C15.395 1.35866 15.3876 1.37633 15.3875 1.3948V4.70001H14.2625V1.3948C14.2629 1.07803 14.3889 0.774353 14.6129 0.550368C14.8369 0.326383 15.1405 0.200384 15.4573 0.200012H30.5052C30.822 0.200384 31.1257 0.326383 31.3497 0.550368C31.5736 0.774353 31.6996 1.07803 31.7 1.3948Z"/>
</mask>
<path d="M8.63751 23.2625H22.7V9.20001H8.63751V23.2625ZM23.825 9.20001H26.075V10.325H23.825V12.575H26.075V13.7H23.825V15.3875H26.075V16.5125H23.825V18.7625H26.075V19.8875H23.825V22.1375H26.075V23.2625H23.825V23.339C23.8248 23.617 23.7142 23.8836 23.5176 24.0801C23.3211 24.2767 23.0545 24.3873 22.7765 24.3875H22.7V26.6375H21.575V24.3875H19.325V26.6375H18.2V24.3875H16.5125V26.6375H15.3875V24.3875H13.1375V26.6375H12.0125V24.3875H9.76251V26.6375H8.63751V24.3875H8.56105C8.28303 24.3873 8.01647 24.2767 7.81988 24.0801C7.62329 23.8836 7.51274 23.617 7.51251 23.339V23.2625H5.82501V22.1375H7.51251V19.8875H5.82501V18.7625H7.51251V16.5125H5.82501V15.3875H7.51251V13.7H5.82501V12.575H7.51251V10.325H5.82501V9.20001H7.51251V9.12355C7.51274 8.84553 7.62329 8.57897 7.81988 8.38238C8.01647 8.18579 8.28303 8.07524 8.56105 8.07501H8.63751V5.82501H9.76251V8.07501H12.0125V5.82501H13.1375V8.07501H15.3875V5.82501H16.5125V8.07501H18.2V5.82501H19.325V8.07501H21.575V5.82501H22.7V8.07501H22.7765C23.0545 8.07524 23.3211 8.18579 23.5176 8.38238C23.7142 8.57897 23.8248 8.84553 23.825 9.12355V9.20001ZM16.5125 30.5052C16.5124 30.5237 16.505 30.5414 16.4919 30.5544C16.4789 30.5675 16.4612 30.5749 16.4427 30.575H1.3948C1.37633 30.5749 1.35866 30.5675 1.3456 30.5544C1.33255 30.5414 1.32515 30.5237 1.32501 30.5052V15.4573C1.32515 15.4388 1.33255 15.4212 1.3456 15.4081C1.35866 15.395 1.37633 15.3876 1.3948 15.3875H4.70001V14.2625H1.3948C1.07803 14.2629 0.774353 14.3889 0.550368 14.6129C0.326383 14.8369 0.200384 15.1405 0.200012 15.4573V30.5052C0.200384 30.822 0.326383 31.1257 0.550368 31.3497C0.774353 31.5736 1.07803 31.6996 1.3948 31.7H16.4427C16.7595 31.6996 17.0632 31.5736 17.2872 31.3497C17.5111 31.1257 17.6371 30.822 17.6375 30.5052V27.7625H16.5125V30.5052ZM31.7 1.3948V16.4427C31.6996 16.7595 31.5736 17.0632 31.3497 17.2872C31.1257 17.5111 30.822 17.6371 30.5052 17.6375H27.2V16.5125H30.5052C30.5237 16.5124 30.5414 16.505 30.5544 16.4919C30.5675 16.4789 30.5749 16.4612 30.575 16.4427V1.3948C30.5749 1.37633 30.5675 1.35866 30.5544 1.3456C30.5414 1.33255 30.5237 1.32515 30.5052 1.32501H15.4573C15.4388 1.32515 15.4212 1.33255 15.4081 1.3456C15.395 1.35866 15.3876 1.37633 15.3875 1.3948V4.70001H14.2625V1.3948C14.2629 1.07803 14.3889 0.774353 14.6129 0.550368C14.8369 0.326383 15.1405 0.200384 15.4573 0.200012H30.5052C30.822 0.200384 31.1257 0.326383 31.3497 0.550368C31.5736 0.774353 31.6996 1.07803 31.7 1.3948Z" fill="white"/>
<path d="M8.63751 23.2625H22.7V9.20001H8.63751V23.2625ZM23.825 9.20001H26.075V10.325H23.825V12.575H26.075V13.7H23.825V15.3875H26.075V16.5125H23.825V18.7625H26.075V19.8875H23.825V22.1375H26.075V23.2625H23.825V23.339C23.8248 23.617 23.7142 23.8836 23.5176 24.0801C23.3211 24.2767 23.0545 24.3873 22.7765 24.3875H22.7V26.6375H21.575V24.3875H19.325V26.6375H18.2V24.3875H16.5125V26.6375H15.3875V24.3875H13.1375V26.6375H12.0125V24.3875H9.76251V26.6375H8.63751V24.3875H8.56105C8.28303 24.3873 8.01647 24.2767 7.81988 24.0801C7.62329 23.8836 7.51274 23.617 7.51251 23.339V23.2625H5.82501V22.1375H7.51251V19.8875H5.82501V18.7625H7.51251V16.5125H5.82501V15.3875H7.51251V13.7H5.82501V12.575H7.51251V10.325H5.82501V9.20001H7.51251V9.12355C7.51274 8.84553 7.62329 8.57897 7.81988 8.38238C8.01647 8.18579 8.28303 8.07524 8.56105 8.07501H8.63751V5.82501H9.76251V8.07501H12.0125V5.82501H13.1375V8.07501H15.3875V5.82501H16.5125V8.07501H18.2V5.82501H19.325V8.07501H21.575V5.82501H22.7V8.07501H22.7765C23.0545 8.07524 23.3211 8.18579 23.5176 8.38238C23.7142 8.57897 23.8248 8.84553 23.825 9.12355V9.20001ZM16.5125 30.5052C16.5124 30.5237 16.505 30.5414 16.4919 30.5544C16.4789 30.5675 16.4612 30.5749 16.4427 30.575H1.3948C1.37633 30.5749 1.35866 30.5675 1.3456 30.5544C1.33255 30.5414 1.32515 30.5237 1.32501 30.5052V15.4573C1.32515 15.4388 1.33255 15.4212 1.3456 15.4081C1.35866 15.395 1.37633 15.3876 1.3948 15.3875H4.70001V14.2625H1.3948C1.07803 14.2629 0.774353 14.3889 0.550368 14.6129C0.326383 14.8369 0.200384 15.1405 0.200012 15.4573V30.5052C0.200384 30.822 0.326383 31.1257 0.550368 31.3497C0.774353 31.5736 1.07803 31.6996 1.3948 31.7H16.4427C16.7595 31.6996 17.0632 31.5736 17.2872 31.3497C17.5111 31.1257 17.6371 30.822 17.6375 30.5052V27.7625H16.5125V30.5052ZM31.7 1.3948V16.4427C31.6996 16.7595 31.5736 17.0632 31.3497 17.2872C31.1257 17.5111 30.822 17.6371 30.5052 17.6375H27.2V16.5125H30.5052C30.5237 16.5124 30.5414 16.505 30.5544 16.4919C30.5675 16.4789 30.5749 16.4612 30.575 16.4427V1.3948C30.5749 1.37633 30.5675 1.35866 30.5544 1.3456C30.5414 1.33255 30.5237 1.32515 30.5052 1.32501H15.4573C15.4388 1.32515 15.4212 1.33255 15.4081 1.3456C15.395 1.35866 15.3876 1.37633 15.3875 1.3948V4.70001H14.2625V1.3948C14.2629 1.07803 14.3889 0.774353 14.6129 0.550368C14.8369 0.326383 15.1405 0.200384 15.4573 0.200012H30.5052C30.822 0.200384 31.1257 0.326383 31.3497 0.550368C31.5736 0.774353 31.6996 1.07803 31.7 1.3948Z" stroke="white" stroke-width="0.4" mask="url(#path-1-outside-1_347_13228)"/>
</svg>
