<svg width="60" height="60" viewBox="0 0 60 60" fill="none" xmlns="http://www.w3.org/2000/svg">
<rect width="60" height="60" rx="30" fill="#E6EEFC"/>
<path d="M42.7078 41.2889L36.449 35.0314C38.2631 32.8535 39.1676 30.0601 38.9746 27.2323C38.7815 24.4045 37.5057 21.7599 35.4125 19.8488C33.3193 17.9377 30.5698 16.9072 27.7362 16.9716C24.9025 17.036 22.2027 18.1904 20.1985 20.1946C18.1943 22.1988 17.0399 24.8986 16.9755 27.7323C16.9111 30.5659 17.9416 33.3153 19.8527 35.4086C21.7639 37.5018 24.4084 38.7776 27.2362 38.9707C30.064 39.1637 32.8574 38.2592 35.0353 36.4451L41.2928 42.7039C41.3857 42.7968 41.496 42.8705 41.6174 42.9208C41.7388 42.9711 41.8689 42.9969 42.0003 42.9969C42.1317 42.9969 42.2618 42.9711 42.3832 42.9208C42.5046 42.8705 42.6149 42.7968 42.7078 42.7039C42.8007 42.611 42.8744 42.5007 42.9247 42.3793C42.975 42.2579 43.0008 42.1278 43.0008 41.9964C43.0008 41.865 42.975 41.7349 42.9247 41.6135C42.8744 41.4921 42.8007 41.3818 42.7078 41.2889ZM19.0003 27.9964C19.0003 26.2163 19.5281 24.4763 20.5171 22.9962C21.506 21.5162 22.9116 20.3627 24.5561 19.6815C26.2007 19.0003 28.0103 18.822 29.7561 19.1693C31.5019 19.5166 33.1056 20.3737 34.3642 21.6324C35.6229 22.8911 36.4801 24.4947 36.8274 26.2406C37.1746 27.9864 36.9964 29.796 36.3152 31.4405C35.634 33.0851 34.4805 34.4907 33.0004 35.4796C31.5204 36.4685 29.7803 36.9964 28.0003 36.9964C25.6141 36.9937 23.3265 36.0447 21.6392 34.3574C19.952 32.6702 19.0029 30.3825 19.0003 27.9964Z" fill="#0957DE"/>
</svg>
