<svg width="60" height="60" viewBox="0 0 60 60" fill="none" xmlns="http://www.w3.org/2000/svg">
<rect width="60" height="60" rx="30" fill="#E6EEFC"/>
<path d="M40 18.0008H34C33.4696 18.0008 32.9609 18.2115 32.5858 18.5866C32.2107 18.9616 32 19.4704 32 20.0008V40.0008C32 40.5312 32.2107 41.0399 32.5858 41.415C32.9609 41.7901 33.4696 42.0008 34 42.0008H40C40.5304 42.0008 41.0391 41.7901 41.4142 41.415C41.7893 41.0399 42 40.5312 42 40.0008V20.0008C42 19.4704 41.7893 18.9616 41.4142 18.5866C41.0391 18.2115 40.5304 18.0008 40 18.0008ZM40 40.0008H34V36.0008H37C37.2652 36.0008 37.5196 35.8954 37.7071 35.7079C37.8946 35.5204 38 35.266 38 35.0008C38 34.7356 37.8946 34.4812 37.7071 34.2937C37.5196 34.1061 37.2652 34.0008 37 34.0008H34V31.0008H37C37.2652 31.0008 37.5196 30.8954 37.7071 30.7079C37.8946 30.5204 38 30.266 38 30.0008C38 29.7356 37.8946 29.4812 37.7071 29.2937C37.5196 29.1061 37.2652 29.0008 37 29.0008H34V26.0008H37C37.2652 26.0008 37.5196 25.8954 37.7071 25.7079C37.8946 25.5204 38 25.266 38 25.0008C38 24.7356 37.8946 24.4812 37.7071 24.2937C37.5196 24.1061 37.2652 24.0008 37 24.0008H34V20.0008H40V40.0008ZM23.7075 17.2933C23.6146 17.2003 23.5043 17.1266 23.3829 17.0762C23.2615 17.0259 23.1314 17 23 17C22.8686 17 22.7385 17.0259 22.6171 17.0762C22.4957 17.1266 22.3854 17.2003 22.2925 17.2933L18.2925 21.2933C18.1997 21.3862 18.1261 21.4965 18.0759 21.6179C18.0257 21.7393 17.9999 21.8694 18 22.0008V40.0008C18 40.5312 18.2107 41.0399 18.5858 41.415C18.9609 41.7901 19.4696 42.0008 20 42.0008H26C26.5304 42.0008 27.0391 41.7901 27.4142 41.415C27.7893 41.0399 28 40.5312 28 40.0008V22.0008C28.0001 21.8694 27.9743 21.7393 27.9241 21.6179C27.8739 21.4965 27.8003 21.3862 27.7075 21.2933L23.7075 17.2933ZM20 36.0008V24.0008H22V36.0008H20ZM24 24.0008H26V36.0008H24V24.0008ZM23 19.4145L25.5863 22.0008H20.4138L23 19.4145ZM20 40.0008V38.0008H26V40.0008H20Z" fill="#0957DE"/>
</svg>
