<svg width="93" height="36" viewBox="0 0 93 36" fill="none" xmlns="http://www.w3.org/2000/svg">
<g style="mix-blend-mode:luminosity" opacity="0.85">
<path d="M31.303 7.06983C31.172 6.96774 31.0195 6.89683 30.857 6.86249C30.6945 6.82814 30.5263 6.83125 30.3651 6.87159L22.0075 8.96065L13.6198 4.76612C13.3861 4.64955 13.1184 4.62046 12.8651 4.68409L4.11514 6.87159C3.87852 6.93073 3.66845 7.06727 3.51833 7.2595C3.36822 7.45173 3.28666 7.68862 3.28662 7.93253V27.62C3.28665 27.7862 3.32455 27.9502 3.39744 28.0996C3.47034 28.2489 3.57631 28.3797 3.70731 28.482C3.83832 28.5843 3.9909 28.6553 4.15349 28.6898C4.31607 28.7243 4.48437 28.7213 4.64561 28.681L13.0032 26.5919L21.3909 30.7864C21.5432 30.8615 21.7106 30.9008 21.8804 30.9013C21.9698 30.9012 22.0589 30.8902 22.1456 30.8685L30.8956 28.681C31.1322 28.6218 31.3423 28.4853 31.4924 28.293C31.6425 28.1008 31.7241 27.8639 31.7241 27.62V7.93253C31.7242 7.76617 31.6862 7.602 31.6133 7.45251C31.5403 7.30302 31.4342 7.17214 31.303 7.06983ZM13.1304 24.3388C13.041 24.3388 12.9519 24.3498 12.8651 24.3716L5.47412 26.2187V8.78702L13.0032 6.9044L13.1304 6.96729V24.3388ZM29.5366 26.7655L22.0075 28.6482L21.8804 28.5853V11.2138C21.9697 11.2142 22.0588 11.2036 22.1456 11.1823L29.5366 9.33389V26.7655Z" fill="#A60C19"/>
<path d="M44.0206 6.99V9.98444H48.0417V11.8838H44.0206V15.0493H48.555V17H41.625V5.03933H48.555V6.99H44.0206ZM55.968 17L54.0173 14.0569L52.2891 17H49.7224L52.8195 12.2431L49.6882 7.52044H52.3918L54.3253 10.4464L56.0707 7.52044H58.6373L55.5231 12.2431L58.6715 17H55.968ZM62.3682 8.88933C62.6762 8.45585 63.0983 8.09652 63.6344 7.81133C64.182 7.51474 64.8037 7.36644 65.4996 7.36644C66.3095 7.36644 67.0396 7.56607 67.6898 7.96533C68.3514 8.36459 68.8704 8.93496 69.2469 9.67644C69.6347 10.4065 69.8287 11.2564 69.8287 12.226C69.8287 13.1956 69.6347 14.0569 69.2469 14.8098C68.8704 15.5513 68.3514 16.1273 67.6898 16.538C67.0396 16.9487 66.3095 17.154 65.4996 17.154C64.8037 17.154 64.1877 17.0114 63.6516 16.7262C63.1268 16.441 62.699 16.0817 62.3682 15.6482V21.5173H59.9727V7.52044H62.3682V8.88933ZM67.3818 12.226C67.3818 11.6556 67.262 11.1651 67.0224 10.7544C66.7943 10.3324 66.4863 10.013 66.0984 9.79622C65.722 9.57948 65.3113 9.47111 64.8664 9.47111C64.433 9.47111 64.0223 9.58518 63.6344 9.81333C63.258 10.0301 62.95 10.3495 62.7104 10.7716C62.4823 11.1936 62.3682 11.6899 62.3682 12.2602C62.3682 12.8306 62.4823 13.3268 62.7104 13.7489C62.95 14.171 63.258 14.4961 63.6344 14.7242C64.0223 14.941 64.433 15.0493 64.8664 15.0493C65.3113 15.0493 65.722 14.9353 66.0984 14.7071C66.4863 14.479 66.7943 14.1539 67.0224 13.7318C67.262 13.3097 67.3818 12.8078 67.3818 12.226ZM70.9534 12.226C70.9534 11.2678 71.1417 10.4179 71.5181 9.67644C71.906 8.93496 72.425 8.36459 73.0752 7.96533C73.7369 7.56607 74.4726 7.36644 75.2826 7.36644C75.9898 7.36644 76.6058 7.50904 77.1306 7.79422C77.6667 8.07941 78.0945 8.43874 78.4139 8.87222V7.52044H80.8266V17H78.4139V15.614C78.1059 16.0589 77.6781 16.4296 77.1306 16.7262C76.5944 17.0114 75.9727 17.154 75.2655 17.154C74.4669 17.154 73.7369 16.9487 73.0752 16.538C72.425 16.1273 71.906 15.5513 71.5181 14.8098C71.1417 14.0569 70.9534 13.1956 70.9534 12.226ZM78.4139 12.2602C78.4139 11.6784 78.2998 11.1822 78.0717 10.7716C77.8435 10.3495 77.5355 10.0301 77.1477 9.81333C76.7598 9.58518 76.3435 9.47111 75.8986 9.47111C75.4537 9.47111 75.043 9.57948 74.6666 9.79622C74.2901 10.013 73.9821 10.3324 73.7426 10.7544C73.5144 11.1651 73.4003 11.6556 73.4003 12.226C73.4003 12.7964 73.5144 13.2983 73.7426 13.7318C73.9821 14.1539 74.2901 14.479 74.6666 14.7071C75.0544 14.9353 75.4651 15.0493 75.8986 15.0493C76.3435 15.0493 76.7598 14.941 77.1477 14.7242C77.5355 14.4961 77.8435 14.1767 78.0717 13.766C78.2998 13.3439 78.4139 12.842 78.4139 12.2602ZM85.9554 9.48822V14.074C85.9554 14.3934 86.0295 14.6273 86.1778 14.7756C86.3375 14.9124 86.5999 14.9809 86.9649 14.9809H88.0771V17H86.5714C84.5522 17 83.5427 16.019 83.5427 14.0569V9.48822H82.4134V7.52044H83.5427V5.17622H85.9554V7.52044H88.0771V9.48822H85.9554Z" fill="#A60C19"/>
<path d="M46.4923 26.041V32.5557H45.1857V29.7837H42.395V32.5557H41.0883V26.041H42.395V28.7197H45.1857V26.041H46.4923ZM47.4424 29.9517C47.4424 29.429 47.5451 28.9654 47.7504 28.561C47.962 28.1566 48.2451 27.8454 48.5998 27.6277C48.9607 27.4099 49.362 27.301 49.8038 27.301C50.1896 27.301 50.5256 27.3788 50.8118 27.5343C51.1042 27.6899 51.3376 27.8859 51.5118 28.1223V27.385H52.8278V32.5557H51.5118V31.7997C51.3438 32.0423 51.1104 32.2446 50.8118 32.4063C50.5193 32.5619 50.1802 32.6397 49.7944 32.6397C49.3589 32.6397 48.9607 32.5277 48.5998 32.3037C48.2451 32.0797 47.962 31.7654 47.7504 31.361C47.5451 30.9503 47.4424 30.4806 47.4424 29.9517ZM51.5118 29.9703C51.5118 29.653 51.4496 29.3823 51.3251 29.1583C51.2007 28.9281 51.0327 28.7539 50.8211 28.6357C50.6096 28.5112 50.3824 28.449 50.1398 28.449C49.8971 28.449 49.6731 28.5081 49.4678 28.6263C49.2624 28.7446 49.0944 28.9188 48.9638 29.149C48.8393 29.373 48.7771 29.6406 48.7771 29.9517C48.7771 30.2628 48.8393 30.5366 48.9638 30.773C49.0944 31.0032 49.2624 31.1806 49.4678 31.305C49.6793 31.4294 49.9033 31.4917 50.1398 31.4917C50.3824 31.4917 50.6096 31.4326 50.8211 31.3143C51.0327 31.1899 51.2007 31.0157 51.3251 30.7917C51.4496 30.5614 51.5118 30.2877 51.5118 29.9703ZM56.26 31.3517L57.5666 27.385H58.9573L57.044 32.5557H55.4573L53.5533 27.385H54.9533L56.26 31.3517ZM64.4979 29.8583C64.4979 30.045 64.4854 30.213 64.4605 30.3623H60.6805C60.7116 30.7357 60.8423 31.0281 61.0725 31.2397C61.3028 31.4512 61.5859 31.557 61.9219 31.557C62.4072 31.557 62.7525 31.3486 62.9579 30.9317H64.3672C64.2179 31.4294 63.9316 31.8401 63.5085 32.1637C63.0854 32.481 62.5659 32.6397 61.9499 32.6397C61.4521 32.6397 61.0041 32.5308 60.6059 32.313C60.2139 32.089 59.9059 31.7748 59.6819 31.3703C59.4641 30.9659 59.3552 30.4992 59.3552 29.9703C59.3552 29.4352 59.4641 28.9654 59.6819 28.561C59.8996 28.1566 60.2045 27.8454 60.5965 27.6277C60.9885 27.4099 61.4396 27.301 61.9499 27.301C62.4414 27.301 62.8801 27.4068 63.2659 27.6183C63.6579 27.8299 63.9596 28.1317 64.1712 28.5237C64.389 28.9094 64.4979 29.3543 64.4979 29.8583ZM63.1445 29.485C63.1383 29.149 63.017 28.8814 62.7805 28.6823C62.5441 28.477 62.2548 28.3743 61.9125 28.3743C61.589 28.3743 61.3152 28.4739 61.0912 28.673C60.8734 28.8659 60.7396 29.1366 60.6899 29.485H63.1445ZM68.317 27.3103C68.933 27.3103 69.4307 27.5063 69.8103 27.8983C70.1898 28.2841 70.3796 28.8254 70.3796 29.5223V32.5557H69.073V29.6997C69.073 29.289 68.9703 28.9748 68.765 28.757C68.5596 28.533 68.2796 28.421 67.925 28.421C67.5641 28.421 67.2778 28.533 67.0663 28.757C66.861 28.9748 66.7583 29.289 66.7583 29.6997V32.5557H65.4516V27.385H66.7583V28.029C66.9325 27.805 67.1534 27.6308 67.421 27.5063C67.6947 27.3757 67.9934 27.3103 68.317 27.3103ZM79.2501 26.041V32.5557H77.9435V29.7837H75.1528V32.5557H73.8461V26.041H75.1528V28.7197H77.9435V26.041H79.2501ZM85.4176 27.385V32.5557H84.1016V31.9023C83.9336 32.1263 83.7127 32.3037 83.4389 32.4343C83.1714 32.5588 82.8789 32.621 82.5616 32.621C82.1571 32.621 81.7994 32.537 81.4883 32.369C81.1771 32.1948 80.9314 31.9428 80.7509 31.613C80.5767 31.277 80.4896 30.8788 80.4896 30.4183V27.385H81.7963V30.2317C81.7963 30.6423 81.8989 30.9597 82.1043 31.1837C82.3096 31.4014 82.5896 31.5103 82.9443 31.5103C83.3051 31.5103 83.5883 31.4014 83.7936 31.1837C83.9989 30.9597 84.1016 30.6423 84.1016 30.2317V27.385H85.4176ZM88.0135 28.141C88.1815 27.8921 88.4117 27.6899 88.7042 27.5343C89.0028 27.3788 89.3419 27.301 89.7215 27.301C90.1633 27.301 90.5615 27.4099 90.9162 27.6277C91.2771 27.8454 91.5602 28.1566 91.7655 28.561C91.9771 28.9592 92.0828 29.4228 92.0828 29.9517C92.0828 30.4806 91.9771 30.9503 91.7655 31.361C91.5602 31.7654 91.2771 32.0797 90.9162 32.3037C90.5615 32.5277 90.1633 32.6397 89.7215 32.6397C89.3357 32.6397 88.9966 32.565 88.7042 32.4157C88.4179 32.2601 88.1877 32.061 88.0135 31.8183V32.5557H86.7068V25.649H88.0135V28.141ZM90.7482 29.9517C90.7482 29.6406 90.6828 29.373 90.5522 29.149C90.4277 28.9188 90.2597 28.7446 90.0482 28.6263C89.8428 28.5081 89.6188 28.449 89.3762 28.449C89.1397 28.449 88.9157 28.5112 88.7042 28.6357C88.4988 28.7539 88.3308 28.9281 88.2002 29.1583C88.0757 29.3886 88.0135 29.6592 88.0135 29.9703C88.0135 30.2814 88.0757 30.5521 88.2002 30.7823C88.3308 31.0126 88.4988 31.1899 88.7042 31.3143C88.9157 31.4326 89.1397 31.4917 89.3762 31.4917C89.6188 31.4917 89.8428 31.4294 90.0482 31.305C90.2597 31.1806 90.4277 31.0032 90.5522 30.773C90.6828 30.5428 90.7482 30.269 90.7482 29.9517Z" fill="#5D5D5D"/>
</g>
</svg>
