<svg width="60" height="60" viewBox="0 0 60 60" fill="none" xmlns="http://www.w3.org/2000/svg">
<rect width="60" height="60" rx="30" fill="#E6EEFC"/>
<path d="M38.6967 30.1325L32.2492 27.75L29.8742 21.2975C29.7336 20.9154 29.4791 20.5857 29.1452 20.3527C28.8112 20.1198 28.4139 19.9949 28.0067 19.9949C27.5996 19.9949 27.2022 20.1198 26.8683 20.3527C26.5343 20.5857 26.2799 20.9154 26.1392 21.2975L23.7492 27.75L17.2967 30.125C16.9146 30.2656 16.5849 30.5201 16.352 30.8541C16.119 31.188 15.9941 31.5854 15.9941 31.9925C15.9941 32.3997 16.119 32.797 16.352 33.131C16.5849 33.4649 16.9146 33.7194 17.2967 33.86L23.7492 36.25L26.1242 42.7025C26.2649 43.0846 26.5193 43.4143 26.8533 43.6473C27.1872 43.8802 27.5846 44.0051 27.9917 44.0051C28.3989 44.0051 28.7962 43.8802 29.1302 43.6473C29.4641 43.4143 29.7186 43.0846 29.8592 42.7025L32.2492 36.25L38.7017 33.875C39.0838 33.7344 39.4136 33.4799 39.6465 33.146C39.8794 32.812 40.0043 32.4147 40.0043 32.0075C40.0043 31.6003 39.8794 31.203 39.6465 30.8691C39.4136 30.5351 39.0838 30.2806 38.7017 30.14L38.6967 30.1325ZM31.1242 34.5275C30.9885 34.5775 30.8652 34.6564 30.7629 34.7587C30.6606 34.861 30.5817 34.9843 30.5317 35.12L27.9992 41.9813L25.4717 35.125C25.4218 34.9878 25.3424 34.8633 25.2392 34.76C25.136 34.6568 25.0114 34.5774 24.8742 34.5275L18.018 32L24.8742 29.4725C25.0114 29.4226 25.136 29.3432 25.2392 29.24C25.3424 29.1367 25.4218 29.0122 25.4717 28.875L27.9992 22.0188L30.5267 28.875C30.5767 29.0107 30.6556 29.134 30.7579 29.2363C30.8602 29.3386 30.9835 29.4175 31.1192 29.4675L37.9805 32L31.1242 34.5275ZM31.9992 19C31.9992 18.7348 32.1046 18.4804 32.2921 18.2929C32.4797 18.1054 32.734 18 32.9992 18H34.9992V16C34.9992 15.7348 35.1046 15.4804 35.2921 15.2929C35.4797 15.1054 35.734 15 35.9992 15C36.2644 15 36.5188 15.1054 36.7063 15.2929C36.8939 15.4804 36.9992 15.7348 36.9992 16V18H38.9992C39.2644 18 39.5188 18.1054 39.7063 18.2929C39.8939 18.4804 39.9992 18.7348 39.9992 19C39.9992 19.2652 39.8939 19.5196 39.7063 19.7071C39.5188 19.8946 39.2644 20 38.9992 20H36.9992V22C36.9992 22.2652 36.8939 22.5196 36.7063 22.7071C36.5188 22.8946 36.2644 23 35.9992 23C35.734 23 35.4797 22.8946 35.2921 22.7071C35.1046 22.5196 34.9992 22.2652 34.9992 22V20H32.9992C32.734 20 32.4797 19.8946 32.2921 19.7071C32.1046 19.5196 31.9992 19.2652 31.9992 19ZM44.9992 25C44.9992 25.2652 44.8939 25.5196 44.7063 25.7071C44.5188 25.8946 44.2644 26 43.9992 26H42.9992V27C42.9992 27.2652 42.8939 27.5196 42.7063 27.7071C42.5188 27.8946 42.2644 28 41.9992 28C41.734 28 41.4797 27.8946 41.2921 27.7071C41.1046 27.5196 40.9992 27.2652 40.9992 27V26H39.9992C39.734 26 39.4797 25.8946 39.2921 25.7071C39.1046 25.5196 38.9992 25.2652 38.9992 25C38.9992 24.7348 39.1046 24.4804 39.2921 24.2929C39.4797 24.1054 39.734 24 39.9992 24H40.9992V23C40.9992 22.7348 41.1046 22.4804 41.2921 22.2929C41.4797 22.1054 41.734 22 41.9992 22C42.2644 22 42.5188 22.1054 42.7063 22.2929C42.8939 22.4804 42.9992 22.7348 42.9992 23V24H43.9992C44.2644 24 44.5188 24.1054 44.7063 24.2929C44.8939 24.4804 44.9992 24.7348 44.9992 25Z" fill="#0957DE"/>
</svg>
