<svg width="60" height="60" viewBox="0 0 60 60" fill="none" xmlns="http://www.w3.org/2000/svg">
<rect width="60" height="60" rx="30" fill="#E6EEFC"/>
<path d="M34 41H33.95C33.7552 40.9887 33.5677 40.9214 33.4103 40.8061C33.2528 40.6907 33.132 40.5324 33.0625 40.35L25.9125 21.6L21.9125 30.4125C21.8331 30.5879 21.7047 30.7366 21.5429 30.8408C21.381 30.945 21.1925 31.0003 21 31H17C16.7348 31 16.4804 30.8947 16.2929 30.7071C16.1054 30.5196 16 30.2652 16 30C16 29.7348 16.1054 29.4804 16.2929 29.2929C16.4804 29.1054 16.7348 29 17 29H20.35L25.0875 18.5875C25.1721 18.4082 25.3068 18.2573 25.4754 18.153C25.6441 18.0487 25.8393 17.9956 26.0375 18C26.235 18.0073 26.4258 18.073 26.586 18.1886C26.7462 18.3043 26.8685 18.4649 26.9375 18.65L34.125 37.5125L38.1 29.55C38.1861 29.3854 38.3153 29.2472 38.4738 29.1504C38.6324 29.0535 38.8142 29.0015 39 29H43C43.2652 29 43.5196 29.1054 43.7071 29.2929C43.8946 29.4804 44 29.7348 44 30C44 30.2652 43.8946 30.5196 43.7071 30.7071C43.5196 30.8947 43.2652 31 43 31H39.6125L34.9 40.45C34.8139 40.6146 34.6847 40.7528 34.5262 40.8497C34.3676 40.9465 34.1858 40.9985 34 41Z" fill="#0957DE"/>
</svg>
