<svg width="60" height="60" viewBox="0 0 60 60" fill="none" xmlns="http://www.w3.org/2000/svg">
<rect width="60" height="60" rx="30" fill="#E6EEFC"/>
<path d="M45 29.5C44.9986 28.1754 44.6223 26.8783 43.9144 25.7587C43.2065 24.6391 42.196 23.7429 41 23.1738V23C40.9988 21.7115 40.5829 20.4576 39.8138 19.4239C39.0447 18.3901 37.9632 17.6314 36.7294 17.26C35.4956 16.8886 34.1751 16.9243 32.9631 17.3617C31.7512 17.7991 30.7122 18.615 30 19.6888C29.2877 18.615 28.2488 17.7991 27.0368 17.3617C25.8248 16.9243 24.5043 16.8886 23.2705 17.26C22.0367 17.6314 20.9552 18.3901 20.1861 19.4239C19.417 20.4576 19.0011 21.7115 19 23V23.1738C17.8029 23.7414 16.7915 24.637 16.0832 25.7567C15.375 26.8763 14.999 28.1739 14.999 29.4987C14.999 30.8236 15.375 32.1212 16.0832 33.2408C16.7915 34.3605 17.8029 35.2561 19 35.8237V36C19.0011 37.2885 19.417 38.5424 20.1861 39.5761C20.9552 40.6099 22.0367 41.3686 23.2705 41.74C24.5043 42.1114 25.8248 42.0757 27.0368 41.6383C28.2488 41.2009 29.2877 40.385 30 39.3113C30.7122 40.385 31.7512 41.2009 32.9631 41.6383C34.1751 42.0757 35.4956 42.1114 36.7294 41.74C37.9632 41.3686 39.0447 40.6099 39.8138 39.5761C40.5829 38.5424 40.9988 37.2885 41 36V35.8237C42.1958 35.255 43.2062 34.3592 43.9141 33.2401C44.622 32.121 44.9985 30.8242 45 29.5ZM25 40C24.0136 39.9999 23.0622 39.6353 22.3282 38.9764C21.5943 38.3175 21.1297 37.4106 21.0237 36.43C21.3471 36.4761 21.6733 36.4995 22 36.5H23C23.2652 36.5 23.5195 36.3946 23.7071 36.2071C23.8946 36.0196 24 35.7652 24 35.5C24 35.2348 23.8946 34.9804 23.7071 34.7929C23.5195 34.6054 23.2652 34.5 23 34.5H22C20.8194 34.5014 19.6764 34.085 18.7734 33.3246C17.8704 32.5641 17.2656 31.5087 17.0661 30.3451C16.8665 29.1816 17.0851 27.9849 17.6832 26.9671C18.2812 25.9492 19.2202 25.1758 20.3337 24.7838C20.5285 24.7148 20.6972 24.5871 20.8165 24.4183C20.9358 24.2495 20.9999 24.0479 21 23.8413V23C21 21.9391 21.4214 20.9217 22.1715 20.1716C22.9217 19.4214 23.9391 19 25 19C26.0608 19 27.0782 19.4214 27.8284 20.1716C28.5785 20.9217 29 21.9391 29 23V31.5325C27.9019 30.5449 26.4769 29.9989 25 30C24.7347 30 24.4804 30.1054 24.2929 30.2929C24.1053 30.4804 24 30.7348 24 31C24 31.2652 24.1053 31.5196 24.2929 31.7071C24.4804 31.8946 24.7347 32 25 32C26.0608 32 27.0782 32.4214 27.8284 33.1716C28.5785 33.9217 29 34.9391 29 36C29 37.0609 28.5785 38.0783 27.8284 38.8284C27.0782 39.5786 26.0608 40 25 40ZM38 34.5H37C36.7347 34.5 36.4804 34.6054 36.2929 34.7929C36.1053 34.9804 36 35.2348 36 35.5C36 35.7652 36.1053 36.0196 36.2929 36.2071C36.4804 36.3946 36.7347 36.5 37 36.5H38C38.3266 36.4995 38.6528 36.4761 38.9762 36.43C38.8931 37.1983 38.5893 37.9262 38.1013 38.5255C37.6134 39.1248 36.9623 39.5699 36.2268 39.807C35.4913 40.0442 34.7028 40.0632 33.9567 39.8617C33.2106 39.6603 32.5388 39.247 32.0226 38.6719C31.5064 38.0967 31.1679 37.3844 31.0479 36.621C30.9279 35.8575 31.0317 35.0757 31.3466 34.3699C31.6615 33.6642 32.1742 33.0648 32.8225 32.6442C33.4708 32.2237 34.2271 31.9999 35 32C35.2652 32 35.5195 31.8946 35.7071 31.7071C35.8946 31.5196 36 31.2652 36 31C36 30.7348 35.8946 30.4804 35.7071 30.2929C35.5195 30.1054 35.2652 30 35 30C33.523 29.9989 32.0981 30.5449 31 31.5325V23C31 21.9391 31.4214 20.9217 32.1715 20.1716C32.9217 19.4214 33.9391 19 35 19C36.0608 19 37.0782 19.4214 37.8284 20.1716C38.5785 20.9217 39 21.9391 39 23V23.8413C39 24.0479 39.0641 24.2495 39.1834 24.4183C39.3027 24.5871 39.4714 24.7148 39.6662 24.7838C40.7798 25.1758 41.7187 25.9492 42.3167 26.9671C42.9148 27.9849 43.1334 29.1816 42.9339 30.3451C42.7343 31.5087 42.1295 32.5641 41.2265 33.3246C40.3235 34.085 39.1805 34.5014 38 34.5ZM40 28C40 28.2652 39.8946 28.5196 39.7071 28.7071C39.5195 28.8946 39.2652 29 39 29H38.5C37.3065 29 36.1619 28.5259 35.318 27.682C34.4741 26.8381 34 25.6935 34 24.5V24C34 23.7348 34.1053 23.4804 34.2929 23.2929C34.4804 23.1054 34.7347 23 35 23C35.2652 23 35.5195 23.1054 35.7071 23.2929C35.8946 23.4804 36 23.7348 36 24V24.5C36 25.163 36.2633 25.7989 36.7322 26.2678C37.201 26.7366 37.8369 27 38.5 27H39C39.2652 27 39.5195 27.1054 39.7071 27.2929C39.8946 27.4804 40 27.7348 40 28ZM21.5 29H21C20.7347 29 20.4804 28.8946 20.2929 28.7071C20.1053 28.5196 20 28.2652 20 28C20 27.7348 20.1053 27.4804 20.2929 27.2929C20.4804 27.1054 20.7347 27 21 27H21.5C22.163 27 22.7989 26.7366 23.2677 26.2678C23.7366 25.7989 24 25.163 24 24.5V24C24 23.7348 24.1053 23.4804 24.2929 23.2929C24.4804 23.1054 24.7347 23 25 23C25.2652 23 25.5195 23.1054 25.7071 23.2929C25.8946 23.4804 26 23.7348 26 24V24.5C26 25.6935 25.5259 26.8381 24.6819 27.682C23.838 28.5259 22.6934 29 21.5 29Z" fill="#0957DE"/>
</svg>
