<svg width="60" height="60" viewBox="0 0 60 60" fill="none" xmlns="http://www.w3.org/2000/svg">
<rect width="60" height="60" rx="30" fill="#E6EEFC"/>
<path d="M42.8638 35.4999C42.9958 35.7291 43.0317 36.0013 42.9635 36.2569C42.8954 36.5125 42.7287 36.7307 42.5 36.8636L30.5 43.8636C30.3471 43.9528 30.1733 43.9998 29.9963 43.9998C29.8192 43.9998 29.6454 43.9528 29.4925 43.8636L17.4925 36.8636C17.2671 36.7282 17.1041 36.5095 17.0389 36.2547C16.9736 36 17.0113 35.7299 17.1438 35.5027C17.2762 35.2756 17.4928 35.1097 17.7467 35.0411C18.0005 34.9725 18.2711 35.0067 18.5 35.1361L30 41.8424L41.5 35.1361C41.7292 35.0041 42.0014 34.9682 42.257 35.0364C42.5126 35.1045 42.7308 35.2712 42.8638 35.4999ZM41.5 29.1361L30 35.8424L18.5 29.1361C18.2723 29.0228 18.01 29.0004 17.7664 29.0737C17.5228 29.1469 17.3163 29.3102 17.1888 29.5303C17.0614 29.7505 17.0227 30.0109 17.0805 30.2586C17.1383 30.5063 17.2883 30.7227 17.5 30.8637L29.5 37.8636C29.6529 37.9528 29.8267 37.9998 30.0037 37.9998C30.1808 37.9998 30.3546 37.9528 30.5075 37.8636L42.5075 30.8637C42.6228 30.7984 42.7239 30.711 42.8051 30.6064C42.8863 30.5017 42.9459 30.382 42.9804 30.2542C43.015 30.1264 43.0238 29.9929 43.0064 29.8617C42.9889 29.7304 42.9456 29.6039 42.8789 29.4895C42.8122 29.3751 42.7234 29.2751 42.6177 29.1953C42.5121 29.1155 42.3916 29.0575 42.2633 29.0246C42.135 28.9917 42.0015 28.9847 41.8705 29.0038C41.7394 29.023 41.6135 29.0679 41.5 29.1361ZM17 23.9999C17.0004 23.8247 17.0468 23.6528 17.1345 23.5012C17.2223 23.3496 17.3483 23.2237 17.5 23.1361L29.5 16.1362C29.6529 16.047 29.8267 16 30.0037 16C30.1808 16 30.3546 16.047 30.5075 16.1362L42.5075 23.1361C42.6585 23.2242 42.7837 23.3503 42.8707 23.5019C42.9578 23.6534 43.0036 23.8251 43.0036 23.9999C43.0036 24.1747 42.9578 24.3464 42.8707 24.4979C42.7837 24.6495 42.6585 24.7756 42.5075 24.8637L30.5075 31.8637C30.3546 31.9528 30.1808 31.9998 30.0037 31.9998C29.8267 31.9998 29.6529 31.9528 29.5 31.8637L17.5 24.8637C17.3483 24.7761 17.2223 24.6502 17.1345 24.4986C17.0468 24.347 17.0004 24.1751 17 23.9999ZM19.985 23.9999L30 29.8424L40.015 23.9999L30 18.1574L19.985 23.9999Z" fill="#0957DE"/>
</svg>
