<svg width="60" height="60" viewBox="0 0 60 60" fill="none" xmlns="http://www.w3.org/2000/svg">
<rect width="60" height="60" rx="30" fill="#E6EEFC"/>
<path d="M25.2933 21.7076C25.2003 21.6147 25.1266 21.5044 25.0762 21.383C25.0259 21.2616 25 21.1315 25 21.0001C25 20.8686 25.0259 20.7385 25.0762 20.6171C25.1266 20.4957 25.2003 20.3854 25.2933 20.2926L29.2933 16.2926C29.3862 16.1996 29.4965 16.1258 29.6178 16.0755C29.7392 16.0252 29.8694 15.9993 30.0008 15.9993C30.1322 15.9993 30.2623 16.0252 30.3837 16.0755C30.5051 16.1258 30.6154 16.1996 30.7083 16.2926L34.7083 20.2926C34.8959 20.4802 35.0013 20.7347 35.0013 21.0001C35.0013 21.2654 34.8959 21.5199 34.7083 21.7076C34.5206 21.8952 34.2662 22.0006 34.0008 22.0006C33.7354 22.0006 33.4809 21.8952 33.2933 21.7076L31.0008 19.4138V26.0001C31.0008 26.2653 30.8954 26.5196 30.7079 26.7072C30.5204 26.8947 30.266 27.0001 30.0008 27.0001C29.7356 27.0001 29.4812 26.8947 29.2937 26.7072C29.1061 26.5196 29.0008 26.2653 29.0008 26.0001V19.4138L26.7083 21.7076C26.6154 21.8005 26.5051 21.8743 26.3837 21.9246C26.2623 21.9749 26.1322 22.0008 26.0008 22.0008C25.8694 22.0008 25.7392 21.9749 25.6178 21.9246C25.4964 21.8743 25.3862 21.8005 25.2933 21.7076ZM33.2933 38.2926L31.0008 40.5863V34.0001C31.0008 33.7348 30.8954 33.4805 30.7079 33.2929C30.5204 33.1054 30.266 33.0001 30.0008 33.0001C29.7356 33.0001 29.4812 33.1054 29.2937 33.2929C29.1061 33.4805 29.0008 33.7348 29.0008 34.0001V40.5863L26.7083 38.2926C26.5206 38.1049 26.2662 37.9995 26.0008 37.9995C25.7354 37.9995 25.4809 38.1049 25.2933 38.2926C25.1056 38.4802 25.0002 38.7347 25.0002 39.0001C25.0002 39.2654 25.1056 39.5199 25.2933 39.7076L29.2933 43.7076C29.3862 43.8005 29.4965 43.8743 29.6178 43.9246C29.7392 43.9749 29.8694 44.0008 30.0008 44.0008C30.1322 44.0008 30.2623 43.9749 30.3837 43.9246C30.5051 43.8743 30.6154 43.8005 30.7083 43.7076L34.7083 39.7076C34.8959 39.5199 35.0013 39.2654 35.0013 39.0001C35.0013 38.7347 34.8959 38.4802 34.7083 38.2926C34.5206 38.1049 34.2662 37.9995 34.0008 37.9995C33.7354 37.9995 33.4809 38.1049 33.2933 38.2926ZM43.7083 29.2926L39.7083 25.2926C39.5206 25.1049 39.2662 24.9995 39.0008 24.9995C38.7354 24.9995 38.4809 25.1049 38.2933 25.2926C38.1056 25.4802 38.0002 25.7347 38.0002 26.0001C38.0002 26.2654 38.1056 26.5199 38.2933 26.7076L40.587 29.0001H34.0008C33.7356 29.0001 33.4812 29.1054 33.2937 29.2929C33.1061 29.4805 33.0008 29.7348 33.0008 30.0001C33.0008 30.2653 33.1061 30.5196 33.2937 30.7072C33.4812 30.8947 33.7356 31.0001 34.0008 31.0001H40.587L38.2933 33.2926C38.1056 33.4802 38.0002 33.7347 38.0002 34.0001C38.0002 34.2654 38.1056 34.5199 38.2933 34.7076C38.4809 34.8952 38.7354 35.0006 39.0008 35.0006C39.2662 35.0006 39.5206 34.8952 39.7083 34.7076L43.7083 30.7076C43.8013 30.6147 43.875 30.5044 43.9254 30.383C43.9757 30.2616 44.0016 30.1315 44.0016 30.0001C44.0016 29.8686 43.9757 29.7385 43.9254 29.6171C43.875 29.4957 43.8013 29.3854 43.7083 29.2926ZM19.4145 31.0001H26.0008C26.266 31.0001 26.5204 30.8947 26.7079 30.7072C26.8954 30.5196 27.0008 30.2653 27.0008 30.0001C27.0008 29.7348 26.8954 29.4805 26.7079 29.2929C26.5204 29.1054 26.266 29.0001 26.0008 29.0001H19.4145L21.7083 26.7076C21.8959 26.5199 22.0013 26.2654 22.0013 26.0001C22.0013 25.7347 21.8959 25.4802 21.7083 25.2926C21.5206 25.1049 21.2662 24.9995 21.0008 24.9995C20.7354 24.9995 20.4809 25.1049 20.2933 25.2926L16.2933 29.2926C16.2003 29.3854 16.1266 29.4957 16.0762 29.6171C16.0259 29.7385 16 29.8686 16 30.0001C16 30.1315 16.0259 30.2616 16.0762 30.383C16.1266 30.5044 16.2003 30.6147 16.2933 30.7076L20.2933 34.7076C20.4809 34.8952 20.7354 35.0006 21.0008 35.0006C21.2662 35.0006 21.5206 34.8952 21.7083 34.7076C21.8959 34.5199 22.0013 34.2654 22.0013 34.0001C22.0013 33.7347 21.8959 33.4802 21.7083 33.2926L19.4145 31.0001Z" fill="#0957DE"/>
</svg>
