<svg width="60" height="60" viewBox="0 0 60 60" fill="none" xmlns="http://www.w3.org/2000/svg">
<rect width="60" height="60" rx="30" fill="#E6EEFC"/>
<path d="M41 22H21C20.7348 22 20.4804 21.8946 20.2929 21.7071C20.1054 21.5196 20 21.2652 20 21C20 20.7348 20.1054 20.4804 20.2929 20.2929C20.4804 20.1054 20.7348 20 21 20H38C38.2652 20 38.5196 19.8946 38.7071 19.7071C38.8946 19.5196 39 19.2652 39 19C39 18.7348 38.8946 18.4804 38.7071 18.2929C38.5196 18.1054 38.2652 18 38 18H21C20.2044 18 19.4413 18.3161 18.8787 18.8787C18.3161 19.4413 18 20.2044 18 21V37C18 37.7956 18.3161 38.5587 18.8787 39.1213C19.4413 39.6839 20.2044 40 21 40H41C41.5304 40 42.0391 39.7893 42.4142 39.4142C42.7893 39.0391 43 38.5304 43 38V24C43 23.4696 42.7893 22.9609 42.4142 22.5858C42.0391 22.2107 41.5304 22 41 22ZM41 38H21C20.7348 38 20.4804 37.8946 20.2929 37.7071C20.1054 37.5196 20 37.2652 20 37V23.8287C20.3211 23.9427 20.6593 24.0006 21 24H41V38ZM35 30.5C35 30.2033 35.088 29.9133 35.2528 29.6666C35.4176 29.42 35.6519 29.2277 35.926 29.1142C36.2001 29.0006 36.5017 28.9709 36.7926 29.0288C37.0836 29.0867 37.3509 29.2296 37.5607 29.4393C37.7704 29.6491 37.9133 29.9164 37.9712 30.2074C38.0291 30.4983 37.9993 30.7999 37.8858 31.074C37.7723 31.3481 37.58 31.5824 37.3334 31.7472C37.0867 31.912 36.7967 32 36.5 32C36.1022 32 35.7206 31.842 35.4393 31.5607C35.158 31.2794 35 30.8978 35 30.5Z" fill="#0957DE"/>
</svg>
