<svg width="60" height="60" viewBox="0 0 60 60" fill="none" xmlns="http://www.w3.org/2000/svg">
<rect width="60" height="60" rx="30" fill="#E6EEFC"/>
<path d="M44 30.0003C44 30.2655 43.8946 30.5198 43.7071 30.7074C43.5196 30.8949 43.2652 31.0003 43 31.0003H39.6175L34.895 40.4478C34.8119 40.6139 34.6841 40.7536 34.526 40.8512C34.3679 40.9488 34.1858 41.0004 34 41.0003H33.95C33.756 40.9907 33.569 40.9248 33.4119 40.8107C33.2547 40.6966 33.1342 40.5392 33.065 40.3578L25.9187 21.5953L21.91 30.414C21.8306 30.5888 21.7025 30.737 21.5412 30.8409C21.3798 30.9449 21.1919 31.0002 21 31.0003H17C16.7348 31.0003 16.4804 30.8949 16.2929 30.7074C16.1054 30.5198 16 30.2655 16 30.0003C16 29.735 16.1054 29.4807 16.2929 29.2932C16.4804 29.1056 16.7348 29.0003 17 29.0003H20.3562L25.09 18.5865C25.1716 18.4068 25.3046 18.2553 25.4721 18.151C25.6397 18.0467 25.8344 17.9943 26.0317 18.0005C26.2289 18.0066 26.42 18.071 26.5807 18.1855C26.7415 18.3001 26.8647 18.4596 26.935 18.644L34.1238 37.519L38.105 29.5553C38.1878 29.3887 38.3154 29.2484 38.4735 29.1504C38.6316 29.0524 38.814 29.0004 39 29.0003H43C43.2652 29.0003 43.5196 29.1056 43.7071 29.2932C43.8946 29.4807 44 29.735 44 30.0003Z" fill="#0957DE"/>
</svg>
