<svg width="110" height="35" viewBox="0 0 110 35" fill="none" xmlns="http://www.w3.org/2000/svg">
<g style="mix-blend-mode:luminosity" opacity="0.75">
<path d="M10.36 23.2966H16.5439C16.6187 23.5336 16.6345 26.4083 16.5573 26.7693H9.38696V33.0195C7.45672 33.0536 5.54835 33.0414 3.59805 33.0432C3.59805 32.8725 3.59805 32.74 3.59805 32.6075C3.59805 26.725 3.59805 20.8425 3.59805 14.96C3.59805 14.853 3.60291 14.7454 3.59501 14.6391C3.57678 14.3875 3.48683 14.2975 3.23643 14.2659C3.02433 14.2392 2.80918 14.227 2.60193 14.179C1.19436 13.8551 0.196422 12.7003 0.0578528 11.2301C0.021995 10.8533 0.00254589 10.4735 0.00193813 10.0955C-0.00170842 7.81028 -0.000492535 5.52571 0.0080161 3.24054C0.00923161 2.96097 0.0621062 2.68201 0.0967484 2.40305C0.146585 1.99767 0.726387 1.79164 1.06187 2.11679C1.21138 2.26205 1.33232 2.44802 1.42774 2.63521C1.94312 3.64834 2.44574 4.66756 2.95322 5.68495C3.40418 6.58929 3.86607 7.48817 4.2988 8.40102C4.46046 8.74198 4.69749 8.86717 5.05546 8.86596C6.17373 8.86353 7.29201 8.85988 8.40968 8.88601C8.79379 8.89513 9.18761 8.95105 9.55713 9.05558C10.2974 9.26526 10.7848 9.74174 10.9173 10.53C10.9319 10.6157 10.9562 10.7002 10.9744 10.7859C11.0777 11.269 11.392 11.5243 11.8684 11.5656C12.2939 11.6027 12.7217 11.6167 13.149 11.6179C14.3937 11.6215 15.6384 11.6118 16.8825 11.6136C17.0551 11.6136 17.2319 11.6331 17.3997 11.6732C17.6731 11.7394 17.8366 11.9339 17.8713 12.2074C18.0372 13.5135 17.8944 14.7716 17.2179 15.9263C16.6521 16.8926 15.7715 17.4171 14.6963 17.6511C13.9476 17.814 13.1897 17.7921 12.4312 17.7739C12.1109 17.766 11.7888 17.7459 11.4704 17.766C10.8298 17.8061 10.4578 18.1458 10.3436 18.7834C10.3047 19.0022 10.2858 19.2276 10.2877 19.4495C10.2962 20.7033 10.3138 21.9571 10.3296 23.2109C10.3296 23.2285 10.3424 23.2462 10.3612 23.2966H10.36ZM7.40505 12.9045C7.40505 12.9045 7.40505 12.9076 7.40505 12.9094C7.61838 12.9094 7.8317 12.9106 8.04502 12.9094C8.24862 12.9076 8.45344 12.9155 8.65582 12.8972C8.9828 12.8674 9.20159 12.6408 9.22104 12.3363C9.24231 11.9984 9.06485 11.7644 8.7245 11.6908C8.64002 11.6726 8.5519 11.661 8.46559 11.661C7.75755 11.6586 7.04952 11.6568 6.34148 11.6629C6.21749 11.6641 6.08804 11.6829 5.97074 11.723C5.72521 11.8069 5.59393 11.999 5.58056 12.2512C5.56658 12.5022 5.67233 12.7125 5.90754 12.82C6.02666 12.8741 6.16766 12.8978 6.30015 12.9021C6.66845 12.913 7.03736 12.9057 7.40566 12.9057L7.40505 12.9045Z" fill="black"/>
<path d="M7.65993 8.26645C7.6022 8.28833 7.57606 8.30657 7.54993 8.30717C6.97742 8.31082 6.4043 8.31203 5.83179 8.31568C5.69809 8.31629 5.61422 8.247 5.55891 8.13396C5.00281 7.00231 4.43577 5.87553 3.89486 4.73659C3.63474 4.18839 3.7174 3.61162 3.8979 3.05856C4.03769 2.62949 4.53909 2.51523 4.87093 2.82032C4.98275 2.92303 5.07878 3.05431 5.14746 3.18984C5.96307 4.81013 6.77261 6.43406 7.58214 8.05738C7.61131 8.11634 7.62894 8.18137 7.65993 8.26645Z" fill="black"/>
<path d="M70.1622 12.7657C70.9282 14.125 71.6445 15.3942 72.4674 16.8544C71.1908 16.8544 70.0814 16.8765 68.9757 16.8324C68.8104 16.825 68.6193 16.5348 68.5054 16.3383C68.0132 15.4934 67.5062 14.6521 67.0819 13.7723C66.777 13.1441 66.395 12.8337 65.6694 12.9329C65.1974 12.999 64.7088 12.9457 64.1284 12.9457V16.8159H60.7615C60.7395 16.5091 60.6991 16.2152 60.6973 15.9195C60.6826 12.1853 60.6899 8.44929 60.6495 4.7151C60.6422 4.0061 60.8277 3.76181 61.5734 3.7765C63.93 3.82242 66.2866 3.77282 68.6432 3.79119C71.1027 3.80956 72.2121 4.93551 72.2525 7.4115C72.2654 8.20683 72.2709 9.00399 72.2415 9.79932C72.1919 11.1604 71.6776 12.2349 70.1641 12.7676L70.1622 12.7657ZM64.2092 6.528V10.3265C64.9476 10.3265 65.6456 10.3265 66.3435 10.3265C68.893 10.3228 69.0693 10.1281 68.8636 7.61171C68.8067 6.92108 68.4926 6.52984 67.7744 6.52984C66.6136 6.52984 65.4527 6.52984 64.2092 6.52984V6.528Z" fill="black"/>
<path d="M35.8751 10.3405C35.8751 11.5344 35.9174 12.7302 35.8659 13.9222C35.7833 15.8049 34.7602 16.8997 32.8793 16.9823C30.8625 17.0687 28.8384 17.065 26.8197 16.9878C24.9554 16.918 23.8644 15.8545 23.7909 13.959C23.6972 11.5436 23.6935 9.12087 23.7909 6.7055C23.8699 4.68687 25.0013 3.63255 27.0144 3.56826C28.91 3.50765 30.8111 3.51132 32.7066 3.56826C34.7014 3.62888 35.7833 4.74381 35.8659 6.75876C35.9155 7.95084 35.8751 9.14659 35.8751 10.3405ZM32.4936 10.3074C32.4936 9.36149 32.4917 8.41555 32.4936 7.4696C32.4954 6.68529 32.1226 6.27936 31.3235 6.28487C30.317 6.29039 29.3104 6.2959 28.3039 6.29039C27.5398 6.28487 27.1908 6.66142 27.1926 7.4145C27.1963 9.33762 27.2 11.2589 27.1889 13.182C27.1834 14.038 27.6096 14.3943 28.4343 14.3851C29.3802 14.3741 30.3262 14.3869 31.2721 14.3888C32.0987 14.3888 32.5064 13.9847 32.4973 13.149C32.4862 12.203 32.4954 11.2571 32.4954 10.3111L32.4936 10.3074Z" fill="black"/>
<path d="M107.859 3.79665V6.4251C107.346 6.4251 106.872 6.4251 106.397 6.4251C105.019 6.4251 103.643 6.40857 102.266 6.43612C101.305 6.45633 101.07 6.76858 101.066 7.75861C101.064 8.59435 101.395 8.99477 102.279 8.9562C103.377 8.90844 104.483 8.89374 105.581 8.94885C107.995 9.07008 108.994 10.1317 109.032 12.5287C109.086 15.9176 108.232 16.8654 104.841 16.9921C102.859 17.0656 100.872 17.005 98.741 17.005C98.741 16.1693 98.6914 15.4474 98.7759 14.7402C98.7961 14.5676 99.2516 14.327 99.5124 14.3196C101.103 14.281 102.694 14.3123 104.284 14.2957C105.361 14.2847 105.71 13.8696 105.609 12.8116C105.543 12.1265 105.217 11.7555 104.486 11.7683C103.326 11.7904 102.157 11.8602 101.004 11.7702C98.4985 11.5755 97.5985 10.5524 97.6021 8.05617C97.6021 7.56758 97.5966 7.07165 97.6683 6.59225C97.9346 4.80505 98.8401 3.87931 100.631 3.8187C103.006 3.73604 105.385 3.79849 107.857 3.79849L107.859 3.79665Z" fill="black"/>
<path d="M49.1289 3.8407H59.5067C59.5067 4.62134 59.5508 5.37809 59.4718 6.12199C59.4535 6.2873 59.0016 6.51874 58.7445 6.52425C57.0326 6.56466 55.3207 6.54813 53.607 6.55547C53.3057 6.55547 53.0045 6.58119 52.6408 6.59772V8.91024H57.9528V11.5607H52.6224V14.2277H59.5306C59.5306 15.0304 59.571 15.7266 59.503 16.4135C59.4847 16.5898 59.1228 16.8635 58.9153 16.8654C55.857 16.9021 52.7988 16.8911 49.7405 16.9131C49.0554 16.9186 49.1344 16.4576 49.1344 16.0406C49.127 13.7153 49.1289 11.3917 49.1289 9.06636C49.1289 7.35999 49.1289 5.65361 49.1289 3.83887V3.8407Z" fill="black"/>
<path d="M97.8107 16.831C96.6829 16.831 95.6727 16.8824 94.6753 16.7961C94.4034 16.7722 94.0545 16.3773 93.9351 16.076C93.3106 14.5129 93.3326 14.5056 91.6299 14.5056C91.415 14.5056 91.1982 14.5295 90.9889 14.5019C89.5176 14.3017 88.3439 14.5331 88.0959 16.3185C88.0684 16.5169 87.723 16.7648 87.4861 16.8181C87.1077 16.9026 86.6963 16.8438 86.2977 16.8438C85.6897 16.8438 85.0799 16.8438 84.314 16.8438C84.4976 16.2707 84.6317 15.7932 84.8044 15.3303C86.1654 11.6971 87.5412 8.06764 88.8931 4.4308C89.0621 3.97527 89.2696 3.7218 89.806 3.74935C90.6601 3.7916 91.5215 3.72364 92.3738 3.78425C92.6365 3.80262 93.0259 4.02854 93.1122 4.25447C94.6643 8.27336 96.1796 12.3051 97.6986 16.335C97.739 16.4434 97.7519 16.5609 97.8107 16.831ZM92.462 11.9616C91.9807 10.5804 91.5491 9.33686 91.0458 7.88763C90.5462 9.36808 90.1164 10.6391 89.67 11.9616H92.462Z" fill="black"/>
<path d="M42.8974 11.7229C43.7625 11.7229 44.556 11.7725 45.3385 11.71C46.1466 11.6457 46.4791 11.9249 46.3524 12.7386C46.3064 13.0325 46.3193 13.3356 46.2991 13.7452H42.339V17.1616H39.1503C39.1301 16.8108 39.0952 16.4875 39.0952 16.1642C39.0915 13.3484 39.0824 10.5345 39.1007 7.71868C39.1044 7.16397 39.0236 6.84436 38.3697 6.69925C37.5376 6.51374 37.128 5.81208 37.1041 4.98186C37.0619 3.54549 37.0729 2.10545 37.1005 0.669079C37.1041 0.444991 37.3209 0.22274 37.4403 0.000488281C37.6295 0.17131 37.8811 0.309071 37.9986 0.522138C38.4413 1.32481 38.8674 2.13851 39.2477 2.97241C39.5048 3.5363 39.8299 3.85958 40.4985 3.77509C40.9191 3.72182 41.3545 3.76774 41.7824 3.76958C42.4878 3.77325 43.0039 3.98265 43.2317 4.75961C43.3015 4.99655 43.7386 5.24636 44.0288 5.27574C44.7562 5.35105 45.4946 5.32167 46.2293 5.30146C46.874 5.28309 47.0871 5.59534 47.0852 6.19965C47.0834 7.68561 46.1871 8.67013 44.6846 8.79687C43.4319 8.90218 42.8208 9.58301 42.8514 10.8394C42.857 11.0818 42.8753 11.3225 42.8974 11.7284V11.7229ZM42.102 5.87086C42.102 5.76984 42.102 5.66698 42.1002 5.56596H40.2744C40.2744 5.66698 40.2744 5.76984 40.2744 5.87086H42.102Z" fill="black"/>
<path d="M73.2795 3.83325H84.3425V6.44884H80.5477V16.8561C79.4805 16.8561 78.5107 16.8947 77.5501 16.8175C77.3866 16.8046 77.146 16.2922 77.1423 16.0075C77.1037 13.1954 77.1074 10.3832 77.0982 7.57112C77.0982 7.26988 77.0982 6.96681 77.0982 6.52966H73.2795V3.83325Z" fill="black"/>
<path d="M67.08 28.6477V34.7936C66.3802 35.0673 66.1726 34.7936 66.1855 34.1489C66.2075 33.0927 66.191 32.0347 66.011 30.9125C65.2598 31.9631 64.5085 33.0138 63.6765 34.1764C62.8683 33.0376 62.1189 31.9796 61.2096 30.6957V34.8505C60.8294 34.8689 60.5741 34.8818 60.2545 34.8965V28.9122C60.8864 28.6257 61.2519 28.8865 61.5733 29.3806C62.2401 30.4 62.9362 31.3992 63.5993 32.3764C64.9622 31.3661 65.1073 29.2924 67.08 28.6477Z" fill="black"/>
<path d="M58.116 24.5266C58.4999 25.0941 58.8452 25.6084 59.1924 26.1227C59.0877 26.2329 58.983 26.345 58.8783 26.4552C58.5568 26.2697 58.116 26.1613 57.9323 25.8858C56.9386 24.3833 55.5041 24.5357 53.9171 24.7176C53.9171 25.1309 53.9575 25.5258 53.8987 25.9041C53.8712 26.0786 53.6508 26.2256 53.5185 26.3835C53.3532 26.2237 53.0465 26.0658 53.0428 25.9023C53.0079 24.071 53.0207 22.2397 53.0207 20.3258C54.6702 20.3258 56.2315 20.2285 57.7652 20.3864C58.2244 20.4342 58.8728 21.145 58.9719 21.6446C59.185 22.7008 59.3007 23.88 58.1123 24.5266H58.116ZM53.9795 23.6798C55.1533 23.6798 56.2755 23.7202 57.3905 23.6651C58.0682 23.6302 58.1472 23.07 58.1325 22.5153C58.1178 21.9624 58.1564 21.2938 57.4199 21.2424C56.2847 21.1634 55.1404 21.2222 53.9795 21.2222V23.6816V23.6798Z" fill="black"/>
<path d="M96.3115 22.1696C95.946 22.0778 95.4996 22.0778 95.4445 21.9327C95.1213 21.0694 94.4251 21.1869 93.7602 21.1851C93.301 21.1851 92.8436 21.1961 92.3844 21.1851C91.7618 21.1722 91.2585 21.3284 91.275 22.0686C91.2897 22.7482 91.7654 22.908 92.3495 22.9043C93.0824 22.8988 93.8171 22.8915 94.55 22.9098C95.5584 22.9337 96.2747 23.5839 96.3354 24.506C96.3997 25.4832 95.7494 26.3061 94.73 26.3814C93.7877 26.4512 92.8326 26.4457 91.8903 26.3814C90.9242 26.3152 90.4558 25.7514 90.3125 24.5354C90.6542 24.6199 90.9701 24.6401 91.2273 24.7742C91.5524 24.945 91.8205 25.3803 92.131 25.3969C93.0659 25.4446 94.0137 25.384 94.9431 25.2646C95.1139 25.2426 95.3968 24.6768 95.3215 24.4803C95.2168 24.2103 94.8365 23.9127 94.5463 23.8778C93.8226 23.7915 93.0824 23.8521 92.3477 23.8429C91.0564 23.8264 90.2611 23.1339 90.2629 22.0429C90.2666 20.9592 90.9848 20.2906 92.2522 20.2502C93.0457 20.2245 93.8428 20.2245 94.6363 20.2741C95.7109 20.342 96.1645 20.8306 96.3133 22.1678L96.3115 22.1696Z" fill="black"/>
<path d="M60.4761 20.3217C62.1292 20.3217 63.6831 20.2629 65.2297 20.3474C65.9607 20.3878 66.3924 20.9847 66.5265 21.7121C66.7671 23.0162 66.5375 23.683 65.5383 24.6124C65.8248 24.9173 66.1573 25.191 66.3795 25.5381C66.4989 25.7255 66.4273 26.0359 66.442 26.2912C66.1922 26.2618 65.9424 26.2471 65.6962 26.1975C65.6209 26.1828 65.5438 26.0892 65.4979 26.0139C64.5556 24.4563 63.0898 24.4783 61.4147 24.7281C61.4147 25.0808 61.4643 25.472 61.3945 25.8394C61.3559 26.0414 61.1171 26.2067 60.9683 26.3867C60.8049 26.2251 60.5 26.0635 60.4963 25.8981C60.4614 24.0705 60.4742 22.2429 60.4742 20.3217H60.4761ZM61.4606 23.6848C62.6012 23.6848 63.6629 23.6977 64.7246 23.6793C65.3766 23.6683 65.6209 23.266 65.6099 22.6544C65.5989 22.0446 65.6907 21.3043 64.8476 21.24C63.74 21.1556 62.6214 21.2198 61.4606 21.2198V23.6848Z" fill="black"/>
<path d="M76.1946 22.1895V26.337C75.8805 26.3554 75.6454 26.3682 75.3331 26.3866V20.136C75.875 20.3913 76.3819 20.4923 76.685 20.7991C77.8863 22.0095 79.0232 23.2824 80.3825 24.7463C80.3825 23.3559 80.4008 22.2152 80.3751 21.0764C80.3604 20.4372 80.5459 20.1323 81.2862 20.4005V26.596C80.7351 26.3113 80.2667 26.1919 79.9765 25.898C78.7606 24.6618 77.5997 23.3724 76.4187 22.1032C76.3434 22.1326 76.2681 22.162 76.1927 22.1895H76.1946Z" fill="black"/>
<path d="M84.0199 24.6362C83.3826 25.1817 84.3726 26.427 82.8811 26.3738C82.8811 24.7243 82.804 23.1116 82.916 21.5118C82.9693 20.7624 83.6177 20.3179 84.4222 20.305C85.37 20.2885 86.3177 20.2811 87.2637 20.3087C88.0939 20.3344 88.7735 20.8946 88.8121 21.7028C88.8801 23.1061 88.858 24.5131 88.8341 25.9182C88.8323 26.0762 88.5752 26.2323 88.4374 26.3884C88.2813 26.2213 88.0131 26.0725 87.9837 25.887C87.7945 24.6398 87.8111 24.638 86.5639 24.6362C85.6547 24.6362 84.7455 24.6362 84.0181 24.6362H84.0199ZM87.9635 23.6553C87.9635 23.2457 87.9635 22.9445 87.9635 22.6432C87.9562 21.4273 87.7302 21.1995 86.5161 21.1922C86.0881 21.1903 85.6583 21.1903 85.2304 21.1922C83.9354 21.1995 83.7499 21.3869 83.7462 22.6873C83.7462 23.0088 83.7462 23.3302 83.7462 23.6553H87.9653H87.9635Z" fill="black"/>
<path d="M46.6649 23.8551C46.6337 24.1765 46.5988 24.3841 46.5988 24.5917C46.5988 24.8323 46.6319 25.0711 46.6594 25.4439C47.4933 25.4439 48.3034 25.4439 49.1134 25.4439C49.9234 25.4439 50.7536 25.4439 51.9035 25.4439C51.6188 25.8829 51.4608 26.355 51.29 26.3586C49.4679 26.4119 47.6421 26.3917 45.7594 26.3917V20.3762H51.6096C51.841 20.9126 51.7253 21.2009 51.0585 21.1936C50.0207 21.1807 48.9811 21.1936 47.9415 21.1954C46.4555 21.1973 46.3637 21.3203 46.7421 22.9165C47.8497 22.9165 48.9775 22.8871 50.1016 22.9367C50.3789 22.9496 50.6434 23.2159 50.9134 23.3665C50.6563 23.53 50.4046 23.8202 50.142 23.8312C49.016 23.8826 47.8846 23.8533 46.6668 23.8533L46.6649 23.8551Z" fill="black"/>
<path d="M73.9476 23.3232C73.9476 26.1537 73.7107 26.3925 70.8765 26.398C68.1489 26.4016 67.855 26.1059 67.8568 23.3416C67.8568 20.5313 68.0864 20.2998 70.86 20.2962C70.8912 20.2962 70.9206 20.2962 70.9518 20.2962C73.7511 20.2943 73.9458 20.4927 73.9476 23.325V23.3232ZM70.961 25.4428C72.3239 25.4428 73.0047 24.7755 73.0035 23.4407C73.0035 23.3801 73.0035 23.3195 73.0035 23.2571C73.0035 21.8795 72.311 21.1919 70.9261 21.1943C69.5191 21.1968 68.8162 21.9101 68.8175 23.3342C68.8187 24.7583 69.5332 25.4612 70.961 25.4428Z" fill="black"/>
<path d="M39.523 24.6399C38.9114 25.1799 39.9143 26.4051 38.4375 26.3812V20.3253C40.0208 20.3253 41.5692 20.3216 43.1176 20.3326C43.2591 20.3326 43.4097 20.4171 43.5401 20.4906C44.3262 20.9406 44.6918 22.1621 44.3428 23.3799C44.0948 24.2523 43.4538 24.6491 42.5464 24.6399C41.4847 24.6289 40.4212 24.6381 39.5212 24.6381L39.523 24.6399ZM39.3871 23.6903C40.4745 23.6903 41.5417 23.7546 42.5942 23.6517C42.9138 23.6205 43.373 23.1668 43.4501 22.8343C43.7164 21.679 43.2719 21.2033 42.089 21.1941C41.8466 21.1923 41.6023 21.1941 41.3598 21.1941C39.8928 21.1953 39.2053 21.9331 39.2971 23.4074C39.3008 23.4644 39.332 23.5195 39.389 23.6903H39.3871Z" fill="black"/>
<path d="M68.6807 28.6133C68.9893 28.92 69.1932 29.1349 69.4099 29.3351C70.0657 29.9431 70.714 30.5584 71.3992 31.1315C71.4781 31.1976 71.8143 31.0617 71.9539 30.9331C72.5802 30.3601 73.5427 30.0919 73.6805 29.0413C73.6952 28.9237 74.1433 28.8631 74.4005 28.7731C75.0617 30.7568 73.1166 30.8707 72.4186 31.9526C72.9366 32.3475 73.4582 32.8122 74.0423 33.174C74.6099 33.5248 74.5731 34.0263 74.5015 34.5388C74.4813 34.6802 74.248 34.8804 74.1011 34.8896C73.9523 34.8988 73.675 34.7279 73.6529 34.5994C73.4527 33.4936 72.3433 33.3246 71.7059 32.6763C71.6361 32.6046 71.3771 32.5991 71.3037 32.6671C70.5836 33.3467 69.3548 33.5561 69.3126 35.0035C68.9875 34.8602 68.5448 34.7445 68.5485 34.6508C68.5705 34.199 68.576 33.6314 68.8405 33.332C69.3163 32.7956 69.9738 32.4228 70.5836 31.9581C69.9187 30.9166 67.9736 30.7825 68.6771 28.6151L68.6807 28.6133Z" fill="black"/>
<path d="M41.3461 3.3636C40.5857 3.60789 40.0843 3.5087 39.829 2.75195C39.6453 2.21009 39.344 1.70498 39.1898 1.15762C39.1346 0.96108 39.3587 0.68556 39.4542 0.446777C39.6618 0.575353 39.9594 0.656172 40.0641 0.843524C40.5177 1.65906 40.9163 2.50582 41.3461 3.3636Z" fill="black"/>
</g>
</svg>
