<svg width="40" height="41" viewBox="0 0 40 41" fill="none" xmlns="http://www.w3.org/2000/svg">
<path d="M23.9073 40.9725C21.0132 40.9725 20.0963 38.6806 19.7212 37.7434C19.1721 36.3698 19.0536 31.0394 19.1759 26.6681C19.1777 26.5944 19.1941 26.5217 19.2241 26.4544C19.2542 26.387 19.2972 26.3263 19.3508 26.2756C19.4044 26.225 19.4675 26.1854 19.5364 26.1593C19.6053 26.1331 19.6788 26.1208 19.7525 26.1232C19.8261 26.1252 19.8986 26.1417 19.9659 26.1717C20.0331 26.2018 20.0938 26.2448 20.1444 26.2983C20.195 26.3518 20.2346 26.4148 20.2608 26.4836C20.2871 26.5524 20.2995 26.6258 20.2974 26.6994C20.1564 31.7411 20.3565 36.31 20.7629 37.3268C21.3971 38.912 22.359 40.2985 25.0783 39.716C27.6598 39.1623 28.6266 38.1835 29.0573 35.6871C29.3878 33.7714 30.0413 28.3215 30.1218 27.2461C30.1272 27.1726 30.147 27.1009 30.1802 27.035C30.2133 26.9692 30.2592 26.9106 30.315 26.8625C30.3708 26.8145 30.4356 26.7779 30.5056 26.7549C30.5757 26.7319 30.6495 26.723 30.723 26.7286C30.8713 26.7398 31.0091 26.8094 31.1061 26.9221C31.2031 27.0348 31.2514 27.1814 31.2405 27.3297C31.1565 28.4495 30.5061 33.8888 30.163 35.878C29.6546 38.8265 28.3401 40.1639 25.3135 40.8129C24.7992 40.9229 24.3319 40.9721 23.9073 40.9725ZM8.21491 29.7784C7.96194 29.7776 7.71076 29.736 7.471 29.6553C5.5912 29.0281 3.80069 25.9667 2.14905 20.5551C0.891865 16.4359 0.0952244 12.1363 0.0252634 10.7388C-0.181807 6.59598 0.884834 3.66501 3.19636 2.02778C7.76913 -1.21222 15.4617 1.87309 15.7869 2.00598C15.9246 2.06226 16.0344 2.17095 16.092 2.30815C16.1496 2.44535 16.1504 2.59982 16.0941 2.73759C16.0379 2.87535 15.9292 2.98512 15.792 3.04274C15.6548 3.10036 15.5003 3.10112 15.3625 3.04485C15.2883 3.01462 7.91186 0.0593834 3.84253 2.94466C1.86604 4.34598 0.958662 6.94966 1.14534 10.6829C1.20405 11.8603 1.94831 16.0565 3.22167 20.2275C4.69612 25.0586 6.37413 28.107 7.82573 28.5911C8.05354 28.6671 8.74683 28.8981 9.73788 27.7063C10.8936 26.3182 12.0926 24.9668 13.3333 23.6542C13.4371 23.5506 13.5773 23.4918 13.7239 23.4903C13.8706 23.4889 14.0119 23.5449 14.1178 23.6463C14.2236 23.7478 14.2856 23.8866 14.2903 24.0331C14.2951 24.1797 14.2423 24.3223 14.1433 24.4304C14.1264 24.448 12.4393 26.2118 10.6006 28.4238C9.72979 29.4711 8.89518 29.7784 8.21491 29.7784ZM32.6235 25.0516C32.5218 25.0515 32.4221 25.0237 32.335 24.9713C32.2478 24.9188 32.1766 24.8437 32.1288 24.7539C32.0811 24.6641 32.0587 24.563 32.064 24.4614C32.0692 24.3599 32.102 24.2616 32.1588 24.1773C37.384 16.4236 39.2182 7.05477 37.6474 5.04735C35.6702 2.52102 32.8784 1.20161 29.3491 1.12532C26.7359 1.06907 24.6589 1.73634 24.3193 1.8527L24.2339 1.88751C23.8925 1.99473 23.6306 1.8077 23.5318 1.58903C23.4755 1.46375 23.4669 1.32218 23.5078 1.19103C23.5487 1.05989 23.6361 0.94823 23.7536 0.877118C23.7698 0.867626 23.8211 0.845829 23.9044 0.815243C24.4814 0.603954 26.59 -0.0288589 29.2018 0.00102396C33.1069 0.0425083 36.3329 1.54825 38.5301 4.35618C39.5697 5.68473 39.5722 8.74544 38.5368 12.754C37.4814 16.8409 35.4955 21.2329 33.0887 24.8045C32.9811 24.9651 32.8039 25.0516 32.6235 25.0516ZM32.8907 28.6411C31.9985 28.6411 31.1987 28.5152 30.7198 28.2283C30.2276 27.9334 30.1338 27.5326 30.1215 27.3199C29.9872 24.9609 31.2887 24.5503 31.9524 24.3629C31.8599 24.223 31.7285 24.0584 31.5924 23.8886C31.2053 23.4049 30.6752 22.7425 30.2667 21.7518C30.2027 21.5972 30.0023 21.2375 29.7703 20.8209C28.512 18.5646 25.8939 13.8695 27.5758 11.4651C28.3542 10.3524 29.9042 9.91438 32.188 10.1587C31.5161 8.11192 28.3169 1.70927 20.7256 1.58481C18.4426 1.54684 16.5701 2.24891 15.1632 3.66958C12.0132 6.85087 12.1271 12.607 12.1289 12.6647C12.1308 12.7383 12.1182 12.8116 12.0918 12.8804C12.0654 12.9491 12.0258 13.012 11.9751 13.0655C11.9244 13.1189 11.8636 13.1619 11.7963 13.1918C11.7291 13.2218 11.6565 13.2382 11.5829 13.2402C11.5092 13.2421 11.4359 13.2295 11.3672 13.2031C11.2984 13.1767 11.2355 13.1371 11.1821 13.0864C11.1286 13.0357 11.0857 12.9749 11.0557 12.9077C11.0257 12.8404 11.0093 12.7678 11.0074 12.6942C11.0003 12.4386 10.8829 6.39806 14.3662 2.87997C15.9964 1.2336 18.1423 0.42079 20.7442 0.463329C25.6007 0.543133 28.7268 3.01216 30.4938 5.06915C32.42 7.31106 33.3643 9.78395 33.442 10.6094C33.5 11.2233 33.0595 11.3459 32.9705 11.3642L32.768 11.3688C30.5268 11.0099 29.0889 11.2591 28.4944 12.1085C27.2151 13.937 29.6919 18.3783 30.7494 20.2749C31.0194 20.7587 31.2141 21.1085 31.3034 21.3243C31.6508 22.1667 32.1039 22.7327 32.4678 23.1876C32.7881 23.5877 33.0655 23.9347 33.1646 24.3418C33.2107 24.4227 33.8642 25.3895 37.7423 24.589C38.7144 24.3886 39.2973 24.5598 39.4755 25.0987C39.826 26.1587 37.8594 27.3951 36.7706 27.9007C35.795 28.3542 34.2379 28.6411 32.8907 28.6411ZM31.2398 27.2274C31.3628 27.3515 31.9784 27.5656 33.2532 27.5108C34.3866 27.4623 35.5819 27.2158 36.2991 26.8829C37.2164 26.4568 37.8288 25.9804 38.1459 25.6552L37.9701 25.6876C35.4905 26.1995 33.7366 26.1313 32.7571 25.4847C32.6913 25.4413 32.6279 25.3943 32.5673 25.3438C32.4611 25.3856 32.363 25.413 32.2931 25.4327C31.7376 25.5884 31.1632 25.7498 31.2398 27.2274ZM15.2219 30.3616C14.606 30.3616 13.9577 30.2776 13.2957 30.112C12.6098 29.9404 11.4535 29.424 11.4711 28.5757C11.4911 27.624 12.8752 27.3385 13.3962 27.2313C15.2785 26.8435 15.4012 26.6881 15.9894 25.9411C16.1609 25.7234 16.3743 25.4524 16.6654 25.1275C17.0975 24.6438 17.5696 24.3988 18.0689 24.3988C18.4165 24.3988 18.7017 24.5165 18.8901 24.5949C19.4906 24.8438 19.9916 25.4457 20.1976 26.1654C20.3835 26.8147 20.2946 27.4398 19.948 27.9253C18.8099 29.5189 17.1755 30.3616 15.2219 30.3616ZM12.6829 28.6238C12.852 28.7546 13.1909 28.9293 13.5682 29.0236C14.1416 29.167 14.6977 29.2398 15.2223 29.2398C16.8205 29.2398 18.1037 28.5781 19.0357 27.2731C19.2301 27.001 19.1717 26.6554 19.1197 26.4737C19.0107 26.0929 18.74 25.7466 18.4612 25.631C18.31 25.5684 18.1845 25.5206 18.0692 25.5206C18.0073 25.5206 17.8189 25.5206 17.5018 25.8753C17.2829 26.1214 17.0726 26.3749 16.8711 26.6354C16.1384 27.5656 15.8027 27.8813 13.623 28.3303C13.0911 28.4393 12.8183 28.5504 12.6829 28.6238ZM16.9962 26.0363C16.8623 26.0361 16.7329 25.988 16.6314 25.9007C16.5298 25.8134 16.4628 25.6927 16.4425 25.5603C16.4285 25.4672 16.4191 25.3735 16.4144 25.2794C14.9857 25.2527 13.6072 24.6396 12.5606 23.5476C11.2373 22.167 10.6351 20.2542 10.9086 18.2999C11.2057 16.1775 11.0946 14.304 11.0348 13.2975C11.0183 13.0176 11.0063 12.8155 11.007 12.6756C11.0081 12.498 11.0116 12.0273 12.5852 11.2296C13.1449 10.9459 14.2671 10.4509 15.493 10.324C17.5239 10.1141 18.8627 11.0186 19.2635 12.8714C20.3452 17.8734 19.3492 20.0858 18.6219 21.7016C18.4865 22.0025 18.3585 22.2866 18.2562 22.5618L18.1659 22.8044C17.7816 23.8349 17.4494 24.725 17.5514 25.3898C17.5625 25.4626 17.5593 25.5369 17.5418 25.6085C17.5242 25.68 17.4928 25.7474 17.4492 25.8068C17.4056 25.8662 17.3507 25.9164 17.2877 25.9546C17.2247 25.9928 17.1548 26.0182 17.082 26.0293L16.9962 26.0363ZM12.1324 12.8309L12.1542 13.2314C12.216 14.2769 12.3314 16.2225 12.0192 18.4556C11.7938 20.0675 12.286 21.6408 13.3702 22.7714C14.227 23.6651 15.3544 24.1583 16.5132 24.1583H16.5371C16.6668 23.6116 16.8823 23.0343 17.1144 22.4124L17.204 22.1713C17.3197 21.8605 17.455 21.5595 17.5985 21.241C18.2984 19.6857 19.1699 17.7497 18.1662 13.1087C17.9676 12.1893 17.4856 11.6574 16.6935 11.482C15.0665 11.1227 12.6418 12.3465 12.1324 12.8309ZM15.5179 12.5929C15.4898 12.7912 15.8811 13.3207 16.3916 13.3913C16.901 13.4627 17.3369 13.0486 17.3647 12.8503C17.3925 12.652 17.0015 12.4333 16.491 12.3623C15.9806 12.2913 15.545 12.3947 15.5179 12.5929ZM16.5086 13.5865L16.3655 13.5766C16.0491 13.5327 15.7292 13.3333 15.5102 13.0429C15.4332 12.941 15.3077 12.7434 15.3326 12.5669C15.3682 12.3082 15.6839 12.1531 16.1764 12.1531C16.2864 12.1531 16.401 12.1612 16.5164 12.1774C16.7857 12.2147 17.0356 12.2924 17.2202 12.3954C17.5401 12.574 17.5637 12.7733 17.5492 12.8763C17.5099 13.1621 17.0553 13.5865 16.5086 13.5865ZM15.7039 12.626C15.7197 12.7483 16.0228 13.1519 16.4172 13.2064L16.509 13.2127C16.8732 13.2127 17.1453 12.9262 17.1773 12.8324C17.1435 12.7684 16.9094 12.6095 16.4654 12.5476C16.3698 12.5341 16.2733 12.5271 16.1767 12.5268C15.8913 12.5268 15.7398 12.5912 15.7039 12.626ZM31.0338 12.1883C31.0615 12.3866 30.6706 12.916 30.1605 12.987C29.6507 13.0581 29.2144 12.6443 29.1863 12.446C29.1596 12.2477 29.5505 12.0287 30.0603 11.958C30.5701 11.8866 31.0056 11.9904 31.0338 12.1883ZM30.0427 13.0883C29.5519 13.0883 29.1283 12.7065 29.0935 12.4586C29.0531 12.1612 29.5428 11.9352 30.0469 11.8652C30.158 11.8497 30.2681 11.842 30.3739 11.842C30.8091 11.842 31.0974 11.9696 31.1262 12.1756C31.1449 12.3089 31.0426 12.5145 30.8664 12.7002C30.7501 12.8222 30.5057 13.0334 30.1728 13.0795L30.0427 13.0883ZM30.3742 12.029C30.2767 12.029 30.1764 12.0362 30.0733 12.0505C29.5667 12.1211 29.2644 12.3243 29.2791 12.4333C29.296 12.5532 29.6194 12.9016 30.0431 12.9016L30.1475 12.8942C30.4242 12.8559 30.6319 12.6752 30.7311 12.5711C30.8868 12.4077 30.9487 12.2537 30.9413 12.2013C30.9315 12.1317 30.7444 12.029 30.3742 12.029ZM31.7682 23.5754C31.6666 23.5755 31.5668 23.5479 31.4797 23.4956C31.3925 23.4433 31.3212 23.3684 31.2734 23.2787C31.2256 23.189 31.203 23.088 31.2082 22.9865C31.2134 22.885 31.246 22.7868 31.3027 22.7025C32.4973 20.9183 32.2787 19.099 32.0674 17.3394C31.977 16.5899 31.8842 15.8147 31.9081 15.0708C31.9327 14.3054 32.0301 13.674 32.124 13.0633C32.2354 12.3398 32.3409 11.6564 32.2973 10.845C32.2933 10.7714 32.3039 10.6978 32.3284 10.6284C32.3528 10.5589 32.3907 10.4949 32.4399 10.4401C32.4891 10.3853 32.5487 10.3407 32.6151 10.3089C32.6815 10.2771 32.7536 10.2587 32.8271 10.2547C32.9006 10.2507 32.9742 10.2613 33.0437 10.2858C33.1132 10.3102 33.1771 10.3482 33.232 10.3973C33.3427 10.4967 33.4094 10.636 33.4174 10.7845C33.4673 11.7119 33.3481 12.4854 33.2328 13.2338C33.1439 13.8115 33.0517 14.4088 33.0296 15.1066C33.0082 15.7654 33.0922 16.465 33.1811 17.2054C33.4061 19.0765 33.661 21.1971 32.2351 23.3265C32.1836 23.4031 32.1141 23.4659 32.0327 23.5093C31.9513 23.5527 31.8605 23.5754 31.7682 23.5754Z" fill="white"/>
</svg>
