<svg width="9" height="16" viewBox="0 0 9 16" fill="none" xmlns="http://www.w3.org/2000/svg">
<path d="M8.63851 8.63851L1.76351 15.5135C1.56977 15.7072 1.30702 15.8161 1.03304 15.8161C0.75906 15.8161 0.496302 15.7072 0.30257 15.5135C0.108838 15.3198 2.0413e-09 15.057 0 14.783C-2.0413e-09 14.5091 0.108838 14.2463 0.30257 14.0526L6.44796 7.9089L0.304289 1.76351C0.208362 1.66758 0.132269 1.5537 0.080354 1.42837C0.0284389 1.30303 0.00171846 1.1687 0.00171846 1.03304C0.00171846 0.897378 0.0284389 0.763046 0.080354 0.637712C0.132269 0.512378 0.208362 0.398497 0.304289 0.30257C0.400215 0.206644 0.514097 0.130551 0.639431 0.0786355C0.764765 0.0267205 0.899097 -1.01075e-09 1.03476 0C1.17042 1.01075e-09 1.30475 0.0267204 1.43008 0.0786355C1.55542 0.130551 1.6693 0.206644 1.76523 0.30257L8.64023 7.17757C8.73625 7.27349 8.8124 7.38742 8.8643 7.51283C8.9162 7.63824 8.94284 7.77267 8.94268 7.90839C8.94252 8.04412 8.91557 8.17848 8.86337 8.30377C8.81118 8.42906 8.73476 8.54281 8.63851 8.63851Z" fill="#0957DE"/>
</svg>
