<svg width="60" height="60" viewBox="0 0 60 60" fill="none" xmlns="http://www.w3.org/2000/svg">
<rect width="60" height="60" rx="30" fill="#E6EEFC"/>
<path d="M40 19H20C19.4696 19 18.9609 19.2107 18.5858 19.5858C18.2107 19.9609 18 20.4696 18 21V28C18 34.59 21.19 38.5837 23.8663 40.7737C26.7487 43.1312 29.6163 43.9312 29.7413 43.965C29.9131 44.0118 30.0944 44.0118 30.2663 43.965C30.3913 43.9312 33.255 43.1312 36.1413 40.7737C38.81 38.5837 42 34.59 42 28V21C42 20.4696 41.7893 19.9609 41.4142 19.5858C41.0391 19.2107 40.5304 19 40 19ZM40 28C40 32.6337 38.2925 36.395 34.925 39.1775C33.4591 40.3846 31.7919 41.324 30 41.9525C28.2316 41.3348 26.585 40.4121 25.135 39.2262C21.7275 36.4387 20 32.6625 20 28V21H40V28ZM24.2925 31.7075C24.1049 31.5199 23.9994 31.2654 23.9994 31C23.9994 30.7346 24.1049 30.4801 24.2925 30.2925C24.4801 30.1049 24.7346 29.9994 25 29.9994C25.2654 29.9994 25.5199 30.1049 25.7075 30.2925L28 32.5862L34.2925 26.2925C34.3854 26.1996 34.4957 26.1259 34.6171 26.0756C34.7385 26.0253 34.8686 25.9994 35 25.9994C35.1314 25.9994 35.2615 26.0253 35.3829 26.0756C35.5043 26.1259 35.6146 26.1996 35.7075 26.2925C35.8004 26.3854 35.8741 26.4957 35.9244 26.6171C35.9747 26.7385 36.0006 26.8686 36.0006 27C36.0006 27.1314 35.9747 27.2615 35.9244 27.3829C35.8741 27.5043 35.8004 27.6146 35.7075 27.7075L28.7075 34.7075C28.6146 34.8005 28.5043 34.8742 28.3829 34.9246C28.2615 34.9749 28.1314 35.0008 28 35.0008C27.8686 35.0008 27.7385 34.9749 27.6171 34.9246C27.4957 34.8742 27.3854 34.8005 27.2925 34.7075L24.2925 31.7075Z" fill="#0957DE"/>
</svg>
