<svg width="60" height="60" viewBox="0 0 60 60" fill="none" xmlns="http://www.w3.org/2000/svg">
<rect width="60" height="60" rx="30" fill="#E6EEFC"/>
<path d="M44.7074 23.2921L40.7074 19.2921C40.5197 19.1044 40.2652 18.999 39.9999 18.999C39.7345 18.999 39.48 19.1044 39.2924 19.2921C39.1047 19.4797 38.9993 19.7342 38.9993 19.9996C38.9993 20.2649 39.1047 20.5194 39.2924 20.7071L41.5861 22.9996H39.9999C33.8336 22.9996 32.3686 26.5146 31.0774 29.6146C29.9049 32.4283 28.9624 34.6883 24.8924 34.9696C24.637 33.7571 23.9405 32.6827 22.9379 31.9545C21.9353 31.2264 20.6981 30.8965 19.4661 31.0288C18.2341 31.161 17.0951 31.746 16.2699 32.6703C15.4447 33.5946 14.9921 34.7924 14.9999 36.0314C15.0076 37.2705 15.4751 38.4625 16.3118 39.3765C17.1485 40.2904 18.2947 40.8611 19.5283 40.9779C20.7619 41.0947 21.9949 40.7494 22.9882 40.0088C23.9816 39.2682 24.6647 38.1851 24.9049 36.9696C30.3124 36.6383 31.6974 33.3258 32.9224 30.3833C34.1761 27.3746 35.1661 24.9996 39.9999 24.9996H41.5861L39.2924 27.2921C39.1047 27.4797 38.9993 27.7342 38.9993 27.9996C38.9993 28.2649 39.1047 28.5194 39.2924 28.7071C39.48 28.8947 39.7345 29.0001 39.9999 29.0001C40.2652 29.0001 40.5197 28.8947 40.7074 28.7071L44.7074 24.7071C44.8004 24.6142 44.8741 24.5039 44.9244 24.3825C44.9748 24.2611 45.0007 24.131 45.0007 23.9996C45.0007 23.8682 44.9748 23.738 44.9244 23.6166C44.8741 23.4952 44.8004 23.385 44.7074 23.2921ZM19.9999 38.9996C19.4065 38.9996 18.8265 38.8236 18.3332 38.494C17.8398 38.1643 17.4553 37.6958 17.2282 37.1476C17.0012 36.5994 16.9418 35.9962 17.0575 35.4143C17.1733 34.8324 17.459 34.2978 17.8786 33.8783C18.2981 33.4587 18.8327 33.173 19.4146 33.0572C19.9966 32.9415 20.5998 33.0009 21.1479 33.2279C21.6961 33.455 22.1647 33.8395 22.4943 34.3329C22.8239 34.8262 22.9999 35.4062 22.9999 35.9996C22.9999 36.7952 22.6838 37.5583 22.1212 38.1209C21.5586 38.6835 20.7955 38.9996 19.9999 38.9996Z" fill="#0957DE"/>
</svg>
