<svg width="115" height="22" viewBox="0 0 115 22" fill="none" xmlns="http://www.w3.org/2000/svg">
<path d="M27.304 13.6464C26.657 13.6464 26.1062 13.5631 25.6514 13.3966C25.1966 13.2236 24.8507 12.9706 24.6137 12.6375C24.3767 12.298 24.2582 11.8785 24.2582 11.3788V11.3212H25.6994V11.4941C25.6994 11.6927 25.7411 11.8529 25.8243 11.9746C25.914 12.0963 26.0741 12.1859 26.3047 12.2436C26.5353 12.3012 26.8684 12.3301 27.304 12.3301C27.6883 12.3301 27.983 12.3108 28.1879 12.2724C28.3929 12.2276 28.5338 12.1603 28.6107 12.0706C28.6876 11.981 28.726 11.8657 28.726 11.7247C28.726 11.5262 28.6587 11.382 28.5242 11.2924C28.3961 11.2027 28.1687 11.129 27.842 11.0714L26.0357 10.812C25.6514 10.7479 25.3215 10.6422 25.0461 10.4949C24.777 10.3476 24.5689 10.1522 24.4215 9.9088C24.2742 9.65899 24.2006 9.35793 24.2006 9.00563C24.2006 8.76222 24.2518 8.52202 24.3543 8.28502C24.4632 8.04802 24.6329 7.83664 24.8635 7.65088C25.0941 7.45871 25.3952 7.30498 25.7667 7.18969C26.1446 7.07439 26.6058 7.01674 27.1503 7.01674C27.81 7.01674 28.3513 7.11282 28.774 7.30498C29.2032 7.49074 29.5235 7.75657 29.7349 8.10246C29.9462 8.44195 30.0519 8.83589 30.0519 9.28427V9.34192H28.6011V9.2074C28.6011 9.00243 28.5563 8.83589 28.4666 8.70778C28.3833 8.57967 28.2264 8.48679 27.9958 8.42914C27.7652 8.36509 27.4353 8.33306 27.0061 8.33306C26.6602 8.33306 26.388 8.35548 26.1894 8.40032C25.9973 8.44515 25.8596 8.51241 25.7763 8.60209C25.693 8.69176 25.6514 8.80706 25.6514 8.94798C25.6514 9.06968 25.677 9.17217 25.7282 9.25544C25.7795 9.33231 25.8596 9.39316 25.9685 9.438C26.0773 9.48284 26.2215 9.52127 26.4008 9.5533L28.2072 9.84154C28.6876 9.91841 29.0687 10.0433 29.3505 10.2163C29.6388 10.3892 29.847 10.6006 29.9751 10.8504C30.1032 11.0938 30.1672 11.3628 30.1672 11.6575C30.1672 12.0034 30.0711 12.3301 29.879 12.6375C29.6868 12.9386 29.3794 13.182 28.9566 13.3677C28.5338 13.5535 27.983 13.6464 27.304 13.6464ZM33.4829 13.5503H31.6861L30.3698 8.7366H31.8591L32.426 10.9369L32.6277 12.4357H32.7238L33.1081 10.7927L33.8384 8.7366H35.6927L36.4134 10.7927L36.7977 12.4357H36.8938L37.1051 10.9369L37.6624 8.7366H39.1325L37.7681 13.5503H35.9714L35.1451 11.2347L34.7896 9.9088H34.6839L34.3188 11.2347L33.4829 13.5503ZM42.0736 13.6464C41.542 13.6464 41.0712 13.5567 40.6612 13.3773C40.2513 13.198 39.9342 12.9226 39.71 12.551C39.4858 12.1795 39.3737 11.7119 39.3737 11.1483C39.3737 10.6358 39.4858 10.1938 39.71 9.82232C39.9342 9.4444 40.2449 9.15296 40.642 8.94798C41.0455 8.74301 41.5131 8.64052 42.0448 8.64052C42.57 8.64052 43.028 8.7302 43.4188 8.90955C43.8159 9.0889 44.1234 9.35473 44.3411 9.70703C44.5589 10.0529 44.6678 10.4757 44.6678 10.9753C44.6678 11.0586 44.6646 11.1354 44.6582 11.2059C44.6518 11.2764 44.6422 11.3532 44.6294 11.4365H40.3057V10.6775H43.6109L43.2842 11.1483C43.2842 11.0842 43.2842 11.0233 43.2842 10.9657C43.2842 10.908 43.2842 10.8504 43.2842 10.7927C43.2842 10.4276 43.185 10.165 42.9864 10.0049C42.7878 9.84474 42.4644 9.76468 42.016 9.76468C41.5292 9.76468 41.1897 9.86076 40.9975 10.0529C40.8053 10.2387 40.7093 10.5365 40.7093 10.9465V11.3116C40.7093 11.7215 40.8053 12.0226 40.9975 12.2148C41.1897 12.4005 41.5324 12.4934 42.0256 12.4934C42.4483 12.4934 42.7462 12.4389 42.9191 12.3301C43.0921 12.2212 43.1786 12.0642 43.1786 11.8593V11.7632H44.6198V11.8689C44.6198 12.2148 44.5141 12.5222 44.3027 12.7912C44.0913 13.0603 43.7935 13.2717 43.4092 13.4254C43.0312 13.5727 42.5861 13.6464 42.0736 13.6464ZM46.7202 13.5503H45.279V8.7366H46.6145V10.1106L46.7202 10.1586V13.5503ZM46.7202 10.7639H46.432V10.0145H46.701C46.7458 9.75186 46.8323 9.51807 46.9604 9.31309C47.0949 9.10171 47.2743 8.93837 47.4985 8.82307C47.7227 8.70137 47.9949 8.64052 48.3152 8.64052C48.6803 8.64052 48.9717 8.71738 49.1895 8.87112C49.4137 9.01844 49.577 9.22021 49.6795 9.47643C49.782 9.72624 49.8333 10.0081 49.8333 10.3219V11.1194H48.392V10.6198C48.392 10.3508 48.3312 10.1586 48.2095 10.0433C48.0942 9.92161 47.8892 9.86076 47.5946 9.86076C47.2743 9.86076 47.0469 9.93442 46.9124 10.0817C46.7843 10.2291 46.7202 10.4565 46.7202 10.7639ZM53.939 13.5503H52.1615L49.9709 8.7366H51.5754L53.0166 12.1475H53.1127L54.5636 8.7366H56.1393L53.939 13.5503ZM59.1841 13.5503H57.5699L60.3851 7.11282H62.4413L65.2757 13.5503H63.6231L61.8552 9.42839L61.4613 8.42914H61.3556L60.9616 9.42839L59.1841 13.5503ZM63.6423 12.1283H59.1073V10.8312H63.6423V12.1283ZM67.6008 13.6464C67.1524 13.6464 66.7777 13.5631 66.4766 13.3966C66.182 13.2236 65.961 12.993 65.8137 12.7048C65.6728 12.4165 65.6023 12.0931 65.6023 11.7343V8.7366H67.0435V11.2539C67.0435 11.6383 67.1364 11.9201 67.3222 12.0995C67.5079 12.2724 67.8282 12.3589 68.283 12.3589C68.757 12.3589 69.0869 12.266 69.2726 12.0802C69.4648 11.8881 69.5609 11.587 69.5609 11.1771L69.7434 11.1675L69.8491 12.0802H69.5801C69.5416 12.3493 69.4456 12.6023 69.2918 12.8393C69.1445 13.0763 68.9299 13.2717 68.6481 13.4254C68.3727 13.5727 68.0236 13.6464 67.6008 13.6464ZM71.0021 13.5503H69.6569V12.061L69.5609 12.013V8.7366H71.0021V13.5503ZM75.1307 13.5503H73.9393C73.3756 13.5503 72.9336 13.4126 72.6133 13.1371C72.2931 12.8617 72.1329 12.4197 72.1329 11.8112V7.80461H73.5742V11.6479C73.5742 11.8913 73.6254 12.0546 73.7279 12.1379C73.8368 12.2148 74.0161 12.2532 74.2659 12.2532H75.1307V13.5503ZM75.1307 9.92801H71.3739V8.7366H75.1307V9.92801ZM78.2358 13.6464C77.6914 13.6464 77.211 13.5439 76.7946 13.3389C76.3847 13.1339 76.0644 12.8457 75.8338 12.4742C75.6032 12.0963 75.4879 11.6543 75.4879 11.1483C75.4879 10.6358 75.6032 10.1938 75.8338 9.82232C76.0644 9.4444 76.3847 9.15296 76.7946 8.94798C77.211 8.74301 77.6914 8.64052 78.2358 8.64052C78.7867 8.64052 79.2671 8.74301 79.6771 8.94798C80.087 9.15296 80.4073 9.4444 80.6379 9.82232C80.8685 10.1938 80.9838 10.6358 80.9838 11.1483C80.9838 11.6543 80.8685 12.0963 80.6379 12.4742C80.4073 12.8457 80.087 13.1339 79.6771 13.3389C79.2671 13.5439 78.7867 13.6464 78.2358 13.6464ZM78.2358 12.3685C78.7226 12.3685 79.0621 12.2724 79.2543 12.0802C79.4529 11.8817 79.5522 11.571 79.5522 11.1483C79.5522 10.7191 79.4529 10.4052 79.2543 10.2067C79.0621 10.0081 78.7226 9.9088 78.2358 9.9088C77.749 9.9088 77.4063 10.0081 77.2078 10.2067C77.0156 10.4052 76.9195 10.7191 76.9195 11.1483C76.9195 11.571 77.0156 11.8817 77.2078 12.0802C77.4063 12.2724 77.749 12.3685 78.2358 12.3685ZM90.3542 13.5503H88.913V11.033C88.913 10.6358 88.8329 10.354 88.6728 10.1874C88.5126 10.0209 88.2244 9.93762 87.808 9.93762C87.3725 9.93762 87.0746 10.0305 86.9145 10.2163C86.7608 10.402 86.6839 10.7031 86.6839 11.1194H86.5013L86.386 10.2163H86.6647C86.7031 9.94082 86.7864 9.68461 86.9145 9.44761C87.049 9.2106 87.2444 9.01844 87.5006 8.87112C87.7632 8.71738 88.0995 8.64052 88.5094 8.64052C88.9258 8.64052 89.2685 8.72379 89.5375 8.89033C89.813 9.05687 90.0179 9.28427 90.1524 9.57251C90.287 9.86076 90.3542 10.1874 90.3542 10.5525V13.5503ZM83.0136 13.5503H81.5723V8.7366H82.9079V10.2355L83.0136 10.2835V13.5503ZM86.6839 13.5503H85.2427V11.033C85.2427 10.6358 85.1626 10.354 85.0025 10.1874C84.8423 10.0209 84.5541 9.93762 84.1377 9.93762C83.6958 9.93762 83.3979 10.0305 83.2442 10.2163C83.0904 10.402 83.0136 10.7031 83.0136 11.1194H82.831L82.7253 10.197H82.9847C83.0296 9.92801 83.1161 9.6782 83.2442 9.44761C83.3723 9.2106 83.5612 9.01844 83.811 8.87112C84.0609 8.71738 84.3875 8.64052 84.7911 8.64052C85.2074 8.64052 85.5469 8.72699 85.8095 8.89994C86.0786 9.07289 86.2771 9.30348 86.4053 9.59173C86.5334 9.87997 86.5974 10.2002 86.5974 10.5525H86.6839V13.5503ZM93.6521 13.6464C93.1076 13.6464 92.6272 13.5439 92.2108 13.3389C91.8009 13.1339 91.4806 12.8457 91.25 12.4742C91.0194 12.0963 90.9041 11.6543 90.9041 11.1483C90.9041 10.6358 91.0194 10.1938 91.25 9.82232C91.4806 9.4444 91.8009 9.15296 92.2108 8.94798C92.6272 8.74301 93.1076 8.64052 93.6521 8.64052C94.2029 8.64052 94.6833 8.74301 95.0933 8.94798C95.5032 9.15296 95.8235 9.4444 96.0541 9.82232C96.2847 10.1938 96.4 10.6358 96.4 11.1483C96.4 11.6543 96.2847 12.0963 96.0541 12.4742C95.8235 12.8457 95.5032 13.1339 95.0933 13.3389C94.6833 13.5439 94.2029 13.6464 93.6521 13.6464ZM93.6521 12.3685C94.1389 12.3685 94.4784 12.2724 94.6705 12.0802C94.8691 11.8817 94.9684 11.571 94.9684 11.1483C94.9684 10.7191 94.8691 10.4052 94.6705 10.2067C94.4784 10.0081 94.1389 9.9088 93.6521 9.9088C93.1652 9.9088 92.8226 10.0081 92.624 10.2067C92.4318 10.4052 92.3357 10.7191 92.3357 11.1483C92.3357 11.571 92.4318 11.8817 92.624 12.0802C92.8226 12.2724 93.1652 12.3685 93.6521 12.3685ZM100.38 13.5503H99.1889C98.6252 13.5503 98.1832 13.4126 97.8629 13.1371C97.5427 12.8617 97.3825 12.4197 97.3825 11.8112V7.80461H98.8237V11.6479C98.8237 11.8913 98.875 12.0546 98.9775 12.1379C99.0864 12.2148 99.2657 12.2532 99.5155 12.2532H100.38V13.5503ZM100.38 9.92801H96.6235V8.7366H100.38V9.92801ZM102.361 13.5503H100.92V8.7366H102.361V13.5503ZM102.361 8.24658H100.92V7.11282H102.361V8.24658ZM106.7 13.5503H104.922L102.731 8.7366H104.336L105.777 12.1475H105.873L107.324 8.7366H108.9L106.7 13.5503ZM111.836 13.6464C111.304 13.6464 110.834 13.5567 110.424 13.3773C110.014 13.198 109.697 12.9226 109.472 12.551C109.248 12.1795 109.136 11.7119 109.136 11.1483C109.136 10.6358 109.248 10.1938 109.472 9.82232C109.697 9.4444 110.007 9.15296 110.404 8.94798C110.808 8.74301 111.276 8.64052 111.807 8.64052C112.332 8.64052 112.79 8.7302 113.181 8.90955C113.578 9.0889 113.886 9.35473 114.104 9.70703C114.321 10.0529 114.43 10.4757 114.43 10.9753C114.43 11.0586 114.427 11.1354 114.421 11.2059C114.414 11.2764 114.405 11.3532 114.392 11.4365H110.068V10.6775H113.373L113.047 11.1483C113.047 11.0842 113.047 11.0233 113.047 10.9657C113.047 10.908 113.047 10.8504 113.047 10.7927C113.047 10.4276 112.947 10.165 112.749 10.0049C112.55 9.84474 112.227 9.76468 111.778 9.76468C111.292 9.76468 110.952 9.86076 110.76 10.0529C110.568 10.2387 110.472 10.5365 110.472 10.9465V11.3116C110.472 11.7215 110.568 12.0226 110.76 12.2148C110.952 12.4005 111.295 12.4934 111.788 12.4934C112.211 12.4934 112.509 12.4389 112.682 12.3301C112.855 12.2212 112.941 12.0642 112.941 11.8593V11.7632H114.382V11.8689C114.382 12.2148 114.277 12.5222 114.065 12.7912C113.854 13.0603 113.556 13.2717 113.172 13.4254C112.794 13.5727 112.348 13.6464 111.836 13.6464Z" fill="black"/>
<path d="M11.2259 11.4344L2.05422 5.94493H14.2872V7.43747L20.7646 3.71948L14.2916 0V1.49106H6.16419C5.01327 1.48975 3.90609 1.92945 3.07265 2.71881C2.23921 3.50817 1.74358 4.58651 1.68872 5.72981V10.1807L11.2364 15.8898L11.2259 11.4344Z" fill="url(#paint0_linear_347_8789)"/>
<path d="M9.54766 10.4092L18.7209 15.8986H6.48793V14.4061L0 18.1256L6.47749 21.8435V20.3599H14.6034C15.7541 20.3612 16.8611 19.9217 17.6945 19.1327C18.5279 18.3436 19.0237 17.2657 19.0789 16.1226V11.6717L9.54766 5.9538V10.4092Z" fill="url(#paint1_linear_347_8789)"/>
<defs>
<linearGradient id="paint0_linear_347_8789" x1="1.68425" y1="7.94488" x2="20.7691" y2="7.94488" gradientUnits="userSpaceOnUse">
<stop stop-color="#00A4F9"/>
<stop offset="0.03" stop-color="#0D9DF4"/>
<stop offset="0.14" stop-color="#3D83E0"/>
<stop offset="0.24" stop-color="#636FD1"/>
<stop offset="0.34" stop-color="#7E61C6"/>
<stop offset="0.43" stop-color="#8E58BF"/>
<stop offset="0.49" stop-color="#9455BD"/>
<stop offset="0.59" stop-color="#9852B9"/>
<stop offset="0.69" stop-color="#A548AF"/>
<stop offset="0.79" stop-color="#B9379E"/>
<stop offset="0.89" stop-color="#D62085"/>
<stop offset="0.99" stop-color="#FB0366"/>
<stop offset="1" stop-color="#FF0063"/>
</linearGradient>
<linearGradient id="paint1_linear_347_8789" x1="0" y1="13.8987" x2="19.0849" y2="13.8987" gradientUnits="userSpaceOnUse">
<stop stop-color="#00A4F9"/>
<stop offset="0.03" stop-color="#0D9DF4"/>
<stop offset="0.14" stop-color="#3D83E0"/>
<stop offset="0.24" stop-color="#636FD1"/>
<stop offset="0.34" stop-color="#7E61C6"/>
<stop offset="0.43" stop-color="#8E58BF"/>
<stop offset="0.49" stop-color="#9455BD"/>
<stop offset="0.59" stop-color="#9852B9"/>
<stop offset="0.69" stop-color="#A548AF"/>
<stop offset="0.79" stop-color="#B9379E"/>
<stop offset="0.89" stop-color="#D62085"/>
<stop offset="0.99" stop-color="#FB0366"/>
<stop offset="1" stop-color="#FF0063"/>
</linearGradient>
</defs>
</svg>
