<svg width="60" height="60" viewBox="0 0 60 60" fill="none" xmlns="http://www.w3.org/2000/svg">
<rect width="60" height="60" rx="30" fill="#E6EEFC"/>
<path d="M44.6004 32.7999C44.4953 32.8787 44.3758 32.936 44.2485 32.9686C44.1213 33.0012 43.9889 33.0084 43.8589 32.9899C43.7289 32.9713 43.6039 32.9273 43.4909 32.8604C43.3779 32.7935 43.2792 32.705 43.2004 32.5999C42.5976 31.7897 41.8131 31.1324 40.9099 30.6808C40.0067 30.2292 39.0101 29.996 38.0004 29.9999C37.8037 29.9999 37.6114 29.9419 37.4476 29.8332C37.2837 29.7244 37.1556 29.5698 37.0791 29.3886C37.0272 29.2656 37.0005 29.1334 37.0005 28.9999C37.0005 28.8664 37.0272 28.7342 37.0791 28.6111C37.1556 28.43 37.2837 28.2754 37.4476 28.1666C37.6114 28.0579 37.8037 27.9999 38.0004 27.9999C38.5615 27.9998 39.1113 27.8424 39.5874 27.5456C40.0635 27.2487 40.4468 26.8243 40.6938 26.3205C40.9408 25.8166 41.0416 25.2537 40.9846 24.6955C40.9277 24.1373 40.7153 23.6062 40.3717 23.1627C40.0281 22.7191 39.567 22.3808 39.0407 22.1862C38.5145 21.9915 37.9442 21.9484 37.3947 22.0616C36.8451 22.1749 36.3383 22.4399 35.9319 22.8268C35.5255 23.2136 35.2356 23.7066 35.0954 24.2499C35.0625 24.3771 35.005 24.4966 34.926 24.6016C34.8469 24.7066 34.748 24.7949 34.6349 24.8617C34.5217 24.9284 34.3965 24.9722 34.2664 24.9906C34.1363 25.0089 34.0038 25.0015 33.8766 24.9686C33.7494 24.9358 33.6299 24.8783 33.5249 24.7992C33.42 24.7202 33.3316 24.6213 33.2648 24.5081C33.1981 24.395 33.1543 24.2698 33.1359 24.1397C33.1176 24.0096 33.125 23.8771 33.1579 23.7499C33.3526 22.9965 33.7204 22.299 34.2321 21.7128C34.7438 21.1267 35.3853 20.668 36.1054 20.3733C36.8256 20.0787 37.6046 19.9562 38.3804 20.0156C39.1563 20.0749 39.9075 20.3146 40.5745 20.7154C41.2414 21.1162 41.8056 21.6672 42.2221 22.3244C42.6386 22.9817 42.896 23.727 42.9738 24.5012C43.0515 25.2755 42.9476 26.0571 42.6701 26.7841C42.3926 27.511 41.9492 28.1632 41.3754 28.6886C42.7351 29.2774 43.9172 30.2117 44.8041 31.3986C44.8829 31.504 44.9401 31.6238 44.9725 31.7513C45.005 31.8788 45.0119 32.0114 44.993 32.1415C44.974 32.2717 44.9296 32.3969 44.8622 32.5098C44.7949 32.6228 44.7059 32.7214 44.6004 32.7999ZM37.8654 40.4999C37.9377 40.6137 37.9863 40.741 38.0082 40.8741C38.0301 41.0072 38.0248 41.1433 37.9927 41.2743C37.9607 41.4053 37.9024 41.5284 37.8215 41.6363C37.7406 41.7442 37.6387 41.8347 37.5219 41.9021C37.4051 41.9696 37.2759 42.0128 37.142 42.0291C37.0082 42.0453 36.8724 42.0344 36.7428 41.9968C36.6133 41.9592 36.4927 41.8958 36.3883 41.8104C36.2839 41.725 36.1979 41.6194 36.1354 41.4999C35.5054 40.4332 34.6083 39.5492 33.5324 38.9352C32.4565 38.3211 31.2392 37.9981 30.0004 37.9981C28.7616 37.9981 27.5442 38.3211 26.4683 38.9352C25.3925 39.5492 24.4953 40.4332 23.8654 41.4999C23.8029 41.6194 23.7168 41.725 23.6124 41.8104C23.508 41.8958 23.3874 41.9592 23.2579 41.9968C23.1284 42.0344 22.9926 42.0453 22.8587 42.0291C22.7248 42.0128 22.5956 41.9696 22.4788 41.9021C22.3621 41.8347 22.2602 41.7442 22.1793 41.6363C22.0983 41.5284 22.0401 41.4053 22.008 41.2743C21.9759 41.1433 21.9707 41.0072 21.9925 40.8741C22.0144 40.741 22.063 40.6137 22.1354 40.4999C23.1049 38.8341 24.5831 37.5232 26.3529 36.7599C25.357 35.9974 24.6252 34.9421 24.2601 33.7422C23.8951 32.5423 23.9152 31.2581 24.3178 30.0703C24.7203 28.8824 25.4849 27.8506 26.5042 27.1197C27.5235 26.3889 28.7462 25.9959 30.0004 25.9959C31.2546 25.9959 32.4773 26.3889 33.4965 27.1197C34.5158 27.8506 35.2805 28.8824 35.683 30.0703C36.0855 31.2581 36.1057 32.5423 35.7406 33.7422C35.3756 34.9421 34.6437 35.9974 33.6479 36.7599C35.4176 37.5232 36.8959 38.8341 37.8654 40.4999ZM30.0004 35.9999C30.7915 35.9999 31.5649 35.7653 32.2227 35.3258C32.8804 34.8863 33.3931 34.2615 33.6959 33.5306C33.9986 32.7997 34.0779 31.9955 33.9235 31.2195C33.7692 30.4436 33.3882 29.7309 32.8288 29.1715C32.2694 28.6121 31.5567 28.2311 30.7807 28.0768C30.0048 27.9224 29.2005 28.0016 28.4696 28.3044C27.7387 28.6071 27.114 29.1198 26.6745 29.7776C26.235 30.4354 26.0004 31.2088 26.0004 31.9999C26.0004 33.0608 26.4218 34.0782 27.1719 34.8283C27.9221 35.5785 28.9395 35.9999 30.0004 35.9999ZM23.0004 28.9999C23.0004 28.7347 22.895 28.4803 22.7075 28.2928C22.5199 28.1053 22.2656 27.9999 22.0004 27.9999C21.4393 27.9998 20.8895 27.8424 20.4133 27.5456C19.9372 27.2487 19.5539 26.8243 19.3069 26.3205C19.0599 25.8166 18.9592 25.2537 19.0161 24.6955C19.0731 24.1373 19.2854 23.6062 19.629 23.1627C19.9726 22.7191 20.4337 22.3808 20.96 22.1862C21.4862 21.9915 22.0565 21.9484 22.6061 22.0616C23.1556 22.1749 23.6624 22.4399 24.0688 22.8268C24.4753 23.2136 24.7651 23.7066 24.9054 24.2499C24.9717 24.5068 25.1373 24.7269 25.3659 24.8617C25.5944 24.9965 25.8672 25.035 26.1241 24.9686C26.381 24.9023 26.6011 24.7367 26.7359 24.5081C26.8707 24.2796 26.9092 24.0068 26.8429 23.7499C26.6482 22.9965 26.2803 22.299 25.7686 21.7128C25.2569 21.1267 24.6155 20.668 23.8953 20.3733C23.1752 20.0787 22.3962 19.9562 21.6203 20.0156C20.8445 20.0749 20.0932 20.3146 19.4263 20.7154C18.7594 21.1162 18.1952 21.6672 17.7787 22.3244C17.3621 22.9817 17.1047 23.727 17.027 24.5012C16.9492 25.2755 17.0532 26.0571 17.3307 26.7841C17.6082 27.511 18.0515 28.1632 18.6254 28.6886C17.267 29.278 16.0863 30.2122 15.2004 31.3986C15.1215 31.5037 15.0641 31.6233 15.0314 31.7505C14.9988 31.8778 14.9915 32.0102 15.01 32.1403C15.0285 32.2703 15.0724 32.3955 15.1393 32.5085C15.2062 32.6216 15.2947 32.7204 15.3998 32.7993C15.5048 32.8781 15.6244 32.9356 15.7516 32.9682C15.8789 33.0009 16.0113 33.0082 16.1414 32.9897C16.2714 32.9712 16.3966 32.9272 16.5096 32.8603C16.6227 32.7935 16.7215 32.705 16.8004 32.5999C17.4031 31.7897 18.1876 31.1324 19.0908 30.6808C19.994 30.2292 20.9906 29.996 22.0004 29.9999C22.2656 29.9999 22.5199 29.8945 22.7075 29.707C22.895 29.5195 23.0004 29.2651 23.0004 28.9999Z" fill="#0957DE"/>
</svg>
