<svg width="32" height="32" viewBox="0 0 32 32" fill="none" xmlns="http://www.w3.org/2000/svg">
<mask id="path-1-outside-1_347_13207" maskUnits="userSpaceOnUse" x="-0.799988" y="-0.799988" width="33" height="33" fill="black">
<rect fill="white" x="-0.799988" y="-0.799988" width="33" height="33"/>
<path d="M2.12042 1.32501L7.34763 6.55239L6.55239 7.34763L1.32501 2.12042V6.38751H0.200012V0.762512C0.200012 0.688643 0.214561 0.615498 0.24283 0.547252C0.271098 0.479007 0.312531 0.416997 0.364764 0.364764C0.416997 0.312531 0.479007 0.271098 0.547252 0.24283C0.615498 0.214561 0.688643 0.200012 0.762512 0.200012H6.38751V1.32501H2.12042ZM31.7 0.762512V6.38751H30.575V2.12042L25.3476 7.34763L24.5524 6.55239L29.7796 1.32501H25.5125V0.200012H31.1375C31.2867 0.200012 31.4298 0.259275 31.5353 0.364764C31.6407 0.470253 31.7 0.613327 31.7 0.762512ZM30.575 25.5125H31.7V31.1375C31.7 31.2867 31.6407 31.4298 31.5353 31.5353C31.4298 31.6407 31.2867 31.7 31.1375 31.7H25.5125V30.575H29.7796L24.5524 25.3476L25.3476 24.5524L30.575 29.7796V25.5125ZM30.2938 15.5074C30.2938 13.6404 28.1383 11.7959 24.5281 10.5736L24.8887 9.50833C29.0383 10.9128 31.4188 13.0992 31.4188 15.5074C31.4188 17.9159 29.0383 20.103 24.8881 21.5068L24.5276 20.441C28.1382 19.2194 30.2938 17.3754 30.2938 15.5074ZM1.6379 15.5074C1.6379 17.2961 3.65552 19.0916 7.03544 20.3111L6.65364 21.3692C2.75095 19.9612 0.512727 17.8249 0.512727 15.5074C0.512727 13.1904 2.75095 11.054 6.65364 9.64544L7.03544 10.7036C3.65552 11.9236 1.63773 13.7192 1.63773 15.5074M7.34745 25.3476L2.12042 30.575H6.38751V31.7H0.762512C0.688643 31.7 0.615498 31.6855 0.547252 31.6572C0.479007 31.6289 0.416997 31.5875 0.364764 31.5353C0.312531 31.483 0.271098 31.421 0.24283 31.3528C0.214561 31.2845 0.200012 31.2114 0.200012 31.1375V25.5125H1.32501V29.7796L6.55239 24.5524L7.34745 25.3476ZM15.95 11.0484C11.9304 11.0484 9.76251 10.01 9.76251 9.58585C9.76251 9.16116 11.9304 8.12335 15.95 8.12335C19.9691 8.12335 22.1375 9.16116 22.1375 9.58585C22.1375 10.01 19.9691 11.0484 15.95 11.0484ZM15.9664 15.4049C12.1176 15.4049 9.76251 14.3537 9.76251 13.7816V11.0473C11.148 11.8118 13.6054 12.1734 15.95 12.1734C18.2946 12.1734 20.752 11.8118 22.1375 11.0473V13.7816C22.1375 14.3543 19.7947 15.4049 15.9664 15.4049ZM15.9664 19.7001C12.1176 19.7001 9.76251 18.649 9.76251 18.0768V15.31C11.1301 16.1137 13.5548 16.5299 15.9664 16.5299C18.3642 16.5299 20.7752 16.1142 22.1375 15.3126V18.077C22.1375 18.6497 19.7947 19.7003 15.9664 19.7003M15.95 23.554C11.9468 23.554 9.76251 22.4778 9.76251 21.9248V19.6052C11.1301 20.4089 13.5548 20.8251 15.9664 20.8251C18.3642 20.8251 20.7752 20.4101 22.1375 19.608V21.9248C22.1375 22.4778 19.9533 23.554 15.95 23.554ZM15.95 6.99835C12.4282 6.99835 8.63751 7.80782 8.63751 9.58585V21.9248C8.63751 23.7327 12.3163 24.679 15.95 24.679C19.5838 24.679 23.2625 23.7327 23.2625 21.9248V9.58585C23.2625 7.80782 19.4718 6.99835 15.95 6.99835Z"/>
</mask>
<path d="M2.12042 1.32501L7.34763 6.55239L6.55239 7.34763L1.32501 2.12042V6.38751H0.200012V0.762512C0.200012 0.688643 0.214561 0.615498 0.24283 0.547252C0.271098 0.479007 0.312531 0.416997 0.364764 0.364764C0.416997 0.312531 0.479007 0.271098 0.547252 0.24283C0.615498 0.214561 0.688643 0.200012 0.762512 0.200012H6.38751V1.32501H2.12042ZM31.7 0.762512V6.38751H30.575V2.12042L25.3476 7.34763L24.5524 6.55239L29.7796 1.32501H25.5125V0.200012H31.1375C31.2867 0.200012 31.4298 0.259275 31.5353 0.364764C31.6407 0.470253 31.7 0.613327 31.7 0.762512ZM30.575 25.5125H31.7V31.1375C31.7 31.2867 31.6407 31.4298 31.5353 31.5353C31.4298 31.6407 31.2867 31.7 31.1375 31.7H25.5125V30.575H29.7796L24.5524 25.3476L25.3476 24.5524L30.575 29.7796V25.5125ZM30.2938 15.5074C30.2938 13.6404 28.1383 11.7959 24.5281 10.5736L24.8887 9.50833C29.0383 10.9128 31.4188 13.0992 31.4188 15.5074C31.4188 17.9159 29.0383 20.103 24.8881 21.5068L24.5276 20.441C28.1382 19.2194 30.2938 17.3754 30.2938 15.5074ZM1.6379 15.5074C1.6379 17.2961 3.65552 19.0916 7.03544 20.3111L6.65364 21.3692C2.75095 19.9612 0.512727 17.8249 0.512727 15.5074C0.512727 13.1904 2.75095 11.054 6.65364 9.64544L7.03544 10.7036C3.65552 11.9236 1.63773 13.7192 1.63773 15.5074M7.34745 25.3476L2.12042 30.575H6.38751V31.7H0.762512C0.688643 31.7 0.615498 31.6855 0.547252 31.6572C0.479007 31.6289 0.416997 31.5875 0.364764 31.5353C0.312531 31.483 0.271098 31.421 0.24283 31.3528C0.214561 31.2845 0.200012 31.2114 0.200012 31.1375V25.5125H1.32501V29.7796L6.55239 24.5524L7.34745 25.3476ZM15.95 11.0484C11.9304 11.0484 9.76251 10.01 9.76251 9.58585C9.76251 9.16116 11.9304 8.12335 15.95 8.12335C19.9691 8.12335 22.1375 9.16116 22.1375 9.58585C22.1375 10.01 19.9691 11.0484 15.95 11.0484ZM15.9664 15.4049C12.1176 15.4049 9.76251 14.3537 9.76251 13.7816V11.0473C11.148 11.8118 13.6054 12.1734 15.95 12.1734C18.2946 12.1734 20.752 11.8118 22.1375 11.0473V13.7816C22.1375 14.3543 19.7947 15.4049 15.9664 15.4049ZM15.9664 19.7001C12.1176 19.7001 9.76251 18.649 9.76251 18.0768V15.31C11.1301 16.1137 13.5548 16.5299 15.9664 16.5299C18.3642 16.5299 20.7752 16.1142 22.1375 15.3126V18.077C22.1375 18.6497 19.7947 19.7003 15.9664 19.7003M15.95 23.554C11.9468 23.554 9.76251 22.4778 9.76251 21.9248V19.6052C11.1301 20.4089 13.5548 20.8251 15.9664 20.8251C18.3642 20.8251 20.7752 20.4101 22.1375 19.608V21.9248C22.1375 22.4778 19.9533 23.554 15.95 23.554ZM15.95 6.99835C12.4282 6.99835 8.63751 7.80782 8.63751 9.58585V21.9248C8.63751 23.7327 12.3163 24.679 15.95 24.679C19.5838 24.679 23.2625 23.7327 23.2625 21.9248V9.58585C23.2625 7.80782 19.4718 6.99835 15.95 6.99835Z" fill="white"/>
<path d="M2.12042 1.32501V1.12501H1.63759L1.979 1.46643L2.12042 1.32501ZM7.34763 6.55239L7.48905 6.69382L7.63047 6.5524L7.48905 6.41098L7.34763 6.55239ZM6.55239 7.34763L6.41098 7.48905L6.5524 7.63047L6.69382 7.48905L6.55239 7.34763ZM1.32501 2.12042L1.46643 1.979L1.12501 1.63759V2.12042H1.32501ZM1.32501 6.38751V6.58751H1.52501V6.38751H1.32501ZM0.200012 6.38751H1.22041e-05V6.58751H0.200012V6.38751ZM6.38751 0.200012H6.58751V1.22041e-05H6.38751V0.200012ZM6.38751 1.32501V1.52501H6.58751V1.32501H6.38751ZM31.7 0.762512H31.5H31.7ZM31.7 6.38751V6.58751H31.9V6.38751H31.7ZM30.575 6.38751H30.375V6.58751H30.575V6.38751ZM30.575 2.12042H30.775V1.63759L30.4336 1.979L30.575 2.12042ZM25.3476 7.34763L25.2062 7.48905L25.3476 7.63047L25.489 7.48905L25.3476 7.34763ZM24.5524 6.55239L24.411 6.41098L24.2696 6.5524L24.411 6.69382L24.5524 6.55239ZM29.7796 1.32501L29.921 1.46643L30.2624 1.12501H29.7796V1.32501ZM25.5125 1.32501H25.3125V1.52501H25.5125V1.32501ZM25.5125 0.200012V1.22041e-05H25.3125V0.200012H25.5125ZM31.1375 0.200012V1.22041e-05V0.200012ZM30.575 25.5125V25.3125H30.375V25.5125H30.575ZM31.7 25.5125H31.9V25.3125H31.7V25.5125ZM31.7 31.1375H31.5H31.7ZM31.1375 31.7V31.5V31.7ZM25.5125 31.7H25.3125V31.9H25.5125V31.7ZM25.5125 30.575V30.375H25.3125V30.575H25.5125ZM29.7796 30.575V30.775H30.2624L29.921 30.4336L29.7796 30.575ZM24.5524 25.3476L24.411 25.2062L24.2696 25.3476L24.411 25.489L24.5524 25.3476ZM25.3476 24.5524L25.489 24.411L25.3476 24.2696L25.2062 24.411L25.3476 24.5524ZM30.575 29.7796L30.4336 29.921L30.775 30.2624V29.7796H30.575ZM24.5281 10.5736L24.3387 10.5094L24.2746 10.6989L24.464 10.763L24.5281 10.5736ZM24.8887 9.50833L24.9528 9.31889L24.7633 9.25477L24.6992 9.44421L24.8887 9.50833ZM24.8881 21.5068L24.6987 21.5709L24.7628 21.7603L24.9522 21.6963L24.8881 21.5068ZM24.5276 20.441L24.4635 20.2516L24.2741 20.3157L24.3382 20.5051L24.5276 20.441ZM7.03544 20.3111L7.22357 20.379L7.29146 20.1909L7.10332 20.123L7.03544 20.3111ZM6.65364 21.3692L6.58577 21.5573L6.77389 21.6252L6.84177 21.4371L6.65364 21.3692ZM6.65364 9.64544L6.84177 9.57756L6.77389 9.38942L6.58575 9.45732L6.65364 9.64544ZM7.03544 10.7036L7.10334 10.8918L7.29144 10.8239L7.22357 10.6358L7.03544 10.7036ZM7.34745 25.3476L7.48888 25.489L7.63027 25.3476L7.48889 25.2062L7.34745 25.3476ZM2.12042 30.575L1.979 30.4336L1.6376 30.775H2.12042V30.575ZM6.38751 30.575H6.58751V30.375H6.38751V30.575ZM6.38751 31.7V31.9H6.58751V31.7H6.38751ZM0.200012 25.5125V25.3125H1.22041e-05V25.5125H0.200012ZM1.32501 25.5125H1.52501V25.3125H1.32501V25.5125ZM1.32501 29.7796H1.12501V30.2624L1.46643 29.921L1.32501 29.7796ZM6.55239 24.5524L6.69383 24.411L6.55241 24.2695L6.41098 24.411L6.55239 24.5524ZM9.76251 11.0473L9.85913 10.8722L9.56251 10.7085V11.0473H9.76251ZM22.1375 11.0473H22.3375V10.7085L22.0409 10.8722L22.1375 11.0473ZM9.76251 15.31L9.86384 15.1376L9.56251 14.9605V15.31H9.76251ZM22.1375 15.3126H22.3375V14.9629L22.0361 15.1403L22.1375 15.3126ZM9.76251 19.6052L9.86384 19.4328L9.56251 19.2557V19.6052H9.76251ZM22.1375 19.608H22.3375V19.2582L22.036 19.4357L22.1375 19.608ZM2.12042 1.32501L1.979 1.46643L7.2062 6.69381L7.34763 6.55239L7.48905 6.41098L2.26185 1.18359L2.12042 1.32501ZM7.34763 6.55239L7.20621 6.41097L6.41097 7.20621L6.55239 7.34763L6.69382 7.48905L7.48905 6.69382L7.34763 6.55239ZM6.55239 7.34763L6.69381 7.2062L1.46643 1.979L1.32501 2.12042L1.18359 2.26185L6.41098 7.48905L6.55239 7.34763ZM1.32501 2.12042H1.12501V6.38751H1.32501H1.52501V2.12042H1.32501ZM1.32501 6.38751V6.18751H0.200012V6.38751V6.58751H1.32501V6.38751ZM0.200012 6.38751H0.400012V0.762512H0.200012H1.22041e-05V6.38751H0.200012ZM0.200012 0.762512H0.400012C0.400012 0.714907 0.409388 0.667769 0.427606 0.623789L0.24283 0.547252L0.0580537 0.470716C0.0197343 0.563227 1.22041e-05 0.662379 1.22041e-05 0.762512H0.200012ZM0.24283 0.547252L0.427606 0.623789C0.445823 0.579808 0.472524 0.539847 0.506186 0.506186L0.364764 0.364764L0.223343 0.223343C0.152538 0.294148 0.0963729 0.378205 0.0580537 0.470716L0.24283 0.547252ZM0.364764 0.364764L0.506186 0.506186C0.539847 0.472524 0.579808 0.445823 0.623789 0.427606L0.547252 0.24283L0.470716 0.0580537C0.378205 0.0963729 0.294148 0.152538 0.223343 0.223343L0.364764 0.364764ZM0.547252 0.24283L0.623789 0.427606C0.667769 0.409388 0.714907 0.400012 0.762512 0.400012V0.200012V1.22041e-05C0.662379 1.22041e-05 0.563227 0.0197343 0.470716 0.0580537L0.547252 0.24283ZM0.762512 0.200012V0.400012H6.38751V0.200012V1.22041e-05H0.762512V0.200012ZM6.38751 0.200012H6.18751V1.32501H6.38751H6.58751V0.200012H6.38751ZM6.38751 1.32501V1.12501H2.12042V1.32501V1.52501H6.38751V1.32501ZM31.7 0.762512H31.5V6.38751H31.7H31.9V0.762512H31.7ZM31.7 6.38751V6.18751H30.575V6.38751V6.58751H31.7V6.38751ZM30.575 6.38751H30.775V2.12042H30.575H30.375V6.38751H30.575ZM30.575 2.12042L30.4336 1.979L25.2062 7.2062L25.3476 7.34763L25.489 7.48905L30.7164 2.26185L30.575 2.12042ZM25.3476 7.34763L25.489 7.20621L24.6938 6.41097L24.5524 6.55239L24.411 6.69382L25.2062 7.48905L25.3476 7.34763ZM24.5524 6.55239L24.6938 6.69381L29.921 1.46643L29.7796 1.32501L29.6382 1.18359L24.411 6.41098L24.5524 6.55239ZM29.7796 1.32501V1.12501H25.5125V1.32501V1.52501H29.7796V1.32501ZM25.5125 1.32501H25.7125V0.200012H25.5125H25.3125V1.32501H25.5125ZM25.5125 0.200012V0.400012H31.1375V0.200012V1.22041e-05H25.5125V0.200012ZM31.1375 0.200012V0.400012C31.2337 0.400012 31.3259 0.438203 31.3938 0.506186L31.5353 0.364764L31.6767 0.223343C31.5337 0.0803468 31.3397 1.22041e-05 31.1375 1.22041e-05V0.200012ZM31.5353 0.364764L31.3938 0.506186C31.4618 0.574171 31.5 0.666375 31.5 0.762512H31.7H31.9C31.9 0.56028 31.8197 0.366336 31.6767 0.223343L31.5353 0.364764ZM30.575 25.5125V25.7125H31.7V25.5125V25.3125H30.575V25.5125ZM31.7 25.5125H31.5V31.1375H31.7H31.9V25.5125H31.7ZM31.7 31.1375H31.5C31.5 31.2336 31.4618 31.3258 31.3938 31.3938L31.5353 31.5353L31.6767 31.6767C31.8197 31.5337 31.9 31.3397 31.9 31.1375H31.7ZM31.5353 31.5353L31.3938 31.3938C31.3258 31.4618 31.2336 31.5 31.1375 31.5V31.7V31.9C31.3397 31.9 31.5337 31.8197 31.6767 31.6767L31.5353 31.5353ZM31.1375 31.7V31.5H25.5125V31.7V31.9H31.1375V31.7ZM25.5125 31.7H25.7125V30.575H25.5125H25.3125V31.7H25.5125ZM25.5125 30.575V30.775H29.7796V30.575V30.375H25.5125V30.575ZM29.7796 30.575L29.921 30.4336L24.6938 25.2062L24.5524 25.3476L24.411 25.489L29.6382 30.7164L29.7796 30.575ZM24.5524 25.3476L24.6938 25.489L25.489 24.6938L25.3476 24.5524L25.2062 24.411L24.411 25.2062L24.5524 25.3476ZM25.3476 24.5524L25.2062 24.6938L30.4336 29.921L30.575 29.7796L30.7164 29.6382L25.489 24.411L25.3476 24.5524ZM30.575 29.7796H30.775V25.5125H30.575H30.375V29.7796H30.575ZM30.2938 15.5074H30.4938C30.4938 14.4927 29.9085 13.5143 28.8948 12.6468C27.8792 11.7777 26.4126 11.0005 24.5923 10.3841L24.5281 10.5736L24.464 10.763C26.2539 11.3691 27.6701 12.1252 28.6347 12.9507C29.6013 13.7778 30.0938 14.6551 30.0938 15.5074H30.2938ZM24.5281 10.5736L24.7176 10.6377L25.0781 9.57245L24.8887 9.50833L24.6992 9.44421L24.3387 10.5094L24.5281 10.5736ZM24.8887 9.50833L24.8245 9.69777C26.8828 10.3944 28.4877 11.2804 29.5745 12.2788C30.6602 13.276 31.2188 14.3748 31.2188 15.5074H31.4188H31.6188C31.6188 14.2318 30.9871 13.0333 29.8451 11.9842C28.7043 10.9362 27.0442 10.0267 24.9528 9.31889L24.8887 9.50833ZM31.4188 15.5074H31.2188C31.2188 16.6402 30.6601 17.7392 29.5745 18.7366C28.4876 19.7351 26.8826 20.6211 24.8241 21.3174L24.8881 21.5068L24.9522 21.6963C27.0439 20.9888 28.7042 20.0793 29.8451 19.0312C30.9872 17.982 31.6188 16.7832 31.6188 15.5074H31.4188ZM24.8881 21.5068L25.0776 21.4427L24.7171 20.377L24.5276 20.441L24.3382 20.5051L24.6987 21.5709L24.8881 21.5068ZM24.5276 20.441L24.5917 20.6305C26.4122 20.0145 27.879 19.2376 28.8947 18.3686C29.9085 17.5012 30.4938 16.5226 30.4938 15.5074H30.2938H30.0938C30.0938 16.3602 29.6012 17.2376 28.6346 18.0646C27.6699 18.89 26.2536 19.6459 24.4635 20.2516L24.5276 20.441ZM1.6379 15.5074H1.4379C1.4379 16.4806 1.98623 17.4266 2.93624 18.2721C3.88799 19.1191 5.26226 19.884 6.96756 20.4993L7.03544 20.3111L7.10332 20.123C5.4287 19.5188 4.10421 18.7761 3.20216 17.9733C2.29838 17.169 1.8379 16.3229 1.8379 15.5074H1.6379ZM7.03544 20.3111L6.84732 20.2433L6.46552 21.3013L6.65364 21.3692L6.84177 21.4371L7.22357 20.379L7.03544 20.3111ZM6.65364 21.3692L6.72152 21.181C4.78691 20.4831 3.27886 19.6093 2.25777 18.6347C1.23775 17.661 0.712727 16.5967 0.712727 15.5074H0.512727H0.312727C0.312727 16.7356 0.906815 17.8981 1.98158 18.924C3.05528 19.9489 4.61769 20.8473 6.58577 21.5573L6.65364 21.3692ZM0.512727 15.5074H0.712727C0.712727 14.4184 1.23774 13.3541 2.25777 12.3804C3.27887 11.4057 4.78692 10.5318 6.72154 9.83356L6.65364 9.64544L6.58575 9.45732C4.61767 10.1676 3.05527 11.0662 1.98158 12.0911C0.906825 13.117 0.312727 14.2794 0.312727 15.5074H0.512727ZM6.65364 9.64544L6.46551 9.71332L6.84731 10.7715L7.03544 10.7036L7.22357 10.6358L6.84177 9.57756L6.65364 9.64544ZM7.03544 10.7036L6.96754 10.5155C5.26225 11.131 3.88794 11.896 2.93615 12.743C1.98612 13.5885 1.43773 14.5344 1.43773 15.5074H1.63773H1.83773C1.83773 14.6921 2.29823 13.8462 3.20207 13.0418C4.10417 12.239 5.42871 11.4962 7.10334 10.8918L7.03544 10.7036ZM7.34745 25.3476L7.20603 25.2062L1.979 30.4336L2.12042 30.575L2.26185 30.7164L7.48888 25.489L7.34745 25.3476ZM2.12042 30.575V30.775H6.38751V30.575V30.375H2.12042V30.575ZM6.38751 30.575H6.18751V31.7H6.38751H6.58751V30.575H6.38751ZM6.38751 31.7V31.5H0.762512V31.7V31.9H6.38751V31.7ZM0.762512 31.7V31.5C0.714909 31.5 0.667771 31.4906 0.623789 31.4724L0.547252 31.6572L0.470716 31.842C0.563225 31.8803 0.662377 31.9 0.762512 31.9V31.7ZM0.547252 31.6572L0.623789 31.4724C0.579814 31.4542 0.539851 31.4275 0.506186 31.3938L0.364764 31.5353L0.223343 31.6767C0.294143 31.7475 0.378199 31.8036 0.470716 31.842L0.547252 31.6572ZM0.364764 31.5353L0.506186 31.3938C0.472523 31.3602 0.445822 31.3202 0.427606 31.2762L0.24283 31.3528L0.0580537 31.4293C0.0963734 31.5218 0.152539 31.6059 0.223343 31.6767L0.364764 31.5353ZM0.24283 31.3528L0.427606 31.2762C0.409388 31.2323 0.400012 31.1851 0.400012 31.1375H0.200012H1.22041e-05C1.22041e-05 31.2376 0.0197345 31.3368 0.0580537 31.4293L0.24283 31.3528ZM0.200012 31.1375H0.400012V25.5125H0.200012H1.22041e-05V31.1375H0.200012ZM0.200012 25.5125V25.7125H1.32501V25.5125V25.3125H0.200012V25.5125ZM1.32501 25.5125H1.12501V29.7796H1.32501H1.52501V25.5125H1.32501ZM1.32501 29.7796L1.46643 29.921L6.69381 24.6938L6.55239 24.5524L6.41098 24.411L1.18359 29.6382L1.32501 29.7796ZM6.55239 24.5524L6.41096 24.6938L7.20602 25.489L7.34745 25.3476L7.48889 25.2062L6.69383 24.411L6.55239 24.5524ZM15.95 11.0484V10.8484C13.9566 10.8484 12.4294 10.5908 11.4063 10.2846C10.8938 10.1312 10.5134 9.96725 10.2657 9.82106C10.1412 9.74759 10.0571 9.68264 10.0069 9.63099C9.95014 9.57271 9.96251 9.55873 9.96251 9.58585H9.76251H9.56251C9.56251 9.71902 9.64264 9.83027 9.72018 9.90995C9.80418 9.99628 9.92087 10.082 10.0624 10.1656C10.3468 10.3334 10.7596 10.5086 11.2916 10.6678C12.3573 10.9867 13.9239 11.2484 15.95 11.2484V11.0484ZM9.76251 9.58585H9.96251C9.96251 9.61284 9.95021 9.59879 10.0069 9.54052C10.0571 9.48885 10.1412 9.42388 10.2657 9.35041C10.5134 9.20421 10.8938 9.04031 11.4063 8.88695C12.4294 8.58079 13.9566 8.32335 15.95 8.32335V8.12335V7.92335C13.9239 7.92335 12.3573 8.18482 11.2916 8.50374C10.7597 8.66291 10.3468 8.8381 10.0624 9.00593C9.92085 9.08947 9.80415 9.17526 9.72014 9.26163C9.64256 9.3414 9.56251 9.45269 9.56251 9.58585H9.76251ZM15.95 8.12335V8.32335C17.9432 8.32335 19.4704 8.58079 20.4936 8.88695C21.0061 9.04031 21.3865 9.20421 21.6343 9.35042C21.7588 9.42389 21.8429 9.48886 21.8931 9.54053C21.9498 9.59882 21.9375 9.61286 21.9375 9.58585H22.1375H22.3375C22.3375 9.45267 22.2574 9.34138 22.1798 9.26162C22.0958 9.17525 21.9791 9.08946 21.8375 9.00592C21.5531 8.8381 21.1402 8.66291 20.6082 8.50374C19.5424 8.18482 17.9759 7.92335 15.95 7.92335V8.12335ZM22.1375 9.58585H21.9375C21.9375 9.55871 21.9499 9.57269 21.8932 9.63098C21.8429 9.68263 21.7588 9.74759 21.6343 9.82105C21.3865 9.96725 21.0061 10.1312 20.4936 10.2846C19.4704 10.5908 17.9432 10.8484 15.95 10.8484V11.0484V11.2484C17.9759 11.2484 19.5424 10.9867 20.6083 10.6678C21.1402 10.5086 21.5531 10.3334 21.8375 10.1656C21.9791 10.082 22.0958 9.99629 22.1798 9.90997C22.2574 9.83029 22.3375 9.71903 22.3375 9.58585H22.1375ZM15.9664 15.4049V15.2049C14.0591 15.2049 12.5286 14.9443 11.4808 14.6169C10.9559 14.4529 10.5591 14.2742 10.2981 14.1079C10.1672 14.0245 10.0775 13.9487 10.0228 13.8851C9.96576 13.8189 9.96251 13.785 9.96251 13.7816H9.76251H9.56251C9.56251 13.9212 9.63286 14.0453 9.71968 14.1461C9.80876 14.2495 9.93311 14.3497 10.0832 14.4453C10.384 14.637 10.8166 14.8284 11.3615 14.9987C12.4535 15.3399 14.0249 15.6049 15.9664 15.6049V15.4049ZM9.76251 13.7816H9.96251V11.0473H9.76251H9.56251V13.7816H9.76251ZM9.76251 11.0473L9.66589 11.2224C11.0975 12.0123 13.5977 12.3734 15.95 12.3734V12.1734V11.9734C13.6132 11.9734 11.1985 11.6112 9.85913 10.8722L9.76251 11.0473ZM15.95 12.1734V12.3734C18.3023 12.3734 20.8025 12.0123 22.2341 11.2224L22.1375 11.0473L22.0409 10.8722C20.7015 11.6112 18.2868 11.9734 15.95 11.9734V12.1734ZM22.1375 11.0473H21.9375V13.7816H22.1375H22.3375V11.0473H22.1375ZM22.1375 13.7816H21.9375C21.9375 13.7855 21.9341 13.8196 21.8775 13.8857C21.823 13.9492 21.7339 14.0251 21.6037 14.1084C21.3443 14.2747 20.9497 14.4532 20.4276 14.6172C19.3856 14.9445 17.8634 15.2049 15.9664 15.2049V15.4049V15.6049C17.8977 15.6049 19.461 15.34 20.5475 14.9988C21.0896 14.8285 21.5201 14.6371 21.8195 14.4452C21.9689 14.3496 22.0926 14.2494 22.1813 14.1458C22.2677 14.0449 22.3375 13.9209 22.3375 13.7816H22.1375ZM15.9664 19.7001V19.5001C14.0591 19.5001 12.5286 19.2395 11.4808 18.9121C10.9559 18.7481 10.5591 18.5695 10.2981 18.4032C10.1672 18.3198 10.0775 18.2439 10.0228 18.1803C9.96576 18.1141 9.96251 18.0802 9.96251 18.0768H9.76251H9.56251C9.56251 18.2164 9.63286 18.3405 9.71968 18.4413C9.80876 18.5448 9.93311 18.6449 10.0832 18.7405C10.384 18.9322 10.8166 19.1236 11.3615 19.2939C12.4535 19.6351 14.0249 19.9001 15.9664 19.9001V19.7001ZM9.76251 18.0768H9.96251V15.31H9.76251H9.56251V18.0768H9.76251ZM9.76251 15.31L9.66118 15.4824C11.0754 16.3135 13.5439 16.7299 15.9664 16.7299V16.5299V16.3299C13.5657 16.3299 11.1848 15.9138 9.86384 15.1376L9.76251 15.31ZM15.9664 16.5299V16.7299C18.3753 16.7299 20.83 16.314 22.2389 15.485L22.1375 15.3126L22.0361 15.1403C20.7204 15.9144 18.3531 16.3299 15.9664 16.3299V16.5299ZM22.1375 15.3126H21.9375V18.077H22.1375H22.3375V15.3126H22.1375ZM22.1375 18.077H21.9375C21.9375 18.0808 21.9341 18.1149 21.8775 18.1811C21.823 18.2446 21.7339 18.3205 21.6037 18.4038C21.3443 18.5701 20.9497 18.7486 20.4276 18.9126C19.3856 19.2399 17.8634 19.5003 15.9664 19.5003V19.7003V19.9003C17.8977 19.9003 19.461 19.6354 20.5475 19.2942C21.0896 19.1239 21.5201 18.9324 21.8195 18.7406C21.9689 18.6449 22.0926 18.5448 22.1813 18.4412C22.2677 18.3403 22.3375 18.2163 22.3375 18.077H22.1375ZM15.95 23.554V23.354C13.9652 23.354 12.4396 23.087 11.4165 22.7565C10.904 22.5908 10.5244 22.4114 10.2775 22.2464C10.1537 22.1637 10.0698 22.0889 10.0188 22.0268C9.96593 21.9623 9.96251 21.9289 9.96251 21.9248H9.76251H9.56251C9.56251 22.059 9.62735 22.1802 9.70955 22.2804C9.7937 22.383 9.91167 22.483 10.0552 22.579C10.3429 22.7712 10.7596 22.9645 11.2935 23.1371C12.3635 23.4828 13.9316 23.754 15.95 23.754V23.554ZM9.76251 21.9248H9.96251V19.6052H9.76251H9.56251V21.9248H9.76251ZM9.76251 19.6052L9.66118 19.7776C11.0754 20.6087 13.5439 21.0251 15.9664 21.0251V20.8251V20.6251C13.5657 20.6251 11.1848 20.209 9.86384 19.4328L9.76251 19.6052ZM15.9664 20.8251V21.0251C18.3752 21.0251 20.83 20.6099 22.239 19.7804L22.1375 19.608L22.036 19.4357C20.7204 20.2103 18.3532 20.6251 15.9664 20.6251V20.8251ZM22.1375 19.608H21.9375V21.9248H22.1375H22.3375V19.608H22.1375ZM22.1375 21.9248H21.9375C21.9375 21.9289 21.9341 21.9623 21.8812 22.0268C21.8303 22.0889 21.7463 22.1637 21.6225 22.2464C21.3756 22.4114 20.996 22.5908 20.4835 22.7565C19.4604 23.087 17.9349 23.354 15.95 23.354V23.554V23.754C17.9684 23.754 19.5366 23.4828 20.6065 23.1371C21.1404 22.9645 21.5571 22.7712 21.8448 22.579C21.9883 22.483 22.1063 22.383 22.1905 22.2804C22.2727 22.1802 22.3375 22.059 22.3375 21.9248H22.1375ZM15.95 6.99835V6.79835C14.1773 6.79835 12.3278 7.00172 10.9146 7.43409C10.209 7.64997 9.59848 7.92698 9.16046 8.27483C8.72017 8.62449 8.43751 9.06066 8.43751 9.58585H8.63751H8.83751C8.83751 9.22203 9.0287 8.89026 9.40922 8.58807C9.79202 8.28407 10.3493 8.02533 11.0316 7.81659C12.3942 7.39972 14.201 7.19835 15.95 7.19835V6.99835ZM8.63751 9.58585H8.43751V21.9248H8.63751H8.83751V9.58585H8.63751ZM8.63751 21.9248H8.43751C8.43751 22.4528 8.70839 22.9021 9.13923 23.27C9.56783 23.6359 10.1677 23.9339 10.8673 24.1694C12.268 24.641 14.1192 24.879 15.95 24.879V24.679V24.479C14.1471 24.479 12.342 24.2438 10.9949 23.7903C10.3206 23.5633 9.77368 23.2857 9.39896 22.9658C9.02648 22.6477 8.83751 22.3007 8.83751 21.9248H8.63751ZM15.95 24.679V24.879C17.7808 24.879 19.632 24.641 21.0327 24.1694C21.7323 23.9339 22.3322 23.6359 22.7608 23.27C23.1916 22.9021 23.4625 22.4528 23.4625 21.9248H23.2625H23.0625C23.0625 22.3007 22.8735 22.6477 22.5011 22.9658C22.1263 23.2857 21.5794 23.5633 20.9051 23.7903C19.558 24.2438 17.7529 24.479 15.95 24.479V24.679ZM23.2625 21.9248H23.4625V9.58585H23.2625H23.0625V21.9248H23.2625ZM23.2625 9.58585H23.4625C23.4625 9.06066 23.1799 8.62449 22.7396 8.27483C22.3015 7.92698 21.6911 7.64997 20.9854 7.43409C19.5722 7.00172 17.7227 6.79835 15.95 6.79835V6.99835V7.19835C17.6991 7.19835 19.5058 7.39972 20.8684 7.81659C21.5507 8.02533 22.108 8.28407 22.4908 8.58807C22.8713 8.89026 23.0625 9.22203 23.0625 9.58585H23.2625Z" fill="white" mask="url(#path-1-outside-1_347_13207)"/>
</svg>
