<svg width="39" height="45" viewBox="0 0 39 45" fill="none" xmlns="http://www.w3.org/2000/svg">
<path d="M15.3165 0C7.89492 0 0.0041888 2.19765 0.0041888 6.3053V13.5548C0.0311348 14.0686 0.166202 14.571 0.400565 15.0291C0.634928 15.4872 0.963312 15.8907 1.36426 16.2132C0.95844 16.541 0.627209 16.9516 0.392675 17.4175C0.158141 17.8835 0.025699 18.3941 0.0041888 18.9154V26.121C0.0250223 26.6424 0.157168 27.1533 0.391752 27.6194C0.626335 28.0854 0.957926 28.4959 1.36426 28.8232C0.958375 29.1511 0.627105 29.5618 0.392568 30.0278C0.158031 30.4939 0.025625 31.0047 0.0041888 31.526V38.7322C-0.00139627 38.7947 -0.00139627 38.8576 0.0041888 38.9201C0.246964 42.8747 7.99361 45 15.3165 45C22.6393 45 30.3859 42.8747 30.6292 38.9026C30.6381 38.8396 30.6381 38.7757 30.6292 38.7126V31.5064C30.6119 30.9844 30.4812 30.4723 30.2464 30.0058C30.0116 29.5392 29.6781 29.1292 29.2692 28.8042C29.6755 28.4769 30.0071 28.0664 30.2417 27.6004C30.4763 27.1343 30.6084 26.6234 30.6292 26.102V25.2381L24.676 31.1824C25.747 30.8834 26.7803 30.4632 27.7561 29.93C28.0412 30.1069 28.2846 30.3434 28.4696 30.6234C28.6546 30.9034 28.7766 31.2201 28.8274 31.5518C28.8274 33.2006 25.3336 34.9934 20.1456 35.7233C18.5447 35.9395 16.9318 36.0534 15.3165 36.0643H14.4166C7.13862 35.8933 1.806 33.5964 1.806 31.5608C1.85726 31.2292 1.97976 30.9127 2.16508 30.633C2.3504 30.3533 2.59413 30.117 2.87949 29.9405C5.70783 31.517 10.291 32.4527 15.317 32.4527H15.4173L15.9208 30.6514H15.317C10.3633 30.6514 5.77063 29.6687 3.32968 28.1197C2.357 27.4801 1.81498 26.7882 1.806 26.1844V22.0134C4.56256 24.1213 10.0572 25.2207 15.317 25.2207C16.0289 25.2207 16.742 25.2207 17.4355 25.1573L17.9474 23.3555C17.0465 23.4188 16.2089 23.4452 15.317 23.4452C7.58881 23.4452 1.806 21.0766 1.806 18.9418C1.85704 18.6099 1.97945 18.293 2.16478 18.013C2.3501 17.733 2.59395 17.4966 2.87949 17.3199C5.3653 18.7159 9.18321 19.5893 13.5157 19.7878L13.5616 17.9865C9.3009 17.7791 5.45502 16.8608 3.32968 15.5007C2.36597 14.879 1.82448 14.176 1.806 13.5638V9.40332C4.56256 11.5107 10.0572 12.6101 15.317 12.6101H15.516L16.4712 10.8088H15.317C7.58881 10.8088 1.806 8.43961 1.806 6.3053C1.806 4.17046 7.58881 1.80129 15.317 1.80129C17.92 1.79008 20.515 2.09256 23.0457 2.70219H27.9909C25.2887 1.05396 20.6222 0 15.3165 0ZM22.0719 4.49504C21.9061 4.49589 21.7436 4.54245 21.6025 4.6296C21.4613 4.71675 21.3469 4.84111 21.2718 4.98903L15.8674 15.7983C15.7919 15.9363 15.7538 16.0916 15.7568 16.2488C15.7599 16.4061 15.8041 16.5598 15.885 16.6946C15.9659 16.8295 16.0807 16.9408 16.218 17.0176C16.3553 17.0943 16.5103 17.1338 16.6676 17.132H21.7658L16.7045 33.9838C16.6474 34.1779 16.6571 34.3855 16.7321 34.5734C16.8072 34.7613 16.9432 34.9185 17.1183 35.0198C17.2545 35.1011 17.4098 35.1448 17.5685 35.1465C17.6997 35.1494 17.8299 35.1235 17.95 35.0706C18.0701 35.0177 18.1771 34.9391 18.2635 34.8404L38.0793 14.1237C38.2005 13.9962 38.2817 13.836 38.3129 13.6629C38.3441 13.4898 38.324 13.3113 38.2549 13.1495C38.1859 12.9877 38.071 12.8497 37.9244 12.7524C37.7779 12.6551 37.606 12.6029 37.4301 12.6022H32.3778L34.6825 5.67408C34.7277 5.5353 34.7384 5.38764 34.7139 5.24378C34.6893 5.09993 34.6302 4.96419 34.5416 4.84825C34.4529 4.73231 34.3375 4.63964 34.2051 4.5782C34.0727 4.51677 33.9274 4.48841 33.7816 4.49557L22.0719 4.49504ZM22.577 6.3053H32.4849L30.1785 13.2223C30.1311 13.3617 30.1186 13.5106 30.1421 13.656C30.1656 13.8014 30.2244 13.9388 30.3133 14.0562C30.4022 14.1735 30.5185 14.2674 30.6521 14.3294C30.7857 14.3914 30.9324 14.4197 31.0794 14.4119H35.2768L19.5054 30.8942L23.8384 16.4823C23.8777 16.3483 23.8851 16.2069 23.8601 16.0694C23.8351 15.932 23.7783 15.8023 23.6943 15.6907C23.6105 15.5785 23.5016 15.4874 23.3764 15.4248C23.2511 15.3622 23.1129 15.3298 22.9728 15.3302H18.1279L22.577 6.3053ZM4.50767 12.438C4.35984 12.438 4.21345 12.4671 4.07687 12.5237C3.94029 12.5803 3.81619 12.6632 3.71165 12.7677C3.60712 12.8723 3.5242 12.9964 3.46762 13.133C3.41105 13.2695 3.38193 13.4159 3.38193 13.5638C3.38193 13.7116 3.41105 13.858 3.46762 13.9946C3.5242 14.1311 3.60712 14.2552 3.71165 14.3598C3.81619 14.4643 3.94029 14.5472 4.07687 14.6038C4.21345 14.6604 4.35984 14.6895 4.50767 14.6895C4.65555 14.6896 4.80199 14.6605 4.93863 14.604C5.07528 14.5474 5.19944 14.4645 5.30403 14.36C5.40862 14.2554 5.49159 14.1313 5.5482 13.9947C5.6048 13.8581 5.63394 13.7116 5.63394 13.5638C5.63394 13.4159 5.6048 13.2694 5.5482 13.1328C5.49159 12.9962 5.40862 12.8721 5.30403 12.7675C5.19944 12.663 5.07528 12.5801 4.93863 12.5236C4.80199 12.467 4.65555 12.4379 4.50767 12.438ZM4.50767 25.0481C4.35984 25.0481 4.21345 25.0772 4.07687 25.1338C3.94029 25.1904 3.81619 25.2733 3.71165 25.3778C3.60712 25.4823 3.5242 25.6064 3.46762 25.743C3.41105 25.8796 3.38193 26.026 3.38193 26.1738C3.38186 26.3217 3.41093 26.4681 3.46747 26.6048C3.52402 26.7414 3.60693 26.8656 3.71147 26.9702C3.81601 27.0748 3.94013 27.1577 4.07675 27.2143C4.21336 27.271 4.35979 27.3001 4.50767 27.3001C4.65559 27.3002 4.80208 27.2711 4.93876 27.2145C5.07543 27.1579 5.19962 27.075 5.30422 26.9704C5.40881 26.8658 5.49177 26.7416 5.54835 26.6049C5.60492 26.4682 5.63401 26.3217 5.63394 26.1738C5.63394 26.0259 5.6048 25.8795 5.5482 25.7429C5.49159 25.6063 5.40862 25.4822 5.30403 25.3776C5.19944 25.2731 5.07528 25.1902 4.93863 25.1336C4.80199 25.0771 4.65555 25.048 4.50767 25.0481ZM1.80548 34.606C4.56203 36.696 10.0567 37.7938 15.3165 37.7938C20.5762 37.7938 26.0714 36.696 28.8274 34.606V38.7491C28.8274 40.8749 23.0452 43.2525 15.3165 43.2525C7.58828 43.2525 1.80548 40.9018 1.80548 38.7491V34.606ZM4.50767 37.6582C4.35979 37.6582 4.21336 37.6873 4.07675 37.7439C3.94013 37.8005 3.81601 37.8835 3.71147 37.9881C3.60693 38.0927 3.52402 38.2168 3.46747 38.3535C3.41093 38.4901 3.38186 38.6365 3.38193 38.7844C3.38193 39.083 3.50054 39.3693 3.71165 39.5804C3.92277 39.7916 4.20911 39.9102 4.50767 39.9102C4.65555 39.9102 4.80199 39.8812 4.93863 39.8246C5.07528 39.7681 5.19944 39.6852 5.30403 39.5806C5.40862 39.4761 5.49159 39.352 5.5482 39.2153C5.6048 39.0787 5.63394 38.9323 5.63394 38.7844C5.63401 38.6365 5.60492 38.49 5.54835 38.3533C5.49177 38.2167 5.40881 38.0925 5.30422 37.9879C5.19962 37.8833 5.07543 37.8003 4.93876 37.7437C4.80208 37.6872 4.65559 37.6581 4.50767 37.6582Z" fill="white"/>
</svg>
