<svg width="45" height="45" viewBox="0 0 45 45" fill="none" xmlns="http://www.w3.org/2000/svg">
  <path d="M14.8964 19.6806C14.8964 20.1085 14.9426 20.4553 15.0235 20.7098C15.1261 20.9962 15.2498 21.2745 15.3936 21.5425C15.4515 21.635 15.4745 21.7274 15.4745 21.8085C15.4745 21.9241 15.4051 22.0398 15.2548 22.1553L14.5262 22.6411C14.4221 22.7104 14.318 22.7452 14.2256 22.7452C14.1099 22.7452 13.9943 22.6874 13.8786 22.5833C13.7228 22.4158 13.5834 22.2338 13.4623 22.0398C13.3331 21.8176 13.2134 21.5899 13.1037 21.3574C12.2018 22.4215 11.0684 22.9535 9.70379 22.9533C8.73242 22.9533 7.95758 22.6758 7.39086 22.1207C6.82432 21.5655 6.53516 20.8255 6.53516 19.9004C6.53516 18.9172 6.88215 18.1194 7.58756 17.518C8.29297 16.9167 9.22971 16.6159 10.4208 16.6159C10.814 16.6159 11.2188 16.6507 11.6467 16.7085C12.0745 16.7664 12.514 16.8588 12.9767 16.9629V16.1186C12.9767 15.2397 12.7916 14.6268 12.4331 14.2683C12.0629 13.9097 11.4386 13.7364 10.5481 13.7364C10.1432 13.7364 9.72699 13.7827 9.29914 13.8867C8.87129 13.9908 8.45486 14.118 8.05004 14.2799C7.91854 14.3387 7.78337 14.3889 7.64539 14.4302C7.56453 14.4534 7.50652 14.465 7.46029 14.465C7.29857 14.465 7.21736 14.3494 7.21736 14.1064V13.5397C7.21736 13.3548 7.24057 13.2159 7.2984 13.1351C7.35623 13.0542 7.46029 12.9732 7.62219 12.8921C8.02695 12.684 8.51269 12.5106 9.07941 12.3718C9.64596 12.2214 10.2473 12.1521 10.8835 12.1521C12.2596 12.1521 13.2656 12.4643 13.9134 13.0887C14.5494 13.7132 14.8732 14.6616 14.8732 15.9337V19.6806H14.8964ZM10.2012 21.4385C10.5827 21.4385 10.9759 21.369 11.3923 21.2302C11.8086 21.0915 12.1786 20.8369 12.491 20.4901C12.6759 20.2704 12.8148 20.0275 12.884 19.7499C12.9533 19.4723 12.9997 19.137 12.9997 18.7439V18.258C12.649 18.1727 12.2939 18.1071 11.9359 18.0615C11.5752 18.0159 11.2121 17.9927 10.8487 17.9921C10.0738 17.9921 9.50726 18.1426 9.12564 18.4547C8.74402 18.7669 8.55893 19.2064 8.55893 19.7847C8.55893 20.3282 8.69779 20.7329 8.98678 21.0104C9.26451 21.2996 9.66933 21.4385 10.2012 21.4385ZM19.4872 22.6874C19.2791 22.6874 19.1403 22.6526 19.0478 22.5717C18.9553 22.5023 18.8743 22.3404 18.805 22.1207L16.0875 13.1813C16.0178 12.95 15.9832 12.7997 15.9832 12.7187C15.9832 12.5337 16.0757 12.4295 16.2608 12.4295H17.394C17.6138 12.4295 17.7642 12.4643 17.8451 12.5452C17.9376 12.6146 18.007 12.7765 18.0764 12.9962L20.0192 20.652L21.8234 12.9962C21.8812 12.7649 21.9505 12.6148 22.0431 12.5452C22.1356 12.4759 22.2975 12.4297 22.5056 12.4297H23.4307C23.6504 12.4297 23.8009 12.4643 23.8934 12.5452C23.9858 12.6146 24.0669 12.7765 24.1131 12.9962L25.9403 20.7445L27.9409 12.9962C28.0103 12.7649 28.0914 12.6148 28.1722 12.5452C28.2647 12.4759 28.4152 12.4297 28.6233 12.4297H29.6987C29.8838 12.4297 29.9879 12.5221 29.9879 12.7187C29.9879 12.7767 29.9763 12.8343 29.9647 12.9037C29.9533 12.9732 29.9301 13.0655 29.8838 13.1929L27.0968 22.1323C27.0273 22.3636 26.9463 22.5139 26.8539 22.5833C26.7614 22.6526 26.611 22.699 26.4144 22.699H25.4199C25.2001 22.699 25.0498 22.6642 24.9574 22.5833C24.8647 22.5023 24.7839 22.352 24.7377 22.1207L22.945 14.6616L21.1642 22.1091C21.1064 22.3404 21.0369 22.4907 20.9445 22.5717C20.8518 22.6526 20.6899 22.6874 20.4818 22.6874H19.4872ZM34.3478 22.9996C33.7464 22.9996 33.1451 22.9301 32.5668 22.7914C31.9886 22.6526 31.5376 22.5023 31.2368 22.3288C31.0519 22.2247 30.9246 22.1091 30.8784 22.005C30.8334 21.9029 30.8098 21.7927 30.809 21.6812V21.0915C30.809 20.8485 30.9014 20.7329 31.0749 20.7329C31.1444 20.7329 31.2138 20.7445 31.283 20.7677C31.3525 20.7907 31.4565 20.8369 31.5722 20.8833C31.9807 21.0629 32.4071 21.1986 32.8443 21.288C33.2973 21.38 33.7583 21.4265 34.2205 21.4269C34.9491 21.4269 35.5157 21.2996 35.9089 21.0452C36.3021 20.7907 36.5102 20.4207 36.5102 19.9466C36.5102 19.6228 36.4062 19.3567 36.1981 19.1369C35.9899 18.9172 35.5967 18.7207 35.03 18.5356L33.3532 18.0153C32.5089 17.7493 31.8844 17.3561 31.5028 16.8358C31.1211 16.3269 30.9246 15.76 30.9246 15.1588C30.9246 14.6732 31.0287 14.2453 31.2368 13.8751C31.4449 13.5051 31.7225 13.1813 32.0695 12.927C32.4165 12.6608 32.8097 12.4643 33.2722 12.3254C33.7348 12.1866 34.2205 12.1289 34.7294 12.1289C34.9838 12.1289 35.2497 12.1405 35.5043 12.1751C35.7702 12.2098 36.013 12.256 36.2559 12.3024C36.4872 12.3602 36.7069 12.4181 36.9151 12.4875C37.1232 12.5568 37.2851 12.6261 37.4008 12.6956C37.5626 12.7881 37.6783 12.8805 37.7477 12.9846C37.8171 13.0772 37.8518 13.2045 37.8518 13.3664V13.9099C37.8518 14.1527 37.7593 14.2799 37.5859 14.2799C37.4932 14.2799 37.3429 14.2337 37.1464 14.1411C36.4872 13.8405 35.7471 13.6902 34.9259 13.6902C34.2668 13.6902 33.7464 13.7943 33.3878 14.014C33.0292 14.2337 32.8443 14.5691 32.8443 15.0432C32.8443 15.367 32.96 15.6445 33.1913 15.8643C33.4226 16.084 33.8505 16.3037 34.4634 16.5002L36.1056 17.0205C36.9381 17.2867 37.5396 17.6567 37.898 18.131C38.2565 18.6052 38.43 19.1486 38.43 19.7499C38.43 20.2472 38.3259 20.6982 38.1294 21.0915C37.9212 21.4847 37.6437 21.8315 37.2851 22.1091C36.9267 22.3982 36.4986 22.6063 36.0015 22.7568C35.481 22.9187 34.9375 22.9996 34.3478 22.9996Z" fill="white"/>
  <path fill-rule="evenodd" clip-rule="evenodd" d="M36.5339 28.6192C32.7291 31.4294 27.2014 32.9213 22.4482 32.9213C15.7872 32.9213 9.78495 30.4579 5.25173 26.3641C4.89313 26.0403 5.2171 25.6009 5.64495 25.8552C10.5484 28.7001 16.5966 30.4233 22.8531 30.4233C27.0741 30.4233 31.7116 29.5444 35.9788 27.7403C36.6148 27.4512 37.1583 28.1566 36.5339 28.6192Z" fill="white"/>
  <path fill-rule="evenodd" clip-rule="evenodd" d="M38.1177 26.8158C37.632 26.1913 34.9028 26.5151 33.6653 26.6654C33.2953 26.7118 33.2375 26.3878 33.5729 26.1451C35.7469 24.6186 39.3204 25.058 39.7368 25.5667C40.1531 26.0872 39.6211 29.6607 37.5858 31.3723C37.2734 31.6382 36.9728 31.4993 37.1115 31.1525C37.5742 30.0077 38.6034 27.4286 38.1177 26.8158Z" fill="white"/>
</svg>
