<svg width="45" height="45" viewBox="0 0 45 45" fill="none" xmlns="http://www.w3.org/2000/svg">
<path d="M30.9375 2.8125H36.5625V8.4375H30.9375V2.8125ZM30.9375 14.0625V31.1203C30.9338 32.5625 30.3592 33.9446 29.3394 34.9644C28.3196 35.9842 26.9375 36.5588 25.4953 36.5625H25.3125V42.1875H25.4953C26.9489 42.1882 28.3883 41.9025 29.7314 41.3466C31.0745 40.7906 32.2948 39.9755 33.3226 38.9476C34.3505 37.9198 35.1656 36.6995 35.7216 35.3564C36.2775 34.0133 36.5632 32.5739 36.5625 31.1203V14.0625H30.9375ZM19.6875 2.8125H25.3125V30.9375H19.6875V2.8125Z" fill="white"/>
<path d="M16.6472 16.875C17.4532 16.8761 18.2259 17.1968 18.7958 17.7667C19.3657 18.3366 19.6864 19.1093 19.6875 19.9153V26.8833L18.6047 27.2447C17.3279 27.6705 15.956 27.7232 14.6503 27.3966C13.6786 27.1542 12.8158 26.5936 12.1996 25.8041C11.5834 25.0146 11.2491 24.0415 11.25 23.04V22.2708C11.2511 20.8398 11.8202 19.4678 12.8321 18.4561C13.8441 17.4444 15.2162 16.8757 16.6472 16.875ZM16.6472 11.25C13.7244 11.2507 10.9215 12.4121 8.85464 14.4787C6.78779 16.5452 5.62612 19.348 5.625 22.2708V23.04C5.6243 25.2959 6.37804 27.4872 7.7663 29.2653C9.15455 31.0435 11.0976 32.3063 13.2863 32.8528C15.6298 33.4388 18.0919 33.3442 20.3836 32.58L25.3125 30.9375V19.9153C25.3129 18.7773 25.089 17.6503 24.6536 16.5988C24.2183 15.5473 23.58 14.5919 22.7753 13.7872C21.9706 12.9825 21.0152 12.3442 19.9637 11.9089C18.9122 11.4735 17.7852 11.2496 16.6472 11.25Z" fill="white"/>
</svg>
