<svg width="45" height="45" viewBox="0 0 45 45" fill="none" xmlns="http://www.w3.org/2000/svg">
<g clip-path="url(#clip0_502_7431)">
<path d="M44.406 18.4728C44.271 18.3808 43.146 17.4833 40.716 17.4833C40.086 17.4833 39.456 17.5523 38.826 17.6674C38.3535 14.4456 35.721 12.8117 35.6085 12.7427L34.956 12.3515L34.551 12.9728C34.011 13.8013 33.5835 14.7448 33.4035 15.7113C32.9535 17.5523 33.2235 19.3013 34.146 20.7971C33.0435 21.4414 31.2435 21.6025 30.861 21.6025H1.2285C0.463496 21.6025 -0.166504 22.2469 -0.166504 23.0523C-0.166504 25.6987 0.238496 28.3452 1.1385 30.8305C2.151 33.569 3.681 35.5941 5.6385 36.8368C7.8435 38.2176 11.466 39 15.5835 39C17.361 39 19.206 38.8389 21.0285 38.4937C23.5485 38.0335 25.9785 37.136 28.206 35.8243C30.0508 34.7453 31.702 33.3522 33.0885 31.705C35.451 29.0126 36.846 25.9519 37.8585 23.3054H38.286C40.851 23.3054 42.4485 22.2469 43.326 21.3494C43.911 20.7971 44.3385 20.1297 44.6535 19.3473L44.8335 18.795L44.406 18.4728ZM3.996 20.751H7.956C8.136 20.751 8.316 20.59 8.316 20.3828V16.7469C8.316 16.5628 8.1585 16.3787 7.956 16.3787H3.996C3.7935 16.3787 3.636 16.5397 3.636 16.7469V20.3828C3.6585 20.59 3.7935 20.751 3.996 20.751ZM9.4635 20.751H13.4235C13.6035 20.751 13.7835 20.59 13.7835 20.3828V16.7469C13.7835 16.5628 13.626 16.3787 13.4235 16.3787H9.4635C9.261 16.3787 9.1035 16.5397 9.1035 16.7469V20.3828C9.126 20.59 9.261 20.751 9.4635 20.751ZM15.021 20.751H18.9585C19.1835 20.751 19.341 20.59 19.341 20.3828V16.7469C19.341 16.5628 19.206 16.3787 18.9585 16.3787H15.021C14.841 16.3787 14.6835 16.5397 14.6835 16.7469V20.3828C14.6835 20.59 14.8185 20.751 15.021 20.751ZM20.511 20.751H24.4935C24.6735 20.751 24.831 20.59 24.831 20.3828V16.7469C24.831 16.5628 24.696 16.3787 24.4935 16.3787H20.511C20.331 16.3787 20.1735 16.5397 20.1735 16.7469V20.3828C20.1735 20.59 20.331 20.751 20.511 20.751ZM9.4635 15.5962H13.4235C13.6035 15.5962 13.7835 15.3891 13.7835 15.182V11.569C13.7835 11.3619 13.626 11.2008 13.4235 11.2008H9.4635C9.261 11.2008 9.1035 11.3389 9.1035 11.569V15.182C9.126 15.3891 9.261 15.5962 9.4635 15.5962ZM15.021 15.5962H18.9585C19.1835 15.5962 19.341 15.3891 19.341 15.182V11.569C19.341 11.3619 19.206 11.2008 18.9585 11.2008H15.021C14.841 11.2008 14.6835 11.3389 14.6835 11.569V15.182C14.6835 15.3891 14.8185 15.5962 15.021 15.5962ZM20.511 15.5962H24.4935C24.6735 15.5962 24.831 15.3891 24.831 15.182V11.569C24.831 11.3619 24.6735 11.2008 24.4935 11.2008H20.511C20.331 11.2008 20.1735 11.3389 20.1735 11.569V15.182C20.1735 15.3891 20.331 15.5962 20.511 15.5962ZM20.511 10.3494H24.4935C24.6735 10.3494 24.831 10.1883 24.831 9.98117V6.39121C24.831 6.16109 24.6735 6 24.4935 6H20.511C20.331 6 20.1735 6.13808 20.1735 6.39121V9.98117C20.1735 10.1653 20.331 10.3494 20.511 10.3494ZM26.046 20.751H30.006C30.2085 20.751 30.366 20.59 30.366 20.3828V16.7469C30.366 16.5628 30.2085 16.3787 30.006 16.3787H26.046C25.866 16.3787 25.7085 16.5397 25.7085 16.7469V20.3828C25.7085 20.59 25.866 20.751 26.046 20.751Z" fill="white"/>
</g>
<defs>
<clipPath id="clip0_502_7431">
<rect width="45" height="45" fill="white"/>
</clipPath>
</defs>
</svg>
