<svg width="45" height="45" viewBox="0 0 45 45" fill="none" xmlns="http://www.w3.org/2000/svg">
<g clip-path="url(#clip0_531_9516)">
<path d="M19.9733 44.8544C19.3043 44.7746 18.6026 44.6716 18.4145 44.6252C18.1377 44.5596 17.8593 44.501 17.5795 44.4494C17.26 44.3875 16.943 44.3133 16.6293 44.2269C15.172 43.8092 15.0676 43.7751 13.969 43.3258C12.9582 42.9138 11.096 41.9512 10.459 41.5132C10.2846 41.3923 10.1215 41.2949 10.0965 41.2949C10.0716 41.2949 9.6641 41.008 9.19019 40.6575C6.1773 38.4275 3.91535 35.7205 2.28094 32.3863C1.99969 31.8136 1.77012 31.3056 1.77012 31.2578C1.77012 31.2107 1.71949 31.0802 1.65762 30.9705C1.53 30.7424 1.34824 30.2509 1.20164 29.7429C1.13863 29.527 1.06531 29.3143 0.981914 29.1055C0.913359 28.9438 0.858164 28.7469 0.858164 28.6674C0.858164 28.5876 0.789609 28.3282 0.705937 28.0891C0.622265 27.8518 0.554765 27.5716 0.554765 27.4669C0.554765 27.3628 0.489023 27.0028 0.407812 26.6667C0.210234 25.837 0 23.6879 0 22.4835C0 21.2804 0.210234 19.1313 0.407812 18.302C0.488672 17.9655 0.554765 17.5989 0.554765 17.4864C0.554765 17.3735 0.605742 17.1524 0.667265 16.9942C0.730547 16.8367 0.811406 16.5537 0.848672 16.3656C0.887343 16.1775 0.975234 15.8533 1.0466 15.6431L1.25402 15.0363C1.40625 14.5817 1.54758 14.1971 1.61508 14.0474C1.65375 13.9637 1.80457 13.622 1.95152 13.288C2.18918 12.7484 2.69859 11.7306 2.99637 11.198C3.105 11.0028 3.14613 10.9382 3.73394 10.0195C4.66523 8.56124 6.25676 6.74683 7.73824 5.45343C8.26031 4.99746 10.0044 3.67347 10.0828 3.67347C10.1046 3.67347 10.2691 3.57468 10.4495 3.45375C10.923 3.13664 11.3875 2.86734 11.9928 2.56394C12.2102 2.45647 12.4254 2.34477 12.6383 2.2289C12.7385 2.17125 12.9266 2.08476 13.8923 1.65234C14.105 1.55742 14.3343 1.47093 14.9948 1.23996C15.1404 1.18933 15.4329 1.08211 15.6417 1.00371C15.8519 0.92566 16.0991 0.860973 16.1912 0.860973C16.2819 0.860973 16.5206 0.797691 16.7214 0.719644C16.9218 0.641246 17.2856 0.551949 17.5314 0.521715C17.776 0.492887 18.1012 0.424332 18.2538 0.370543C18.405 0.318512 18.8198 0.251012 19.1753 0.221129C19.6385 0.179202 20.1005 0.12469 20.5608 0.0576525C21.5058 -0.080863 23.5603 -0.080863 24.4955 0.0576525C24.9372 0.12104 25.3804 0.173205 25.8247 0.214098C26.1598 0.241871 26.5869 0.311832 26.775 0.369488C26.9631 0.425738 27.2886 0.496051 27.4974 0.521715C27.7063 0.549488 28.0578 0.635973 28.2786 0.715426C28.5001 0.796285 28.7511 0.860973 28.8376 0.860973C28.9241 0.860973 29.1027 0.909137 29.2331 0.969605C29.365 1.02867 29.6437 1.12746 29.854 1.18933C30.0628 1.25261 30.421 1.37742 30.652 1.46953C30.8812 1.56128 31.1889 1.68222 31.3358 1.73707C31.6065 1.83902 33.6069 2.83992 33.879 3.01043C36.0872 4.3875 37.2231 5.28714 38.7503 6.86495C40.5917 8.76831 41.8141 10.581 43.0583 13.2493C43.1462 13.4378 43.2805 13.7166 43.3575 13.8674C43.4331 14.02 43.4964 14.1985 43.4964 14.2646C43.4964 14.3314 43.5596 14.5318 43.6377 14.7108C43.8493 15.197 44.0304 15.7503 44.1158 16.1733C44.158 16.3807 44.2364 16.6373 44.2898 16.7432C44.3436 16.8486 44.4065 17.1169 44.4315 17.3366C44.4561 17.556 44.5289 17.916 44.5908 18.1343C44.9494 19.3757 45.1276 23.033 44.9107 24.6505C44.8464 25.1311 44.7736 25.7122 44.749 25.9414C44.7075 26.3341 44.5001 27.3491 44.3229 28.0315L44.1401 28.7539C43.7955 30.1451 42.944 32.1268 41.9045 33.9602C41.4924 34.688 40.1112 36.656 39.8503 36.8866C39.8267 36.907 39.71 37.0448 39.5919 37.19C39.4738 37.337 39.0948 37.7476 38.7517 38.102C37.2396 39.6633 36.02 40.6287 33.879 41.9583C33.6252 42.1161 31.4719 43.168 31.0693 43.3315C30.8605 43.4151 30.5117 43.5565 30.2948 43.6444C30.0793 43.7312 29.8389 43.804 29.7633 43.8054C29.6877 43.8064 29.4887 43.8739 29.321 43.9548C29.1537 44.0356 28.9406 44.1031 28.846 44.1046C28.7525 44.106 28.4794 44.1721 28.2389 44.2515C27.9988 44.3324 27.6648 44.4192 27.4971 44.4449C27.3298 44.4712 26.9715 44.5426 26.6994 44.6031C26.4276 44.6635 25.606 44.7817 24.8759 44.8653C23.247 45.0555 21.6013 45.0519 19.9733 44.8544ZM21.6267 40.4599C21.7322 40.3776 21.8408 40.2138 21.8696 40.0989C21.9329 39.8447 32.1472 19.3672 32.3395 19.1106C32.5016 18.8937 32.5167 18.5463 32.3683 18.424C32.2903 18.3582 31.3123 18.3375 28.7016 18.3417C26.7434 18.3459 25.097 18.3473 25.0432 18.3459C24.9637 18.3431 24.9472 17.0346 24.9553 11.43C24.9609 7.62714 24.943 4.48101 24.9156 4.43742C24.8882 4.39312 24.7809 4.35761 24.6765 4.35761C24.5296 4.35761 24.461 4.42089 24.3707 4.64167C24.2001 5.0523 23.7291 5.98464 21.4358 10.4372C20.9595 11.3612 20.4843 12.2858 20.0102 13.211C19.6038 14.0062 18.9626 15.2546 18.5875 15.9848C17.5778 17.9477 16.5702 19.9116 15.5647 21.8767C13.8305 25.2643 13.6206 25.6683 13.546 25.7576C13.4019 25.9319 13.3235 26.3341 13.4047 26.4853C13.4786 26.6238 13.6259 26.6294 17.287 26.6238C19.3799 26.6214 21.106 26.6323 21.124 26.6484C21.1721 26.698 21.1542 39.7652 21.1046 40.0767C21.0719 40.2813 21.0937 40.3896 21.1873 40.4831C21.349 40.6452 21.3933 40.6438 21.6267 40.4599Z" fill="white"/>
</g>
<defs>
<clipPath id="clip0_531_9516">
<rect width="45" height="45" fill="white"/>
</clipPath>
</defs>
</svg>
