<svg width="45" height="45" viewBox="0 0 45 45" fill="none" xmlns="http://www.w3.org/2000/svg">
<g clip-path="url(#clip0_626_36670)">
<path d="M28.1313 18.1969C27.3648 18.3937 26.732 18.4992 26.0852 18.7312C25.5719 18.8648 25.0516 19.0054 24.4539 19.1601L24.4117 19.1672C24.1164 19.2515 24.0883 19.2586 23.8141 18.9422C23.4836 18.5695 23.2445 18.3304 22.7875 18.1054C21.4023 17.4304 20.0664 17.6273 18.8219 18.4359C17.3313 19.3992 16.5648 20.8265 16.5859 22.5984C16.607 24.3562 17.8094 25.7976 19.4828 26.0367C21.0297 26.2336 22.2813 25.7133 23.2656 24.5953C23.4133 24.4125 23.5469 24.2226 23.6945 24.0117C23.7508 23.9414 23.8 23.864 23.8563 23.7797H19.6305C19.1734 23.7797 19.0609 23.4984 19.2156 23.1258C19.4969 22.4437 20.0242 21.3047 20.3336 20.7351C20.3969 20.6086 20.5516 20.3273 20.8188 20.3273H27.9273C28.2438 19.3851 28.757 18.4359 29.4461 17.5359C31.0422 15.4336 32.9125 14.3367 35.5773 13.8797C37.8133 13.4859 39.9156 13.7039 41.8281 14.9976C43.5578 16.1789 44.6266 17.782 44.9148 19.8844C45.2875 22.8445 44.4297 25.2492 42.3344 27.3094C40.9492 28.7789 39.1773 29.7 37.1383 30.1148C36.7445 30.1851 36.3578 30.2203 35.9781 30.2554C35.7742 30.2695 35.5773 30.2906 35.3805 30.3117C33.3906 30.2695 31.5695 29.7 30.0367 28.3851C28.9609 27.45 28.2156 26.3039 27.85 24.975C27.5898 25.4883 27.2875 25.9875 26.8656 26.4586C25.3469 28.5398 23.2867 29.8336 20.6852 30.1781C18.5336 30.4664 16.5438 30.0515 14.7859 28.7367C13.1688 27.5062 12.2477 25.889 12.0086 23.8711C11.7203 21.4804 12.4234 19.2726 13.8648 17.4515C15.4258 15.4125 17.4859 14.1187 20.0031 13.6617C22.0633 13.2258 24.032 13.5281 25.8109 14.7375C26.9711 15.5039 27.8008 16.5515 28.3492 17.8242C28.4828 18.0211 28.3914 18.1336 28.1313 18.1969ZM3.39531 18.5906C3.30391 18.5906 3.28281 18.5484 3.33203 18.4781L3.79609 17.8875C3.83828 17.8242 3.95078 17.782 4.03516 17.782H11.8609C11.9453 17.782 11.9664 17.8453 11.9242 17.9086L11.5516 18.4781C11.5094 18.5484 11.3969 18.6117 11.3336 18.6117L3.40234 18.5906H3.39531ZM0.0835938 20.6086C-0.00078125 20.6086 -0.0289063 20.5594 0.0203125 20.4961L0.477344 19.9054C0.519531 19.8422 0.632031 19.7929 0.716406 19.7929H10.7078C10.7922 19.7929 10.8344 19.8633 10.8133 19.9265L10.6375 20.4539C10.6164 20.5383 10.532 20.5875 10.4406 20.5875L0.0835938 20.6086ZM5.32188 22.4929C5.27969 22.5562 5.30078 22.6195 5.38516 22.6195L10.1664 22.6406C10.2297 22.6406 10.3211 22.5773 10.3211 22.4929L10.3633 21.9656C10.3633 21.8742 10.3211 21.8109 10.2297 21.8109H5.84922C5.76484 21.8109 5.67344 21.8742 5.63125 21.9445L5.32188 22.4929ZM40.5836 21.2273C40.5695 21.0445 40.5625 20.8898 40.5344 20.7351C40.1406 18.5695 38.1438 17.339 36.0625 17.8242C34.0234 18.2812 32.7086 19.575 32.2305 21.6351C31.8367 23.3437 32.6664 25.0734 34.2414 25.7765C35.4508 26.3039 36.6531 26.2406 37.8133 25.6429C39.543 24.6867 40.4852 23.3437 40.5977 21.4594C40.5906 21.375 40.5906 21.2976 40.5836 21.2273Z" fill="white"/>
</g>
<defs>
<clipPath id="clip0_626_36670">
<rect width="45" height="45" fill="white"/>
</clipPath>
</defs>
</svg>
