<svg width="45" height="45" viewBox="0 0 45 45" fill="none" xmlns="http://www.w3.org/2000/svg">
<path d="M21.5625 25.3125H30.9375V21.5625H21.5625V25.3125ZM18.75 28.125V18.75H33.75V28.125H18.75ZM7.5 37.5C6.46875 37.5 5.58625 37.1331 4.8525 36.3994C4.11875 35.6656 3.75125 34.7825 3.75 33.75V11.25C3.75 10.2187 4.1175 9.33625 4.8525 8.6025C5.5875 7.86875 6.47 7.50125 7.5 7.5H37.5C38.5312 7.5 39.4144 7.8675 40.1494 8.6025C40.8844 9.3375 41.2512 10.22 41.25 11.25V33.75C41.25 34.7812 40.8831 35.6644 40.1494 36.3994C39.4156 37.1344 38.5325 37.5012 37.5 37.5H7.5ZM7.5 33.75H37.5V15H7.5V33.75Z" fill="white"/>
</svg>
