<svg width="45" height="45" viewBox="0 0 45 45" fill="none" xmlns="http://www.w3.org/2000/svg">
<g clip-path="url(#clip0_531_9524)">
<path d="M44.7901 8.00402C44.6678 7.90319 44.5125 7.85132 44.3542 7.85847C43.9196 7.85847 43.3582 8.15308 43.0559 8.31093L42.9363 8.37245C42.4295 8.61796 41.8776 8.75676 41.3149 8.78027C40.7399 8.79843 40.1657 8.8383 39.5937 8.8998C35.7581 9.2939 34.0471 12.234 32.3993 15.0768C31.5021 16.6233 30.5754 18.2299 29.3048 19.4572C29.0421 19.7122 28.7634 19.9489 28.4688 20.1674C27.154 21.1447 25.5034 21.8426 24.2191 22.3365C22.9823 22.8094 21.632 23.2341 20.3287 23.645C19.1334 24.0212 18.0053 24.377 16.9678 24.7623C16.5652 24.9104 16.1598 25.0516 15.7518 25.1859C14.8068 25.4925 14.1254 25.7273 13.1298 26.4129C12.7729 26.6553 12.4254 26.9113 12.0881 27.1804C11.2979 27.8111 10.5984 28.5478 10.0093 29.3695C9.50285 30.1277 8.91765 30.8301 8.26347 31.4652C8.05324 31.6705 7.68023 31.7718 7.1216 31.7718C6.46769 31.7718 5.67492 31.6368 4.83609 31.494C3.97055 31.3411 3.07617 31.1952 2.30906 31.1952C1.68644 31.1952 1.20867 31.2971 0.853242 31.5021C0.853242 31.5021 0.252773 31.8519 0 32.3044L0.248555 32.4169C0.633957 32.6257 0.990807 32.8835 1.31027 33.1836C1.64354 33.4912 2.01461 33.7551 2.41453 33.969C2.54285 34.0161 2.65887 34.09 2.75555 34.1856C2.65148 34.3389 2.4975 34.5368 2.33613 34.7481C1.45125 35.9068 0.934453 36.6384 1.23047 37.0371C1.3725 37.1109 1.53105 37.1468 1.69102 37.1415C3.62109 37.1415 4.6582 36.6402 5.96953 36.0049C6.34992 35.8214 6.73664 35.6323 7.19684 35.4372C7.96394 35.1046 8.78976 34.5737 9.66551 34.0119C10.8116 33.2652 12.0097 32.4981 13.1727 32.1282C14.1283 31.8368 15.1237 31.697 16.1227 31.7138C17.3503 31.7138 18.6423 31.8776 19.8879 32.0372C20.8164 32.1574 21.7782 32.2798 22.7215 32.3367C23.0663 32.3577 23.4117 32.3685 23.7572 32.3691C24.1984 32.3705 24.6393 32.3475 25.078 32.3002L25.1835 32.2632C25.8455 31.8561 26.1555 30.9836 26.4554 30.1398C26.6491 29.5963 26.8119 29.1087 27.0696 28.7989C27.0848 28.7839 27.1012 28.7702 27.1188 28.7578C27.1308 28.7512 27.1448 28.7487 27.1583 28.7509C27.1719 28.753 27.1844 28.7597 27.1937 28.7698V28.7944C27.0408 32.0945 25.7119 34.1902 24.3678 36.0527L23.4707 37.0146C23.4707 37.0146 24.7268 37.0146 25.4419 36.7383C28.0505 35.9589 30.0185 34.2408 31.4511 31.5004C31.8043 30.7967 32.1203 30.075 32.3979 29.3382C32.4225 29.2778 32.6482 29.1639 32.6264 29.4813C32.619 29.5752 32.6123 29.6793 32.605 29.7886C32.605 29.8526 32.605 29.9187 32.5927 29.9848C32.5561 30.4453 32.4471 31.4177 32.4471 31.4177L33.2522 30.9864C35.1946 29.7594 36.6919 27.2834 37.8278 23.4309C38.3003 21.8257 38.6469 20.2317 38.9517 18.8279C39.317 17.1401 39.632 15.6937 39.9923 15.1323C40.5583 14.2513 41.4221 13.6557 42.2582 13.0778C42.3717 12.9997 42.4867 12.9241 42.5992 12.8412C43.6496 12.1036 44.6945 11.2521 44.9251 9.6641V9.62894C45.0918 8.44417 44.9508 8.14218 44.7901 8.00402Z" fill="white"/>
</g>
<defs>
<clipPath id="clip0_531_9524">
<rect width="45" height="45" fill="white"/>
</clipPath>
</defs>
</svg>
