<svg width="45" height="45" viewBox="0 0 45 45" fill="none" xmlns="http://www.w3.org/2000/svg">
<g clip-path="url(#clip0_626_36674)">
<path d="M41.3751 34.5376C38.9237 34.4705 37.0519 34.6997 35.4506 35.374C34.996 35.5663 34.2711 35.5705 34.1969 36.1404C34.4469 36.4027 34.4852 36.794 34.6845 37.1167C35.0663 37.7333 35.7118 38.5627 36.2873 38.9983C36.9162 39.4722 37.5645 39.9802 38.2388 40.3908C39.439 41.1227 40.7781 41.5404 41.9316 42.2724C42.6129 42.7048 43.2883 43.2486 43.9531 43.7363C44.2815 43.9767 44.5026 44.3515 44.928 44.5027V44.4341C44.704 44.1486 44.6464 43.7556 44.4404 43.4578L43.534 42.5515C42.6481 41.3759 41.5235 40.3433 40.3288 39.4862C39.3758 38.801 37.2418 37.8768 36.8449 36.7686L36.7749 36.6987C37.4506 36.6217 38.2416 36.3774 38.8663 36.2097C39.914 35.9295 40.8509 36.0022 41.9316 35.722L43.3955 35.3047V35.0259C42.8488 34.4656 42.459 33.7227 41.8631 33.2147C40.3018 31.8854 38.5988 30.5586 36.8452 29.4519C35.8728 28.8381 34.6712 28.4384 33.64 27.9181C33.2927 27.7437 32.6841 27.6516 32.4549 27.3605C31.9138 26.6711 31.6185 25.7964 31.2012 24.9916C30.3265 23.3066 29.468 21.4679 28.6921 19.695C28.1634 18.4867 27.8188 17.2945 27.1597 16.211C23.9956 11.009 20.59 7.86845 15.3138 4.78243C14.1905 4.12607 12.8391 3.86661 11.4107 3.52735L9.11045 3.38849C8.64216 3.19337 8.15595 2.62068 7.7165 2.34189C5.96888 1.23693 1.48505 -1.16495 0.189899 1.99349C-0.627133 3.98614 1.41228 5.93064 2.14142 6.94138C2.65365 7.64872 3.30861 8.44361 3.67388 9.24025C3.91576 9.76478 3.95689 10.2893 4.16291 10.843C4.66845 12.2081 5.11037 13.6938 5.76568 14.9545C6.0965 15.593 6.46177 16.2648 6.88084 16.8361C7.13642 17.1863 7.57693 17.3417 7.64724 17.8813C7.21588 18.4842 7.19127 19.4194 6.94974 20.1816C5.8606 23.6163 6.27263 27.8843 7.85607 30.425C8.34228 31.2066 9.48767 32.879 11.0613 32.2377C12.4387 31.6759 12.1311 29.9388 12.5252 28.405C12.6145 28.0576 12.5596 27.802 12.734 27.5686V27.6386L13.9891 30.1463C14.9176 31.6418 16.5639 33.2045 17.9607 34.2592C18.6845 34.8059 19.2544 35.7505 20.191 36.0704V36.0005H20.121C19.9396 35.7175 19.6556 35.6008 19.4249 35.3743C18.8797 34.8389 18.2729 34.1741 17.8222 33.5617C16.552 31.8383 15.4298 29.9511 14.4081 27.9877C13.9191 27.0497 13.4948 26.0158 13.0828 25.0613C12.9235 24.6932 12.9263 24.1356 12.5951 23.9461C12.1448 24.645 11.48 25.211 11.1312 26.0361C10.5751 27.3559 10.5023 28.9668 10.2963 30.6353C10.1739 30.6792 10.2277 30.649 10.1563 30.7052C9.18533 30.4704 8.84502 29.472 8.48361 28.6138C7.57166 26.4468 7.4015 22.9572 8.20482 20.4607C8.41224 19.8152 9.35162 17.7829 8.97123 17.1856C8.78982 16.5911 8.19111 16.2462 7.85607 15.7916C7.44123 15.2298 7.02814 14.4898 6.74091 13.8401C5.99384 12.1508 5.6465 10.2531 4.85935 8.54486C4.48318 7.72782 3.84861 6.90095 3.32689 6.17603C2.74857 5.3713 2.10205 4.77786 1.65416 3.80579C1.4949 3.45985 1.27939 2.90614 1.51423 2.55212C1.58982 2.31165 1.69564 2.21146 1.93295 2.13341C2.33654 1.82157 3.46295 2.23782 3.88306 2.4122C5.00103 2.87626 5.93337 3.31853 6.88084 3.94607C7.334 4.24665 7.7942 4.82919 8.34334 4.99126H8.97088C9.95138 5.21661 11.05 5.05982 11.9672 5.3386C13.5876 5.8315 15.0392 6.5979 16.3576 7.43005C20.3731 9.96657 23.6581 13.5754 25.9046 17.8834C26.2656 18.577 26.4224 19.2376 26.741 19.9734C27.3822 21.4567 28.1911 22.9825 28.8296 24.4341C29.468 25.88 30.0889 27.3415 30.991 28.5456C31.4649 29.1788 33.2941 29.518 34.1262 29.8696C34.7098 30.1153 35.6657 30.3723 36.2177 30.7059C37.2724 31.3419 38.294 32.0999 39.2844 32.796C39.7772 33.1447 41.2988 33.9097 41.3744 34.5387L41.3751 34.5376ZM10.2249 7.98763C9.71408 7.97814 9.35302 8.04247 8.97123 8.1265V8.19646H9.03978C9.28412 8.69638 9.71408 9.01911 10.0161 9.45013L10.7122 10.914L10.7821 10.8455C11.2135 10.5407 11.4111 10.0545 11.4083 9.31161C11.2353 9.1288 11.2107 8.90239 11.0595 8.68407C10.8619 8.39439 10.4759 8.23091 10.2245 7.98798L10.2249 7.98763Z" fill="white"/>
</g>
<defs>
<clipPath id="clip0_626_36674">
<rect width="45" height="45" fill="white"/>
</clipPath>
</defs>
</svg>
