<svg width="45" height="45" viewBox="0 0 45 45" fill="none" xmlns="http://www.w3.org/2000/svg">
<g clip-path="url(#clip0_502_7392)">
<path d="M28.2867 29.0408H25.201L24.943 28.7831V21.5599C24.943 20.2746 24.4381 19.2786 22.8885 19.2438C22.0908 19.2227 21.1785 19.2438 20.2032 19.2825L20.057 19.4319V28.7796L19.7993 29.0373H16.7133L16.4556 28.7796V16.4405L16.7133 16.1828H23.6577C26.3566 16.1828 28.544 18.3695 28.544 21.0688V28.7831L28.2867 29.0408Z" fill="white"/>
<path d="M20.7218 42.153V32.8964L20.9795 32.6384H24.0722L24.3299 32.8961V42.153L24.0722 42.4107H20.9798L20.7218 42.153ZM20.7218 12.3272V3.07055L20.9795 2.8125H24.0722L24.3299 3.0702V12.3272L24.0722 12.5849H20.9798L20.7218 12.3272ZM44.7458 24.4157H32.4032L32.1455 24.158V21.0656L32.4032 20.8079H44.7458L45.0035 21.0656V24.1583L44.7458 24.4157ZM12.6004 24.4157H0.257695L0 24.158V21.0656L0.257695 20.8079H12.6004L12.858 21.0656V24.1583L12.6004 24.4157ZM9.61559 11.8884V11.4634L11.7369 9.34242H12.1616L15.4041 12.5849V14.8314L15.1045 15.1309H12.858L9.61559 11.8884ZM12.1616 35.8773H11.7369L9.61594 33.7563V33.3313L12.8584 30.0892H15.1049L15.4041 30.3884V32.6348L12.1616 35.8773Z" fill="white"/>
</g>
<defs>
<clipPath id="clip0_502_7392">
<rect width="45" height="45" fill="white"/>
</clipPath>
</defs>
</svg>
