<svg width="45" height="45" viewBox="0 0 45 45" fill="none" xmlns="http://www.w3.org/2000/svg">
<g clip-path="url(#clip0_502_7408)">
<g clip-path="url(#clip1_502_7408)">
<path d="M5.625 0C4.13316 0 2.70242 0.592632 1.64752 1.64752C0.592632 2.70242 0 4.13316 0 5.625L0 39.375C0 40.8668 0.592632 42.2976 1.64752 43.3525C2.70242 44.4074 4.13316 45 5.625 45H39.375C40.8668 45 42.2976 44.4074 43.3525 43.3525C44.4074 42.2976 45 40.8668 45 39.375V5.625C45 4.13316 44.4074 2.70242 43.3525 1.64752C42.2976 0.592632 40.8668 0 39.375 0L5.625 0ZM23.1356 15.1453C21.4931 15.1453 20.5003 15.6066 20.5003 16.8131C20.5003 18.1294 22.2075 18.7087 24.3253 19.4287C27.7791 20.5959 32.3241 22.1372 32.3438 27.8466C32.3438 33.3787 27.9112 36.5625 21.4594 36.5625C18.5488 36.5503 15.6705 35.9515 12.9966 34.8019V27.4444C15.6009 28.8675 18.8888 29.9194 21.4622 29.9194C23.1975 29.9194 24.4378 29.4553 24.4378 28.0322C24.4378 26.5753 22.5872 25.9087 20.3512 25.1044C16.9481 23.8781 12.6562 22.3313 12.6562 17.1844C12.6562 11.7141 16.8412 8.4375 23.1356 8.4375C25.7661 8.41397 28.3765 8.89615 30.825 9.85781V17.1225C28.4681 15.8569 25.4925 15.1453 23.1356 15.1453Z" fill="white"/>
</g>
</g>
<defs>
<clipPath id="clip0_502_7408">
<rect width="45" height="45" fill="white"/>
</clipPath>
<clipPath id="clip1_502_7408">
<rect width="45" height="45" fill="white"/>
</clipPath>
</defs>
</svg>
