<svg width="45" height="45" viewBox="0 0 45 45" fill="none" xmlns="http://www.w3.org/2000/svg">
<path d="M19.6913 42.1969H17.8163V44.0719H19.6913V42.1969ZM17.8163 40.3219V42.1969H14.0663V40.3219H10.3125V38.4469H8.4375V36.5719H6.5625V34.695H4.6875V30.945H14.0625V36.57H15.9375V40.32L17.8163 40.3219Z" fill="white"/>
<path d="M30.9433 30.9432V34.6932H29.0683V38.445H27.1933V42.195H25.3183V44.0719H21.5683V42.1969H19.6914V38.4469H17.8164V34.695H15.9414V30.945L30.9433 30.9432ZM29.0683 42.1969L27.1933 42.195V44.0719H29.0683V42.1969ZM42.197 30.9432V34.6932H40.322V36.57H38.447V38.445H36.572V40.32H32.8202V42.195H29.0702V40.32H30.9452V36.57H32.8202V30.945L42.197 30.9432ZM30.9433 19.6913H27.1933V21.5663H30.9433V19.6913ZM30.9433 23.4413H27.1933V25.3163H30.9433V23.4413Z" fill="white"/>
<path d="M2.8125 15.9394V29.0681H44.0719V15.9394H2.8125ZM14.0644 23.4412H12.1894V27.1912H10.3144V23.4412H8.43937V27.1912H6.56437V23.4412H4.68937V17.8162H6.56437V23.4412H8.43937V21.5662H10.3144V23.4412H12.1894V17.8162H14.0644V23.4412ZM23.4412 19.6912H17.8162V21.5662H21.5662V23.4412H17.8162V25.3162H23.4412V27.1912H15.9412V17.8162H23.4412V19.6912ZM32.82 21.5662H30.945V23.4412H32.82V25.3162H30.945V27.1912H25.3181V17.8162H30.9431V19.6912H32.8181L32.82 21.5662ZM42.195 21.5662H40.32V23.4412H42.195V25.3162H40.32V27.1912H34.695V25.3162H40.32V23.4412H36.57V21.5662H40.32V19.6912H34.695V17.8162H40.32V19.6912H42.195V21.5662ZM42.1969 12.1875V14.0644H32.82V10.3144H30.945V6.56437H29.07V4.6875H32.82V6.5625H36.57V8.4375H38.445V10.3125H40.32V12.1875H42.1969ZM29.0681 2.8125H27.1931V4.6875H29.07L29.0681 2.8125ZM30.9431 12.1894V14.0644H15.9412V12.1894H17.8162V8.43937H19.6912V4.68937H21.5662V2.8125H25.3162V4.6875H27.1931V8.4375H29.0681V12.1894H30.9431ZM19.6912 2.8125H17.8162V4.6875L19.6912 4.68937V2.8125ZM17.8162 4.6875V6.5625H15.9412V10.3125H14.0662V14.0644H4.6875V12.1894H6.5625V10.3144H8.4375V8.43937H10.3125V6.56437H14.0644V4.6875H17.8162Z" fill="white"/>
</svg>
